<svg xmlns="http://www.w3.org/2000/svg" id="newBallObj.fw-Page%201" viewBox="0 0 200 200" style="background-color:#ffffff00" version="1.1" xml:space="preserve" x="0px" y="0px" width="200px" height="200px">
	<defs>
		<linearGradient id="gradient1" x1="50%" y1="0%" x2="50%" y2="100%">
			<stop stop-color="#000000" stop-opacity="0" offset="0%"/>
            <stop stop-color="#000000" stop-opacity="0" offset="50%"/>
            <stop stop-color="#000000" stop-opacity="0.498" offset="90%"/>
            <stop stop-color="#000000" stop-opacity="0.498" offset="100%"/>
		</linearGradient>
        <filter id="filter1" x="-100%" y="-100%" width="300%" height="300%">
			<!-- Gaussian Blur... -->
            <feGaussianBlur in="SourceGraphic" stdDeviation="2" result="Gaussian_Blur___1"/>
		</filter>
        <linearGradient id="gradient2" x1="50%" y1="0%" x2="50%" y2="100%">
			<stop stop-color="#ffffff" stop-opacity="0.8471" offset="0%"/>
            <stop stop-color="#ffffff" stop-opacity="0.6392" offset="24.8148%"/>
            <stop stop-color="#ffffff" stop-opacity="0.498" offset="39.6296%"/>
            <stop stop-color="#ffffff" stop-opacity="0.4471" offset="54.4444%"/>
            <stop stop-color="#ffffff" stop-opacity="0.2863" offset="100%"/>
		</linearGradient>
        <linearGradient id="gradient3" x1="50%" y1="0%" x2="50%" y2="100%">
			<stop stop-color="#000000" stop-opacity="0" offset="0%"/>
            <stop stop-color="#000000" stop-opacity="0" offset="50%"/>
            <stop stop-color="#000000" stop-opacity="0.498" offset="90%"/>
            <stop stop-color="#000000" stop-opacity="0.498" offset="100%"/>
		</linearGradient>
        <filter id="filter2" x="-100%" y="-100%" width="300%" height="300%">
			<!-- Gaussian Blur... -->
            <feGaussianBlur in="SourceGraphic" stdDeviation="2" result="Gaussian_Blur___2"/>
		</filter>
        <linearGradient id="gradient4" x1="50%" y1="0%" x2="50%" y2="100%">
			<stop stop-color="#ffffff" stop-opacity="0.8471" offset="0%"/>
            <stop stop-color="#ffffff" stop-opacity="0.6392" offset="24.8148%"/>
            <stop stop-color="#ffffff" stop-opacity="0.498" offset="39.6296%"/>
            <stop stop-color="#ffffff" stop-opacity="0.4471" offset="54.4444%"/>
            <stop stop-color="#ffffff" stop-opacity="0.2863" offset="100%"/>
		</linearGradient>
        <linearGradient id="gradient5" x1="50%" y1="0%" x2="50%" y2="100%">
			<stop stop-color="#000000" stop-opacity="0" offset="0%"/>
            <stop stop-color="#000000" stop-opacity="0" offset="50%"/>
            <stop stop-color="#000000" stop-opacity="0.498" offset="90%"/>
            <stop stop-color="#000000" stop-opacity="0.498" offset="100%"/>
		</linearGradient>
        <filter id="filter3" x="-100%" y="-100%" width="300%" height="300%">
			<!-- Gaussian Blur... -->
            <feGaussianBlur in="SourceGraphic" stdDeviation="2" result="Gaussian_Blur___3"/>
		</filter>
        <linearGradient id="gradient6" x1="50%" y1="0%" x2="50%" y2="100%">
			<stop stop-color="#ffffff" stop-opacity="0.8471" offset="0%"/>
            <stop stop-color="#ffffff" stop-opacity="0.6392" offset="24.8148%"/>
            <stop stop-color="#ffffff" stop-opacity="0.498" offset="39.6296%"/>
            <stop stop-color="#ffffff" stop-opacity="0.4471" offset="54.4444%"/>
            <stop stop-color="#ffffff" stop-opacity="0.2863" offset="100%"/>
		</linearGradient>
	</defs>
    <g id="Layer%201">
		<g>
			<path id="background" d="M 22 53.5 C 22 23.9524 45.9524 0 75.5 0 C 105.0476 0 129 23.9524 129 53.5 C 129 83.0476 105.0476 107 75.5 107 C 45.9524 107 22 83.0476 22 53.5 Z" fill="#0000ff"/>
            <path id="background2" d="M 22 53.5 C 22 23.9524 45.9524 0 75.5 0 C 105.0476 0 129 23.9524 129 53.5 C 129 83.0476 105.0476 107 75.5 107 C 45.9524 107 22 83.0476 22 53.5 Z" fill="url(#gradient1)"/>
            <path id="shine" filter="url(#filter1)" d="M 113.1728 39.1361 C 118.7508 41.0756 122.3987 38.4678 120.317 32.945 C 113.2816 14.2803 95.8689 1.07 75.5 1.07 C 55.1311 1.07 37.7184 14.2803 30.683 32.945 C 28.6014 38.4678 32.2492 41.0756 37.8272 39.1361 C 48.6831 35.3614 61.6157 33.17 75.5 33.17 C 89.3843 33.17 102.3168 35.3614 113.1728 39.1361 Z" fill="url(#gradient2)"/>
		</g>
        <g>
			<path id="background3" d="M 93 103.5 C 93 73.9524 116.9524 50 146.5 50 C 176.0476 50 200 73.9524 200 103.5 C 200 133.0476 176.0476 157 146.5 157 C 116.9524 157 93 133.0476 93 103.5 Z" fill="#d93600"/>
            <path id="background4" d="M 93 103.5 C 93 73.9524 116.9524 50 146.5 50 C 176.0476 50 200 73.9524 200 103.5 C 200 133.0476 176.0476 157 146.5 157 C 116.9524 157 93 133.0476 93 103.5 Z" fill="url(#gradient3)"/>
            <path id="shine2" filter="url(#filter2)" d="M 184.1728 89.1361 C 189.7508 91.0756 193.3987 88.4678 191.317 82.945 C 184.2816 64.2803 166.8689 51.07 146.5 51.07 C 126.1311 51.07 108.7184 64.2803 101.683 82.945 C 99.6014 88.4678 103.2492 91.0756 108.8272 89.1361 C 119.6832 85.3614 132.6157 83.17 146.5 83.17 C 160.3843 83.17 173.3168 85.3614 184.1728 89.1361 Z" fill="url(#gradient4)"/>
		</g>
        <g>
			<path id="background5" d="M 0 140.5 C 0 107.6386 26.6386 81 59.5 81 C 92.3614 81 119 107.6386 119 140.5 C 119 173.3614 92.3614 200 59.5 200 C 26.6386 200 0 173.3614 0 140.5 Z" fill="#ecec00"/>
            <path id="background6" d="M 0 140.5 C 0 107.6386 26.6386 81 59.5 81 C 92.3614 81 119 107.6386 119 140.5 C 119 173.3614 92.3614 200 59.5 200 C 26.6386 200 0 173.3614 0 140.5 Z" fill="url(#gradient5)"/>
            <path id="shine3" filter="url(#filter3)" d="M 101.3978 124.5252 C 107.6013 126.6822 111.6583 123.7819 109.3432 117.6398 C 101.5188 96.8818 82.1533 82.19 59.5 82.19 C 36.8467 82.19 17.4812 96.8818 9.6568 117.6398 C 7.3417 123.7819 11.3987 126.6822 17.6022 124.5252 C 29.6757 120.3271 44.0586 117.89 59.5 117.89 C 74.9414 117.89 89.3243 120.3271 101.3978 124.5252 Z" fill="url(#gradient6)"/>
		</g>
	</g>
</svg>
