<svg xmlns="http://www.w3.org/2000/svg" version="1.1" id="Capa_1" x="0" y="0" viewBox="0 0 90 64" xml:space="preserve">
  <style>
    .st0{fill:#f3afb2}.st1{fill:#aedbe8}.st2{fill:#fcd08d}.st3{fill:#8fd0dd}.st6{fill:#3c1b43}.st9{fill:#fff}
  </style>
    <path class="st0" d="M45.6 33.5c.4 0 .7-.3.7-.7 0-.4-.3-.7-.7-.7-.4 0-.7.3-.7.7 0 .3.3.7.7.7z"/>
    <path class="st1" d="M47.8 33.5c.4 0 .7-.3.7-.7 0-.4-.3-.7-.7-.7s-.7.3-.7.7c0 .3.3.7.7.7z"/>
    <path class="st2" d="M46.3 35.5c.4 0 .7-.3.7-.7 0-.4-.3-.7-.7-.7-.4 0-.7.3-.7.7 0 .4.3.7.7.7zM43.9 34.7c.4 0 .7-.3.7-.7 0-.4-.3-.7-.7-.7-.4 0-.7.3-.7.7-.1.4.3.7.7.7zM43.9 32.2c.4 0 .7-.3.7-.7 0-.4-.3-.7-.7-.7-.4 0-.7.3-.7.7-.1.4.3.7.7.7zM46.3 31.4c.4 0 .7-.3.7-.7 0-.4-.3-.7-.7-.7-.4 0-.7.3-.7.7 0 .4.3.7.7.7zM50 33.5c.4 0 .7-.3.7-.7 0-.4-.3-.7-.7-.7-.4 0-.7.3-.7.7 0 .3.3.7.7.7zM49.2 36c.4 0 .7-.3.7-.7 0-.4-.3-.7-.7-.7-.4 0-.7.3-.7.7-.1.4.3.7.7.7z"/>
    <path class="st3" d="M47 37.6c.4 0 .7-.3.7-.7 0-.4-.3-.7-.7-.7-.4 0-.7.3-.7.7 0 .4.3.7.7.7z"/>
    <path class="st2" d="M44.3 37.6c.4 0 .7-.3.7-.7 0-.4-.3-.7-.7-.7-.4 0-.7.3-.7.7 0 .4.3.7.7.7zM42.1 36c.4 0 .7-.3.7-.7 0-.4-.3-.7-.7-.7-.4 0-.7.3-.7.7 0 .4.3.7.7.7z"/>
    <path class="st0" d="M41.3 33.5c.4 0 .7-.3.7-.7 0-.4-.3-.7-.7-.7-.4 0-.7.3-.7.7-.1.3.3.7.7.7z"/>
    <path class="st1" d="M42.1 30.9c.4 0 .7-.3.7-.7 0-.4-.3-.7-.7-.7-.4 0-.7.3-.7.7 0 .4.3.7.7.7z"/>
    <path class="st2" d="M44.3 29.3c.4 0 .7-.3.7-.7 0-.4-.3-.7-.7-.7-.4 0-.7.3-.7.7 0 .4.3.7.7.7zM47 29.3c.4 0 .7-.3.7-.7 0-.4-.3-.7-.7-.7-.4 0-.7.3-.7.7 0 .4.3.7.7.7zM49.2 30.9c.4 0 .7-.3.7-.7 0-.4-.3-.7-.7-.7-.4 0-.7.3-.7.7-.1.4.3.7.7.7zM52.2 33.5c.4 0 .7-.3.7-.7 0-.4-.3-.7-.7-.7-.4 0-.7.3-.7.7 0 .3.3.7.7.7zM51.6 36.1c.4 0 .7-.3.7-.7 0-.4-.3-.7-.7-.7s-.7.3-.7.7c0 .4.3.7.7.7zM50 38.3c.4 0 .7-.3.7-.7 0-.4-.3-.7-.7-.7-.4 0-.7.3-.7.7 0 .4.3.7.7.7z"/>
    <path class="st1" d="M47.7 39.7c.4 0 .7-.3.7-.7 0-.4-.3-.7-.7-.7-.4 0-.7.3-.7.7-.1.4.3.7.7.7z"/>
    <path class="st0" d="M45 40c.4 0 .7-.3.7-.7 0-.4-.3-.7-.7-.7-.4 0-.7.3-.7.7-.1.3.3.7.7.7zM42.4 39.1c.4 0 .7-.3.7-.7 0-.4-.3-.7-.7-.7-.4 0-.7.3-.7.7-.1.4.3.7.7.7zM40.3 37.3c.4 0 .7-.3.7-.7 0-.4-.3-.7-.7-.7-.4 0-.7.3-.7.7 0 .4.3.7.7.7z"/>
    <path class="st2" d="M39.2 34.8c.4 0 .7-.3.7-.7 0-.4-.3-.7-.7-.7-.4 0-.7.3-.7.7 0 .4.3.7.7.7z"/>
    <path class="st0" d="M39.2 32.1c.4 0 .7-.3.7-.7 0-.4-.3-.7-.7-.7-.4 0-.7.3-.7.7 0 .4.3.7.7.7zM40.3 29.6c.4 0 .7-.3.7-.7 0-.4-.3-.7-.7-.7-.4 0-.7.3-.7.7 0 .4.3.7.7.7z"/>
    <path class="st2" d="M42.4 27.8c.4 0 .7-.3.7-.7 0-.4-.3-.7-.7-.7-.4 0-.7.3-.7.7-.1.4.3.7.7.7zM45 27c.4 0 .7-.3.7-.7 0-.4-.3-.7-.7-.7-.4 0-.7.3-.7.7-.1.3.3.7.7.7zM47.7 27.2c.4 0 .7-.3.7-.7 0-.4-.3-.7-.7-.7-.4 0-.7.3-.7.7-.1.4.3.7.7.7z"/>
    <path class="st0" d="M50 28.6c.4 0 .7-.3.7-.7 0-.4-.3-.7-.7-.7-.4 0-.7.3-.7.7 0 .4.3.7.7.7z"/>
    <path class="st1" d="M51.6 30.8c.4 0 .7-.3.7-.7 0-.4-.3-.7-.7-.7s-.7.3-.7.7c0 .4.3.7.7.7z"/>
    <path class="st2" d="M54.4 33.5c.4 0 .7-.3.7-.7 0-.4-.3-.7-.7-.7-.4 0-.7.3-.7.7-.1.3.3.7.7.7z"/>
    <path class="st0" d="M53.9 36.2c.4 0 .7-.3.7-.7s-.3-.7-.7-.7c-.4 0-.7.3-.7.7s.3.7.7.7z"/>
    <path class="st2" d="M52.7 38.6c.4 0 .7-.3.7-.7 0-.4-.3-.7-.7-.7-.4 0-.7.3-.7.7 0 .4.3.7.7.7zM50.8 40.5c.4 0 .7-.3.7-.7 0-.4-.3-.7-.7-.7-.4 0-.7.3-.7.7-.1.4.3.7.7.7zM48.3 41.8c.4 0 .7-.3.7-.7 0-.4-.3-.7-.7-.7-.4 0-.7.3-.7.7 0 .3.3.7.7.7zM45.6 42.2c.4 0 .7-.3.7-.7 0-.4-.3-.7-.7-.7-.4 0-.7.3-.7.7 0 .4.3.7.7.7zM42.9 41.8c.4 0 .7-.3.7-.7 0-.4-.3-.7-.7-.7-.4 0-.7.3-.7.7 0 .3.3.7.7.7z"/>
    <path class="st1" d="M40.5 40.5c.4 0 .7-.3.7-.7 0-.4-.3-.7-.7-.7-.4 0-.7.3-.7.7 0 .4.3.7.7.7z"/>
    <path class="st2" d="M38.6 38.6c.4 0 .7-.3.7-.7 0-.4-.3-.7-.7-.7-.4 0-.7.3-.7.7 0 .4.3.7.7.7zM37.3 36.2c.4 0 .7-.3.7-.7s-.3-.7-.7-.7c-.4 0-.7.3-.7.7s.3.7.7.7zM36.9 33.5c.4 0 .7-.3.7-.7 0-.4-.3-.7-.7-.7-.4 0-.7.3-.7.7 0 .3.3.7.7.7zM37.3 30.8c.4 0 .7-.3.7-.7 0-.4-.3-.7-.7-.7-.4 0-.7.3-.7.7 0 .3.3.7.7.7zM38.6 28.3c.4 0 .7-.3.7-.7 0-.4-.3-.7-.7-.7-.4 0-.7.3-.7.7 0 .4.3.7.7.7zM40.5 26.4c.4 0 .7-.3.7-.7 0-.4-.3-.7-.7-.7-.4 0-.7.3-.7.7 0 .4.3.7.7.7zM42.9 25.2c.4 0 .7-.3.7-.7 0-.4-.3-.7-.7-.7-.4 0-.7.3-.7.7 0 .3.3.7.7.7z"/>
    <path class="st3" d="M45.6 24.7c.4 0 .7-.3.7-.7 0-.4-.3-.7-.7-.7-.4 0-.7.3-.7.7 0 .4.3.7.7.7z"/>
    <path class="st1" d="M48.3 25.2c.4 0 .7-.3.7-.7 0-.4-.3-.7-.7-.7-.4 0-.7.3-.7.7 0 .3.3.7.7.7z"/>
    <path class="st3" d="M50.8 26.4c.4 0 .7-.3.7-.7 0-.4-.3-.7-.7-.7-.4 0-.7.3-.7.7-.1.4.3.7.7.7z"/>
    <path class="st2" d="M52.7 28.3c.4 0 .7-.3.7-.7 0-.4-.3-.7-.7-.7-.4 0-.7.3-.7.7 0 .4.3.7.7.7z"/>
    <path class="st1" d="M53.9 30.8c.4 0 .7-.3.7-.7 0-.4-.3-.7-.7-.7-.4 0-.7.3-.7.7 0 .3.3.7.7.7zM56.6 33.5c.4 0 .7-.3.7-.7 0-.4-.3-.7-.7-.7-.4 0-.7.3-.7.7-.1.3.2.7.7.7zM56.2 36.2c.4 0 .7-.3.7-.7 0-.4-.3-.7-.7-.7-.4 0-.7.3-.7.7 0 .3.3.7.7.7zM55.2 38.7c.4 0 .7-.3.7-.7 0-.4-.3-.7-.7-.7-.4 0-.7.3-.7.7 0 .4.3.7.7.7zM53.6 40.9c.4 0 .7-.3.7-.7 0-.4-.3-.7-.7-.7-.4 0-.7.3-.7.7 0 .4.3.7.7.7zM51.5 42.7c.4 0 .7-.3.7-.7 0-.4-.3-.7-.7-.7-.4 0-.7.3-.7.7 0 .3.3.7.7.7z"/>
    <path class="st0" d="M49 43.8c.4 0 .7-.3.7-.7 0-.4-.3-.7-.7-.7-.4 0-.7.3-.7.7 0 .4.3.7.7.7z"/>
    <path class="st1" d="M46.3 44.3c.4 0 .7-.3.7-.7 0-.4-.3-.7-.7-.7-.4 0-.7.3-.7.7 0 .4.3.7.7.7zM43.6 44.2c.4 0 .7-.3.7-.7 0-.4-.3-.7-.7-.7-.4 0-.7.3-.7.7 0 .3.3.7.7.7z"/>
    <path class="st3" d="M41 43.3c.4 0 .7-.3.7-.7 0-.4-.3-.7-.7-.7-.4 0-.7.3-.7.7 0 .4.3.7.7.7z"/>
    <path class="st2" d="M38.7 41.9c.4 0 .7-.3.7-.7 0-.4-.3-.7-.7-.7-.4 0-.7.3-.7.7 0 .3.3.7.7.7z"/>
    <path class="st1" d="M36.8 39.9c.4 0 .7-.3.7-.7 0-.4-.3-.7-.7-.7-.4 0-.7.3-.7.7 0 .3.3.7.7.7zM35.5 37.5c.4 0 .7-.3.7-.7 0-.4-.3-.7-.7-.7-.4 0-.7.3-.7.7 0 .3.3.7.7.7zM34.8 34.8c.4 0 .7-.3.7-.7 0-.4-.3-.7-.7-.7-.4 0-.7.3-.7.7 0 .4.3.7.7.7zM34.8 32.1c.4 0 .7-.3.7-.7s-.3-.7-.7-.7c-.4 0-.7.3-.7.7s.3.7.7.7zM35.5 29.4c.4 0 .7-.3.7-.7 0-.4-.3-.7-.7-.7-.4 0-.7.3-.7.7 0 .4.3.7.7.7z"/>
    <path class="st3" d="M36.8 27c.4 0 .7-.3.7-.7 0-.4-.3-.7-.7-.7-.4 0-.7.3-.7.7 0 .4.3.7.7.7z"/>
    <path class="st2" d="M38.7 25.1c.4 0 .7-.3.7-.7 0-.4-.3-.7-.7-.7-.4 0-.7.3-.7.7 0 .3.3.7.7.7z"/>
    <path class="st1" d="M41 23.6c.4 0 .7-.3.7-.7 0-.4-.3-.7-.7-.7-.4 0-.7.3-.7.7 0 .4.3.7.7.7zM43.6 22.7c.4 0 .7-.3.7-.7 0-.4-.3-.7-.7-.7-.4 0-.7.3-.7.7 0 .4.3.7.7.7zM46.3 22.6c.4 0 .7-.3.7-.7 0-.4-.3-.7-.7-.7-.4 0-.7.3-.7.7 0 .3.3.7.7.7z"/>
    <path class="st2" d="M49 23.1c.4 0 .7-.3.7-.7 0-.4-.3-.7-.7-.7-.4 0-.7.3-.7.7 0 .4.3.7.7.7z"/>
    <path class="st1" d="M51.5 24.3c.4 0 .7-.3.7-.7 0-.4-.3-.7-.7-.7-.4 0-.7.3-.7.7 0 .3.3.7.7.7zM53.6 26c.4 0 .7-.3.7-.7 0-.4-.3-.7-.7-.7-.4 0-.7.3-.7.7 0 .4.3.7.7.7zM55.2 28.2c.4 0 .7-.3.7-.7 0-.4-.3-.7-.7-.7-.4 0-.7.3-.7.7 0 .4.3.7.7.7zM56.2 30.7c.4 0 .7-.3.7-.7 0-.4-.3-.7-.7-.7-.4 0-.7.3-.7.7 0 .4.3.7.7.7z"/>
    <path class="st3" d="M58.7 33.5c.4 0 .7-.3.7-.7 0-.4-.3-.7-.7-.7-.4 0-.7.3-.7.7 0 .3.3.7.7.7z"/>
    <path class="st1" d="M58.4 36.2c.4 0 .7-.3.7-.7 0-.4-.3-.7-.7-.7-.4 0-.7.3-.7.7 0 .4.3.7.7.7z"/>
    <path class="st2" d="M57.6 38.8c.4 0 .7-.3.7-.7 0-.4-.3-.7-.7-.7-.4 0-.7.3-.7.7 0 .4.3.7.7.7z"/>
    <path class="st3" d="M56.2 41.2c.4 0 .7-.3.7-.7 0-.4-.3-.7-.7-.7-.4 0-.7.3-.7.7 0 .3.3.7.7.7zM54.4 43.2c.4 0 .7-.3.7-.7 0-.4-.3-.7-.7-.7-.4 0-.7.3-.7.7 0 .4.3.7.7.7zM52.2 44.8c.4 0 .7-.3.7-.7 0-.4-.3-.7-.7-.7-.4 0-.7.3-.7.7 0 .4.3.7.7.7z"/>
    <path class="st0" d="M49.7 45.9c.4 0 .7-.3.7-.7 0-.4-.3-.7-.7-.7-.4 0-.7.3-.7.7 0 .4.3.7.7.7z"/>
    <path class="st1" d="M47 46.5c.4 0 .7-.3.7-.7 0-.4-.3-.7-.7-.7-.4 0-.7.3-.7.7 0 .4.3.7.7.7z"/>
    <path class="st3" d="M44.3 46.5c.4 0 .7-.3.7-.7 0-.4-.3-.7-.7-.7-.4 0-.7.3-.7.7-.1.4.3.7.7.7zM41.6 45.9c.4 0 .7-.3.7-.7 0-.4-.3-.7-.7-.7-.4 0-.7.3-.7.7 0 .4.3.7.7.7z"/>
    <path class="st1" d="M39.1 44.8c.4 0 .7-.3.7-.7 0-.4-.3-.7-.7-.7-.4 0-.7.3-.7.7 0 .4.3.7.7.7zM36.9 43.2c.4 0 .7-.3.7-.7 0-.4-.3-.7-.7-.7-.4 0-.7.3-.7.7 0 .4.3.7.7.7z"/>
    <path class="st3" d="M35.1 41.2c.4 0 .7-.3.7-.7 0-.4-.3-.7-.7-.7-.4 0-.7.3-.7.7-.1.3.2.7.7.7z"/>
    <path class="st2" d="M33.7 38.8c.4 0 .7-.3.7-.7 0-.4-.3-.7-.7-.7-.4 0-.7.3-.7.7 0 .4.3.7.7.7z"/>
    <path class="st3" d="M32.8 36.2c.4 0 .7-.3.7-.7 0-.4-.3-.7-.7-.7-.4 0-.7.3-.7.7 0 .4.3.7.7.7z"/>
    <path class="st1" d="M32.6 33.5c.4 0 .7-.3.7-.7 0-.4-.3-.7-.7-.7-.4 0-.7.3-.7.7-.1.3.2.7.7.7zM32.8 30.7c.4 0 .7-.3.7-.7 0-.4-.3-.7-.7-.7-.4 0-.7.3-.7.7 0 .4.3.7.7.7z"/>
    <path class="st2" d="M33.7 28.1c.4 0 .7-.3.7-.7 0-.4-.3-.7-.7-.7-.4 0-.7.3-.7.7 0 .4.3.7.7.7z"/>
    <path class="st1" d="M35.1 25.8c.4 0 .7-.3.7-.7 0-.4-.3-.7-.7-.7-.4 0-.7.3-.7.7-.1.3.2.7.7.7z"/>
    <path class="st3" d="M36.9 23.7c.4 0 .7-.3.7-.7 0-.4-.3-.7-.7-.7-.4 0-.7.3-.7.7 0 .4.3.7.7.7z"/>
    <path class="st1" d="M39.1 22.1c.4 0 .7-.3.7-.7 0-.4-.3-.7-.7-.7-.4 0-.7.3-.7.7 0 .4.3.7.7.7zM41.6 21c.4 0 .7-.3.7-.7 0-.4-.3-.7-.7-.7-.4 0-.7.3-.7.7 0 .4.3.7.7.7zM44.3 20.4c.4 0 .7-.3.7-.7 0-.4-.3-.7-.7-.7-.4 0-.7.3-.7.7-.1.4.3.7.7.7zM47 20.4c.4 0 .7-.3.7-.7 0-.4-.3-.7-.7-.7-.4 0-.7.3-.7.7 0 .4.3.7.7.7zM49.7 21c.4 0 .7-.3.7-.7 0-.4-.3-.7-.7-.7-.4 0-.7.3-.7.7 0 .4.3.7.7.7zM52.2 22.1c.4 0 .7-.3.7-.7 0-.4-.3-.7-.7-.7-.4 0-.7.3-.7.7 0 .4.3.7.7.7zM54.4 23.7c.4 0 .7-.3.7-.7 0-.4-.3-.7-.7-.7-.4 0-.7.3-.7.7 0 .4.3.7.7.7zM56.2 25.8c.4 0 .7-.3.7-.7 0-.4-.3-.7-.7-.7-.4 0-.7.3-.7.7 0 .3.3.7.7.7z"/>
    <path class="st0" d="M57.6 28.1c.4 0 .7-.3.7-.7 0-.4-.3-.7-.7-.7-.4 0-.7.3-.7.7 0 .4.3.7.7.7zM58.4 30.7c.4 0 .7-.3.7-.7 0-.4-.3-.7-.7-.7-.4 0-.7.3-.7.7 0 .4.3.7.7.7z"/>
    <path class="st2" d="M60.9 33.5c.4 0 .7-.3.7-.7 0-.4-.3-.7-.7-.7-.4 0-.7.3-.7.7 0 .3.3.7.7.7z"/>
    <path class="st0" d="M60.7 36.2c.4 0 .7-.3.7-.7 0-.4-.3-.7-.7-.7-.4 0-.7.3-.7.7-.1.4.3.7.7.7z"/>
    <path class="st2" d="M59.9 38.8c.4 0 .7-.3.7-.7 0-.4-.3-.7-.7-.7-.4 0-.7.3-.7.7 0 .4.3.7.7.7z"/>
    <path class="st0" d="M58.8 41.3c.4 0 .7-.3.7-.7 0-.4-.3-.7-.7-.7-.4 0-.7.3-.7.7-.1.4.2.7.7.7zM57.1 43.5c.4 0 .7-.3.7-.7 0-.4-.3-.7-.7-.7-.4 0-.7.3-.7.7 0 .4.3.7.7.7z"/>
    <path class="st2" d="M55.2 45.4c.4 0 .7-.3.7-.7 0-.4-.3-.7-.7-.7-.4 0-.7.3-.7.7-.1.4.3.7.7.7zM52.9 46.9c.4 0 .7-.3.7-.7 0-.4-.3-.7-.7-.7-.4 0-.7.3-.7.7-.1.4.3.7.7.7z"/>
    <path class="st0" d="M50.4 48c.4 0 .7-.3.7-.7 0-.4-.3-.7-.7-.7s-.7.3-.7.7c-.1.4.3.7.7.7z"/>
    <path class="st2" d="M47.7 48.6c.4 0 .7-.3.7-.7 0-.4-.3-.7-.7-.7-.4 0-.7.3-.7.7 0 .4.3.7.7.7z"/>
    <path class="st0" d="M45 48.7c.4 0 .7-.3.7-.7 0-.4-.3-.7-.7-.7-.4 0-.7.3-.7.7-.1.4.3.7.7.7zM42.2 48.3c.4 0 .7-.3.7-.7 0-.4-.3-.7-.7-.7-.4 0-.7.3-.7.7 0 .4.3.7.7.7z"/>
    <path class="st2" d="M39.6 47.5c.4 0 .7-.3.7-.7 0-.4-.3-.7-.7-.7-.4 0-.7.3-.7.7 0 .4.3.7.7.7zM37.2 46.2c.4 0 .7-.3.7-.7 0-.4-.3-.7-.7-.7-.4 0-.7.3-.7.7 0 .4.3.7.7.7zM35.1 44.5c.4 0 .7-.3.7-.7 0-.4-.3-.7-.7-.7-.4 0-.7.3-.7.7 0 .4.3.7.7.7z"/>
    <path class="st0" d="M33.3 42.4c.4 0 .7-.3.7-.7 0-.4-.3-.7-.7-.7-.4 0-.7.3-.7.7 0 .4.3.7.7.7z"/>
    <path class="st2" d="M31.9 40.1c.4 0 .7-.3.7-.7 0-.4-.3-.7-.7-.7-.4 0-.7.3-.7.7 0 .4.3.7.7.7zM30.9 37.5c.4 0 .7-.3.7-.7 0-.4-.3-.7-.7-.7-.4 0-.7.3-.7.7 0 .4.3.7.7.7z"/>
    <path class="st0" d="M30.4 34.8c.4 0 .7-.3.7-.7 0-.4-.3-.7-.7-.7-.4 0-.7.3-.7.7 0 .4.3.7.7.7z"/>
    <path class="st2" d="M30.4 32.1c.4 0 .7-.3.7-.7 0-.4-.3-.7-.7-.7-.4 0-.7.3-.7.7 0 .4.3.7.7.7z"/>
    <path class="st0" d="M30.9 29.4c.4 0 .7-.3.7-.7 0-.4-.3-.7-.7-.7-.4 0-.7.3-.7.7 0 .4.3.7.7.7z"/>
    <path class="st1" d="M31.9 26.8c.4 0 .7-.3.7-.7 0-.4-.3-.7-.7-.7-.4 0-.7.3-.7.7 0 .4.3.7.7.7z"/>
    <path class="st2" d="M33.3 24.5c.4 0 .7-.3.7-.7 0-.4-.3-.7-.7-.7-.4 0-.7.3-.7.7 0 .4.3.7.7.7zM35.1 22.4c.4 0 .7-.3.7-.7 0-.4-.3-.7-.7-.7-.4 0-.7.3-.7.7 0 .4.3.7.7.7zM37.2 20.7c.4 0 .7-.3.7-.7 0-.4-.3-.7-.7-.7-.4 0-.7.3-.7.7 0 .4.3.7.7.7z"/>
    <path class="st0" d="M39.6 19.4c.4 0 .7-.3.7-.7 0-.4-.3-.7-.7-.7-.4 0-.7.3-.7.7 0 .4.3.7.7.7z"/>
    <path class="st2" d="M42.2 18.6c.4 0 .7-.3.7-.7 0-.4-.3-.7-.7-.7-.4 0-.7.3-.7.7 0 .3.3.7.7.7z"/>
    <path class="st0" d="M45 18.2c.4 0 .7-.3.7-.7 0-.4-.3-.7-.7-.7-.4 0-.7.3-.7.7-.1.4.3.7.7.7z"/>
    <path class="st2" d="M47.7 18.3c.4 0 .7-.3.7-.7 0-.4-.3-.7-.7-.7-.4 0-.7.3-.7.7 0 .4.3.7.7.7z"/>
    <circle class="st2" cx="50.4" cy="18.2" r=".7"/>
    <path class="st0" d="M52.9 20c.4 0 .7-.3.7-.7 0-.4-.3-.7-.7-.7-.4 0-.7.3-.7.7 0 .4.3.7.7.7zM55.2 21.5c.4 0 .7-.3.7-.7s-.3-.7-.7-.7c-.4 0-.7.3-.7.7s.3.7.7.7z"/>
    <path class="st3" d="M57.1 23.4c.4 0 .7-.3.7-.7 0-.4-.3-.7-.7-.7-.4 0-.7.3-.7.7 0 .4.3.7.7.7z"/>
    <path class="st2" d="M58.8 25.6c.4 0 .7-.3.7-.7 0-.4-.3-.7-.7-.7-.4 0-.7.3-.7.7-.1.4.2.7.7.7z"/>
    <path class="st0" d="M59.9 28.1c.4 0 .7-.3.7-.7 0-.4-.3-.7-.7-.7-.4 0-.7.3-.7.7 0 .4.3.7.7.7z"/>
    <path class="st2" d="M60.7 30.7c.4 0 .7-.3.7-.7 0-.4-.3-.7-.7-.7-.4 0-.7.3-.7.7-.1.4.3.7.7.7zM63.1 33.5c.4 0 .7-.3.7-.7 0-.4-.3-.7-.7-.7-.4 0-.7.3-.7.7 0 .3.3.7.7.7zM62.9 36.2c.4 0 .7-.3.7-.7 0-.4-.3-.7-.7-.7-.4 0-.7.3-.7.7 0 .4.3.7.7.7zM62.2 38.9c.4 0 .7-.3.7-.7 0-.4-.3-.7-.7-.7-.4 0-.7.3-.7.7 0 .3.3.7.7.7z"/>
    <path class="st1" d="M61.2 41.4c.4 0 .7-.3.7-.7 0-.4-.3-.7-.7-.7-.4 0-.7.3-.7.7 0 .4.3.7.7.7z"/>
    <path class="st2" d="M59.8 43.7c.4 0 .7-.3.7-.7 0-.4-.3-.7-.7-.7-.4 0-.7.3-.7.7-.1.4.3.7.7.7zM58 45.8c.4 0 .7-.3.7-.7 0-.4-.3-.7-.7-.7-.4 0-.7.3-.7.7 0 .4.3.7.7.7zM55.9 47.6c.4 0 .7-.3.7-.7s-.3-.7-.7-.7c-.4 0-.7.3-.7.7s.3.7.7.7z"/>
    <path class="st1" d="M53.6 49c.4 0 .7-.3.7-.7 0-.4-.3-.7-.7-.7-.4 0-.7.3-.7.7-.1.4.3.7.7.7zM51 50.1c.4 0 .7-.3.7-.7 0-.4-.3-.7-.7-.7-.4 0-.7.3-.7.7 0 .3.3.7.7.7z"/>
    <path class="st3" d="M48.4 50.7c.4 0 .7-.3.7-.7 0-.4-.3-.7-.7-.7-.4 0-.7.3-.7.7-.1.4.3.7.7.7zM45.6 50.9c.4 0 .7-.3.7-.7 0-.4-.3-.7-.7-.7-.4 0-.7.3-.7.7 0 .4.3.7.7.7z"/>
    <path class="st1" d="M42.9 50.7c.4 0 .7-.3.7-.7 0-.4-.3-.7-.7-.7-.4 0-.7.3-.7.7 0 .4.3.7.7.7z"/>
    <path class="st3" d="M40.2 50.1c.4 0 .7-.3.7-.7 0-.4-.3-.7-.7-.7-.4 0-.7.3-.7.7 0 .3.3.7.7.7zM37.7 49c.4 0 .7-.3.7-.7 0-.4-.3-.7-.7-.7-.4 0-.7.3-.7.7 0 .4.3.7.7.7z"/>
    <path class="st2" d="M35.4 47.6c.4 0 .7-.3.7-.7s-.3-.7-.7-.7c-.4 0-.7.3-.7.7s.3.7.7.7z"/>
    <path class="st1" d="M33.3 45.8c.4 0 .7-.3.7-.7 0-.4-.3-.7-.7-.7-.4 0-.7.3-.7.7 0 .4.3.7.7.7zM31.5 43.7c.4 0 .7-.3.7-.7 0-.4-.3-.7-.7-.7-.4 0-.7.3-.7.7 0 .4.3.7.7.7zM30.1 41.4c.4 0 .7-.3.7-.7 0-.4-.3-.7-.7-.7-.4 0-.7.3-.7.7 0 .4.3.7.7.7zM29 38.9c.4 0 .7-.3.7-.7 0-.4-.3-.7-.7-.7-.4 0-.7.3-.7.7 0 .3.3.7.7.7z"/>
    <path class="st3" d="M28.4 36.2c.4 0 .7-.3.7-.7 0-.4-.3-.7-.7-.7-.4 0-.7.3-.7.7 0 .4.3.7.7.7z"/>
    <path class="st1" d="M28.2 33.5c.4 0 .7-.3.7-.7 0-.4-.3-.7-.7-.7-.4 0-.7.3-.7.7 0 .3.3.7.7.7z"/>
    <path class="st3" d="M28.4 30.7c.4 0 .7-.3.7-.7 0-.4-.3-.7-.7-.7-.4 0-.7.3-.7.7 0 .4.3.7.7.7z"/>
    <path class="st1" d="M29 28.1c.4 0 .7-.3.7-.7 0-.4-.3-.7-.7-.7-.4 0-.7.3-.7.7 0 .3.3.7.7.7z"/>
    <path class="st3" d="M30.1 25.5c.4 0 .7-.3.7-.7 0-.4-.3-.7-.7-.7-.4 0-.7.3-.7.7 0 .4.3.7.7.7z"/>
    <path class="st1" d="M31.5 23.2c.4 0 .7-.3.7-.7 0-.4-.3-.7-.7-.7-.4 0-.7.3-.7.7 0 .4.3.7.7.7z"/>
    <path class="st2" d="M33.3 21.1c.4 0 .7-.3.7-.7 0-.4-.3-.7-.7-.7-.4 0-.7.3-.7.7 0 .4.3.7.7.7z"/>
    <path class="st1" d="M35.4 19.3c.4 0 .7-.3.7-.7 0-.4-.3-.7-.7-.7-.4 0-.7.3-.7.7 0 .4.3.7.7.7z"/>
    <path class="st3" d="M37.7 17.9c.4 0 .7-.3.7-.7 0-.4-.3-.7-.7-.7-.4 0-.7.3-.7.7 0 .4.3.7.7.7zM40.2 16.9c.4 0 .7-.3.7-.7 0-.4-.3-.7-.7-.7-.4 0-.7.3-.7.7 0 .3.3.7.7.7z"/>
    <path class="st1" d="M42.9 16.2c.4 0 .7-.3.7-.7 0-.4-.3-.7-.7-.7-.4 0-.7.3-.7.7 0 .4.3.7.7.7zM45.6 16c.4 0 .7-.3.7-.7 0-.4-.3-.7-.7-.7s-.7.3-.7.7c0 .4.3.7.7.7zM48.4 16.2c.4 0 .7-.3.7-.7 0-.4-.3-.7-.7-.7-.4 0-.7.3-.7.7-.1.4.3.7.7.7zM51 16.8c.4 0 .7-.3.7-.7 0-.4-.3-.7-.7-.7-.4 0-.7.3-.7.7 0 .4.3.7.7.7zM53.6 17.9c.4 0 .7-.3.7-.7 0-.4-.3-.7-.7-.7-.4 0-.7.3-.7.7 0 .4.3.7.7.7zM55.9 19.3c.4 0 .7-.3.7-.7 0-.4-.3-.7-.7-.7-.4 0-.7.3-.7.7 0 .4.3.7.7.7z"/>
    <path class="st3" d="M58 21.1c.4 0 .7-.3.7-.7 0-.4-.3-.7-.7-.7-.4 0-.7.3-.7.7 0 .4.3.7.7.7z"/>
    <path class="st2" d="M59.8 23.2c.4 0 .7-.3.7-.7 0-.4-.3-.7-.7-.7-.4 0-.7.3-.7.7-.1.4.3.7.7.7z"/>
    <path class="st3" d="M61.2 25.5c.4 0 .7-.3.7-.7 0-.4-.3-.7-.7-.7-.4 0-.7.3-.7.7 0 .4.3.7.7.7z"/>
    <path class="st1" d="M62.2 28.1c.4 0 .7-.3.7-.7 0-.4-.3-.7-.7-.7-.4 0-.7.3-.7.7 0 .3.3.7.7.7z"/>
    <path class="st3" d="M62.9 30.7c.4 0 .7-.3.7-.7 0-.4-.3-.7-.7-.7-.4 0-.7.3-.7.7 0 .4.3.7.7.7z"/>
    <path class="st1" d="M65.3 33.5c.4 0 .7-.3.7-.7 0-.4-.3-.7-.7-.7-.4 0-.7.3-.7.7-.1.3.3.7.7.7z"/>
    <path class="st3" d="M65.1 36.2c.4 0 .7-.3.7-.7 0-.4-.3-.7-.7-.7-.4 0-.7.3-.7.7 0 .4.3.7.7.7z"/>
    <path class="st1" d="M64.5 38.9c.4 0 .7-.3.7-.7 0-.4-.3-.7-.7-.7-.4 0-.7.3-.7.7 0 .3.3.7.7.7zM63.6 41.4c.4 0 .7-.3.7-.7 0-.4-.3-.7-.7-.7-.4 0-.7.3-.7.7-.1.4.3.7.7.7z"/>
    <path class="st2" d="M62.3 43.9c.4 0 .7-.3.7-.7 0-.4-.3-.7-.7-.7-.4 0-.7.3-.7.7 0 .3.3.7.7.7z"/>
    <path class="st3" d="M60.7 46.1c.4 0 .7-.3.7-.7 0-.4-.3-.7-.7-.7-.4 0-.7.3-.7.7 0 .4.3.7.7.7zM58.8 48c.4 0 .7-.3.7-.7 0-.4-.3-.7-.7-.7-.4 0-.7.3-.7.7 0 .4.3.7.7.7z"/>
    <path class="st1" d="M56.6 49.7c.4 0 .7-.3.7-.7 0-.4-.3-.7-.7-.7-.4 0-.7.3-.7.7 0 .4.3.7.7.7zM54.2 51.1c.4 0 .7-.3.7-.7 0-.4-.3-.7-.7-.7-.4 0-.7.3-.7.7 0 .4.4.7.7.7zM51.7 52.1c.4 0 .7-.3.7-.7 0-.4-.3-.7-.7-.7-.4 0-.7.3-.7.7 0 .4.3.7.7.7zM49.1 52.8c.4 0 .7-.3.7-.7 0-.4-.3-.7-.7-.7-.4 0-.7.3-.7.7-.1.4.3.7.7.7zM46.3 53.1c.4 0 .7-.3.7-.7 0-.4-.3-.7-.7-.7-.4 0-.7.3-.7.7 0 .3.3.7.7.7z"/>
    <path class="st0" d="M43.6 53c.4 0 .7-.3.7-.7 0-.4-.3-.7-.7-.7-.4 0-.7.3-.7.7 0 .4.3.7.7.7zM40.9 52.5c.4 0 .7-.3.7-.7 0-.4-.3-.7-.7-.7-.4 0-.7.3-.7.7 0 .4.3.7.7.7z"/>
    <path class="st2" d="M38.3 51.7c.4 0 .7-.3.7-.7 0-.4-.3-.7-.7-.7-.4 0-.7.3-.7.7 0 .3.3.7.7.7z"/>
    <path class="st1" d="M35.8 50.5c.4 0 .7-.3.7-.7 0-.4-.3-.7-.7-.7-.4 0-.7.3-.7.7 0 .3.3.7.7.7z"/>
    <path class="st0" d="M33.6 48.9c.4 0 .7-.3.7-.7 0-.4-.3-.7-.7-.7-.4 0-.7.3-.7.7-.1.4.3.7.7.7z"/>
    <path class="st2" d="M31.5 47.1c.4 0 .7-.3.7-.7 0-.4-.3-.7-.7-.7-.4 0-.7.3-.7.7 0 .4.3.7.7.7zM29.8 45c.4 0 .7-.3.7-.7 0-.4-.3-.7-.7-.7-.4 0-.7.3-.7.7-.1.4.3.7.7.7zM28.3 42.7c.4 0 .7-.3.7-.7 0-.4-.3-.7-.7-.7-.4 0-.7.3-.7.7 0 .4.3.7.7.7z"/>
    <path class="st0" d="M27.2 40.2c.4 0 .7-.3.7-.7 0-.4-.3-.7-.7-.7-.4 0-.7.3-.7.7 0 .3.3.7.7.7z"/>
    <path class="st2" d="M26.4 37.5c.4 0 .7-.3.7-.7 0-.4-.3-.7-.7-.7-.4 0-.7.3-.7.7 0 .4.3.7.7.7z"/>
    <path class="st1" d="M26.1 34.8c.4 0 .7-.3.7-.7 0-.4-.3-.7-.7-.7-.4 0-.7.3-.7.7-.1.4.3.7.7.7z"/>
    <path class="st2" d="M26.1 32.1c.4 0 .7-.3.7-.7 0-.4-.3-.7-.7-.7-.4 0-.7.3-.7.7-.1.4.3.7.7.7z"/>
    <path class="st0" d="M26.4 29.4c.4 0 .7-.3.7-.7 0-.4-.3-.7-.7-.7-.4 0-.7.3-.7.7 0 .4.3.7.7.7z"/>
    <path class="st2" d="M27.2 26.7c.4 0 .7-.3.7-.7 0-.4-.3-.7-.7-.7-.4 0-.7.3-.7.7 0 .4.3.7.7.7z"/>
    <path class="st1" d="M28.3 24.2c.4 0 .7-.3.7-.7 0-.4-.3-.7-.7-.7-.4 0-.7.3-.7.7 0 .4.3.7.7.7z"/>
    <path class="st0" d="M29.8 21.9c.4 0 .7-.3.7-.7 0-.4-.3-.7-.7-.7-.4 0-.7.3-.7.7-.1.4.3.7.7.7z"/>
    <path class="st2" d="M31.5 19.8c.4 0 .7-.3.7-.7 0-.4-.3-.7-.7-.7-.4 0-.7.3-.7.7 0 .4.3.7.7.7zM33.6 18c.4 0 .7-.3.7-.7 0-.4-.3-.7-.7-.7-.4 0-.7.3-.7.7 0 .3.3.7.7.7zM35.8 16.4c.4 0 .7-.3.7-.7 0-.4-.3-.7-.7-.7-.4 0-.7.3-.7.7 0 .4.3.7.7.7z"/>
    <path class="st0" d="M38.3 15.2c.4 0 .7-.3.7-.7 0-.4-.3-.7-.7-.7-.4 0-.7.3-.7.7 0 .4.3.7.7.7zM40.9 14.4c.4 0 .7-.3.7-.7 0-.4-.3-.7-.7-.7-.4 0-.7.3-.7.7 0 .4.3.7.7.7z"/>
    <path class="st1" d="M43.6 13.9c.4 0 .7-.3.7-.7s-.3-.7-.7-.7c-.4 0-.7.3-.7.7s.3.7.7.7z"/>
    <path class="st0" d="M46.3 13.8c.4 0 .7-.3.7-.7 0-.4-.3-.7-.7-.7-.4 0-.7.3-.7.7 0 .4.3.7.7.7z"/>
    <path class="st2" d="M49.1 14.1c.4 0 .7-.3.7-.7 0-.4-.3-.7-.7-.7-.4 0-.7.3-.7.7-.1.4.3.7.7.7zM51.7 14.7c.4 0 .7-.3.7-.7 0-.4-.3-.7-.7-.7-.4 0-.7.3-.7.7 0 .4.3.7.7.7z"/>
    <path class="st1" d="M54.2 15.7c.4 0 .6-.3.6-.6 0-.4-.3-.6-.6-.6-.4 0-.6.3-.6.6s.3.6.6.6z"/>
    <path class="st2" d="M56.6 17.1c.4 0 .7-.3.7-.7 0-.4-.3-.7-.7-.7s-.7.3-.7.7c0 .4.3.7.7.7zM58.8 18.9c.4 0 .7-.3.7-.7 0-.4-.3-.7-.7-.7-.4 0-.7.3-.7.7 0 .3.3.7.7.7zM60.7 20.8c.4 0 .7-.3.7-.7 0-.4-.3-.7-.7-.7-.4 0-.7.3-.7.7 0 .4.3.7.7.7zM62.3 23.1c.4 0 .7-.3.7-.7 0-.4-.3-.7-.7-.7-.4 0-.7.3-.7.7 0 .3.3.7.7.7z"/>
    <circle class="st0" cx="63.6" cy="24.7" r=".7"/>
    <path class="st0" d="M64.5 28c.4 0 .7-.3.7-.7 0-.4-.3-.7-.7-.7s-.7.3-.7.7c0 .4.3.7.7.7z"/>
    <path class="st1" d="M65.1 30.7c.4 0 .7-.3.7-.7 0-.4-.3-.7-.7-.7-.4 0-.7.3-.7.7 0 .4.3.7.7.7z"/>
    <path class="st0" d="M67.5 33.5c.4 0 .7-.3.7-.7 0-.4-.3-.7-.7-.7-.4 0-.7.3-.7.7-.1.3.3.7.7.7z"/>
    <path class="st2" d="M67.3 36.2c.4 0 .7-.3.7-.7 0-.4-.3-.7-.7-.7-.4 0-.7.3-.7.7 0 .4.3.7.7.7zM66.8 38.9c.4 0 .7-.3.7-.7 0-.4-.3-.7-.7-.7-.4 0-.7.3-.7.7-.1.4.3.7.7.7z"/>
    <path class="st0" d="M65.9 41.5c.4 0 .7-.3.7-.7 0-.4-.3-.7-.7-.7-.4 0-.7.3-.7.7 0 .4.3.7.7.7z"/>
    <path class="st2" d="M64.8 43.9c.4 0 .7-.3.7-.7 0-.4-.3-.7-.7-.7-.4 0-.7.3-.7.7 0 .4.3.7.7.7z"/>
    <path class="st0" d="M63.3 46.3c.4 0 .7-.3.7-.7 0-.4-.3-.7-.7-.7-.4 0-.7.3-.7.7 0 .3.3.7.7.7zM61.5 48.3c.4 0 .7-.3.7-.7 0-.4-.3-.7-.7-.7-.4 0-.7.3-.7.7.1.4.4.7.7.7z"/>
    <path class="st2" d="M59.5 50.2c.4 0 .7-.3.7-.7 0-.4-.3-.7-.7-.7-.4 0-.7.3-.7.7.1.4.4.7.7.7zM57.3 51.8c.4 0 .6-.3.6-.6 0-.4-.3-.6-.6-.6-.4 0-.6.3-.6.6s.3.6.6.6z"/>
    <path class="st0" d="M54.9 53.2c.4 0 .7-.3.7-.7 0-.4-.3-.7-.7-.7-.4 0-.7.3-.7.7 0 .3.4.7.7.7z"/>
    <path class="st3" d="M52.4 54.1c.4 0 .7-.3.7-.7 0-.4-.3-.7-.7-.7-.4 0-.7.3-.7.7 0 .4.3.7.7.7z"/>
    <path class="st2" d="M49.7 54.8c.4 0 .7-.3.7-.7 0-.4-.3-.7-.7-.7-.4 0-.7.3-.7.7.1.4.4.7.7.7z"/>
    <path class="st0" d="M47 55.2c.4 0 .7-.3.7-.7s-.3-.7-.7-.7-.7.3-.7.7.3.7.7.7zM44.3 55.2c.4 0 .7-.3.7-.7 0-.4-.3-.7-.7-.7-.4 0-.7.3-.7.7 0 .4.3.7.7.7zM41.6 54.8c.4 0 .7-.3.7-.7 0-.4-.3-.7-.7-.7-.4 0-.7.3-.7.7 0 .4.3.7.7.7z"/>
    <path class="st2" d="M38.9 54.2c.4 0 .7-.3.7-.7 0-.4-.3-.7-.7-.7-.4 0-.7.3-.7.7 0 .4.3.7.7.7zM36.4 53.2c.4 0 .7-.3.7-.7 0-.4-.3-.7-.7-.7-.4 0-.7.3-.7.7-.1.4.3.7.7.7zM34 51.9c.4 0 .7-.3.7-.7 0-.4-.3-.7-.7-.7-.4 0-.7.3-.7.7-.1.3.3.7.7.7zM31.7 50.3c.4 0 .7-.3.7-.7 0-.4-.3-.7-.7-.7-.4 0-.7.3-.7.7 0 .3.3.7.7.7zM29.7 48.4c.4 0 .7-.3.7-.7 0-.4-.3-.7-.7-.7-.4 0-.7.3-.7.7 0 .4.3.7.7.7zM28 46.3c.4 0 .7-.3.7-.7 0-.4-.3-.7-.7-.7-.4 0-.7.3-.7.7 0 .4.3.7.7.7z"/>
    <path class="st0" d="M26.5 44c.4 0 .7-.3.7-.7 0-.4-.3-.7-.7-.7-.4 0-.7.3-.7.7 0 .3.3.7.7.7z"/>
    <path class="st2" d="M25.4 41.5c.4 0 .7-.3.7-.7 0-.4-.3-.7-.7-.7-.4 0-.7.3-.7.7-.1.4.3.7.7.7zM24.5 38.9c.4 0 .7-.3.7-.7 0-.4-.3-.7-.7-.7-.4 0-.7.3-.7.7 0 .4.3.7.7.7zM24 36.2c.4 0 .7-.3.7-.7 0-.4-.3-.7-.7-.7-.4 0-.7.3-.7.7 0 .4.3.7.7.7zM23.8 33.5c.4 0 .7-.3.7-.7 0-.4-.3-.7-.7-.7-.4 0-.7.3-.7.7 0 .3.3.7.7.7z"/>
    <path class="st3" d="M24 30.7c.4 0 .7-.3.7-.7 0-.4-.3-.7-.7-.7-.4 0-.7.3-.7.7 0 .4.3.7.7.7zM24.5 28c.4 0 .7-.3.7-.7 0-.4-.3-.7-.7-.7-.4 0-.7.3-.7.7 0 .4.3.7.7.7z"/>
    <path class="st1" d="M25.4 25.4c.4 0 .7-.3.7-.7 0-.4-.3-.7-.7-.7-.4 0-.7.3-.7.7-.1.4.3.7.7.7z"/>
    <path class="st3" d="M26.5 23c.4 0 .7-.3.7-.7 0-.4-.3-.7-.7-.7-.4 0-.7.3-.7.7 0 .3.3.7.7.7zM28 20.6c.4 0 .7-.3.7-.7 0-.4-.3-.7-.7-.7-.4 0-.7.3-.7.7 0 .4.3.7.7.7z"/>
    <path class="st1" d="M29.7 18.5c.4 0 .7-.3.7-.7 0-.4-.3-.7-.7-.7-.4 0-.7.3-.7.7 0 .4.3.7.7.7zM31.7 16.6c.4 0 .7-.3.7-.7 0-.4-.3-.7-.7-.7s-.7.3-.7.7c0 .4.4.7.7.7z"/>
    <path class="st3" d="M34 14.9c.3 0 .6-.3.6-.6s-.3-.6-.6-.6-.6.3-.6.6c-.1.4.2.6.6.6z"/>
    <path class="st1" d="M36.4 13.5c.3 0 .6-.2.6-.6 0-.3-.2-.6-.6-.6-.3 0-.6.2-.6.6 0 .4.2.6.6.6zM38.9 12.6c.3 0 .6-.3.6-.6s-.3-.6-.6-.6-.6.3-.6.6.3.6.6.6z"/>
    <path class="st2" d="M41.6 12c.4 0 .7-.3.7-.7 0-.4-.3-.7-.7-.7-.4 0-.7.3-.7.7 0 .4.3.7.7.7z"/>
    <path class="st1" d="M44.3 11.6c.4 0 .6-.3.6-.6 0-.4-.3-.6-.6-.6-.4 0-.6.3-.6.6-.1.3.2.6.6.6z"/>
    <path class="st3" d="M47 11.6c.3 0 .6-.3.6-.6s-.3-.6-.6-.6-.6.3-.6.6.3.6.6.6z"/>
    <path class="st1" d="M49.7 12c.4 0 .7-.3.7-.7 0-.4-.3-.7-.7-.7-.4 0-.7.3-.7.7.1.4.4.7.7.7z"/>
    <path class="st3" d="M52.4 12.6c.3 0 .6-.3.6-.6s-.3-.6-.6-.6-.6.3-.6.6.2.6.6.6z"/>
    <path class="st1" d="M54.9 13.4c.2 0 .4-.2.4-.4s-.2-.4-.4-.4-.4.2-.4.4.2.4.4.4zM57.3 14.9c.3 0 .6-.3.6-.6s-.3-.6-.6-.6-.6.3-.6.6c.1.3.3.6.6.6z"/>
    <path class="st3" d="M59.5 16.6c.4 0 .7-.3.7-.7 0-.4-.3-.7-.7-.7-.4 0-.7.3-.7.7.1.4.4.7.7.7z"/>
    <path class="st1" d="M61.5 18.5c.4 0 .7-.3.7-.7 0-.4-.3-.7-.7-.7-.4 0-.7.3-.7.7 0 .4.3.7.7.7zM63.3 20.6c.4 0 .7-.3.7-.7 0-.4-.3-.7-.7-.7-.4 0-.7.3-.7.7 0 .4.3.7.7.7zM64.8 23c.4 0 .7-.3.7-.7 0-.4-.3-.7-.7-.7-.4 0-.7.3-.7.7-.1.3.3.7.7.7zM65.9 25.4c.4 0 .7-.3.7-.7 0-.4-.3-.7-.7-.7-.4 0-.7.3-.7.7 0 .4.3.7.7.7zM66.8 28c.4 0 .7-.3.7-.7 0-.4-.3-.7-.7-.7-.4 0-.7.3-.7.7-.1.4.3.7.7.7z"/>
    <path class="st3" d="M67.3 30.7c.4 0 .7-.3.7-.7 0-.4-.3-.7-.7-.7-.4 0-.7.3-.7.7 0 .4.3.7.7.7zM69.6 33.5c.4 0 .7-.3.7-.7 0-.4-.3-.7-.7-.7-.4 0-.7.3-.7.7 0 .3.3.7.7.7zM69.5 36.2c.4 0 .7-.3.7-.7 0-.4-.3-.7-.7-.7-.4 0-.7.3-.7.7 0 .4.3.7.7.7z"/>
    <path class="st1" d="M69 38.9c.4 0 .7-.3.7-.7s-.3-.7-.7-.7c-.4 0-.7.3-.7.7s.3.7.7.7z"/>
    <path class="st3" d="M68.2 41.5c.4 0 .7-.3.7-.7 0-.4-.3-.7-.7-.7-.4 0-.7.3-.7.7.1.4.4.7.7.7zM67.2 44c.4 0 .7-.3.7-.7s-.3-.7-.7-.7c-.4 0-.7.3-.7.7s.3.7.7.7z"/>
    <path class="st1" d="M65.8 46.3c.3 0 .6-.3.6-.6s-.3-.6-.6-.6-.6.3-.6.6.3.6.6.6zM64.2 48.5c.3 0 .6-.3.6-.6s-.3-.6-.6-.6-.6.3-.6.6c0 .4.3.6.6.6zM62.4 50.5c.3 0 .6-.3.6-.6s-.3-.6-.6-.6-.6.3-.6.6c0 .4.2.6.6.6zM60.3 52.3c.3 0 .6-.2.6-.6 0-.3-.2-.6-.6-.6-.3 0-.6.2-.6.6 0 .3.3.6.6.6zM58 53.8c.3 0 .5-.2.5-.5s-.2-.5-.5-.5-.5.2-.5.5.2.5.5.5zM55.6 55.2c.3 0 .6-.3.6-.6s-.3-.6-.6-.6-.6.3-.6.6.3.6.6.6zM53.1 56.1c.3 0 .5-.2.5-.5s-.2-.5-.5-.5-.5.2-.5.5.2.5.5.5zM50.4 56.8c.3 0 .5-.2.5-.5s-.2-.5-.5-.5-.5.2-.5.5c0 .2.2.5.5.5zM47.7 57.2c.3 0 .5-.2.5-.5s-.2-.5-.5-.5-.5.2-.5.5c0 .2.2.5.5.5zM45 57.3c.3 0 .6-.3.6-.6s-.3-.6-.6-.6-.6.3-.6.6.2.6.6.6z"/>
    <path class="st3" d="M42.2 57.1c.3 0 .6-.3.6-.6s-.3-.6-.6-.6-.6.3-.6.6.3.6.6.6z"/>
    <path class="st1" d="M39.5 56.5c.3 0 .6-.3.6-.6s-.3-.6-.6-.6-.6.3-.6.6c.1.4.3.6.6.6z"/>
    <path class="st3" d="M36.9 55.6c.3 0 .5-.2.5-.5s-.2-.5-.5-.5-.5.2-.5.5.2.5.5.5z"/>
    <path class="st1" d="M34.4 54.6c.3 0 .6-.3.6-.6s-.3-.6-.6-.6-.6.3-.6.6.3.6.6.6z"/>
    <path class="st3" d="M32.1 53.2c.3 0 .6-.3.6-.6s-.3-.6-.6-.6-.6.3-.6.6.3.6.6.6zM29.9 51.6c.4 0 .7-.3.7-.7 0-.4-.3-.7-.7-.7-.4 0-.7.3-.7.7 0 .4.3.7.7.7zM28 49.7c.4 0 .7-.3.7-.7 0-.4-.3-.7-.7-.7-.4 0-.7.3-.7.7-.1.4.3.7.7.7z"/>
    <path class="st1" d="M26.2 47.6c.4 0 .7-.3.7-.7 0-.4-.3-.7-.7-.7-.4 0-.7.3-.7.7 0 .3.3.7.7.7zM24.7 45.3c.4 0 .7-.3.7-.7 0-.4-.3-.7-.7-.7-.4 0-.7.3-.7.7 0 .3.3.7.7.7zM23.5 42.8c.4 0 .7-.3.7-.7s-.3-.7-.7-.7c-.4 0-.7.3-.7.7s.3.7.7.7zM22.6 40.2c.4 0 .7-.3.7-.7 0-.4-.3-.7-.7-.7-.4 0-.7.3-.7.7 0 .4.3.7.7.7z"/>
    <path class="st3" d="M22 37.6c.4 0 .7-.3.7-.7 0-.4-.3-.7-.7-.7-.4 0-.7.3-.7.7 0 .3.3.7.7.7zM21.7 34.8c.4 0 .7-.3.7-.7 0-.4-.3-.7-.7-.7-.4 0-.7.3-.7.7 0 .4.3.7.7.7zM21.7 32.1c.4 0 .7-.3.7-.7 0-.4-.3-.7-.7-.7-.4 0-.7.3-.7.7 0 .4.3.7.7.7zM22 29.4c.4 0 .7-.3.7-.7 0-.4-.3-.7-.7-.7-.4 0-.7.3-.7.7 0 .3.3.7.7.7z"/>
    <path class="st1" d="M22.6 26.7c.4 0 .7-.3.7-.7 0-.4-.3-.7-.7-.7-.4 0-.7.3-.7.7 0 .4.3.7.7.7z"/>
    <path class="st3" d="M23.5 24.1c.4 0 .7-.3.7-.7 0-.4-.3-.7-.7-.7-.4 0-.7.3-.7.7 0 .4.3.7.7.7z"/>
    <path class="st1" d="M24.7 21.7c.4 0 .7-.3.7-.7 0-.4-.3-.7-.7-.7-.4 0-.7.3-.7.7 0 .3.3.7.7.7zM26.2 19.3c.4 0 .7-.3.7-.7 0-.4-.3-.7-.7-.7-.4 0-.7.3-.7.7 0 .4.3.7.7.7z"/>
    <path class="st3" d="M28 17.2c.4 0 .7-.3.7-.7 0-.4-.3-.7-.7-.7-.4 0-.7.3-.7.7 0 .4.3.7.7.7z"/>
    <path class="st1" d="M29.9 15.2c.3 0 .6-.3.6-.6s-.3-.6-.6-.6-.6.3-.6.6.3.6.6.6zM32.1 13.3c.2 0 .4-.2.4-.4s-.2-.4-.4-.4-.4.2-.4.4c0 .3.2.4.4.4z"/>
    <path class="st3" d="M34.4 12c.3 0 .5-.2.5-.5s-.2-.5-.5-.5-.5.2-.5.5c.1.3.3.5.5.5zM36.9 10.7c.2 0 .4-.2.4-.4s-.2-.4-.4-.4-.4.2-.4.4c.1.3.2.4.4.4z"/>
    <path class="st1" d="M39.5 10c.3 0 .5-.2.5-.5s-.2-.5-.5-.5-.5.2-.5.5.3.5.5.5z"/>
    <path class="st3" d="M42.2 9.6c.3 0 .6-.3.6-.6s-.3-.6-.6-.6-.6.3-.6.6.3.6.6.6z"/>
    <path class="st1" d="M45 9.2c.3 0 .5-.2.5-.5s-.2-.5-.5-.5-.5.2-.5.5.2.5.5.5zM47.7 9.3c.3 0 .5-.2.5-.5s-.2-.5-.5-.5-.5.2-.5.5.2.5.5.5zM50.4 9.8c.3 0 .6-.3.6-.6s-.3-.6-.6-.6-.6.3-.6.6.3.6.6.6z"/>
    <path class="st3" d="M53.1 10.3c.2 0 .3-.2.3-.3 0-.2-.2-.3-.3-.3-.2 0-.3.2-.3.3-.1.1.1.3.3.3z"/>
    <path class="st1" d="M55.6 11.1c.1 0 .2-.1.2-.2s-.1-.2-.2-.2-.2.1-.2.2.1.2.2.2zM58 12.6c.2 0 .4-.2.4-.4s-.2-.4-.4-.4-.4.2-.4.4c.1.2.2.4.4.4zM60.3 14.3c.3 0 .6-.3.6-.6s-.3-.6-.6-.6-.6.3-.6.6c0 .4.3.6.6.6zM62.4 16.2c.4 0 .7-.3.7-.7 0-.4-.3-.7-.7-.7-.4 0-.7.3-.7.7 0 .4.3.7.7.7z"/>
    <path class="st3" d="M64.2 18.2c.4 0 .7-.3.7-.7 0-.4-.3-.7-.7-.7-.4 0-.7.3-.7.7.1.4.4.7.7.7zM65.8 20.4c.4 0 .7-.3.7-.7 0-.4-.3-.7-.7-.7-.4 0-.7.3-.7.7.1.4.4.7.7.7z"/>
    <path class="st1" d="M67.2 22.9c.4 0 .7-.3.7-.7 0-.4-.3-.7-.7-.7-.4 0-.7.3-.7.7 0 .3.3.7.7.7z"/>
    <path class="st3" d="M68.2 25.4c.4 0 .7-.3.7-.7 0-.4-.3-.7-.7-.7-.4 0-.7.3-.7.7 0 .4.3.7.7.7zM69 28c.4 0 .7-.3.7-.7 0-.4-.3-.7-.7-.7s-.7.3-.7.7c0 .4.3.7.7.7zM69.5 30.7c.4 0 .7-.3.7-.7 0-.4-.3-.7-.7-.7-.4 0-.7.3-.7.7 0 .4.3.7.7.7z"/>
    <path class="st1" d="M71.8 33.5c.4 0 .7-.3.7-.7 0-.4-.3-.7-.7-.7-.4 0-.7.3-.7.7 0 .3.3.7.7.7z"/>
    <path class="st2" d="M71.7 36.2c.4 0 .7-.3.7-.7 0-.4-.3-.7-.7-.7-.4 0-.7.3-.7.7 0 .4.3.7.7.7z"/>
    <path class="st1" d="M71.2 38.9c.4 0 .7-.3.7-.7 0-.4-.3-.7-.7-.7-.4 0-.7.3-.7.7.1.4.4.7.7.7zM70.5 41.5c.4 0 .6-.3.6-.6 0-.4-.3-.6-.6-.6-.4 0-.6.3-.6.6s.3.6.6.6z"/>
    <path class="st3" d="M69.6 44c.3 0 .6-.3.6-.6s-.3-.6-.6-.6-.6.3-.6.6c-.1.3.2.6.6.6zM68.3 46.3c.3 0 .5-.2.5-.5s-.2-.5-.5-.5-.5.2-.5.5.2.5.5.5z"/>
    <path class="st1" d="M66.8 48.6c.3 0 .5-.2.5-.5s-.2-.5-.5-.5-.5.2-.5.5.3.5.5.5z"/>
    <path class="st3" d="M65.1 50.7c.3 0 .5-.2.5-.5s-.2-.5-.5-.5-.5.2-.5.5.2.5.5.5z"/>
    <path class="st1" d="M63.2 52.6c.2 0 .4-.2.4-.4s-.2-.4-.4-.4-.4.2-.4.4c-.1.2.1.4.4.4zM61 54.3c.2 0 .4-.2.4-.4s-.2-.4-.4-.4-.4.2-.4.4.2.4.4.4zM58.7 55.7c.2 0 .3-.1.3-.3 0-.2-.1-.3-.3-.3-.2 0-.3.1-.3.3 0 .2.1.3.3.3z"/>
    <path class="st3" d="M56.3 57.1c.2 0 .4-.2.4-.4s-.2-.4-.4-.4-.4.2-.4.4c-.1.2.1.4.4.4z"/>
    <path class="st2" d="M53.7 57.9c.1 0 .3-.1.3-.3 0-.1-.1-.3-.3-.3-.1 0-.3.1-.3.3.1.2.2.3.3.3z"/>
    <path class="st3" d="M51.1 58.6c.2 0 .3-.1.3-.3 0-.2-.1-.3-.3-.3-.2 0-.3.1-.3.3 0 .2.1.3.3.3z"/>
    <path class="st1" d="M48.4 59.1c.2 0 .3-.1.3-.3 0-.2-.1-.3-.3-.3-.2 0-.3.1-.3.3 0 .1.1.3.3.3zM45.6 59.3c.2 0 .3-.2.3-.3 0-.2-.2-.3-.3-.3-.2 0-.3.2-.3.3 0 .1.2.3.3.3zM42.9 59.1c.2 0 .4-.2.4-.4s-.2-.4-.4-.4-.4.2-.4.4c0 .3.2.4.4.4z"/>
    <path class="st3" d="M40.2 58.7c.2 0 .4-.2.4-.4s-.2-.4-.4-.4-.4.2-.4.4.2.4.4.4zM37.6 58c.2 0 .4-.2.4-.4s-.2-.4-.4-.4-.4.2-.4.4.2.4.4.4z"/>
    <path class="st1" d="M35 57.1c.3 0 .5-.2.5-.5s-.2-.5-.5-.5-.5.2-.5.5.2.5.5.5z"/>
    <path class="st3" d="M32.6 55.8c.2 0 .4-.2.4-.4s-.2-.4-.4-.4-.4.2-.4.4c-.1.2.1.4.4.4z"/>
    <path class="st1" d="M30.3 54.5c.3 0 .6-.3.6-.6s-.3-.6-.6-.6-.6.3-.6.6c-.1.4.2.6.6.6zM28.1 52.9c.4 0 .7-.3.7-.7 0-.4-.3-.7-.7-.7-.4 0-.7.3-.7.7 0 .4.3.7.7.7z"/>
    <path class="st2" d="M26.2 51c.4 0 .7-.3.7-.7 0-.4-.3-.7-.7-.7-.4 0-.7.3-.7.7 0 .4.3.7.7.7z"/>
    <path class="st3" d="M24.5 48.8c.4 0 .7-.3.7-.7 0-.4-.3-.7-.7-.7-.4 0-.7.3-.7.7-.1.4.3.7.7.7zM23 46.6c.4 0 .7-.3.7-.7 0-.4-.3-.7-.7-.7-.4 0-.7.3-.7.7-.1.3.3.7.7.7z"/>
    <path class="st1" d="M21.7 44.1c.4 0 .7-.3.7-.7 0-.4-.3-.7-.7-.7-.4 0-.7.3-.7.7 0 .4.3.7.7.7zM20.7 41.6c.4 0 .7-.3.7-.7 0-.4-.3-.7-.7-.7-.4 0-.7.3-.7.7 0 .3.3.7.7.7z"/>
    <path class="st3" d="M20 38.9c.4 0 .7-.3.7-.7 0-.4-.3-.7-.7-.7-.4 0-.7.3-.7.7 0 .4.3.7.7.7z"/>
    <path class="st1" d="M19.6 36.2c.4 0 .7-.3.7-.7 0-.4-.3-.7-.7-.7-.4 0-.7.3-.7.7 0 .4.3.7.7.7zM19.5 33.5c.4 0 .7-.3.7-.7 0-.4-.3-.7-.7-.7-.4 0-.7.3-.7.7-.1.3.3.7.7.7zM19.6 30.7c.4 0 .7-.3.7-.7 0-.4-.3-.7-.7-.7-.4 0-.7.3-.7.7 0 .4.3.7.7.7zM20 28c.4 0 .7-.3.7-.7 0-.4-.3-.7-.7-.7-.4 0-.7.3-.7.7 0 .4.3.7.7.7z"/>
    <path class="st3" d="M20.7 25.4c.4 0 .7-.3.7-.7 0-.4-.3-.7-.7-.7-.4 0-.7.3-.7.7 0 .3.3.7.7.7z"/>
    <path class="st2" d="M21.7 22.8c.4 0 .7-.3.7-.7 0-.4-.3-.7-.7-.7-.4 0-.7.3-.7.7 0 .4.3.7.7.7z"/>
    <path class="st1" d="M23 20.3c.4 0 .7-.3.7-.7 0-.4-.3-.7-.7-.7-.4 0-.7.3-.7.7 0 .4.3.7.7.7zM24.5 18c.4 0 .7-.3.7-.7 0-.4-.3-.7-.7-.7-.4 0-.7.3-.7.7 0 .4.3.7.7.7z"/>
    <path class="st3" d="M26.2 15.8c.3 0 .5-.2.5-.5s-.2-.5-.5-.5-.5.2-.5.5c-.1.2.2.5.5.5z"/>
    <path class="st1" d="M28.1 13.9c.3 0 .6-.3.6-.6s-.3-.6-.6-.6-.6.3-.6.6.3.6.6.6zM30.3 11.9c.2 0 .4-.2.4-.4s-.2-.4-.4-.4-.4.2-.4.4.1.4.4.4zM32.6 10.2c.1 0 .2-.1.2-.2s-.1-.2-.2-.2-.2.1-.2.2c0 .2.1.2.2.2zM35 8.9s.1 0 0 0c.1-.1 0-.1 0-.1 0-.1-.1 0 0 .1-.1 0 0 0 0 0zM37.6 8.1c.2 0 .3-.1.3-.3 0-.2-.1-.3-.3-.3-.2 0-.3.1-.3.3 0 .2.1.3.3.3zM40.2 7.5c.2 0 .4-.2.4-.4s-.2-.4-.4-.4-.4.2-.4.4.2.4.4.4z"/>
    <path class="st3" d="M42.9 7.1c.2 0 .5-.2.5-.5 0-.2-.2-.5-.5-.5-.2 0-.5.2-.5.5.1.3.3.5.5.5z"/>
    <path class="st2" d="M45.6 6.8c.1 0 .2-.1.2-.2s-.1-.2-.2-.2-.2.1-.2.2.1.2.2.2z"/>
    <path class="st3" d="M48.4 7.1c.2 0 .4-.2.4-.4s-.2-.4-.4-.4-.4.2-.4.4.2.4.4.4z"/>
    <path class="st1" d="M51.1 7.4c.2 0 .3-.1.3-.3 0-.2-.1-.3-.3-.3-.2 0-.3.1-.3.3 0 .2.1.3.3.3zM53.7 8c.1 0 .1-.1.1-.1 0-.1-.1-.1-.1-.1-.1 0-.1.1-.1.1l.1.1z"/>
    <path class="st3" d="M56.3 8.9s.1-.1 0 0c.1-.1 0-.1 0-.1s-.1 0 0 .1c-.1-.1 0 0 0 0z"/>
    <path class="st1" d="M58.7 10.2c.1 0 .1-.1.1-.1 0-.1-.1-.1-.1-.1-.1 0-.1.1-.1.1l.1.1zM61 11.9c.2 0 .4-.2.4-.4s-.2-.4-.4-.4-.4.2-.4.4c0 .3.2.4.4.4zM63.2 13.9c.3 0 .6-.3.6-.6s-.3-.6-.6-.6-.6.3-.6.6.2.6.6.6z"/>
    <path class="st3" d="M65.1 15.7c.3 0 .5-.2.5-.5s-.2-.5-.5-.5-.5.2-.5.5.2.5.5.5z"/>
    <path class="st1" d="M66.8 17.9c.3 0 .6-.3.6-.6s-.3-.6-.6-.6-.6.3-.6.6c0 .4.3.6.6.6z"/>
    <circle class="st1" cx="68.3" cy="19.6" r=".6"/>
    <path class="st0" d="M69.6 22.8c.4 0 .7-.3.7-.7 0-.4-.3-.7-.7-.7-.4 0-.7.3-.7.7-.1.4.3.7.7.7z"/>
    <path class="st1" d="M70.5 25.4c.4 0 .7-.3.7-.7 0-.4-.3-.7-.7-.7-.4 0-.7.3-.7.7 0 .3.3.7.7.7zM71.2 28c.4 0 .7-.3.7-.7 0-.4-.3-.7-.7-.7-.4 0-.7.3-.7.7 0 .4.3.7.7.7z"/>
    <path class="st3" d="M71.7 30.7c.4 0 .7-.3.7-.7 0-.4-.3-.7-.7-.7-.4 0-.7.3-.7.7-.1.4.3.7.7.7zM74 33.5c.4 0 .7-.3.7-.7 0-.4-.3-.7-.7-.7-.4 0-.7.3-.7.7 0 .3.3.7.7.7zM73.9 36.1c.4 0 .7-.3.7-.7 0-.4-.3-.7-.7-.7s-.7.3-.7.7c0 .4.3.7.7.7zM73.5 38.8c.3 0 .6-.3.6-.6s-.3-.6-.6-.6-.6.3-.6.6.2.6.6.6z"/>
    <path class="st0" d="M72.8 41.4c.3 0 .5-.2.5-.5s-.2-.5-.5-.5-.5.2-.5.5c0 .2.2.5.5.5z"/>
    <path class="st3" d="M71.9 43.9c.3 0 .5-.2.5-.5s-.2-.5-.5-.5-.5.2-.5.5.2.5.5.5z"/>
    <path class="st1" d="M70.8 46.2c.2 0 .3-.2.3-.3 0-.2-.2-.3-.3-.3-.2 0-.3.2-.3.3-.1.2.1.3.3.3zM69.4 48.4c.1 0 .1-.1.1-.1 0-.1-.1-.1-.1-.1-.1 0-.1.1-.1.1-.1.1 0 .1.1.1z"/>
    <path class="st0" d="M67.8 50.6c.1 0 .1-.1.1-.1 0-.1-.1-.1-.1-.1l-.1.1c-.1.1 0 .1.1.1z"/>
    <path class="st2" d="M65.9 52.6c.1 0 .1 0 0 0 .1-.1.1-.1 0 0 0-.1 0-.1 0 0zM63.9 54.5c.1 0 .1 0 0 0 .1-.2.1-.2 0-.2 0 0-.1.1 0 .2-.1 0 0 0 0 0zM61.8 56.1c.1-.1 0-.1 0-.1-.1 0-.1 0 0 .1-.1 0-.1 0 0 0z"/>
    <path class="st0" d="M59.4 57.6c.1 0 .1-.1 0 0 .1-.1.1-.1 0 0 0-.1 0-.1 0 0 0-.1 0 0 0 0z"/>
    <path class="st2" d="M57 58.9c.1 0 .2-.1.2-.2s-.1-.2-.2-.2-.2.1-.2.2.1.2.2.2z"/>
    <path class="st0" d="M54.4 59.8s.1-.1 0 0c.1-.1 0-.1 0-.1 0-.1-.1 0 0 .1-.1-.1 0 0 0 0z"/>
    <path class="st1" d="M51.8 60.5c.1-.1 0-.1 0-.1-.1 0-.1 0 0 .1-.1 0-.1 0 0 0z"/>
    <path class="st2" d="M49.1 61s0-.1 0 0c.1-.1 0-.2 0-.2-.1 0-.1 0 0 .2-.1-.1-.1 0 0 0zM46.3 61.2c.1 0 .1-.1 0 0 .1-.1 0-.2 0-.2s-.1 0 0 .2c-.1-.1 0 0 0 0zM43.6 61.1c.1 0 .1-.1.1-.1 0-.1-.1-.1-.1-.1-.1 0-.1.1-.1.1 0 .1 0 .1.1.1z"/>
    <path class="st0" d="M40.9 60.8c.1 0 .1-.1.1-.1 0-.1-.1-.1-.1-.1-.1 0-.1.1-.1.1-.1.1 0 .1.1.1zM38.2 60.2c.1 0 .1-.1.1-.1s0-.1-.1-.1-.1.1-.1.1 0 .1.1.1z"/>
    <path class="st2" d="M35.6 59.3s.1 0 0 0c.1-.1 0-.2 0-.2-.1.1-.1.1 0 .2-.1 0-.1 0 0 0zM33.1 58.4c.1 0 .2-.1.2-.2s-.1-.2-.2-.2-.2.1-.2.2.1.2.2.2zM30.7 57.3c.3 0 .5-.2.5-.5s-.2-.5-.5-.5-.5.2-.5.5.2.5.5.5zM28.4 55.8c.3 0 .6-.3.6-.6s-.3-.6-.6-.6-.6.3-.6.6c.1.4.3.6.6.6zM26.3 54.2c.4 0 .7-.3.7-.7 0-.4-.3-.7-.7-.7-.4 0-.7.3-.7.7 0 .4.3.7.7.7z"/>
    <path class="st1" d="M24.4 52.3c.4 0 .7-.3.7-.7 0-.4-.3-.7-.7-.7-.4 0-.7.3-.7.7 0 .3.3.7.7.7z"/>
    <path class="st2" d="M22.7 50.1c.4 0 .7-.3.7-.7 0-.4-.3-.7-.7-.7-.4 0-.7.3-.7.7 0 .4.3.7.7.7zM21.2 47.8c.4 0 .7-.3.7-.7 0-.4-.3-.7-.7-.7-.4 0-.7.3-.7.7 0 .4.3.7.7.7zM19.9 45.4c.4 0 .7-.3.7-.7 0-.4-.3-.7-.7-.7-.4 0-.7.3-.7.7 0 .4.3.7.7.7zM18.9 42.9c.4 0 .7-.3.7-.7 0-.4-.3-.7-.7-.7-.4 0-.7.3-.7.7 0 .3.3.7.7.7z"/>
    <path class="st0" d="M18.1 40.2c.4 0 .7-.3.7-.7 0-.4-.3-.7-.7-.7-.4 0-.7.3-.7.7 0 .4.3.7.7.7z"/>
    <path class="st2" d="M17.6 37.6c.4 0 .7-.3.7-.7 0-.4-.3-.7-.7-.7-.4 0-.7.3-.7.7-.1.3.3.7.7.7zM17.3 34.8c.4 0 .7-.3.7-.7 0-.4-.3-.7-.7-.7-.4 0-.7.3-.7.7 0 .4.3.7.7.7zM17.3 32.1c.4 0 .7-.3.7-.7 0-.4-.3-.7-.7-.7-.4 0-.7.3-.7.7 0 .4.3.7.7.7z"/>
    <path class="st0" d="M17.6 29.4c.4 0 .7-.3.7-.7 0-.4-.3-.7-.7-.7-.4 0-.7.3-.7.7 0 .3.3.7.7.7z"/>
    <path class="st2" d="M18.1 26.7c.4 0 .7-.3.7-.7 0-.4-.3-.7-.7-.7-.4 0-.7.3-.7.7 0 .3.3.7.7.7z"/>
    <path class="st3" d="M18.9 24c.4 0 .7-.3.7-.7 0-.4-.3-.7-.7-.7-.4 0-.7.3-.7.7 0 .4.3.7.7.7z"/>
    <path class="st0" d="M19.9 21.5c.4 0 .7-.3.7-.7 0-.4-.3-.7-.7-.7-.4 0-.7.3-.7.7 0 .4.3.7.7.7z"/>
    <path class="st2" d="M21.2 19c.4 0 .7-.3.7-.7 0-.4-.3-.7-.7-.7-.4 0-.7.3-.7.7 0 .4.3.7.7.7zM22.7 16.7c.3 0 .6-.3.6-.6s-.3-.6-.6-.6-.6.3-.6.6.2.6.6.6zM24.4 14.5c.3 0 .5-.2.5-.5s-.2-.5-.5-.5-.5.2-.5.5.2.5.5.5z"/>
    <path class="st0" d="M26.3 12.3c.2 0 .3-.1.3-.3 0-.2-.1-.3-.3-.3-.2 0-.3.1-.3.3 0 .1.1.3.3.3zM28.4 10.3c.1 0 .1-.1.1-.1 0-.1-.1-.1-.1-.1-.1 0-.1.1-.1.1 0 .1.1.1.1.1zM30.7 8.7s0-.1 0 0c0-.1 0-.1 0 0 0-.1 0-.1 0 0 0-.1 0 0 0 0zM33.1 7.3s-.1 0 0 0c-.1 0 0 0 0 0z"/>
    <path class="st2" d="M35.6 6.2zM38.2 5.4s.1 0 0 0c.1-.1 0-.2 0-.2-.1.1-.1.1 0 .2-.1 0-.1 0 0 0zM40.9 4.9c.1 0 .1-.1.1-.1 0-.1-.1-.1-.1-.1-.1 0-.1.1-.1.1-.1.1 0 .1.1.1zM43.6 4.7c.1 0 .2-.1.2-.2s-.1-.2-.2-.2-.2.1-.2.2.1.2.2.2z"/>
    <path class="st0" d="M46.3 4.6c.1 0 .2-.1.2-.2s-.1-.2-.2-.2-.2.1-.2.2.1.2.2.2z"/>
    <path class="st2" d="M49.1 4.7c.1 0 .2-.1.2-.2s-.1-.2-.2-.2-.2.1-.2.2c0 .2.1.2.2.2z"/>
    <path class="st0" d="M51.8 5.1c.1-.1 0-.2 0-.2-.1.1-.1.1 0 .2-.1 0-.1 0 0 0z"/>
    <path class="st1" d="M54.4 5.8c0-.1 0-.1 0 0 0-.1 0-.1 0 0zM57 6.8c.1-.1 0-.1 0-.1-.1 0-.1 0 0 .1-.1 0-.1 0 0 0zM59.4 8c0-.1 0-.1 0 0 0-.1 0-.1 0 0z"/>
    <path class="st3" d="M61.8 9.5c.1 0 .1-.1.1-.1 0-.1-.1-.1-.1-.1-.1 0-.1.1-.1.1-.1.1 0 .1.1.1zM63.9 11.4c.2 0 .3-.1.3-.3 0-.2-.1-.3-.3-.3-.2 0-.3.1-.3.3 0 .1.2.3.3.3zM65.9 13.1c.1 0 .2-.1.2-.2s-.1-.2-.2-.2-.2.1-.2.2.1.2.2.2zM67.8 15.4c.2 0 .4-.2.4-.4s-.2-.4-.4-.4-.4.2-.4.4c-.1.2.1.4.4.4z"/>
    <path class="st1" d="M69.4 17.7c.3 0 .5-.2.5-.5s-.2-.5-.5-.5-.5.2-.5.5.2.5.5.5z"/>
    <path class="st3" d="M70.8 20c.3 0 .5-.2.5-.5s-.2-.5-.5-.5-.5.2-.5.5.2.5.5.5z"/>
    <path class="st1" d="M71.9 22.7c.4 0 .7-.3.7-.7 0-.4-.3-.7-.7-.7-.4 0-.7.3-.7.7 0 .4.3.7.7.7z"/>
    <path class="st2" d="M72.8 25.3c.4 0 .7-.3.7-.7 0-.4-.3-.7-.7-.7-.4 0-.7.3-.7.7 0 .4.3.7.7.7z"/>
    <path class="st1" d="M73.5 28c.4 0 .7-.3.7-.7 0-.4-.3-.7-.7-.7-.4 0-.7.3-.7.7-.1.4.3.7.7.7zM73.9 30.7c.4 0 .7-.3.7-.7 0-.4-.3-.7-.7-.7-.4 0-.7.3-.7.7-.1.4.3.7.7.7zM76.2 33.4c.4 0 .7-.3.7-.7 0-.4-.3-.7-.7-.7-.4 0-.7.3-.7.7 0 .4.3.7.7.7zM76.1 36.1c.3 0 .6-.3.6-.6s-.3-.6-.6-.6-.6.3-.6.6c-.1.3.2.6.6.6z"/>
    <path class="st3" d="M75.7 38.7c.3 0 .5-.2.5-.5s-.2-.5-.5-.5-.5.2-.5.5.2.5.5.5z"/>
    <path class="st1" d="M75.1 41.2c.2 0 .3-.2.3-.3 0-.2-.2-.3-.3-.3-.2 0-.3.2-.3.3-.1.1.1.3.3.3z"/>
    <path class="st3" d="M74.2 43.8c.2 0 .4-.2.4-.4s-.2-.4-.4-.4-.4.2-.4.4c.1.3.2.4.4.4z"/>
    <path class="st1" d="M73.2 46c.1-.1 0-.1 0-.1-.1 0-.1.1 0 .1-.1 0-.1 0 0 0z"/>
    <path class="st3" d="M71.9 48.4c-.1 0-.1 0 0 0-.1 0-.1 0 0 0z"/>
    <path class="st0" d="M68.6 52.8z"/>
    <path class="st1" d="M66.7 54.8h.1-.1z"/>
    <path class="st3" d="M64.7 56.6z"/>
    <path class="st1" d="M62.5 58.2zM60.1 59.6zM57.6 60.8c.1 0 .1 0 0 0 .1 0 .1 0 0 0z"/>
    <path class="st3" d="M33.6 60.9c.1 0 .1-.1 0 0 .1-.1 0-.1 0-.1v.1c0-.1 0 0 0 0z"/>
    <path class="st1" d="M31.2 59.7s0-.1 0 0c0-.1 0-.1 0 0-.1-.1-.1-.1 0 0-.1-.1-.1 0 0 0z"/>
    <path class="st3" d="M28.8 58.5c.1 0 .3-.1.3-.3 0-.1-.1-.3-.3-.3-.1 0-.3.1-.3.3.1.2.2.3.3.3z"/>
    <path class="st1" d="M26.6 57.2c.3 0 .6-.3.6-.6s-.3-.6-.6-.6-.6.3-.6.6.3.6.6.6z"/>
    <path class="st3" d="M24.5 55.4c.3 0 .6-.3.6-.6s-.3-.6-.6-.6-.6.3-.6.6.3.6.6.6z"/>
    <path class="st2" d="M22.6 53.5c.4 0 .7-.3.7-.7 0-.4-.3-.7-.7-.7-.4 0-.7.3-.7.7.1.4.4.7.7.7z"/>
    <path class="st1" d="M20.9 51.4c.4 0 .7-.3.7-.7 0-.4-.3-.7-.7-.7-.4 0-.7.3-.7.7.1.4.4.7.7.7zM19.4 49c.4 0 .7-.3.7-.7 0-.4-.3-.7-.7-.7-.4 0-.7.3-.7.7.1.5.4.7.7.7zM18.1 46.7c.4 0 .7-.3.7-.7 0-.4-.3-.7-.7-.7-.4 0-.7.3-.7.7 0 .4.3.7.7.7z"/>
    <path class="st2" d="M17 44.2c.4 0 .7-.3.7-.7 0-.4-.3-.7-.7-.7-.4 0-.7.3-.7.7 0 .4.3.7.7.7z"/>
    <path class="st3" d="M16.2 41.6c.4 0 .7-.3.7-.7 0-.4-.3-.7-.7-.7-.4 0-.7.3-.7.7 0 .4.3.7.7.7z"/>
    <path class="st1" d="M15.6 38.9c.4 0 .7-.3.7-.7 0-.4-.3-.7-.7-.7-.4 0-.7.3-.7.7 0 .4.3.7.7.7zM15.2 36.2c.4 0 .7-.3.7-.7 0-.4-.3-.7-.7-.7-.4 0-.7.3-.7.7 0 .4.3.7.7.7zM15.1 33.5c.4 0 .7-.3.7-.7 0-.4-.3-.7-.7-.7-.4 0-.7.3-.7.7 0 .3.3.7.7.7zM15.2 30.7c.4 0 .7-.3.7-.7 0-.4-.3-.7-.7-.7-.4 0-.7.3-.7.7 0 .4.3.7.7.7z"/>
    <path class="st3" d="M15.6 28c.4 0 .7-.3.7-.7 0-.4-.3-.7-.7-.7-.4 0-.7.3-.7.7 0 .4.3.7.7.7z"/>
    <path class="st2" d="M16.2 25.3c.4 0 .7-.3.7-.7 0-.4-.3-.7-.7-.7-.4 0-.7.3-.7.7 0 .4.3.7.7.7z"/>
    <path class="st1" d="M17 22.7c.4 0 .7-.3.7-.7 0-.4-.3-.7-.7-.7s-.7.3-.7.7c.1.4.4.7.7.7zM18.1 20.1c.3 0 .6-.3.6-.6s-.3-.6-.6-.6-.6.3-.6.6.3.6.6.6zM19.4 17.6c.3 0 .5-.2.5-.5s-.2-.5-.5-.5-.5.2-.5.5c0 .2.3.5.5.5z"/>
    <path class="st0" d="M20.9 15.2c.2 0 .4-.2.4-.4s-.2-.4-.4-.4-.4.2-.4.4c.1.2.2.4.4.4z"/>
    <path class="st3" d="M22.6 12.9c.1 0 .2-.1.2-.2s-.1-.2-.2-.2-.2.1-.2.2.1.2.2.2zM24.5 10.8c.1 0 .1-.1 0 0 .1-.2.1-.2 0-.2 0 0-.1 0 0 .2-.1-.1 0 0 0 0z"/>
    <path class="st1" d="M26.6 8.9c0-.1 0-.1 0 0 0-.1 0-.1 0 0zM28.8 7.3s0-.1 0 0c0-.1 0-.1 0 0 0-.1 0-.1 0 0 0-.1 0 0 0 0zM33.6 4.7v-.1zM36.2 3.7z"/>
    <path class="st0" d="M38.8 3c.1 0 .1 0 0 0 .1-.1 0-.2 0-.2V3z"/>
    <path class="st1" d="M41.5 2.6c.1 0 .1-.1.1-.1 0-.1-.1-.1-.1-.1-.1 0-.1.1-.1.1l.1.1zM49.7 2.6c.1 0 .2-.1.2-.2s-.1-.2-.2-.2-.2.1-.2.2l.2.2zM52.4 3c.1 0 .1 0 0 0 .1-.1 0-.2 0-.2V3z"/>
    <path class="st2" d="M55.1 3.7z"/>
    <path class="st1" d="M62.5 7.3s0-.1 0 0c0-.1 0-.1 0 0 0-.1 0-.1 0 0 0-.1 0 0 0 0z"/>
    <path class="st3" d="M64.7 8.9c0-.1 0-.1 0 0 0-.1 0-.1 0 0zM66.7 10.7c.1 0 .1 0 0 0 .1-.1 0-.1 0-.1v.1zM68.6 12.7c.1 0 .1 0 0 0 .1-.2.1-.2 0-.2 0 0-.1.1 0 .2-.1 0 0 0 0 0z"/>
    <path class="st1" d="M70.4 14.9c.1 0 .1-.1.1-.1 0-.1-.1-.1-.1-.1-.1 0-.1.1-.1.1-.1.1 0 .1.1.1zM71.9 17.4c.2 0 .3-.1.3-.3 0-.2-.1-.3-.3-.3s-.3.1-.3.3c-.1.1.1.3.3.3z"/>
    <path class="st2" d="M73.2 19.9c.2 0 .4-.2.4-.4s-.2-.4-.4-.4-.4.2-.4.4.2.4.4.4z"/>
    <path class="st1" d="M74.2 22.7c.4 0 .7-.3.7-.7s-.3-.7-.7-.7c-.4 0-.7.3-.7.7s.4.7.7.7z"/>
    <path class="st3" d="M75.1 25.3c.4 0 .7-.3.7-.7 0-.4-.3-.7-.7-.7s-.7.3-.7.7c0 .4.3.7.7.7zM75.7 28c.4 0 .7-.3.7-.7 0-.4-.3-.7-.7-.7-.4 0-.7.3-.7.7 0 .4.3.7.7.7z"/>
    <circle class="st0" cx="76.1" cy="30" r=".7"/>
    <path class="st1" d="M78.4 33.4c.4 0 .7-.3.7-.7 0-.4-.3-.7-.7-.7-.4 0-.7.3-.7.7 0 .4.3.7.7.7zM78.3 36c.3 0 .5-.2.5-.5s-.2-.5-.5-.5-.5.2-.5.5c-.1.2.2.5.5.5zM77.9 38.5c.2 0 .3-.1.3-.3 0-.2-.1-.3-.3-.3-.2 0-.3.1-.3.3 0 .2.1.3.3.3zM77.3 41c.1 0 .1-.1.1-.1 0-.1-.1-.1-.1-.1-.1 0-.1.1-.1.1 0 .1.1.1.1.1z"/>
    <path class="st3" d="M76.5 43.7c.1 0 .2-.1.2-.2s-.1-.2-.2-.2-.2.1-.2.2l.2.2zM75.5 46.1s0-.1 0 0c0-.1 0-.1 0 0 0-.1 0-.1 0 0 0-.1 0 0 0 0z"/>
    <path class="st2" d="M74.3 48.5z"/>
    <path class="st3" d="M29.3 61.1s.1 0 0 0c.1-.1 0-.2 0-.2-.1.1-.1.1 0 .2-.1 0-.1 0 0 0z"/>
    <path class="st1" d="M27 59.7c.1 0 .1-.1.1-.1l-.1-.1c-.1 0-.1.1-.1.1s0 .1.1.1z"/>
    <path class="st3" d="M24.8 58.4c.2 0 .4-.2.4-.4s-.2-.4-.4-.4-.4.2-.4.4c-.1.2.1.4.4.4z"/>
    <path class="st1" d="M22.7 56.7c.3 0 .6-.3.6-.6s-.3-.6-.6-.6-.6.3-.6.6.3.6.6.6zM20.9 54.7c.3 0 .6-.3.6-.6s-.3-.6-.6-.6-.6.3-.6.6c0 .4.2.6.6.6zM19.2 52.5c.3 0 .6-.3.6-.6s-.3-.6-.6-.6-.6.3-.6.6c0 .4.2.6.6.6zM17.7 50.2c.3 0 .6-.3.6-.6s-.3-.6-.6-.6-.6.3-.6.6c0 .4.2.6.6.6zM16.3 47.9c.4 0 .7-.3.7-.7 0-.4-.3-.7-.7-.7-.4 0-.7.3-.7.7.1.4.4.7.7.7zM15.2 45.5c.4 0 .7-.3.7-.7 0-.4-.3-.7-.7-.7s-.7.3-.7.7c0 .4.3.7.7.7zM14.3 42.9c.4 0 .7-.3.7-.7 0-.4-.3-.7-.7-.7-.4 0-.7.3-.7.7 0 .4.3.7.7.7z"/>
    <path class="st2" d="M13.6 40.3c.4 0 .7-.3.7-.7 0-.4-.3-.7-.7-.7-.4 0-.7.3-.7.7 0 .3.3.7.7.7z"/>
    <path class="st1" d="M13.2 37.6c.4 0 .7-.3.7-.7 0-.4-.3-.7-.7-.7-.4 0-.7.3-.7.7 0 .3.3.7.7.7z"/>
    <path class="st3" d="M12.9 34.8c.4 0 .7-.3.7-.7 0-.4-.3-.7-.7-.7-.4 0-.7.3-.7.7 0 .4.3.7.7.7z"/>
    <path class="st1" d="M12.9 32.1c.4 0 .7-.3.7-.7 0-.4-.3-.7-.7-.7-.4 0-.7.3-.7.7 0 .3.4.7.7.7zM13.2 29.3c.4 0 .7-.3.7-.7 0-.4-.3-.7-.7-.7-.4 0-.7.3-.7.7 0 .4.3.7.7.7zM13.6 26.6c.3 0 .6-.3.6-.6s-.3-.6-.6-.6-.6.3-.6.6.3.6.6.6zM14.3 23.8c.3 0 .6-.2.6-.6 0-.3-.2-.6-.6-.6-.3 0-.6.2-.6.6.1.4.3.6.6.6z"/>
    <path class="st3" d="M15.2 21.1c.3 0 .5-.2.5-.5s-.2-.5-.5-.5-.5.2-.5.5c.1.3.3.5.5.5z"/>
    <path class="st1" d="M16.3 18.7c.3 0 .5-.2.5-.5s-.2-.5-.5-.5-.5.2-.5.5.2.5.5.5zM17.7 16.1c.2 0 .3-.2.3-.3 0-.2-.2-.3-.3-.3-.2 0-.3.2-.3.3-.1.2.1.3.3.3zM19.2 13.8c.1 0 .3-.1.3-.3s-.1-.3-.3-.3c-.1 0-.3.1-.3.3s.1.3.3.3zM20.9 11.5c.1 0 .1-.1.1-.1 0-.1-.1-.1-.1-.1-.1 0-.1.1-.1.1-.1 0 0 .1.1.1zM22.7 9.4c.1 0 .1 0 0 0 .1-.1 0-.1 0-.1v.1z"/>
    <path class="st3" d="M24.8 7.5z"/>
    <path class="st1" d="M67.5 8.4z"/>
    <path class="st3" d="M69.5 10.3z"/>
    <path class="st2" d="M71.3 12.4zM72.9 14.7s0-.1 0 0c0-.1 0-.1 0 0 0-.1 0-.1 0 0 0-.1 0 0 0 0zM74.3 17.1c.1 0 .2-.1.2-.2s-.1-.2-.2-.2-.2.1-.2.2c.1.2.1.2.2.2zM75.5 19.7c.2 0 .3-.1.3-.3 0-.2-.1-.3-.3-.3-.2 0-.3.1-.3.3 0 .2.2.3.3.3zM76.5 22.6c.4 0 .7-.3.7-.7 0-.4-.3-.7-.7-.7-.4 0-.7.3-.7.7.1.4.4.7.7.7z"/>
    <path class="st0" d="M77.3 25.3c.4 0 .7-.3.7-.7 0-.4-.3-.7-.7-.7-.4 0-.7.3-.7.7 0 .4.3.7.7.7zM77.9 28c.4 0 .7-.3.7-.7 0-.4-.3-.7-.7-.7-.4 0-.7.3-.7.7 0 .4.3.7.7.7z"/>
    <path class="st2" d="M78.3 30.7c.4 0 .7-.3.7-.7 0-.4-.3-.7-.7-.7s-.7.3-.7.7c-.1.4.3.7.7.7zM80.5 33.4c.4 0 .6-.3.6-.6 0-.4-.3-.6-.6-.6-.4 0-.6.3-.6.6s.3.6.6.6zM80.4 35.8c.2 0 .4-.2.4-.4s-.2-.4-.4-.4-.4.2-.4.4c.1.3.2.4.4.4z"/>
    <path class="st1" d="M80.1 38.3c.1 0 .2-.1.2-.2s-.1-.2-.2-.2c-.1.1-.1.2-.1.3 0 .1 0 .1.1.1z"/>
    <path class="st2" d="M79.6 40.9s0-.1 0 0c0-.1-.1 0 0 0-.1 0 0 0 0 0zM78.8 43.6c.1 0 .1-.1 0 0 .1-.1.1-.1 0 0 0-.1 0-.1 0 0 0-.1 0 0 0 0z"/>
    <path class="st0" d="M25.1 61.2c.1 0 .2-.1.2-.2s-.1-.2-.2-.2-.2.1-.2.2.1.2.2.2z"/>
    <path class="st2" d="M23 59.4c.1 0 .2-.1.2-.2s-.1-.2-.2-.2-.2.1-.2.2c0 .2.1.2.2.2zM21 57.7c.2 0 .3-.1.3-.3 0-.2-.1-.3-.3-.3-.2 0-.3.1-.3.3-.1.2.1.3.3.3zM19.1 55.7c.2 0 .3-.1.3-.3 0-.2-.1-.3-.3-.3-.2 0-.3.1-.3.3 0 .2.1.3.3.3z"/>
    <path class="st0" d="M17.4 53.5c.2 0 .3-.1.3-.3 0-.2-.1-.3-.3-.3-.2 0-.3.1-.3.3 0 .2.2.3.3.3z"/>
    <path class="st2" d="M15.9 51.4c.2 0 .4-.2.4-.4s-.2-.4-.4-.4-.4.2-.4.4.1.4.4.4zM14.5 49.1c.3 0 .5-.2.5-.5s-.2-.5-.5-.5-.5.2-.5.5c.1.2.3.5.5.5zM13.4 46.7c.3 0 .6-.3.6-.6s-.3-.6-.6-.6-.6.3-.6.6.3.6.6.6z"/>
    <path class="st1" d="M12.4 44.2c.4 0 .7-.3.7-.7 0-.4-.3-.7-.7-.7-.4 0-.7.3-.7.7 0 .4.4.7.7.7z"/>
    <path class="st0" d="M11.7 41.6c.4 0 .7-.3.7-.7 0-.4-.3-.7-.7-.7-.4 0-.7.3-.7.7 0 .4.3.7.7.7z"/>
    <path class="st2" d="M11.2 38.9c.4 0 .7-.3.7-.7 0-.4-.3-.7-.7-.7-.4 0-.7.3-.7.7 0 .4.3.7.7.7zM10.8 36.2c.4 0 .7-.3.7-.7 0-.4-.3-.7-.7-.7-.4 0-.7.3-.7.7 0 .4.4.7.7.7zM10.7 33.4c.4 0 .6-.3.6-.6 0-.4-.3-.6-.6-.6-.4 0-.6.3-.6.6s.3.6.6.6z"/>
    <path class="st0" d="M10.8 30.6c.3 0 .6-.3.6-.6s-.3-.6-.6-.6-.6.3-.6.6c.1.3.3.6.6.6z"/>
    <path class="st2" d="M11.2 27.7c.2 0 .4-.2.4-.4s-.2-.4-.4-.4-.4.2-.4.4c-.1.2.1.4.4.4zM11.7 25.1c.3 0 .5-.2.5-.5s-.2-.5-.5-.5-.5.2-.5.5c0 .2.2.5.5.5z"/>
    <path class="st0" d="M12.4 22.2c.1 0 .2-.1.2-.2s-.1-.2-.2-.2-.2.1-.2.2.1.2.2.2z"/>
    <path class="st2" d="M13.4 19.5c.1 0 .1-.1.1-.1 0-.1-.1-.1-.1-.1-.1 0-.1.1-.1.1s0 .1.1.1zM14.5 17.1c.1 0 .2-.1.2-.2s-.1-.2-.2-.2-.2.1-.2.2c.1.1.1.2.2.2z"/>
    <path class="st1" d="M15.9 14.6c.1 0 .1-.1.1-.1 0-.1-.1-.1-.1-.1-.1 0-.1.1-.1.1-.1.1 0 .1.1.1z"/>
    <path class="st2" d="M17.4 12.2zM19.1 10.1zM72.2 10.1zM73.9 12.2zM75.4 14.5zM76.7 17c.1 0 .1-.1 0 0 .1-.1 0-.2 0-.2v.2c0-.1 0 0 0 0zM77.9 19.7c.2 0 .3-.1.3-.3 0-.2-.1-.3-.3-.3-.2 0-.3.1-.3.3 0 .1.1.3.3.3z"/>
    <path class="st0" d="M78.8 22.5c.3 0 .5-.2.5-.5s-.2-.5-.5-.5-.5.2-.5.5c0 .2.2.5.5.5zM79.6 25.3c.4 0 .7-.3.7-.7 0-.4-.3-.7-.7-.7-.4 0-.7.3-.7.7 0 .4.3.7.7.7z"/>
    <path class="st2" d="M80.1 28c.4 0 .7-.3.7-.7 0-.4-.3-.7-.7-.7-.4 0-.7.3-.7.7 0 .4.3.7.7.7z"/>
    <path class="st3" d="M80.4 30.7c.4 0 .7-.3.7-.7s-.3-.7-.7-.7c-.4 0-.7.3-.7.7s.4.7.7.7z"/>
    <path class="st2" d="M82.7 33.3c.3 0 .5-.2.5-.5s-.2-.5-.5-.5-.5.2-.5.5c0 .2.2.5.5.5z"/>
    <path class="st0" d="M82.6 35.6c.1 0 .2-.1.2-.2s-.1-.2-.2-.2-.2.1-.2.2c.1.2.1.2.2.2z"/>
    <path class="st2" d="M82.3 38.2c.1 0 .1 0 0 0 .1-.1 0-.1 0-.1v.1zM81.8 40.9zM21.2 60.7c.1 0 .1 0 .1-.1s0-.1-.1-.1-.1 0-.1.1 0 .1.1.1zM19.2 58.9c.1 0 .2-.1.2-.2s-.1-.2-.2-.2-.2.1-.2.2.1.2.2.2zM17.3 56.8c.1 0 .1-.1.1-.1 0-.1-.1-.1-.1-.1-.1 0-.1.1-.1.1 0 .1.1.1.1.1zM15.6 54.6c.1 0 .1 0 0 0 .1-.2.1-.2 0-.2 0 0-.1.1 0 .2-.1 0 0 0 0 0zM14.1 52.5c.1 0 .3-.1.3-.3 0-.1-.1-.3-.3-.3-.1 0-.3.1-.3.3 0 .2.2.3.3.3zM12.8 50.3c.2 0 .4-.2.4-.4s-.2-.4-.4-.4-.4.2-.4.4.1.4.4.4z"/>
    <path class="st1" d="M11.6 48c.3 0 .6-.3.6-.6s-.3-.6-.6-.6-.6.3-.6.6.3.6.6.6z"/>
    <path class="st2" d="M10.6 45.5c.3 0 .6-.3.6-.6s-.3-.6-.6-.6-.6.3-.6.6.2.6.6.6zM9.8 42.9c.4 0 .7-.3.7-.7 0-.4-.3-.7-.7-.7-.4 0-.7.3-.7.7 0 .4.3.7.7.7z"/>
    <path class="st0" d="M9.2 40.2c.4 0 .7-.3.7-.7 0-.4-.3-.7-.7-.7-.4 0-.7.3-.7.7 0 .4.3.7.7.7zM8.8 37.5c.3 0 .6-.3.6-.6s-.3-.6-.6-.6-.6.3-.6.6.2.6.6.6z"/>
    <path class="st2" d="M8.6 34.7c.3 0 .6-.3.6-.6s-.3-.6-.6-.6-.6.3-.6.6.3.6.6.6z"/>
    <path class="st0" d="M8.6 31.9c.3 0 .5-.2.5-.5s-.2-.5-.5-.5-.5.2-.5.5c0 .2.2.5.5.5z"/>
    <path class="st2" d="M8.8 29c.2 0 .4-.2.4-.4s-.2-.4-.4-.4-.4.2-.4.4.2.4.4.4z"/>
    <path class="st0" d="M9.2 26.2c.2 0 .3-.1.3-.3 0-.2-.1-.3-.3-.3-.2 0-.3.1-.3.3 0 .2.1.3.3.3z"/>
    <path class="st2" d="M9.8 23.4c.1 0 .1-.1.1-.1 0-.1-.1-.1-.1-.1-.1 0-.1.1-.1.1s0 .1.1.1zM10.6 20.7c.1-.1 0-.1 0-.1s-.1 0 0 .1c-.1 0 0 0 0 0z"/>
    <path class="st1" d="M11.6 18.2c.1 0 .1-.1.1-.1 0-.1-.1-.1-.1-.1-.1 0-.1.1-.1.1-.1 0 0 .1.1.1z"/>
    <path class="st0" d="M12.8 15.6c.1-.1 0-.1 0-.1-.1 0-.1.1 0 .1-.1 0-.1 0 0 0z"/>
    <path class="st2" d="M14.1 13.2z"/>
    <path class="st0" d="M77.9 14.4zM79.1 16.9c.1 0 .1 0 0 0 .1-.1 0-.2 0-.2v.2zM80.2 19.6c.2 0 .3-.1.3-.3 0-.2-.1-.3-.3-.3-.2 0-.3.1-.3.3 0 .2.2.3.3.3zM81.1 22.4c.3 0 .5-.2.5-.5s-.2-.5-.5-.5-.5.2-.5.5.3.5.5.5z"/>
    <path class="st2" d="M81.8 25.2c.4 0 .7-.3.7-.7 0-.4-.3-.7-.7-.7-.4 0-.7.3-.7.7.1.4.4.7.7.7zM82.3 27.9c.4 0 .7-.3.7-.7 0-.4-.3-.7-.7-.7-.4 0-.7.3-.7.7.1.4.4.7.7.7zM82.6 30.6c.3 0 .6-.3.6-.6s-.3-.6-.6-.6-.6.3-.6.6.3.6.6.6zM84.9 33.1c.2 0 .3-.1.3-.3 0-.2-.1-.3-.3-.3-.2 0-.3.1-.3.3 0 .1.1.3.3.3z"/>
    <path class="st3" d="M84.8 35.5s.1 0 0 0c.1-.1 0-.1 0-.1v.1z"/>
    <path class="st2" d="M84.5 38.2z"/>
    <path class="st0" d="M17.4 60z"/>
    <path class="st2" d="M15.6 58z"/>
    <path class="st1" d="M13.9 55.8s-.1 0 0 0c-.1 0 0 0 0 0z"/>
    <path class="st2" d="M12.3 53.6c.1 0 .1 0 0 0 .1-.1.1-.1 0 0 0-.1 0-.1 0 0zM11 51.2s.1 0 0 0c.1-.1 0-.2 0-.2s-.1.1 0 .2c-.1 0-.1 0 0 0z"/>
    <path class="st0" d="M9.8 49c.2 0 .3-.1.3-.3 0-.2-.1-.3-.3-.3-.2 0-.3.1-.3.3 0 .2.1.3.3.3z"/>
    <path class="st2" d="M8.7 46.5c.2 0 .3-.1.3-.3 0-.2-.1-.3-.3-.3-.2 0-.3.1-.3.3 0 .1.2.3.3.3zM7.9 44.1c.3 0 .6-.3.6-.6s-.3-.6-.6-.6-.6.3-.6.6c0 .4.3.6.6.6z"/>
    <path class="st0" d="M7.2 41.5c.3 0 .6-.3.6-.6s-.3-.6-.6-.6-.6.3-.6.6.3.6.6.6z"/>
    <path class="st1" d="M6.8 38.7c.3 0 .5-.2.5-.5s-.2-.5-.5-.5-.5.2-.5.5.2.5.5.5z"/>
    <circle class="st2" cx="6.5" cy="35.5" r=".5"/>
    <path class="st2" d="M6.4 33c.2 0 .3-.1.3-.3 0-.2-.1-.3-.3-.3-.2 0-.3.1-.3.3 0 .2.1.3.3.3zM6.5 30.2c.1 0 .2-.1.2-.2s-.1-.2-.2-.2-.2.1-.2.2.1.2.2.2z"/>
    <path class="st1" d="M6.8 27.3c.1-.1 0-.2 0-.2-.1.1-.1.1 0 .2-.1 0-.1 0 0 0z"/>
    <path class="st2" d="M7.2 24.7c.1 0 .1 0 .1-.1s0-.1-.1-.1-.1 0-.1.1l.1.1z"/>
    <path class="st0" d="M7.9 21.9zM9.8 16.8z"/>
    <path class="st2" d="M80.3 14.3z"/>
    <path class="st0" d="M81.5 16.8c.1 0 .1 0 0 0 .1-.1 0-.1 0-.1v.1z"/>
    <path class="st2" d="M82.5 19.6c.1 0 .3-.1.3-.3s-.1-.3-.3-.3c-.1 0-.3.1-.3.3s.2.3.3.3z"/>
    <path class="st1" d="M83.4 22.3c.2 0 .3-.2.3-.3 0-.2-.2-.3-.3-.3-.2 0-.3.2-.3.3-.1.1.1.3.3.3z"/>
    <path class="st2" d="M84.1 25.1c.3 0 .6-.2.6-.6 0-.3-.2-.6-.6-.6-.3 0-.6.2-.6.6 0 .4.2.6.6.6zM84.5 27.8c.3 0 .5-.2.5-.5s-.2-.5-.5-.5-.5.2-.5.5.2.5.5.5zM84.8 30.5c.3 0 .5-.2.5-.5s-.2-.5-.5-.5-.5.2-.5.5.3.5.5.5z"/>
    <path class="st3" d="M87.1 32.9c.1 0 .1-.1.1-.1 0-.1-.1-.1-.1-.1-.1 0-.1.1-.1.1s0 .1.1.1z"/>
    <path class="st0" d="M87 35.5z"/>
    <path class="st2" d="M9.2 52.5s.1 0 0 0c.1-.1 0-.2 0-.2-.1.1-.1.1 0 .2-.1 0-.1 0 0 0zM8 50.1c.1 0 .1-.1.1-.1 0-.1-.1-.1-.1-.1-.1 0-.1.1-.1.1-.1.1 0 .1.1.1zM6.9 47.6c.1 0 .1-.1.1-.1 0-.1-.1-.1-.1-.1-.1 0-.1.1-.1.1 0 .1 0 .1.1.1z"/>
    <path class="st0" d="M6 45.2c.2 0 .3-.1.3-.3 0-.2-.1-.3-.3-.3-.2 0-.3.1-.3.3 0 .1.2.3.3.3z"/>
    <path class="st2" d="M5.3 42.6c.2 0 .4-.2.4-.4s-.2-.4-.4-.4-.4.2-.4.4c0 .3.2.4.4.4z"/>
    <path class="st1" d="M4.8 40c.3 0 .5-.2.5-.5s-.2-.5-.5-.5-.5.2-.5.5.2.5.5.5z"/>
    <path class="st0" d="M4.4 37c.1 0 .2-.1.2-.2s-.1-.2-.2-.2-.2.1-.2.2.1.2.2.2z"/>
    <path class="st2" d="M4.2 34.3c.1 0 .2-.1.2-.2s-.1-.2-.2-.2-.2.1-.2.2c.1.1.1.2.2.2zM4.2 31.5c.1 0 .1-.1 0 0 .1-.1.1-.2 0-.2 0 0-.1 0 0 .2-.1-.1 0 0 0 0z"/>
    <path class="st1" d="M4.4 28.7s0-.1 0 0c0-.1 0-.1 0 0 0-.1 0-.1 0 0 0-.1 0 0 0 0z"/>
    <path class="st2" d="M4.8 25.9c-.1 0-.1 0 0 0-.1 0-.1 0 0 0z"/>
    <path class="st0" d="M5.3 23.2z"/>
    <path class="st2" d="M82.7 14.2zM83.9 16.7s-.1 0 0 0c-.1 0 0 0 0 0z"/>
    <path class="st0" d="M84.8 19.4c.1 0 .1-.1.1-.1 0-.1-.1-.1-.1-.1-.1 0-.1.1-.1.1 0 .1.1.1.1.1zM85.7 22.1c.1 0 .2-.1.2-.2s-.1-.2-.2-.2-.2.1-.2.2.1.2.2.2z"/>
    <path class="st1" d="M86.3 24.9c.2 0 .3-.2.3-.3 0-.2-.2-.3-.3-.3-.2 0-.3.2-.3.3-.1.1.1.3.3.3z"/>
    <path class="st0" d="M86.7 27.6c.2 0 .3-.1.3-.3 0-.2-.1-.3-.3-.3-.2 0-.3.1-.3.3 0 .1.1.3.3.3zM87 30.2c.1 0 .2-.1.2-.2s-.1-.2-.2-.2-.2.1-.2.2.1.2.2.2z"/>
    <path class="st2" d="M89.3 32.8s0-.1 0 0c0-.1 0-.1 0 0 0-.1 0-.1 0 0 0-.1 0 0 0 0z"/>
    <path class="st1" d="M6.2 51.3z"/>
    <path class="st0" d="M5.1 48.8s0-.1 0 0c-.1-.1-.1 0 0 0-.1 0-.1 0 0 0z"/>
    <path class="st2" d="M4.1 46.2c.1 0 .1 0 0 0 .1 0 .1 0 0 0z"/>
    <path class="st0" d="M3.4 43.7c.1 0 .2-.1.2-.2s-.1-.2-.2-.2-.2.1-.2.2c0 .2.1.2.2.2z"/>
    <path class="st2" d="M2.8 41.1c.1 0 .2-.1.2-.2s-.1-.2-.2-.2-.2.1-.2.2.1.2.2.2z"/>
    <path class="st0" d="M2.4 38.4c.1 0 .2-.1.2-.2s-.1-.2-.2-.2-.2.1-.2.2 0 .2.2.2zM2.1 35.7c.1 0 .2-.1.2-.2s-.1-.2-.2-.2-.2.1-.2.2.1.2.2.2z"/>
    <path class="st1" d="M2 32.8c.1 0 .1 0 0 0 .1-.1.1-.2 0-.2 0 0-.1.1 0 .2-.1 0 0 0 0 0z"/>
    <path class="st0" d="M2.1 30zM2.4 27.3c-.1 0-.1 0 0 0-.1 0-.1 0 0 0zM86.2 16.7z"/>
    <path class="st1" d="M87.1 19.3c.1 0 .1 0 0 0 .1-.1 0-.1 0-.1v.1z"/>
    <path class="st2" d="M87.9 21.9s0-.1 0 0c0-.1 0 0 0 0zM88.5 24.7c.1 0 .1-.1.1-.1 0-.1-.1-.1-.1-.1-.1 0-.1.1-.1.1s0 .1.1.1z"/>
    <path class="st0" d="M88.9 27.4c.1 0 .1 0 .1-.1s0-.1-.1-.1-.1 0-.1.1l.1.1z"/>
    <path class="st2" d="M89.2 30.1s.1-.1 0 0c.1-.1 0-.1 0-.1 0-.1-.1 0 0 .1-.1-.1 0 0 0 0z"/>
    <path class="st0" d="M3.3 50.1h-.1z"/>
    <path class="st2" d="M2.3 47.6c0-.1 0-.1 0 0 0-.1 0-.1 0 0z"/>
    <path class="st0" d="M1.5 45s.1 0 0 0c.1-.1.1-.2 0-.2s-.1.1 0 .2c-.1 0-.1 0 0 0zM.8 42.4c.1 0 .2-.1.2-.2S.9 42 .8 42s-.2.1-.2.2c.1.1.1.2.2.2zM89.4 19.2z"/>
    <path class="st2" d="M.4 48.9z"/>
    <g>
    <path d="M21.3 17.2c1.2-.1 2.6.2 3.9.9h.1c.2.1.3.2.5.3l.6.3h.1c.3.2.6.3.9.5.7.4 1.4 1 2 1.6 1.7-1.6 3.9-2.9 6.5-3 1.3-.1 2.8.1 4.4.8 1 .4 1.8.9 2.4 1.4 1.9 1 3 2.6 3.1 4.4 0 .6-.1 1.4-.5 2.2l.1.1c.4-.2.9-.3 1.4-.3.8 0 1.6.1 2.4.5.5-.4 1-.6 1.5-.8.4-.1.8-.2 1.2-.2.9-.1 1.8.1 2.7.5 1.6-2.4 4-4.9 7-5.4.3 0 .6-.1.9-.1 2.5-.2 5.7.5 8.6 3.9.7.7 1.3 1.4 1.9 2.3 2.4 3.5 2.9 6.6 1.7 10.9-1 4-3.6 6.5-7.9 7.6-.5.1-1.1.2-1.7.3-1.7.1-3.7-.2-5.5-1-.2-.1-.4-.2-.7-.3-.6.5-1.3.7-2.1.8-.8 0-1.6-.1-2.4-.5h-.1c-.1 0-.2-.1-.4-.1-.2.3-.4.5-.7.7-.6.5-1.4.7-2.2.8-.7 0-1.5-.1-2.3-.4-1-.2-2-.7-2.9-1.4.2.8.1 1.5 0 1.9-.4 1.8-1.8 3.1-3.8 3.7-.5.1-1.1.2-1.7.3-1.2.1-2.5 0-4-.3-1.2-.1-2.5-.4-4-.9-.2 1.2-.8 2.1-1.2 2.5-.9 1-2.2 1.6-3.7 1.6-.6 0-1.3 0-1.9-.1-3.5.1-7.7-2.4-8.6-6.6-1.4-6.7-1.8-14.6-1-23.5.3-3.2 2-4.6 3-5.1.8-.5 1.6-.7 2.4-.8m1.9-2.7c-1.4.1-2.7.5-3.8 1.1-2.8 1.5-4.6 4.4-4.9 8-.7 8.5-.4 16.2 1 22.6.6 2.8 2.3 5.3 4.7 7 2.1 1.5 4.5 2.3 6.9 2.3.8.1 1.6.2 2.4.1 2.4-.2 4.6-1.2 6.2-2.9.1-.1.2-.2.2-.3.2 0 .5.1.7.1 1.7.3 3.2.4 4.6.3.8-.1 1.6-.2 2.4-.4h.1c2.1-.6 3.9-1.8 5.1-3.4.7.2 1.5.2 2.3.2 1.1-.1 2.2-.4 3.2-.9.7.1 1.3.2 2 .1.6 0 1.2-.1 1.8-.3 1.9.6 3.8.9 5.7.8.8-.1 1.6-.2 2.4-.4 5.3-1.4 8.8-4.8 10.2-9.9 1.4-5.1.7-9.1-2.2-13.4-.6-1-1.4-1.8-2.1-2.6-3.8-4.4-8.2-5.1-11.1-4.9-.4 0-.8.1-1.2.1-3.2.5-5.7 2.4-7.5 4.4h-1c-.5 0-1 .1-1.5.2-.7-1.9-2.1-3.6-4.1-4.8-.9-.7-1.9-1.3-3.1-1.8-1.9-.8-3.9-1.1-5.8-1-1.9.1-3.8.7-5.5 1.7-.2-.1-.4-.3-.7-.4 0 0-.1 0-.1-.1-.2-.1-.4-.2-.5-.3-.1-.1-.3-.2-.4-.2 0 0-.1 0-.1-.1-2.3-.5-4.3-1-6.3-.9z" opacity=".5" fill="#3c1b43"/>
        <path d="M72.5 25.8c-.6-.9-1.2-1.6-1.9-2.3-3.3-3.8-7-4.2-9.5-3.8-3 .5-5.4 3-7 5.4-1.3-.6-2.7-.7-3.9-.3-.5.2-1 .4-1.5.8-1.3-.6-2.6-.7-3.8-.2l-.1-.1c.4-.9.5-1.7.5-2.2-.1-1.8-1.2-3.4-3.1-4.4-.6-.6-1.5-1.1-2.4-1.4-4.7-1.9-8.3-.1-10.9 2.2-.6-.7-1.3-1.2-2-1.6-.3-.2-.6-.4-.9-.5h-.1l-.6-.3c-.2-.1-.3-.2-.5-.3h-.1c-2.1-1.1-4.4-1.2-6.2-.3-1 .5-2.7 1.9-3 5.1-.8 8.9-.4 16.8 1 23.5.9 4.2 5.1 6.7 8.6 6.6.7.1 1.3.2 1.9.1 1.5-.1 2.8-.7 3.7-1.6.4-.4 1-1.2 1.2-2.5 1.4.4 2.8.7 4 .9 2.3.5 4.2.5 5.7.1 2-.5 3.4-1.9 3.8-3.7.1-.4.2-1.1 0-1.9.9.7 1.9 1.2 2.9 1.4 1.6.7 3.2.5 4.4-.4.3-.2.5-.4.7-.7.1 0 .2.1.4.1h.1c1.6.7 3.2.6 4.5-.3.2.1.4.2.7.3 2.5 1 5.1 1.3 7.2.7 4.2-1.1 6.8-3.6 7.9-7.6 1.2-4.3.7-7.3-1.7-10.8z" fill="#a77bb0"/>
        <path class="st6" d="M20.8 15.8c1.2-.1 2.6.2 3.9.9h.1c.2.1.3.2.5.3l.6.3h.1c.3.2.6.3.9.5.7.4 1.4 1 2 1.6 1.7-1.6 3.9-2.9 6.5-3 1.3-.1 2.8.1 4.4.8 1 .4 1.8.9 2.4 1.4 1.9 1 3 2.6 3.1 4.4 0 .6-.1 1.4-.5 2.2l.1.1c.4-.2.9-.3 1.4-.3.8 0 1.6.1 2.4.5.5-.4 1-.6 1.5-.8.4-.1.8-.2 1.2-.2.9-.1 1.8.1 2.7.5 1.6-2.4 4-4.9 7-5.4.3 0 .6-.1.9-.1 2.5-.2 5.7.5 8.6 3.9.7.7 1.3 1.4 1.9 2.3 2.4 3.5 2.9 6.6 1.7 10.9-1 4-3.6 6.5-7.9 7.6-.5.1-1.1.2-1.7.3-1.7.1-3.7-.2-5.5-1-.2-.1-.4-.2-.7-.3-.6.5-1.3.7-2.1.8-.8 0-1.6-.1-2.4-.5h-.1c-.1 0-.2-.1-.4-.1-.2.3-.4.5-.7.7-.6.5-1.4.7-2.2.8-.7 0-1.5-.1-2.3-.4-1-.2-2-.7-2.9-1.4.2.8.1 1.5 0 1.9-.4 1.8-1.8 3.1-3.8 3.7-.5.1-1.1.2-1.7.3-1.2.1-2.5 0-4-.3-1.2-.1-2.5-.4-4-.9-.2 1.2-.8 2.1-1.2 2.5-.9 1-2.2 1.6-3.7 1.6-.6 0-1.3 0-1.9-.1-3.5.1-7.7-2.4-8.6-6.6-1.4-6.7-1.8-14.6-1-23.5.3-3.2 2-4.6 3-5.1.8-.6 1.6-.8 2.4-.8m2-2.7c-1.4.1-2.7.5-3.8 1.1-2.8 1.5-4.6 4.4-4.9 8-.7 8.5-.4 16.2 1 22.6.6 2.8 2.3 5.3 4.7 7 2.1 1.5 4.5 2.3 6.9 2.3.8.1 1.6.2 2.4.1 2.4-.2 4.6-1.2 6.2-2.9.1-.1.2-.2.2-.3.2 0 .5.1.7.1 1.7.3 3.2.4 4.6.3.8-.1 1.6-.2 2.4-.4h.1c2.1-.6 3.9-1.8 5.1-3.4.7.2 1.5.2 2.3.2 1.1-.1 2.2-.4 3.2-.9.7.1 1.3.2 2 .1.6 0 1.2-.1 1.8-.3 1.9.6 3.8.9 5.7.8.8-.1 1.6-.2 2.4-.4 5.3-1.4 8.8-4.8 10.2-9.9 1.4-5.1.7-9.1-2.2-13.4-.6-1-1.4-1.8-2.1-2.6-3.8-4.4-8.2-5.1-11.1-4.9-.4 0-.8.1-1.2.1-3.2.5-5.7 2.4-7.5 4.4h-1c-.5 0-1 .1-1.5.2-.7-1.9-2.1-3.6-4.1-4.8-.9-.7-1.9-1.3-3.1-1.8-1.9-.8-3.9-1.1-5.8-1-1.9.1-3.8.7-5.5 1.7-.2-.1-.4-.3-.7-.4 0 0-.1 0-.1-.1-.2-.1-.4-.2-.5-.3-.1-.1-.3-.2-.4-.2 0 0-.1 0-.1-.1-2.4-.6-4.4-1.1-6.3-.9z"/>
        <path class="st6" d="M72.2 25.3c-.6-.9-1.2-1.6-1.9-2.3-3.3-3.8-7-4.2-9.5-3.8-3 .5-5.4 3-7 5.4-1.3-.6-2.7-.7-3.9-.3-.5.2-1 .4-1.5.8-1.3-.6-2.6-.7-3.8-.2l-.1-.1c.4-.9.5-1.7.5-2.2-.1-1.8-1.2-3.4-3.1-4.4-.6-.6-1.5-1.1-2.4-1.4-4.7-1.9-8.3-.1-10.9 2.2-.6-.7-1.3-1.2-2-1.6-.3-.2-.6-.4-.9-.5h-.1l-.6-.3c-.2-.1-.3-.2-.5-.3h-.1c-2.1-1.1-4.4-1.2-6.2-.3-1 .5-2.7 1.9-3 5.1-.8 8.9-.4 16.8 1 23.5.9 4.2 5.1 6.7 8.6 6.6.7.1 1.3.2 1.9.1 1.5-.1 2.8-.7 3.7-1.6.4-.4 1-1.2 1.2-2.5 1.4.4 2.8.7 4 .9 2.3.5 4.2.5 5.7.1 2-.5 3.4-1.9 3.8-3.7.1-.4.2-1.1 0-1.9.9.7 1.9 1.2 2.9 1.4 1.6.7 3.2.5 4.4-.4.3-.2.5-.4.7-.7.1 0 .2.1.4.1h.1c1.6.7 3.2.6 4.5-.3.2.1.4.2.7.3 2.5 1 5.1 1.3 7.2.7 4.2-1.1 6.8-3.6 7.9-7.6 1.2-4.2.7-7.3-1.7-10.8z"/>
        <g>
      <linearGradient id="SVGID_1_" gradientUnits="userSpaceOnUse" x1="166.21" y1="-26.064" x2="160.968" y2="-47.091" gradientTransform="rotate(-3.569 1223.65 1769.229) scale(1.00004)">
        <stop offset="0" stop-color="#e5448d"/>
          <stop offset=".009" stop-color="#e5438a"/>
          <stop offset=".062" stop-color="#e53f7d"/>
          <stop offset=".117" stop-color="#e53b72"/>
          <stop offset=".174" stop-color="#e4396a"/>
          <stop offset=".234" stop-color="#e43865"/>
          <stop offset=".302" stop-color="#e43763"/>
          <stop offset=".321" stop-color="#e54063"/>
          <stop offset=".482" stop-color="#eb715b"/>
          <stop offset=".635" stop-color="#f1904c"/>
          <stop offset=".777" stop-color="#f5a539"/>
          <stop offset=".903" stop-color="#f8b025"/>
          <stop offset="1" stop-color="#f9b41b"/>
      </linearGradient>
            <path d="M69.5 26.5c-1.8-2.7-4.2-4.5-7.6-4-2.8.4-5.6 4.4-6.5 7.3-.8-1.4-2.9-2.7-4-2.3-.8.3-1.5 1.4-2.1 2.8-.5-1.6-3.6-3.8-3.8-.7 0 1 0 2 .1 3.1-.5-.8-1.2-.4-1.7.3-1 1.3-2.2 2.9-3.9 3.4-.9.3-1.4.2-1.8-.7 1.8-.1 4.7-2 5.1-3.8.4-1.7-.6-4.3-2.1-5.2-1-.6-2.8-.7-3.8-.1-1.7 1-2.7 3.1-2.9 5-.3 2.6.7 5.4 2.5 7.4 2.7 3.1 8-.5 8.7-4v-.1c.1 1.2.3 2.3.5 3.3.6 2.7 4.4 4.3 3.8 1.7 0-.2-.1-.5-.1-.7.2-3 1.2-5.3 2-6.4-.1 1.7.1 3.4.2 4.1.7 3.6 4.6 4.8 3.8 2-.1-.5-.3-1.2-.4-2.1 0-.3 0-.6-.1-.9.1.4.3.8.6 1.3 1.3 2.6 6 4.4 9 3.6 3.4-.9 5-2.6 5.7-5.5 1.2-4.1.6-6.3-1.2-8.8zM39.7 30c.1-.1.4-.7.6-.5.3.5.2 1.4-.1 1.9-.4.6-1.2.8-1.8 1 .3-.9.7-1.6 1.3-2.4zm22 6.3c-1.5.4-1.6-2.1-1.4-3.3.4-2 2.1-4.8 3.8-5.4.6-.2 1.1-.4 1.5.4 1.7 3.4-.4 7.2-3.9 8.3z" fill="url(#SVGID_1_)"/>
            <linearGradient id="SVGID_2_" gradientUnits="userSpaceOnUse" x1="143.963" y1="-24.059" x2="136.477" y2="-54.083" gradientTransform="rotate(-3.569 1223.65 1769.229) scale(1.00004)">
        <stop offset="0" stop-color="#e5448d"/>
                <stop offset=".009" stop-color="#e5438a"/>
                <stop offset=".062" stop-color="#e53f7d"/>
                <stop offset=".117" stop-color="#e53b72"/>
                <stop offset=".174" stop-color="#e4396a"/>
                <stop offset=".234" stop-color="#e43865"/>
                <stop offset=".302" stop-color="#e43763"/>
                <stop offset=".321" stop-color="#e54063"/>
                <stop offset=".482" stop-color="#eb715b"/>
                <stop offset=".635" stop-color="#f1904c"/>
                <stop offset=".777" stop-color="#f5a539"/>
                <stop offset=".903" stop-color="#f8b025"/>
                <stop offset="1" stop-color="#f9b41b"/>
      </linearGradient>
            <path d="M29.7 35.7c3.1-4.5 8-11.2 9.7-12.1 2.2-1.3 1.4-2.8-.8-3.7-6.4-2.6-10.1 4.5-12.9 8.7 0-.5.1-5 .2-5.4.3-.9-1-3.1-2.9-4.1-1.7-.9-4.2-1.1-4.5 2.3-.6 7-.7 15.2.9 22.8 1 4.7 8.9 5.7 7.2 1.1-.4-1.1-.6-1.9-.8-3.6 3.3 1.5 9.9 4.3 13.6 3.3 1.8-.5 2.2-1.9.5-3.4-2.5-2-7.1-4.2-10.2-5.9z" fill="url(#SVGID_2_)"/>
            <g>
        <path class="st9" d="M69.1 26.8c-1.8-2.6-4.1-4.4-7.4-3.9-2.7.4-5.5 4.3-6.4 7.2-.8-1.3-2.8-2.6-4-2.2-.8.3-1.5 1.3-2 2.7-.5-1.5-3.5-3.7-3.7-.7v3c-.5-.8-1.2-.4-1.6.3-1 1.3-2.1 2.8-3.8 3.3-.9.3-1.4.2-1.8-.7 1.7-.1 4.6-2 5-3.7.4-1.6-.6-4.2-2-5-1-.6-2.7-.7-3.7-.1-1.7 1-2.6 3-2.9 4.9-.3 2.6.7 5.3 2.4 7.2 2.7 3 7.8-.5 8.5-3.9v-.1c.1 1.2.3 2.3.5 3.2.6 2.7 4.3 4.2 3.7 1.6 0-.2-.1-.5-.1-.7.2-2.9 1.2-5.1 1.9-6.3-.1 1.7.1 3.4.2 4 .7 3.6 4.5 4.7 3.7 1.9-.1-.5-.3-1.1-.4-2 0-.2 0-.5-.1-.9.1.4.3.8.6 1.3 1.3 2.5 5.9 4.2 8.8 3.5 3.3-.9 4.9-2.6 5.6-5.3 1.3-4 .7-6.1-1-8.6zm-29.2 3.5c.1-.1.4-.7.6-.5.3.5.2 1.4-.1 1.8-.4.5-1.2.8-1.8.9.3-.8.7-1.5 1.3-2.2zm21.5 6c-1.5.4-1.6-2.1-1.3-3.2.4-1.9 2-4.7 3.8-5.2.6-.2 1.1-.4 1.5.4 1.5 3.3-.5 7-4 8z"/>
                <path class="st9" d="M30.1 35.8c3-4.4 7.9-10.9 9.5-11.8 2.1-1.2 1.4-2.8-.8-3.6-6.2-2.5-9.9 4.4-12.7 8.5 0-.5.1-4.8.2-5.3.3-.8-1-3-2.8-4-1.7-.9-4.1-1-4.4 2.2-.6 6.8-.7 14.8.9 22.2 1 4.5 8.7 5.6 7.1 1.1-.4-1-.6-1.8-.8-3.5 3.2 1.4 9.7 4.2 13.3 3.2 1.7-.5 2.2-1.9.5-3.3-2.5-1.9-7-4.1-10-5.7z"/>
      </g>
            <g>
        <radialGradient id="SVGID_3_" cx="80" cy="20.728" r="49.149" gradientTransform="rotate(-1.255 1170.139 1754.213) scale(1.00004)" gradientUnits="userSpaceOnUse">
          <stop offset="0" stop-color="#e5448d"/>
            <stop offset=".302" stop-color="#e43763"/>
            <stop offset=".371" stop-color="#e75361"/>
            <stop offset=".541" stop-color="#ee8155"/>
            <stop offset=".691" stop-color="#f49e40"/>
            <stop offset=".811" stop-color="#f7af29"/>
            <stop offset=".888" stop-color="#f9b41b"/>
            <stop offset="1" stop-color="#f29456"/>
        </radialGradient>
                <path d="M69.3 27c-1.8-2.6-4.1-4.3-7.4-3.8-2.7.4-5.4 4.2-6.4 7-.8-1.3-2.8-2.5-3.9-2.2-.8.3-1.5 1.3-2 2.6-.5-1.5-3.5-3.7-3.7-.7v3c-.5-.8-1.2-.4-1.6.3-1 1.3-2.1 2.8-3.8 3.3-.9.3-1.4.2-1.8-.7 1.7-.1 4.6-1.9 5-3.6.4-1.6-.5-4.1-2-4.9-.9-.5-2.7-.7-3.7-.1-1.7 1-2.6 3-2.8 4.8-.3 2.5.7 5.1 2.4 7 2.6 3 7.8-.5 8.4-3.9V35c.1 1.1.3 2.2.5 3.1.6 2.6 4.3 4.1 3.7 1.6 0-.2-.1-.5-.1-.7.2-2.8 1.2-5 1.9-6.1-.1 1.7.1 3.3.2 3.9.7 3.5 4.5 4.6 3.7 1.9-.1-.5-.3-1.1-.4-2 0-.2 0-.5-.1-.9.1.4.3.8.5 1.2 1.3 2.5 5.9 4.1 8.7 3.4 3.3-.8 4.9-2.5 5.6-5.2 1.3-3.7.8-5.8-.9-8.2zm-29.2 3.4c.1-.1.4-.7.6-.5.3.4.2 1.4-.1 1.8-.4.5-1.1.8-1.8.9.4-.8.8-1.5 1.3-2.2zm21.5 5.9c-1.5.4-1.6-2-1.3-3.1.4-1.9 2-4.6 3.7-5.1.6-.2 1.1-.3 1.4.4 1.6 3.2-.4 6.8-3.8 7.8z" fill="url(#SVGID_3_)"/>
                <radialGradient id="SVGID_4_" cx="145.954" cy="-16.168" r="49.149" gradientTransform="rotate(-3.569 1223.65 1769.229) scale(1.00004)" gradientUnits="userSpaceOnUse">
          <stop offset="0" stop-color="#e5448d"/>
                    <stop offset=".302" stop-color="#e43763"/>
                    <stop offset=".371" stop-color="#e75361"/>
                    <stop offset=".541" stop-color="#ee8155"/>
                    <stop offset=".691" stop-color="#f49e40"/>
                    <stop offset=".811" stop-color="#f7af29"/>
                    <stop offset=".888" stop-color="#f9b41b"/>
                    <stop offset="1" stop-color="#f29456"/>
        </radialGradient>
                <path d="M30.5 35.8c3-4.3 7.9-10.6 9.4-11.5 2.1-1.2 1.4-2.7-.8-3.5-6.2-2.4-9.9 4.3-12.6 8.3 0-.5.1-4.7.2-5.2.3-.8-1-2.9-2.8-3.9-1.7-.9-4.1-1-4.4 2.2-.6 6.7-.7 14.5.9 21.7 1 4.4 8.7 5.4 7 1-.4-1-.6-1.8-.8-3.4 3.2 1.4 9.6 4.1 13.2 3.1 1.7-.5 2.2-1.8.5-3.2-2.4-1.9-6.9-4-9.8-5.6z" fill="url(#SVGID_4_)"/>
      </g>
    </g>
  </g>
</svg>
