<svg xmlns="http://www.w3.org/2000/svg" version="1.1" id="Ebene_1" x="0px" y="0px" viewBox="-155 279.4 283.5 283.5" style="enable-background:new -155 279.4 283.5 283.5;" xml:space="preserve">
<style type="text/css">
	.st0{display:none;fill:url(#SVGID_1_);}
	.st1{display:none;}
	.st2{display:inline;fill:#3C3C3B;}
	.st3{display:inline;fill:#EDEDED;}
	.st4{fill:url(#SVGID_2_);}
	.st5{fill:#CDD0D5;}
	.st6{fill:#191710;}
	.st7{fill:#636461;}
	.st8{fill:#66655F;}
	.st9{fill:#7B5033;}
	.st10{fill:#2E1B10;}
	.st11{fill:#1A150E;}
	.st12{fill:#FDF2A1;}
	.st13{fill:#342F32;}
	.st14{fill:#CED0D4;}
	.st15{fill:#636362;}
	.st16{fill:#936444;}
	.st17{fill:#625F5F;}
	.st18{fill:#1B1913;}
	.st19{fill:#3D3D39;}
	.st20{fill:#523323;}
	.st21{fill:#545454;}
	.st22{fill:#19150F;}
	.st23{fill:#1B1812;}
	.st24{fill:#3F2C24;}
	.st25{fill:#343434;}
	.st26{fill:#646463;}
	.st27{fill:#412514;}
	.st28{fill:#452814;}
	.st29{fill:#353434;}
	.st30{fill:#19150E;}
	.st31{fill:#332F33;}
	.st32{fill:#181610;}
	.st33{fill:#462617;}
	.st34{fill:#626560;}
	.st35{fill:#1A160F;}
	.st36{fill:#49444B;}
	.st37{fill:#514644;}
	.st38{fill:#1E1710;}
	.st39{fill:#646464;}
	.st40{fill:#CED0D2;}
	.st41{fill:#1C1A15;}
	.st42{fill:#3D3A3B;}
	.st43{fill:#C5C2C5;}
	.st44{fill:#6C6767;}
	.st45{fill:#94633F;}
	.st46{fill:#343133;}
	.st47{fill:#482A19;}
	.st48{fill:#EFC468;}
	.st49{fill:#7C5332;}
	.st50{fill:#47281B;}
	.st51{fill:#FCEAA9;}
	.st52{fill:#7A553C;}
	.st53{fill:#646563;}
	.st54{fill:#353031;}
	.st55{fill:#62625B;}
	.st56{fill:#77718A;}
	.st57{fill:#381F11;}
	.st58{fill:#7F7480;}
	.st59{fill:#F1C668;}
	.st60{fill:#F0C567;}
	.st61{fill:#97711A;}
	.st62{fill:#9B7216;}
	.st63{fill:#F8E7A4;}
	.st64{fill:#ECD37A;}
	.st65{fill:#E9D378;}
	.st66{fill:#B0A144;}
	.st67{fill:#A99659;}
	.st68{fill:#BAA840;}
	.st69{fill:#35343E;}
	.st70{fill:#737095;}
	.st71{fill:#737093;}
	.st72{fill:#311C10;}
	.st73{fill:#462615;}
	.st74{fill:#301C10;}
	.st75{fill:#342E30;}
	.st76{fill:#301C11;}
	.st77{fill:#3E2514;}
	.st78{fill:#636263;}
	.st79{fill:#626262;}
	.st80{fill:#3F2211;}
	.st81{fill:#452A21;}
	.st82{fill:#2F1B10;}
	.st83{fill:#795035;}
	.st84{fill:#7B5134;}
	.st85{fill:#442517;}
	.st86{fill:#464855;}
	.st87{fill:#452619;}
	.st88{fill:#785136;}
	.st89{fill:#1F160E;}
	.st90{fill:#7C5034;}
	.st91{fill:#2F1C10;}
	.st92{fill:#1B1710;}
	.st93{fill:#351D10;}
	.st94{fill:#452615;}
	.st95{fill:#7D614C;}
	.st96{fill:#413128;}
	.st97{fill:#C99B75;}
	.st98{fill:#6D6656;}
	.st99{fill:#7D7180;}
	.st100{fill:#91711D;}
	.st101{fill:#737199;}
	.st102{fill:#F9F8FB;}
	.st103{fill:#514C46;}
	.st104{fill:#916F1F;}
	.st105{fill:#F9EBA5;}
	.st106{fill:#463620;}
	.st107{fill:#444856;}
	.st108{fill:#787088;}
	.st109{fill:#936D1A;}
	.st110{fill:#5C503F;}
	.st111{fill:#CDD1D4;}
	.st112{fill:#FBFAFB;}
	.st113{fill:#F7F7F9;}
	.st114{fill:#77738B;}
	.st115{fill:#332F34;}
	.st116{fill:#342F37;}
	.st117{fill:#1D1B1C;}
	.st118{fill:#CDD0D4;}
	.st119{fill:#E9C570;}
	.st120{fill:#8C6B23;}
	.st121{fill:#766F9E;}
</style>
    <radialGradient id="SVGID_1_" cx="-6.3643" cy="-1661.5215" r="50.2255" gradientTransform="matrix(1.2149 0 0 -0.1215 41.232 289.5744)" gradientUnits="userSpaceOnUse">
	<stop offset="0" style="stop-color:#000000"/>
        <stop offset="1" style="stop-color:#000000;stop-opacity:0"/>
</radialGradient>
    <ellipse class="st0" cx="33.5" cy="491.5" rx="84.9" ry="7.6"/>
    <g class="st1">
	<path class="st2" d="M-35.6,440.9c0-21.8,12.6-36.9,32.4-45.5v-0.8c-17.6-8.9-26.3-23.7-26.3-39.7c0-30.7,27.7-51.1,64-51.1   c42.5,0,60.1,24.6,60.1,46.7c0,15.6-8.4,31-26.3,40v0.8c17.6,6.7,33.2,21.8,33.2,45.3c0,33-27.7,55-69.8,55   C-14.4,491.4-35.6,465.4-35.6,440.9z M58.3,439.5c0-15.9-11.7-25.4-28.5-29.9c-14,3.9-22.1,14-22.1,27.1   c-0.3,13.1,9.8,25.4,25.7,25.4C48.5,462.1,58.3,452.3,58.3,439.5z M10.5,353.4c0,12.3,11.2,20.1,25.7,24.6   c9.8-2.8,18.4-11.7,18.4-23.2c0-11.2-6.4-22.4-22.1-22.4C18,332.5,10.5,342,10.5,353.4z"/>
</g>
    <g class="st1">
	<path class="st3" d="M-38.2,437.8c0-21.8,12.6-36.9,32.4-45.5v-0.9c-17.6-8.9-26.3-23.7-26.3-39.7c0-30.7,27.7-51.1,64-51.1   c42.5,0,60.1,24.6,60.1,46.7c0,15.6-8.4,31-26.3,40v0.8c17.6,6.7,33.2,21.8,33.2,45.3c0,33-27.7,55-69.8,55   C-16.9,488.4-38.2,462.4-38.2,437.8z M55.7,436.4c0-15.9-11.7-25.4-28.5-29.9c-14,3.9-22.1,14-22.1,27.1   C4.8,446.7,14.9,459,30.8,459C45.9,459,55.7,449.3,55.7,436.4z M7.9,350.3c0,12.3,11.2,20.1,25.7,24.6c9.8-2.8,18.4-11.7,18.4-23.2   c0-11.2-6.4-22.4-22.1-22.4C15.5,329.4,7.9,338.9,7.9,350.3z"/>
</g>
    <radialGradient id="SVGID_2_" cx="-6.2529" cy="612.5103" r="102.3366" fx="82.2317" fy="615.2015" gradientTransform="matrix(0.8791 0.1493 -3.348914e-002 0.1972 4.5324 410.9308)" gradientUnits="userSpaceOnUse">
	<stop offset="4.854369e-003" style="stop-color:#000000;stop-opacity:0.7"/>
        <stop offset="1" style="stop-color:#000000;stop-opacity:0"/>
</radialGradient>
    <path class="st4" d="M-128.4,511.9c2-11.7,51.5-13,110.6-2.9c59.1,10,105.4,27.6,103.5,39.3c-2,11.7-51.5,13-110.6,2.9  C-84.1,541.2-130.4,523.6-128.4,511.9z"/>
    <g>
	<g>
		<path class="st5" d="M43.4,305.4c0.9-0.4,1.8-0.7,2.6-1.2c1.5-0.9,1.7-2,0-2.8c-1.6-0.7-2.7-1.7-3.1-3.4c-2-7.7-7.2-12.1-14.7-14    c-1.7,0.1-3.5,0.1-5.2,0.2c-0.8,1.2-2.2,1.2-3.3,1.9c-4.2,2.7-6.9,6.4-7.2,11.5c0,0.7,0.1,1.5-0.6,2.1c-1.6,4.4-0.3,8,4.2,11.3    c1.4,0.4,2.6-0.2,3.7-0.8c5-3.3,10.9-2.6,16.4-3.5C38.6,306.3,41.1,306.5,43.4,305.4z"/>
        <path class="st6" d="M80.5,387.1c1.1,2.6,2.8,3.1,5.1,1.3c1.1-0.8,2.2-1.2,3.6-1c3.3,0.5,4.8-0.7,4.8-4c0-3.5,1-6.5,2.9-9.4    c0-0.9-0.1-1.7-0.1-2.6c-0.6-1-1.4-0.9-2.2-0.3c-3.1,2.5-6.1,2.2-8.9-0.5c-1.4-0.3-2.7,0-4,0.7c-3.6,2.3-3.7,2.9-1.1,5.6    c1,0.9,2.1,1.4,3.5,1.4c3.3,0,3.3,0,1.8,3.1c0,3.1-1.7,4.6-4.6,5C80.9,386.6,80.7,386.8,80.5,387.1z"/>
        <path class="st7" d="M29.4,548.4c2.8-1.4,5.9-0.8,8.8-1.4c1.1-0.3,2.3-0.3,3.4-0.5c-0.4-1.6-1.8-1.2-2.9-1.2    c-1.3-0.1-2.5,0.4-3.8,0.6c-1.2,0.1-2.5,0.2-3.1-1.1c-0.6-1.4,0.5-1.8,1.4-2.5c1.8-1.5,1.7-2.7-0.2-4.1c-1.6-1.1-3.5-0.9-5.3-1.3    c-0.8-0.1-1.6,0-2.3,0.7c-1,1.4-1.4,3.1-2.2,4.6c-0.8,2.3-0.9,4.5,0.9,6.5C25.9,548.6,27.7,548.5,29.4,548.4z"/>
        <path class="st8" d="M85.6,371.1c1.8,3.1,6,3.7,8.7,1.1c0.7-0.6,1.2-1.6,2.3-0.9c0-0.4,0-0.9-0.1-1.3c-1.4-2.1-2.7-4.3-4.1-6.4    C88.8,364.8,85.9,366.7,85.6,371.1z"/>
        <path class="st9" d="M-71.4,452c3.1,3,3.9,6.7,3.8,10.9c0.7,1.1,0.8,2.4,1.3,3.6c0.5,1.2,1.1,2.2,2.5,2.3c1.5,0.1,2.4-1,2.9-2.2    c1.1-3,1.7-6,1.7-9.2c-0.1-5.8-0.9-11.7-0.2-17.5c0.2-2.1-0.6-4.1-1.3-6c-1-2.8-1.6-5.6-2.2-8.5c-0.3-1.4-0.4-2.8,0.3-4.1    c2.8-5,3.1-9.8-0.7-14.5c-1.1-1.4-1.5-3.1-1.9-4.8c-0.5-2-1.4-3.6-4-4.9c2,0.7,3.1,1.6,3.3,2.8c0.8,4.6,3.9,8.1,5.5,12.4    c0.6,1.6,1.8,3,3.3,4c1.6,1.1,2.4,0.4,2.5-1.4c0.1-1.3-0.4-2.3-1.3-3.2c-1.3-1.1-2.2-2.5-2.7-3.5c0.5,1.8,2.6,3.2,4,5.1    c1.4,2,2.3,1.9,3.3-0.4c1.3-3,2.4-6.1,5-8.2c0.2-0.2,0.4-0.5,0.4-0.8c-1.9-3.3-5.6-3.4-8.5-4.8c-3.7-1.8-3.9-1.9-2-5.7    c1.3-2.5,3.1-4.7,5-6.7c3.6-3.9,5.9-8.8,9.4-12.7c0.9-1.1,1.9-2.2,3.3-2.6c3.8-1.2,6.4-3.9,9.1-6.6c0.6-0.6,1.2-1.2,0.9-2.2    c-1-1.6-2.7-1.5-4.3-1.9c-4.5-1.2-9-1.6-13.6-1.5c-13.4,2.9-22.2,11.5-28.4,23.2c0.7,0.6,1.3-0.3,2-0.2c-1,0.8-2,1.7-3.1,2.2    c-4.6,7.5-6.1,16-8.1,24.3c-0.4,7.4,0.2,14.1,6,20c4.5,4.6,5.1,11.3,5.7,17.6C-72.4,448.3-73,450.3-71.4,452z"/>
        <path class="st10" d="M-46.2,404c-3.2,0.9-3.9,3.8-5,6.3c-0.6,1.3-1.1,2.6-1.8,4.2c-2.3-3.1-5.3-5.4-6.9-9.4    c-0.7,5,5,6.6,4.2,11.3c-1.6-0.5-2.7-1.6-3.3-2.9c-2.1-4.5-5.8-8.3-6.4-13.6c-0.3-2.8-3.4-3.1-4.7-5.7c-1,2.2-0.2,3.3,1.2,4    c1.8,0.9,2.6,2.4,3.2,4.2c0.8,2.5,1.6,4.9,3.2,7c2.2,3,1.5,7.1,0,9.2c-2.8,3.9-1.8,7.5-0.6,10.7c2.4,6.1,2.5,12.3,2.5,18.7    c0,5.5,1,11-0.7,16.4c-0.2,0.7-0.4,1.5-0.7,2.1c-0.4,0.8-0.8,1.7-1.8,1.6c-0.9-0.1-1.5-0.8-1.8-1.7c-0.4-1.4-0.6-3-2.2-3.8    c0.8,5,0.7,9.9-0.2,14.8c-0.6,1.6,0.5,2.3,1.7,3c1.2,0.7,2.5,1.3,3.8,1.7c3.8,1.3,7.6,2.7,11.3,4.3c1.1,0.5,2.5,0.6,1.9-1.5    c-0.7-3.9-1.9-7.7-3.7-11.3c-2.2-4.5-2.7-9.3-2.5-14.2c0.3-5.1,0.7-10.1,1.1-15.2c0.1-0.8-0.1-1.5,1-1.7c4.5-0.8,7.2-4,9.9-7.4    c6.2,10.7,17,16,26.2,23.3c2.2-0.3,1.9-2.1,1.9-3.5c-0.1-3.9-1.9-6.8-5.2-8.8c-4-2.4-8.3-4.2-10.8-8.5c-0.3-0.6-1-1.1-1.6-0.9    c-3.3,1.2-5.4-0.9-7.3-2.8c-2.5-2.5-4-5.5-4.2-9.2c-0.3-5.1,0-10.1,0.7-15.2c0-1-0.1-2-0.4-3C-44.6,405.7-44.8,404.5-46.2,404z"/>
        <path class="st11" d="M-71.4,452c-0.2-7.1-0.8-14.1-4-20.7c-0.7-1.4-1.3-2.7-2.5-3.7c-3.9-3.2-5.6-7.5-5.6-12.5    c0-2.1,0.3-4.3-0.8-6.3c-2.9,2.6-4.5,6.2-6.8,9.3c-5.6,7.9-13,13.2-22.7,14.9c0.9,1.7,2.2,0.5,3.4,0.5c2.9,0.2,5.3-1.5,7.8-2.7    c2.5-1.1,5-2.5,8.4-2.7c-1.2,2.1-3.5,2.7-3.6,5c1.1,0.6,1.5-1.3,2.6-1c0.2,1.1-0.8,1.6-1.1,2.5c0.7,0.9-0.8,1.3-0.5,2.1    c-3.1,6.9-2.6,14.5-4.2,21.6c1.2,0.5,1.6-1.1,2.7-0.7c-0.1,2.7-1.8,5.6,0.8,8.4c1-1.8-0.1-3.9,1.7-5.3c0.8,1.5,2,2.9,3.1,4.2    c1.2,1.6,3.1,1.2,4.5,2.8c-0.3-5.1-5.1-9.3-1.2-14.4c2,4.4,2.6,8.9,4.6,13c-0.6-3.8-0.7-7.6-1-11.4c-0.3-3.8,0.9-7.4,2.1-11.9    c1.3,8.1-0.6,15.8,4.2,22.4c2.8-8.7,1.7-17.4,1.3-26c0.3,0,0.6,0,1,0c0.4,2.1,1.1,4.3,1,6.4c-0.1,4.1,2.5,7.5,2.6,12    C-72.4,455.8-71.7,454-71.4,452z"/>
        <path class="st12" d="M16.2,310.4c-3.7-2.7-4.5-6.5-4.4-10.8c-4.9,1.1-10.5-0.1-14.7,3.8c-3.4,3.2-7.3,6.1-9.8,10.2    c-1.8,3-4.7,4.9-6.9,7.6c-1.9,2.2-4.4,4.1-5.8,6.5c-1.7,3.2-3.9,5-7.3,6.3c-3.5,1.4-3.3,5-3.2,8.4c0.1,3.4,2.5,4.2,4.9,5.1    c1.4,1,2.9,0.7,4.5,0.4c1.5-1.1,4.4,0.4,4.8-2.6c-0.2-0.4-0.6-0.4-1-0.5c0.2-0.1,0.5,0,0.7,0.1c1.9,0.6,3.8,0.6,5.5-0.4    c1.5-0.9,2.1-2-0.4-2.5c-0.3,0.1-0.6,0.2-0.9,0.3c-0.4,0.1,0.1,0-0.3,0.1c0-0.1,0.1-0.1,0.2-0.1c0.7-0.3,1.4-0.4,2-0.9    c1.6-2,2.7-4.2,2-6.9c-1.5-0.3-3.1-0.4-4.5-0.5c3.1-0.1,6.3,1.1,9.6,0.3c1.8-0.6,4-0.5,4.7-2.8c1.3,0.3,1.1,2.6,2.7,2    c1.4-0.5,1-2,1.1-3.1c0-1-0.1-1.9,0.1-3.3c0.8,1.1,0.6,2,0.6,2.9c0,0.9-0.1,1.9,0.9,2.2c1,0.3,1.6-0.4,2-1.2    c0.7-1.5-0.5-3.5,1.6-4.9c0.5,1.1-0.4,3.2,1.8,3c1.8-0.2,2.6-1.5,2.9-3c0.5-2.3,0.9-4.9,0.2-7c-1-2.9-1.3-5.8-1.8-8.7    c-0.1-0.7-0.7-1.5,0.3-1.9c0.8-0.4,1.5-0.1,2.1,0.5c1.4,1.4,2.8,2.7,4.9,2.9c0.3,0,0.6-0.1,0.9-0.3    C16.2,311,16.3,310.7,16.2,310.4z"/>
        <path class="st13" d="M-49.2,485.2c-0.1,0.9-0.4,1.5-1.4,0.9c-4.9-2.8-10.5-3.9-15.5-6.3c-1-0.5-1.5-1.1-1.7-2.1    c-2.2,7.2-0.8,10.9,5.5,14.3c5.9,3.2,11.8,6.6,17.1,10.8c1-1.7,0.6-3.3-1.5-5.5c-3.9-4.1-8.4-7.4-13.4-9.9c-0.5-0.2-1-0.5-1.5-0.6    c6.5,1.3,10.9,5.7,15.1,10.4c2,2.3,1.9,5.2,3.3,7.6c0.6,0.9,1.2,1.7,1.9,2.6c1.7,0.2,1.5-1.5,2.2-2.2c0.4-0.5,0.7-1.2,1.5-0.9    c0.7,0.3,0.6,1.1,0.5,1.7c-0.3,2.2-1,4.5,0.9,6.4c1.4,2.7-1.1,4.3-1.8,6.4c0.1,1.7,1.5,1.6,2.6,1.9c2.7,0.8,5.4,1.7,8.2,1.2    c3.1-0.5,3.8-1.6,2.9-4.9c-1.5-3-2.2-6.2-4.3-8.9c-0.9-1.1-1.4-2.9-1.2-4.2c0.8-4.6-1.8-6.4-5.5-7.6c-0.3-0.1-0.6-0.3-0.9-0.4    c-4.4-1.7-7.6-5.2-11.4-7.7C-48.9,487.3-48.3,485.9-49.2,485.2z"/>
        <path class="st14" d="M-26.5,347.3c-1.5,0.1-3,0.2-4.5,0.2c0.1,3.2,0.2,6.4,0.4,9.6c0.1,1.8,1.2,2.9,2.3,4.1    c1,0.9,1.9,1.7,2.9,2.7c1.8,1.5,2.8,3.9,5.1,4.9c0.3,0.1,0.6,0.1,0.9,0c1.7-0.9,2.5-2.6,3.6-4.1c2.9-3.9,5.5-8,8.2-12.1    c0.9-1.3,2.3-2.8,1.1-4.7c-4-2.7-8.4-2.7-12.9-1.9C-21.7,346.6-24,347.6-26.5,347.3z"/>
        <path class="st15" d="M-24.6,516.9c0.6,3-0.9,4.1-3.7,4.1c-3.5,0.1-6.7-1.3-9.9-2.4c-2.5,9.7,2.6,16.5,11.7,15.9    c3.2-0.2,4.6-1.5,4.4-4.7C-22.3,525.5-21.3,520.8-24.6,516.9z"/>
        <path class="st16" d="M-27.8,361c-0.9-1.3-1.9-2.6-2.8-3.9c-5.4,0.7-10.8,0.7-16.1,2.1c3.2,1.1,6.6,0.8,9.9,1.6    c2.6,0.6,5.4,0.6,7.8,2.2C-27.5,363-27.2,362.3-27.8,361z"/>
        <path class="st17" d="M-43.3,504.7c-1-8.4-6.4-13.5-13.5-17c-2.2-1.1-4.6-1.5-6.8-2.7c1.3,2.5,4,3.3,6.2,4.6    c3.8,2.3,7.2,5,10.3,8.2c1.3,1.3,2.6,2.8,1.9,5C-44.6,503.4-43.9,504.1-43.3,504.7z"/>
        <path class="st18" d="M-36.4,512.3c-0.4-2.3-0.7-4.6,0.1-6.9c0.4-1.1,0.2-2.3-1-2.7c-1.3-0.4-1.9,0.7-2.5,1.5    c-0.7,0.9-0.4,2.4-1.6,3.1C-40.3,509.4-39.8,512.3-36.4,512.3z"/>
        <path class="st19" d="M-96.8,436.7c0.6-0.6,1.3-1.2,0.5-2.1c-1.8,1.7-3.7,3.2-5.4,5c-1.5,1.6-2.5,3.4-1.7,6.3    C-101.9,441.9-100.3,438.6-96.8,436.7z"/>
        <path class="st20" d="M-76.2,384.5c0.7,0.6,1.2,0,1.7-0.3c1.2-0.8,3.6-1.7,2.6-3.2c-1.1-1.6-1.9,1.4-3.2,1.4    C-75.7,383-76.2,383.7-76.2,384.5z"/>
        <path class="st21" d="M-110.4,433.5c-1.1-0.2-2.2-0.3-3.4-0.5c-1.9-0.2-3.8,0.1-5.5,1.4C-116.3,434.1-113.4,433.8-110.4,433.5z"/>
        <path class="st9" d="M-44.6,409.8c-0.8,4.8-0.9,9.6-0.8,14.5c0.2,6.7,3.8,10.9,9.2,14.1c0.5,0.3,1.3,0.6,1.5,0.5    c2.8-3.5,3.1,0.4,3.9,1.5c2.4,3.3,6.1,4.6,9.4,6.5c4.9,2.9,6.7,7.7,4.2,11.8c1.5,1.5,3.6,1.5,5.3,2.3c1.1,0.1,2.2,0.1,2.8-1.1    c0.1-1.4-1.2-1.4-2-2.2c1.4,0,2.1,1,3.1,1.5c1.5,0,2.6-0.8,3.9-1.5c-4.4,1.6-6.9,4.3-5.6,9.2c1.5,1.8,3.6,3.1,4.1,5.7    c4.4-0.4,4.4-0.4,7,2.7c-3.1-3.7-4.7-3.8-6.7-0.1c0.2,3.5,1.6,6.8,2.5,10.2c0.5,1.8,0.6,3.6,0.8,5.3c3.2,6.2,6.2,12.4,8.2,19.2    c1,1,2,1.9,3.1,2.8c0.8,0.7,1.8,1.7,3,0.5c0.3-4.5-0.1-9-2.1-12.9c-2.8-5.5-4.2-11.3-5.8-17.1c-0.8-3.7,3-5.7,3.3-9    c0.2,3.3-2.1,5.8-3.3,8.6c1.5,8.2,4.3,15.9,9.5,22.6c0.3,0.4,0.6,0.9,1.2,0.9c1.6-1,2.2-2.6,1.8-4.4c-0.5-2.1,0.1-4.2-0.7-6.3    c-0.5-4.9-1.3-9.6-3-14.2c-1.9-0.2-2,1.2-2.1,2.5c-0.2,1.8,0.3,3.4,0.9,5.1c0.5,1.5,1,3-0.1,4.5c0.1-3.1-0.9-5.9-1.6-8.8    c-0.6-2.4,0.3-3.7,2.8-3.8c0.2-0.4,0.3-0.9,0.5-1.3c-1-4.4-3.9-8.1-4.7-12.8c2.4,0.9,4.5,2.9,7.1,0.9c1.2-1,2-2.4,3-3.7    c3-4.4,3.6-9.9,6.4-14.5c3.2-5.2,4.5-10.9,5.3-16.9c0.7-4.9,2.4-9.6,4.2-14.3c0.3-1.4-0.6-2.3-1.5-3c-2.8-2.3-5.6-4.7-7.9-7.7    c-0.5-0.7-1.3-1.1-2.3-0.8c-0.3,0.2-0.4,0.4-0.5,0.7c-0.1,0.7,0.6,1.5,0.2,1.8c-0.5,0.5-1.1-0.4-1.6-0.6c-0.6-0.3-1.3-0.4-1.9-0.8    c-1.1-0.8-0.7-2.1-1.2-3.1c-0.7-1.2-1.6-2.2-3.1-1.7c-1.5,0.5-1.5,2-1.5,3.3c0.1,3.6,0.7,7.2,0.1,10.9c-0.4-4-2.9-7.3-5.3-9.7    c-2-2-3.9-4-5.5-6.4c-0.8-1.2-2.2-0.7-3.2,0c-1.5,1-3.1,1.3-4.9,1.2c-2.3-0.2-3.8,1.2-5.2,3.3c-0.4-2.2-0.5-4.1-0.2-6    c0.2-1.2,0.4-2.4-0.3-3.5c-2.8-0.1-3.7,1.9-4.4,4.1c0.5,2.5-0.4,4.7-1.2,6.9c-2.1,5.2-0.9,10.1,0.6,15.1c0.2,0.6,0.4,1.3,1.2,1.3    c0.7,0,1.2-0.5,1.6-1c0.8-1.3,1.2-2.8,1.6-4.2c0.6-2.3,1.5-4.5,2.7-6.5c0.2-0.9-0.1-1.6-0.9-2.1c-2.8-1.2-3.3,1.1-4.3,3    c0.6-4.5,0.9-4.7,4.7-2.8c2.3,0.8,4.6,1,7,0.9c2.1-0.1,3,1,2.7,3c-0.2,1.6-0.5,3.2-0.1,4.8c0.5,2,1.7,3.3,3.8,3.3    c2.1,0,2.7-1.4,2.9-3.2c0.1-0.7-0.1-1.7,0.8-1.9c0.8-0.2,1.3,0.6,1.9,1.1c0.3,0.3,0.6,0.7,0.8,1c3.1,4.4,5.7,4.7,9.6,1    c1.1,1.5,1.6,3.3,1.7,5.1c0.1,0.9,0.2,1.7,0.7,2.5c3.4,5,3,9.8,0.5,15.2c-1.4,3.1-2.3,6.3-4.6,8.7c-0.4-1.4-1.5-2.2-3.3-1.9    c-1.5,0.2-2.1,1.4-2.4,2.7c-0.2,1.2-0.1,2.4,0.1,3.5c0.6,2.5-1.4,3.9-2.4,5.8c-0.4,0.7-1.1,0.2-1.6-0.4c-0.5-0.7-0.9-1.6-1.6-2    c-2.7-1.4-4.2-2.6-1.1-5.5c1.7-1.5-0.1-4.6-2.7-5c-2.1-0.3-4.1-0.1-5.9,1.1c-1.9,1.3-3,0.2-4.1-1.2c-1.1-1.4-0.2-2.3,0.8-3.3    c2.2-2.2,2.5-4.7,0.3-8.6c-1.4-2.5-1.5-4.4-0.5-7.4c1.7-4.7,1.1-9.8-1-14.5c-0.4-1-1.2-1.8-2.5-1.7c-3.2,6.3-5,13-5.6,20.1    c-0.2,2.7-0.7,5.4-0.4,8.1c0.3,3,0,6,0.5,8.3c-3.8-6.9-7.5-14.5-8.6-23.2c-0.2-1.6-1.1-2.4-2.7-2.7c-2.3-0.4-4.2-1.5-5.6-3.5    c-0.7-1.3-1.4-2.7-2.1-4c-0.8-1.3-0.3-2.5,0.5-3.6c0.6-0.8,1.6-1.5,1.3-2.8c-0.6-0.8-1.4-1.2-2.2-1.7c-2.8-1.3-5.6-2.5-8.4-3.8    c-1-0.5-2.1-1.2-3.3-0.5c0,0-0.1,0.1-0.1,0.1c0.4,0.9,0.9,1.7,1.3,2.6c0.7,0.7,1.8,1,2.3,2C-42.9,409.6-44.2,409.1-44.6,409.8z"/>
        <path class="st22" d="M25.7,538.2c0.5-0.8,1.2-0.6,1.9-0.7c1.8-0.3,4.3,1.7,5.2-1.6c-2.3-1.8-4.2-3.7-4.5-6.9    c-0.2-2.1-2.3-3.2-4-4.4c-0.5-4.3-0.5-4.3-5.9-3.8c-2.4,0.8-5.2,0.5-7.5,1.7c-2.7,2.1-2.7,2.1-0.5,5.2c0.6,0.9,1.5,1.2,2.5,1.4    c2.5,0.7,4.2,1.6,4.5,4.8c0.3,2.7,3.1,4.6,5.8,5.8C24.3,539.7,25.2,539.2,25.7,538.2z"/>
        <path class="st23" d="M-2.5,499.1c0,0.2,0,0.4,0,0.6c1,3.2-1.8,2.9-3.4,3.3c-3.7,1-5.2,3-4.8,6.9c0.8,1.1,1.4,2.4,2.7,3.1    c0.9,0.3,1.1-0.4,1.5-0.9c1-1.7,2.3-2.8,4.3-3c1.6-0.2,3,0.2,3.7,1.9c0.8,1.7,2.1,3,3.3,4.4c0.6,0.6,1.3,1.4,2.2,0.8    c0.8-0.5,0.7-1.5,0.6-2.4c-0.2-1.2-0.5-2.3-1.1-3.3c-1.8-1.4-3.3-3.1-4.4-5c-0.7-1.2-1.3-2.5-0.7-4c0.5-1,1.4-2.2-0.2-3    C0,497.7-1.5,497.1-2.5,499.1z"/>
        <path class="st24" d="M-2.5,499.1c1.5-1.2,2.8-0.4,4.2,0.2c-2.5,3.6-0.2,9.1,4.6,11.1c0.2-0.1,0.2-0.3,0.2-0.4    c0-0.2-0.1-0.2-0.1-0.2c-0.8-6.9-4.6-12.6-7.5-18.6c-0.1-0.3-0.7-0.4-1.1-0.5C-2.4,493.5-3.5,496.2-2.5,499.1z"/>
        <path class="st25" d="M-7.2,511.6c0,0.6-0.1,1.1-0.7,1.4c1,1,1.9,2.1,3,2.9c1.6,1.2,2.5,2.6,2.6,4.6c0.1,3.4,2,5,5.3,5.3    c2.6,0.2,5.2,0.3,7.4,1.9c0.1-1.5-2.3-3.2,0.5-4.4c-1.6-1.4-3.7-1-5.5-1.4c-2.6-0.5-4.3-1.7-5.7-4.2    C-1.9,515.1-3.6,512.1-7.2,511.6z"/>
        <path class="st26" d="M-10.6,509.9c1.4-5.6,2.9-6.7,9.3-7c-0.4-1.1-0.2-2.3-1.1-3.2c-3.5,0.3-6.3,3.4-10.1,2.4    c-1.3-0.3-2.7-0.4-3.4,1.1c-0.6,1.4,0.5,2.2,1.3,3C-13.3,507.5-12.3,509-10.6,509.9z"/>
        <path class="st27" d="M-9.4,459.7c-0.9,0.5-1.7,0.9-2.6,1.4c0.8,1.9,0.5,4.2,2.1,5.8c0.7-1.9,4.2-6.7,6.3-8.6    c0.6-0.6,1.5-1.4,0.9-2.2c-0.9-1.1-1.4,0.3-2,0.6c-1.2,0.7-2.4,1.5-3.5,2.2C-8.7,459-9.1,459.3-9.4,459.7z"/>
        <path class="st28" d="M-5.4,475.1c3.3-3.1,3.9-2.9,7.5,1.8c-0.9-4.6-4.4-6.5-7.8-4.3C-5.6,473.4-5.5,474.3-5.4,475.1z"/>
        <path class="st29" d="M25.7,538.2c-0.7,0.7-2,0.5-2.5,1.5c0,0.8,0.1,1.7,0.1,2.5C24.6,541.2,25.4,539.9,25.7,538.2z"/>
        <path class="st30" d="M15.6,467.1c-3.1,1.9-5.1-0.9-8-2c1,5.5,3.1,10.1,5.9,14.5c2.7-1.7,5.8-2.2,8.9-2.2c3.1,0,5.8-0.8,8.6-2.3    c3.2-1.7,6.9-2.2,9.9-4.4c1.3-0.9,2.9-0.2,4.3,0.4c2.7,1.1,5.3,2.3,8.3,2.4c1.7,0.5,2.6,0,2-1.8c-1.7-5,0.1-8.3,4.9-10.2    c0.7-0.3,1.5-0.8,1.7-1.5c0.8-4,2.1-8,0.9-12.1c-0.3-0.3-0.5-0.6-0.8-0.8c-1.5-1.9-3.2-3.5-5.4-4.4c-1.4-0.6-1.9-1.3-1.2-2.7    c1.7-3.9,2.3-8.1,2.5-12.2c0.2-3.5,2.2-5.4,5-6.8c1.1-0.6,2.4-0.9,3.3-2c-0.1-0.6-0.2-1.3-0.2-1.9c-2.9-0.8-4.8,2-7.5,2.1    c-1.8,0.1-2.9,1.1-3.6,2.8c-0.1,0.3-0.1,0.7-0.1,1c0.4,4.2,0.3,8.3-1.5,12.2c-1.1,2.4-1.7,5-1.8,7.7c0.1,2.1,1.2,3,3.4,2.9    c2.4-0.1,4.2,1,4.6,3.6c0.5,3.4-3.3,9.4-6.7,10.1c-3.5,0.7-7,1.6-10.8,0.6c-2.6-0.7-5.1,1.4-7.7,1.8c-1.3,0.5-2.6,1-3.7,2    c-3.6,3.4-8,3.8-12.6,3C17.1,466.5,16.3,466.5,15.6,467.1z"/>
        <path class="st31" d="M62.2,523.8l-0.3-0.1l-0.3,0.1c-3.2,2.9-1.8,6.5-1.4,10c0.1,1,0.6,1.5-0.8,2c-1.7,0.7-3.4,1.9-4.3,3.7    c1.3,3.7,4.2,3.3,7.5,3.7c6.4,0.6,9.5-2.7,12-7.6c-1.5-4.6-2.9-9,0.7-13.4c2.3-2.9,2.2-6.7,2.7-10.2c0.1-0.5,0-1.4-0.4-1.5    c-3-1-1.7-3.2-1.3-5c1.2-5.8,2-11.7,3.1-17.5c0.4-2.1,0.9-3.7,3.8-2.8c1.8,0.5,3.9,0.3,5.6-0.9c1.1-5.7,0.9-11-4.8-14.6    c-1.2-0.8-2.3-1.5-3.8-1.4c-1.5,3.2-4.7,5.4-5.7,8.9c3.6,12.4,0.9,23.8-5.2,34.7c-0.9,1.6-1.2,3.2-0.9,5c0.3,1.9-0.1,3.6-0.8,5.4    c0.1,0.2,0.1,0.5,0,0.6c-0.9,1.4-0.3,4-2.1,4.4C63.2,527.7,63.6,524.6,62.2,523.8z"/>
        <path class="st32" d="M88.6,484.3c-2.5-0.5-5,1.2-7.5-0.6c-1.4-1-1.9,1.1-2.1,2.1c-0.8,3.7-1.5,7.5-2.2,11.2    c-0.7,3.9-1.5,7.8-2,11.7c-0.1,0.8-1.2,2.8,1.4,2c1.4-0.5,1.2,0.7,1.1,1.3c-1,3.9-0.5,8.2-3.8,11.4c-2.1,2-1.4,4.6-1.2,7.1    c0.1,1.5,0.9,2.8,0.6,4.4c-0.3,1.6,1,0.7,1.7,0.8c1-1.2,1.8-2.4,2.9-3.4c2.1-2,3-4.4,3-7.2c0.1-10,2.8-19.6,3.6-29.5    c0.2-2.1,1.2-4.1,2.5-5.9C87.6,488,88.7,486.4,88.6,484.3z"/>
        <path class="st33" d="M62.9,447.8c0.1,3.6-1.5,6.9-1,10.6c0.2,1.2-1.1,1.9-2.2,2.4c-5.9,2.8-6.8,4.7-4.9,10.9    c0.5,1.7-0.4,1.5-1.3,1.7c5.5,1.1,11.1,0.9,16.6,2.4c0.8,0.2,1.7,0.3,2.5,0.5c1.6-4.9,2.3-9.8,0.7-14.9c-2.6-3.8-5.1-7.6-7.7-11.4    C64.8,449.1,64,448.2,62.9,447.8z"/>
        <path class="st34" d="M-7.2,511.6c2.8,2.1,5.6,4.4,6.8,7.9c0.9,2.5,3.1,2.7,5.2,3.1c2,0.4,4,0.9,6.1,0.7c2.4-1.4,5.3-0.4,7.7-1.7    c4.1-1,4.3-1.5,3.1-5.7c-0.1-0.5-0.4-1-0.2-1.5c-2.8-4.7-3.7-10-4.5-15.3c-0.2-1.2-0.1-2.4-0.8-3.4c-0.3,3.5,1.3,7.3-1.5,10.5    c-0.8-0.7-1.2-2.4-2.6-1.7c-1.1,0.6-0.7,1.9-0.6,3c0.3,2,0.8,4,1.1,6c0,0.2,0.2,0.3,0.1,0.5c-0.2-0.5-0.4-0.7-1-0.5    c-2.3-0.4-2.8-3.5-5.3-3.6c0,0.2-0.1,0.4-0.1,0.7c0,1.8,1.2,3.4,0.5,5.8c-1.6-1.9-3.2-3.3-4.2-5.1c-1.7-3.2-4.4-4.2-7.6-2.1    C-5.9,509.7-6.9,510.4-7.2,511.6z"/>
        <path class="st35" d="M65.5,414.8c-2.9-13.7,0.3-27.3,1.4-40.9c-3.3-0.7-6.3,0.6-8.1,3.5c-0.5,2.3-1.5,4.5-2,6.8    c-0.4,1.7-0.7,3.2,1.8,3.6c2.1,0.3,1.2,2,1,3.1c-1.2,7.8-3.3,15.4-5.7,22.9c-0.5,1.5-1.4,3.1,0.1,4.5c3.8,1.1,7.2-0.2,10.5-1.8    C65.2,416.3,65.8,415.8,65.5,414.8z"/>
        <path class="st22" d="M66.2,418.8c-3.3,0.4-5.8,2.2-8,4.4c-1.7,1.7-1.3,4.4-1.4,6.4c-0.2,3.7-1.2,7.1-2.4,10.5    c-0.3,0.8-1.1,2,0.1,2.2c3.2,0.6,4.7,3.6,7.6,4.6c3-5,3.8-10.7,4.6-16.3C67.2,426.7,67.6,422.7,66.2,418.8z"/>
        <path class="st36" d="M59.3,377.6c1.8-2.8,4.9-2.7,7.6-3.6c0.6,0,1.3,0,1.9-0.1c1.3,0.8,2.2,0.2,2.9-0.9c0.6-1,0.6-2-0.2-3    c-0.4-0.5-1-0.8-1-1.6c-0.7-3.2-3.5-5.2-4.5-8.3c-6.8-6.7-10-15.3-12.1-24.3c-0.3-1.4-0.2-3.7-2.1-3.4c-1.6,0.2-1.1,2.4-1,3.7    c0.6,5.1-1.4,9.8-1.8,14.7c-0.3,4.1-0.2,8,2.6,11.3c0.7,0.6,1.4,0.9,2.4,0.7c0.3-2.8-0.9-5.4-1.1-8.1c-0.1-1.9-0.1-3.6,0.5-6.3    c3,7.8,9.1,12.7,12.4,19.5c0.7,1.4,0.4,1.9-0.9,2.3c-1.7,0.5-3.2,1.2-4.9,1.8c-1.8,0.8-3.2,2.1-4.3,3.7    C56.4,377.5,58.1,377.1,59.3,377.6z"/>
        <path class="st37" d="M65.5,414.8c-1.9,2.7-5.1,2.3-7.8,3c-1.2,0.3-2.6,0.2-3.9,0.2c-2.1-1.4-4.4-0.4-6.6-0.8    c-1.9,0-3.7,0-5.6-0.5c-2-0.8-4-1.4-5.9-2.3c-4.6-3.3-8.9-6.8-10.6-12.5c-3.5-3.7-2.7-8.4-2.5-12.8c0.2-4,1.4-8,2.2-12    c0.9-2.8,1.8-5.7,2.7-8.5c0.2-0.8,0.8-1.8-0.2-2.3c-1.1-0.6-1.7,0.4-2.3,1.2c-0.5,0.7-0.8,1.5-1.1,2.3c-2.6,7.5-4.4,15.3-5,23.2    c-0.3,4.1-0.3,8.1-1.4,12.1c0.3,1.1-0.7,2.9,1.5,3.2c1.3-1.7,1.8-3.8,2-5.8c0.7,1.3,1.1,2.9,1.8,4.3c2.3-0.1,2.8,2.2,3.8,3.5    c2.3,2.9,6.3,4.1,7.8,7.7c2.1,0.5,4.2,0.9,6.3,1.4c1.7,0.3,3.5,0.8,5.1,1.4c3.2,0.2,6.4,0.4,9.5,1c1.1-1.3,2.3-2.1,4.2-2.4    c2.2-0.4,4.3-1.7,6.5-2.6c0.4-1.5,2.1-2.4,1.8-4.4C66.9,413.3,66.2,414.1,65.5,414.8z"/>
        <path class="st29" d="M32.8,535.9c-1.2,2.4-3.5,1.1-5.2,1.6c1.7,1,3.9,0,5.5,1.6c0.4,0.5,1.1,0.8,1,1.5c-0.1,0.7-0.7,1.1-1.4,1.1    c-2,0-2.3,1.1-2,2.8c0.3,1.8,1.4,2.5,3.2,2.4c2.6-0.1,5.2-1.7,7.9-0.4c0.6,0,1.2-0.1,2-0.1C40.9,541.8,36.5,539.2,32.8,535.9z"/>
        <path class="st38" d="M73.2,461.4c-0.7,0.1-1.5,0.4-1,1.2c2,3.2,1,6.3,0.3,9.6c-0.3,1.3-0.1,2.7-0.1,4.1c0.6,0.3,1.2,0.5,1.8,0.8    c2-2.9,5.5-4.9,5.7-8.9C78.2,465.5,75.3,463.9,73.2,461.4z"/>
        <path class="st39" d="M55,539.6c0.6-1,2.1-0.2,2.8-1.6c0.7-1.5,2.2-2.5,4.2-0.8c-1.5-4.6-2.8-8.9-0.4-13.3    C54.8,528,52.5,534.5,55,539.6z"/>
        <path class="st9" d="M12.9,480.9c-3.5-1.5-3.9-1.1-3.8,2.6c0,2,0.8,3.8,1.3,5.6c0.4,1.3,0.4,2.5,0,3.8c-0.3,0.9-0.5,2.1,0.9,2.3    c1.3,0.2,2-0.6,2.1-1.9c0.1-2-0.5-3.8-1.1-5.7c-0.6-2.1-1.7-4.4,0.8-6.1C13.2,481.2,13.1,481,12.9,480.9z"/>
        <path class="st40" d="M72.1,375.2c-0.6,0.7-1.2,1.5-1.8,2.2c-0.6,0.7-0.7,1.6-0.3,2.4c1.3,2.8,6,4.5,9.1,3.4    c0.9-1.4,0.2-2.2-1-2.9c-1.2-0.8-4.8,1.2-3.1-2.8c0.7-0.8,2.7-0.9,1.8-2.4c-0.9-1.5-2.6-0.7-4-0.5    C72.4,374.7,72.2,374.9,72.1,375.2z"/>
        <path class="st41" d="M62.2,523.8c0.5,2,0.6,5.2,3.3,4.6c2.6-0.6,2.4-3.7,2-6.2C66.3,524.8,64.1,524,62.2,523.8z"/>
        <path class="st42" d="M21.4,514.3c-0.8,0.5-0.7,1.4-0.4,2.1c1.4,2.8,0.2,4.3-2.5,5.2c0.2,0,0.4,0,0.6,0c2.9-0.9,4.7-0.2,5.2,3    C25.6,520.6,24,517.3,21.4,514.3z"/>
        <path class="st43" d="M70,368.3c-0.3,0.3-0.7,0.5-0.9,0.8c-0.3,0.5,0,0.7,0.5,0.6c1.6-0.3,2.2,0.6,2.1,2c-0.1,1.6-1.5,1.9-2.8,2    c0.7,1.4,2.1,1,3.2,1.3c0.1-0.1,0.1-0.2,0.2-0.3c2.3-1.8,2.3-3.8,0.7-6C72.1,368,71.1,368,70,368.3z"/>
        <path class="st44" d="M77.6,380.6c1.2,0.5,1.4,1.5,1.4,2.6c0.8,1.2,0.5,2.8,1.5,3.9c0.2,0,0.3-0.1,0.5-0.1c1.5-3.2-0.3-8.7-3.2-10    c-0.4-0.2-0.8-0.4-1.1,0.1c-0.6,0.9-0.3,1.8,0.2,2.7C77.1,380.1,77.3,380.3,77.6,380.6z"/>
        <path class="st45" d="M85.6,371.1c1-3.7,4.2-5.3,6.9-7.4c-0.3-0.6-0.4-1.2-0.8-1.7c-4-5.6-5.1-12-4.8-18.7    c-2.7,1.9-0.4,4.1-0.8,5.8c-0.6-1.7-0.8-4-0.9-6.3c-0.1-2.6-0.9-4.8-3-6.6c-2.7-2.3-3.4-6-5.4-8.8c-0.8-1.1,0.3-2,0.6-3    c-0.2-1.5-0.9-2.6-2.3-3.3c-3.4-1.7-10.7-0.9-13.8,1.7c-0.5,1.8,1,2.4,2,3.3c2.8,2.5,2.9,3.3,1,6.4c-1.6,2.6-2,5.2,0.1,7.7    c0.5,0.6,0.8,1.3,1,2c0.3,0.7,0.5,1.5,0.3,2.2c-1.3,3.3,0.5,5.3,2.9,7.1c1.6,2,3.2,4.2,5.1,5.9c2.2,2.1,3.2,4.7,3.6,7.6    c0.3,1.9,1,3.7,1.8,5.4c0.5,1,1,2.3,2.6,1.5C82.9,371.2,84.3,371.3,85.6,371.1z"/>
        <path class="st46" d="M16.2,310.4c0,0.2-0.1,0.5-0.1,0.7c0.1,0.1,0.2,0.3,0.3,0.4c2.2,1.4,4.5,2.3,7.1,2.6    c2.5-0.2,4.6,0.9,6.8,1.9c2.3,1.1,4.4,1.2,6.2-0.8c1-1.1,2.1-1,3.2-0.9c1.1-0.4,1.6-1.2,1.3-2.3c-0.1-1.5-0.2-3-0.4-4.5    c-2-1.5-4.2-0.4-6.2-0.1c-5,0.8-10.3,0.4-15.1,2.2C18.3,309.9,17.3,310.2,16.2,310.4z"/>
        <path class="st47" d="M77.3,324.6c-2.2,0.3-2.6,1.6-1.4,3.1c2.6,3.2,3.2,7.7,7,10.3c1.5,1,1.5,3.2,1.6,5.1c0,2.6,0.3,5.1,1.9,7.7    c0.7-2.7-0.6-5.2,0.6-7.5c0.1-0.6,0-1.3,0.3-1.9c1.8-4.3,1.3-6.8-2.4-9.8c-2.6-2.1-5.2-4.1-7.1-6.9l-0.2-0.2L77.3,324.6z"/>
        <path class="st48" d="M41.1,312c-0.5,0.7-0.9,1.3-1.4,2c-1,1.3-0.1,2.6-0.1,4c0.1,1.1,0.1,2.3,0.4,3.4c2,2.5,4,5,6,7.6    c0.3,0.1,0.6,0.2,0.9,0.2c2.6-0.5,3.4-2.8,4.6-4.7c-2.2-4.2-4-8.7-6.7-12.7C43.5,311.9,42.3,311.9,41.1,312z"/>
        <path class="st49" d="M44.7,311.8c1.3,4.7,3.8,8.7,6.4,12.7c0,1.3,0.3,2.5,1.4,3.4c3.3-0.9,4.7-3.7,6.6-6.1    c-0.4-2.2-1.2-4-3.7-4.4c-3.8-0.9-7.4-2-9.6-5.7C45.5,311,45,311.1,44.7,311.8z"/>
        <path class="st50" d="M55.5,317.3c1.6,1.1,2.5,2.9,3.5,4.4c3.1,0.6,5.6-1.5,8.5-1.8c0.2-0.1,0.4-0.1,0.6-0.2    c1.2-0.5,2.9-0.4,2.8-2.4c-0.1-2-1.9-1.5-3.1-1.9c-1.2-0.5-2.4-0.9-3.5-1.4C59.3,312.1,57.1,312.9,55.5,317.3z"/>
        <path class="st51" d="M67.2,319.2c-2.9,0.3-5.5,1.6-8.3,2.5c-2.5,1.6-4.2,4.1-6.2,6.2c-1,1-1,2.3,0.1,3c0.8,0.5,1.6-0.5,2-1.2    c1.7-2.7,4.6-4.1,6.6-6.3c4-2.5,8.3-2.7,12.8-1.7c1.6,0.3,2.7,1.3,3,3c0.2,0.1,0.3,0.1,0.5,0c-0.4-1.9-0.9-3.8-1.3-5.7    C73.3,318.1,70.3,318.6,67.2,319.2z"/>
        <path class="st52" d="M67.2,319.2c2.7,0.1,5.5-0.5,8.1,0.7c1,0.5,0.9-0.4,1.1-0.9c-1.7-3.2-1.6-7.2-4.8-9.7    c-1.7,1.2-2.5,2.9-2.6,4.9c-0.1,1-0.3,1.4-1.3,1.3c0.3,0.2,0.7,0.5,1,0.6c0.9,0.2,1.6,0.6,1.6,1.6c-0.1,1-1,0.8-1.7,0.9    C68.1,318.7,67.7,319,67.2,319.2z"/>
        <path class="st53" d="M19.4,309.6c7.2,0,14.2-1.2,21.3-2.2c0.9-0.7,1.8-1.4,2.7-2c-6.4-0.3-12.6,1-18.9,1.6    C22.6,307.2,20.9,308.5,19.4,309.6z"/>
        <path class="st54" d="M81.8,372.1c-3-1.4-2.9-4.5-3.5-7.1c-0.8-3.2-1.5-6.2-4.3-8.3c-1.4,0.2-1,1.2-0.7,1.9c0.4,1.2,1,2.4,1.5,3.6    c0.7,1.9,1.9,3.9-1.4,4.7c-0.9,0.2-1.7,1.1-0.8,2.3c1.3,2,0.8,3.9-0.3,5.8c0.8,0.4,1.6,0,2.4,0c0.6,0,1.6-0.7,1.8,0.4    c0.2,1.1-1,0.7-1.6,1c-0.3,0.1-0.5,0.3-0.8,0.5c-0.2,2.6,1.4,3,3.4,3.2c-0.2-0.9-0.4-1.8-0.7-3c2.8,3,5,5.8,4.1,9.9    c4.1,0,5.9-1.9,5.1-5.3c-2.2-1.1-4.2-2.3-4.8-5C78.5,374.3,78.6,374,81.8,372.1z"/>
        <path class="st55" d="M81.3,376.7c0,3.5,1.3,4.8,4.8,5c0.8-0.6,1.5-1.2,1.8-2.2c0.2-0.8,0-1.5-0.6-2.1c-0.6-0.7-1.2-0.6-2-0.1    C83.8,378.4,82.5,377.7,81.3,376.7z"/>
        <path class="st56" d="M-46.1,403.9c3.9,1.6,7.8,3.3,11.8,4.9c1.5,0.6,2.5,0,3.1-1.3c0.4-0.9-0.3-1.3-1-1.6c-3.5,0.4-6.5-1-9.6-2.4    c-4.1-2-8.2-3.8-12.2-5.8c-1.5-0.7-1.3-1.3-0.8-2.7c2.2-6.5,7.1-11.1,10.8-16.6c1.2-1.8,2.3-4.1,5.2-3.5c3.5-2.1,7.2-3.8,11.5-3    c0.3-0.1,0.5-0.3,0.8-0.5c0.3-3.4-0.4-4-4.2-3.4c0-1.5,2.2-2.1,1.6-3.8c-0.5-0.2-0.9-0.1-1.3,0.2c-2.7,2.5-5.2,5.1-8.8,6.3    c-2.6,0.9-4.6,3.2-5.8,5.5c-3,5.8-8,10.2-11.5,15.6c-0.7,1.1-1.2,2.3-1.7,3.4c-1.2,2.4-0.2,3.4,2.1,4.3    C-52.6,400.7-49.1,401.8-46.1,403.9z"/>
        <path class="st57" d="M-62.2,402c-1.4-2.7-0.7-4.6,0-6.5c1.7-4.6-0.6-8.1-2.9-11.7c-0.4-0.6-1-1.2-1.9-0.7    c-0.9,0.6-0.7,1.5-0.6,2.4c0.1,3.5,1.8,6.5,3.4,9.3C-63,397.1-65.3,399.8-62.2,402z"/>
        <path class="st58" d="M-30.3,364.3c0.5,0,0.9,0,1.4,0c1.5,0.8,2.9,1.3,3.8-0.8c-0.8-1-1.5-2-2.6-2.5c0,0.9-0.4,1.6-1.2,1.9    C-29.5,363.4-29.9,363.9-30.3,364.3z"/>
        <path class="st9" d="M-44.6,409.8c1.3,0.2,3.2,1,3.3-0.9c0.1-1.8-2-2-3.5-2.3C-44.8,407.7-44.7,408.8-44.6,409.8z"/>
        <path class="st59" d="M15.6,311.2c-1.9-0.8-3.7-1.5-4.9-3.4c-1.1-1.7-2.7-0.9-4,0c-1.4,0.9-0.7,1.8,0.3,2.4c0.8,0.5,0.6,1.3,0.4,2    c-0.4,1.3-0.5,2.7,0.3,3.8c2.3,2.9,0.9,6.2,1.2,9.3c0.1,1.2-0.8,2.2-1.8,2.9c-0.4,0.3-1.1,0.3-1.5-0.1c-0.2-0.2,0-0.8,0.1-1.2    c0.2-0.7,1.9-1.7,0.1-2c-1-0.2-3-0.2-3.2,1.8c-0.1,1.3,0.1,2.6,0.2,3.9c0.2,0.2,0.5,0.3,0.8,0.4c2.3,0.4,0.8,1.7,0.5,2.5    c-0.8,1.8-2.7,3-2.5,5.3c1.4,1.9,2.9,1.5,4.3,0.1c0.9-0.9,1.7-2,2.1-3.2c1.1-2,0.1-5.2,3.2-6.2c-0.6,0.7-2,1.2-1.4,2.5    c0.4,0.8,1.3,0.6,2,0.5c1.6-0.3,3.3-0.1,4.8-0.6c1.5-0.5,2.7-0.1,3.8,0.9c2.1,0.5,4.3,0.6,6.4,0.6c0.3-0.1,0.6-0.2,0.9-0.4    c1.9-2,4.6-3.5,3.6-7c-1.4-1.4-3.2-0.7-4.8-0.7c-1.6-0.9-3.2-1.7-4.6-2.9c-1.9-1.6-2.9-3.4-2.5-5.9c-0.4-1.2-1.1-1.9-2.5-1.9    c-1.3,0.6-1.2,1.7-0.9,2.8c0.5,2.1,0.4,4.3,0.9,6.4c-0.3-3.6-3.2-6.8-1.1-10.7C16.1,312.5,16.1,311.8,15.6,311.2z"/>
        <path class="st60" d="M3.5,330.5c-0.2,0-0.5,0-0.7,0c-0.3,0.5-0.6,1.3-1.4,1c-0.7-0.2-0.5-0.9-0.4-1.4c0.1-0.4,0.3-0.8,0.3-1.3    c0-1.6-0.2-3.7-1.8-3.6c-1.6,0-0.5,2.1-0.7,3.2c-0.2,1.4,0.5,3-0.3,4.5c-1.1-0.2-0.8-1.1-1-1.8c-0.2-0.8-0.5-1.5-1.4-1.6    c-1.1-0.1-1.2,0.7-1.2,1.5c0,2.8-3,1.1-3.9,2.6c-0.2,0.2-0.3,0.5-0.2,0.8c0.3,0.7,0.5,1.4,0,2.1c-1.3,1.7-1.6,3.7-1.9,5.7    c-0.1,1.5,0.8,2.3,2,2.9c1.7,0.7,3,1.9,4.5,2.9c0.4,0.2,0.9,0.3,1.4,0.3c0.8,0,1.5-0.3,2.2-0.7c0.9-0.6,2.1-1.4,1.7-2.3    c-0.7-1.7,0.7-0.4,0.9-0.8c0.4-0.2,0.7-0.6,0.8-1.1c0.3-1.4-0.1-2.6-0.9-3.7c-1.5-1.2-1.1-2.4-0.3-3.8    C2.3,334.2,4.2,332.9,3.5,330.5z"/>
        <path class="st61" d="M-4.3,347.6c-1.2-1.3-2.4-2.6-4.3-3c-1.2-0.3-2-1.1-2-2.5c-0.5-0.5-1.1-0.5-1.7-0.3c-1.8,1.4-2.4-1.7-4-1    c-0.5,0.7-1.2,0.9-1.9,1.1c-0.1,0.6,0,0.9,0.7,0.6c0.5,0,1.3-0.1,1.5,0.1c0.5,0.8-0.4,1.1-0.9,1.3c-2.5,1-5.1,0.3-7.8,0.9    c0.8,0.7,1.8,0.2,2.6,0.4c0.4,1.5,1.6,1.4,2.7,1.7c0.3,0,0.7,0.2,0.9,0.1c4.3-1.8,8.1,0.1,12,1.6C-5.4,348.9-4.7,348.5-4.3,347.6z    "/>
        <path class="st62" d="M15.6,311.2c-2.8,3.9-0.3,8-0.1,12c0,0.7,0.7,1.3,1.1,1.9c0.4,0.5,1,1,1.7,0.7c0.8-0.4,0.2-1.1,0-1.6    c-1-3-1.7-6.1-1.3-9.3c0.7-1.4,0.2-2.6-0.6-3.8c0,0-0.1,0.1-0.1,0.1C15.9,311.1,15.7,311.2,15.6,311.2z"/>
        <path class="st63" d="M-16.3,340.8c1.2,0,1.1,1.1,1.6,1.8c1,1.4,1.9,1.4,2.4-0.4c1-2.3,1.4-4.8,2.9-7c0.3-0.4,0.2-1-0.5-1.2    c-1.4,0.3-2.9-0.4-4.1,0.7C-14.7,336.7-14.8,339-16.3,340.8z"/>
        <path class="st64" d="M-11.8,316.7c0.1,2.3-0.9,3.7-2.8,4.6c-0.7,0.4-1.5,1.3-1,2.1c0.8,1.2,1.4-0.3,2.1-0.6    C-10.5,321.5-10.2,319.4-11.8,316.7z"/>
        <path class="st65" d="M-32.6,336.2c3.9-0.5,0.3,1.4,1.2,2.1c2.4-0.2,2.3-3.2,4.3-3.9C-29.1,334.4-31.1,334-32.6,336.2z"/>
        <path class="st66" d="M-14,334.6c1.5-0.1,3-0.2,4.5-0.3c0.2,0.2,0.4,0.2,0.6,0c0-0.2,0-0.5,0-0.7c-4,0-8,0.1-12.4-0.8    C-18.9,335.4-16.3,334.2-14,334.6z"/>
        <path class="st67" d="M-19.3,347c-0.9-0.6-1.8-1.1-2.7-1.7c0.1,1.3-0.9,1.2-1.8,1.3c-0.9,0.1-2-0.2-2.7,0.7    C-24,348.9-21.7,347-19.3,347z"/>
        <path class="st68" d="M-17.5,342.5c-0.2-0.2-0.5-0.4-0.7-0.6c-1,0-2,0.1-3.7,0.2C-20,343.5-18.8,343.4-17.5,342.5z"/>
        <path class="st69" d="M-4.3,347.6c-0.7,0.3-1.4,0.7-2.1,1.1c-3.7,7.1-8.5,13.5-13.3,19.9c-2.6,1.3-3.5,4.2-5.5,6.1    c-1.3,1.7-2.7,3.3-4.2,4.9c-1,1.2-2.1,2.3-3.2,3.4c-2.3,1.8-4.2,3.9-6.2,6.1c-1.1,1.2-2.2,2.4-3.4,3.5c-0.8,0.8-2.1,1.9-1,2.9    c1.6,1.4,2.8-0.3,4-1.3c1.5-1.3,2.7-2.9,4.3-3.9c5.8-5.5,10.6-11.8,15.8-17.8c0.8-0.9,1.2-2,1.8-3.1c4.4-5.8,8.4-11.9,12.5-17.9    c0.6-1.2,3-1.7,1.5-3.7C-3.5,347.7-3.9,347.7-4.3,347.6z"/>
        <path class="st70" d="M-25.2,363.6c-1.1,1.2-2.5,0.5-3.8,0.8c-0.5,0.5-1.4,0.9-1.6,1.5c-0.4,1.2-2.4,2.1-1.7,3.2    c0.9,1.4,1.9-0.7,3-0.8c2.5-0.3,2.5,1.4,2.6,3.1c3.3,1.3,3.3,1.3,6.5-2.9C-22,366.9-23.2,364.8-25.2,363.6z"/>
        <path class="st56" d="M-20.3,368.4c-1.9,1.6-3.5,3.9-6.5,2.9c0,0-0.1,0.2-0.1,0.2c0.2,1.5,1.3,2.6,2.3,3.6    c1.6-2.2,3.3-4.4,4.9-6.6C-19.9,368.4-20.1,368.4-20.3,368.4z"/>
        <path class="st9" d="M-10.2,409.7c0.2,0.7,0.5,1.4,0.7,2c-0.3,0.6-0.4,1.2,0,1.8c2.2,1.2,2.6,3.4,2.9,5.5c0.4,2.7,0.3,5.4,0.4,8.1    c0.1,1.1-0.1,2.3-1,3c-2.3,1.8-1.6,3.7-0.2,5.3c1.3,1.6,1.7,3.5,2.3,5.3c0.5,1.8,0.3,3.3-1.7,4.3c-2.6,1.2-2.1,2.8-0.3,4.5    c1.6,1.5,2.7,3.7,5.2,0.8c1.3-1.5,3.7-1,5.6-0.9c1.4,0.1,1.9,1.4,2.1,2.5c0.2,1.3-0.6,2.2-1.7,2.9c-0.9,0.5-2.4,0.4-2.2,1.9    c0.2,1.1,1.4,1.3,2.3,1.6c1.8,0.7,3.3,1.6,3.8,3.6c0.2,0.9,0.9,1.5,1.9,1.4c1-0.1,1.6-0.7,1.6-1.7c0-1.1,0.5-1.8,1.4-2.4    c1.1-0.7,1.2-1.7,0.8-2.8c-0.2-0.7-0.5-1.4-0.5-2.2c-0.1-1.6-0.4-3.5,1.7-4c2.5-0.6,2.7,1.3,2.9,3.8c1.4-2.3,1.8-4.7,4.1-5.5    c0.2-0.1,0.4-0.3,0.4-0.4c-0.8-4.8,4.5-8.1,3.1-13.2c-0.7-2.6,0.6-5.7-2.5-7.8c-1.2-0.8-0.3-2.9-0.8-4.3c-0.5-1.5-1.4-2.9-2.2-4.4    c-1.4,1.5-2.2,3.2-4.4,3.2c-2,0-3.7,0-4.2-2.4c-0.1-0.6-0.6-1.2-1-1.6c-1-0.9-2-2.6-3.4-2.2c-1.7,0.4-1.1,2.3-1.1,3.6    c0,1-0.2,2-1.3,2.3c-1.4,0.3-2.6-0.2-3.3-1.4c-0.9-1.5-0.7-3.1-0.4-4.7c0.8-4.6,0.3-5.3-4.2-5.1C-5.7,410.2-7.9,409.2-10.2,409.7z    "/>
        <path class="st71" d="M-39.5,393.5c-0.9,0.7-1.7,1.9-3.2,1.8c-0.7-1.3,0.7-1.7,1.1-2.4c-0.6-1.1-1.7-1.2-2.7-1.6    c-2.9-1.1-2.9-1.3-0.9-3.9c3.3-4.2,7.9-6.1,12.9-7.2c0.8-0.2,1.7-0.1,2.5-0.5c1.5-1,2.8-2.2,1.9-4.2c-1-2.2-2.9-2.3-4.9-2    c-1.4,0.2-2.6,1-3.6,2c-1.5,1.3-2.2,0.6-2.6-1c-1.2-0.9-2.1-1.1-3.2,0.3c-3.2,4.4-6.2,9.1-10,12.9c-2.3,2.4-1.2,6-4.2,7.9    c-1.3,0.8,0,2.2,1.2,2.6c4.6,1.7,9,4,13.4,6.1c2.3,1.1,4.9,1.7,7.3,2.4c1,0.3,1.3-0.3,1.8-0.8c0.6-0.2,1-0.6,1.5-0.9    c1.2-1.3,2.9-2.1,4.1-3.4c0.5-3.1,0.5-6.3,2.1-8.9c0,3,1.1,5.9,1.9,8.9c0.4,0.9,0.7,1.8,1,2.7c0.6,1.1,0.8,2.5,2.4,2.7    c2.5-1.6,4-3.9,4.5-6.8c0.8-1.7,2.1-3,3.7-4.1c3.1-1.3,6.1-3,8.8-5.1c1.4-1,2.6-2.2,2.5-4.2c-1.4-3.1-3.7-2.4-6-1.4    c-0.5,0.9-1.3,0.4-1.9,0.5c-3.5,1.5-7.4,1.5-11.1,2.3c-2.1,0.4-1.8-0.9-1.2-2.1c1.7-3.3,4.1-6.1,7.2-8.2c0.4-2,1.9-4,1.2-5.7    c-0.6-1.7-3.4-1.5-4.9-2.7c-0.2-0.2-0.6-0.3-0.9-0.3c-4,6-9,11.2-13.8,16.6c-1.2,1.4-2.4,2.7-3.6,4.1c0.2,1.6,3.4,2.4,1.5,4.5    c-1.5,1.6-2.8-0.6-4.3-0.7C-38.4,393.6-38.9,393.6-39.5,393.5z"/>
        <path class="st72" d="M-0.7,387.3c-0.7,2.7-3.1,3.6-5.1,5c-1.9,1.3-4.4,1.8-5.7,3.9c0.2,3.5-1.4,7,0.9,11.1c1.6-3.6,4-4.8,7.5-3.8    c0.6,0.2,1.6-0.6,2.3-1.1c2.6-1.7,3.2-1.5,4.2,1.6c0.2,0.7,0.3,1.5,0.4,2.2c0.1,0.6,0.1,1.2,0.2,1.9c3-1.8,2.9-1.7,4.4,1.5    c1.4,2.9,4.2,5.2,4,8.9c0,0.4,0.3,1.1,1,1.1c0.8-0.1,1-0.9,1-1.5c0.1-2.4,0-4.7-0.1-7.1c-0.1-1.4-0.4-2.8-0.4-4.2    c0-1.1-0.4-2.6,1-3.1c1.2-0.4,1.8,0.8,2.4,1.7c2.7-2.1,2.1-5.3,2.1-7.9c0.2-7.4,1.4-14.6,3.4-21.6c0.6-1.9,1.4-3.8,1.4-5.9    c-2.7-0.4-3.7,1.9-5.1,3.4c-4.2,4.5-9.4,6.6-15.3,7.6C1.6,382.2-0.6,384-0.7,387.3z"/>
        <path class="st73" d="M45.5,420.4c-1.2-1.6-3.2-0.9-4.6-1.7c-1.1,1.5-1.1,3.3-1.2,5c0,2.1-0.3,4.1-1,6c-0.6,1.6-0.8,3.2,0.2,4.7    c1.1,1.7,0.4,3.4,0,5c-1.1,5.6-2.7,10.9-8,14.1c-1.6,1-2.7,2.5-3.7,4c-2.3,3.2-5.2,5.5-9.1,6.3c-0.8,1.1-1.7,2.2-2.5,3.3    c3,0.9,6,0.7,9,0.8c1.6,0.1,2.8-1,4-1.8c1.9-1.2,3.8-2.4,5.6-3.7c0.9-0.5,1.9-1.1,2.9-1.1c1.4,0.1,2.2-0.8,2.6-1.9    c0.9-2.3,2.7-3.8,4.6-5.2c3.8-3,6.4-6.8,7.9-11.4c0.3-3.3,1.4-6.2,2.5-9.3c1.2-3.5,1.9-7.2,0.6-11c-2.1-0.2-2.8,1.6-3.8,2.9    c-1.2,1.6-2.4,3.2-4.2,4.9C47.2,426.7,46.4,423.5,45.5,420.4z"/>
        <path class="st74" d="M18,463.8c2.9,1.5,4.5-1.2,6.5-2.1c0.6-0.3,1.1-1,1.6-1.6c2.3-3.3,5.8-5.4,8.4-8.3c3.9-4.2,5.3-10,6-15.7    c0.1-0.5-0.2-1.1-0.5-1.5c-1.4-1.4-1.3-2.9-0.6-4.5c1.6-3.7,1-7.6,1.5-11.4c-2.2,0.2-4.2-2.1-6.5-0.5c-2.7,4.1-3.6,8.8-4.6,13.5    c-1.1,5.7-1.8,11.4-5,16.5C21.9,453,20.9,458.8,18,463.8z"/>
        <path class="st75" d="M-32.5,420.3c0.6,2.9,3.1,3.9,5.5,4.3c1.9,0.3,2.4,0.7,2.7,2.6c0.9,7.6,5.9,19.8,10,24.7    c-0.2-3.7-0.3-7-0.4-10.2c-0.5-7.6-3.8-14.5-5.8-21.8c-0.3-0.9-0.4-2-1.6-2.2c-0.1,0-0.8,0.2-0.4-0.2c2.7-2.4,1.2-5.7,1.9-8.6    c-0.2-1.2-0.9-2-2.1-2.1c-3.6-0.2-7.1,0-9.6,3.1c-0.9,1.2-2,2.2-2.7,3.5c-0.6,1-0.7,2.2,0.5,3.1c1.4-0.1,1.5-1.3,2.1-2.1    c1-1.2,1.8-2.5,3.6-2.8c0.2,1.3-0.8,1.7-1.3,2.3c-0.7,0.7-1.4,1.6-0.8,2.6C-29.4,418.7-30.9,419.5-32.5,420.3z"/>
        <path class="st76" d="M-21.2,409.4c-0.6,1.2-0.7,2.5-0.5,3.8c0.3,2-0.4,3.6-2,4.7c-0.5,0.4-1.7,0.7-1,1.6c0.8,1,1.4,0.1,2-0.6    c0.2-0.2,0.5-0.3,0.9-0.7c1.9,7.6,5.1,14.6,6.5,22.2c0.1,0.5,0.4,0.9,0.7,1.4c0-9.7,1.5-19.2,5.3-28.2c0-0.6,0-1.2,0-1.8    c-1.6,2-2.2,4.4-2.9,6.7c-0.5,1.7-1.1,3.4-2.4,4.6c-3.1-6.1-2.6-12.2-0.3-18.3c0.5-1.4,1.5-3,0-4.5c-1.4,2.2-2.9,4.4-4.3,6.7    C-20.6,407.2-20.6,408.6-21.2,409.4z"/>
        <path class="st9" d="M-23.4,444.5c0.5-2.7,0.3-4.3-0.5-5.8c-1.6-2.9-2.6-5.9-2.4-9.2c0.1-0.8-0.2-1.7-1-1.9    c-3.6-0.7-5.8-3.1-7.6-6c-0.3-0.4-0.8-0.6-1.5-1.2c0.1,1.5,0.1,2.7,0.2,3.9c0.1,3.2,1.7,5.1,5,4.9c1.7-0.1,2.6,0.6,3.1,2.2    c0.9,2.7,2.6,5.2,2.3,8.3C-26,441.5-24.5,442.4-23.4,444.5z"/>
        <path class="st77" d="M11.7,513.4c1.1,0.9,0.4,2.5,1.8,4.2c0.2-4.7-1.9-8.6-1.3-12.8c1,0.5,1.8,1,2.6,1.4c0.1-1.3-0.7-2.3-1.4-3.1    c-5.1-5.9-6.6-13.3-8.8-20.4c-0.2-0.2-0.4-0.2-0.6,0c0.5,5.3,2,10.4,4.2,15.2C10.5,502.8,11.1,508,11.7,513.4z"/>
        <path class="st78" d="M-21.2,409.4c1.1-0.5,1.4-1.5,1.8-2.5c-1.4-0.3-1.1-1.9-2-2.6c-0.5-0.2,0.2,2.1-1.3,0.5    c-1.7-1.7-4.1-2.1-6.5-0.8c-0.8,0.4-1.5,1.3-2.6,0.8c-0.6,0.2-0.7,0.8-0.8,1.3c2.3,2.7-1,1.9-1.7,2.7c0.4,0.8,1.1,1.2,2,1.2    c2.8-1.2,5.5-2.6,8.7-2.5C-22.2,407.6-21.2,407.7-21.2,409.4z"/>
        <path class="st79" d="M-32.5,420.3c3.8,0,4.1-0.4,2.3-3.6c-1-1.8,0.5-1.9,1.2-2.7c0.8-0.8,2.6-1.5,1.3-3c-1.2-1.3-2.3,0.1-3.3,0.8    c-1.8,1.2-2.5,3.2-3.6,4.9C-34,417.9-33.6,419.3-32.5,420.3z"/>
        <path class="st9" d="M3.9,482.6c0.2,0,0.4,0,0.6,0c2.1-1.2,4.7-6.8,4.2-8.8c-0.2-0.7-0.4-1.3-1.1-1.4c-0.8-0.1-1.1,0.7-1.2,1.3    c-0.1,1.9-0.6,3.5-2.3,4.8C2.9,479.2,3.3,481.1,3.9,482.6z"/>
        <path class="st9" d="M1.4,484c-0.7-1.7-0.9-3.8-0.9-5.8c0-1.1-0.7-1.8-1.6-2.2c-0.6-0.3-1.1,0-1.4,0.5c-0.5,0.9-0.4,1.8,0.3,2.7    c1.1,1.4,1.8,2.8,1.2,4.7c-0.3,0.9,0.3,2.1,1.3,2.3C1.5,486.2,1.3,485,1.4,484z"/>
        <path class="st80" d="M-2.9,467c1.5-2.4,4.7-2.1,6.6-3.9c0.8-0.7,0.8-1.8,0-2.6c-1.1-1.1-1.7-0.1-2.1,0.8    c-0.9,1.7-2.8,1.8-4.3,2.6c-0.9,0.5-1.4,1.2-1.3,2.3C-3.8,466.7-3.6,467-2.9,467z"/>
        <path class="st81" d="M22.8,407c1.3-2.6-1.7-3.7-2.1-5.9c-0.6,2.4-1.1,4.9-1.7,7.3c0.5,0.7,1.3,0.6,2,0.6c1.2,0.3,1.5-0.6,1.8-1.5    C22.8,407.4,22.8,407.2,22.8,407z"/>
        <path class="st9" d="M-9.7,409.6c-1.7-0.8-2.1-3-3.9-1.7c-1.3,0.9-2.1,5.3-1.3,6.3c0.2,0.2,0.5,0.5,0.8,0.4    c0.6-0.1,0.9-0.7,0.8-1.2C-13.6,411-12.2,410.1-9.7,409.6z"/>
        <path class="st9" d="M-32.1,433.1c-1.7-0.8-3-1.5-4.3-2c-1.1-0.4-2.3-0.2-2.6,1.1c-0.3,1.4,0.7,2,1.9,1.9    C-35.5,434.1-33.9,434.6-32.1,433.1z"/>
        <path class="st9" d="M29.8,420.9c-0.9-1.3-1-3.2-3.1-3c-0.9,0.1-1.6,0.3-1.1,1.4c0.7,1.4,0.4,3.5,2.2,3.9    C28.7,423.3,29.5,421.9,29.8,420.9z"/>
        <path class="st9" d="M-12.6,437.6c-0.4,2.4-0.5,4.2,0.8,6.3C-11.2,441.7-10,439.8-12.6,437.6z"/>
        <path class="st9" d="M-9.4,459.7c0.5-0.1,1-0.2,1.3-0.7c0-1.1-0.9-1.3-1.6-1.8c-0.8-0.6-1.8-1.1-2.4,0.2c-0.7,1.5,1,1,1.4,1.4    C-10.3,459.2-9.8,459.4-9.4,459.7z"/>
        <path class="st9" d="M3.6,473.1c2.3-1.1,1.6-2.5,1-3.9c-0.2-0.5-0.6-1-1.2-0.8c-0.9,0.4-0.3,1-0.2,1.6    C3.4,471,3.5,471.9,3.6,473.1z"/>
        <path class="st9" d="M10,505.3c-0.2-0.8-0.6-1.4-1.5-1.4c-0.8,0-1.1,0.6-1,1.3c0.1,0.9,0.4,1.7,1.5,1.6C9.7,506.7,10,506,10,505.3    z"/>
        <path class="st9" d="M22.8,407.6c-0.6,0.5-1.2,1-1.8,1.5c0.8,0.9,1.6,2.5,2.9,1.4C25,409.4,23.1,408.6,22.8,407.6z"/>
        <path class="st9" d="M-40.4,428.5c-0.2-1.4-0.7-2.3-2.3-2.9C-42.6,427.2-42.5,428.3-40.4,428.5z"/>
        <path class="st9" d="M23.4,417.1c0.7-0.3,1-0.7,1-1.3c0-0.6-0.4-1-1-0.9c-0.7,0.1-1.3,0.4-1,1.2C22.6,416.5,23.1,416.8,23.4,417.1    z"/>
        <path class="st9" d="M-38.6,414.8c-0.8,1.2-0.7,2,0.1,3.2C-37.7,416.8-37.7,416-38.6,414.8z"/>
        <path class="st82" d="M52.3,442.8c-3,4.5-5.5,9.5-10.4,12.4c-0.4,0.2-0.7,0.6-0.9,0.9c-1.5,2.9-3.5,5.2-6.8,6.3    c1.9-0.5,4-0.5,5.8-1.7c0.4-0.3,1.1-0.5,1.5-0.3c4,2.4,8,0.3,11.9-0.2c4-0.5,8.4-8.9,6.7-12.5c-1-2.2-3.1-3.5-5.6-2.9    C52.5,445.3,52.3,444.3,52.3,442.8z"/>
        <path class="st83" d="M45.5,420.4c-0.5,1.8-0.1,3.5,0.6,5.2c0.8,1.9,0.3,4,0.2,6.3c4.2-2.2,5.5-7,9.1-9.3c0-0.2,0-0.4,0-0.6    c-1.3-2.4-3.8-1.1-5.7-1.7C48.4,419.9,46.9,420.3,45.5,420.4z"/>
        <path class="st84" d="M46.6,417.7c2.3,1.3,4.8,0.1,7.2,0.4c0.8-5.5,3.4-10.6,4.4-16.1c0.8-4.3,1.9-8.6,2.7-12.9    c0.3-1.5,0.1-3.1-2.1-2.3c-1.9,0.7-1.7-0.3-1.5-1.5c0.5-2.6,2.1-5,2-7.8c-0.3-2.1-2.6-0.6-3.4-1.8c-1.8,0.1-1.8,1.6-2,2.7    c-0.6,2.8-1.7,5.2-3.4,7.4c-2.7,9.2-6,18.3-4.9,28.2C45.7,415.3,45.5,416.7,46.6,417.7z"/>
        <path class="st85" d="M61.5,323.4c-3.9,1.2-6.2,4.3-8.5,7.6c-0.9-1.1-0.4-2.1-0.2-3.1c-0.5-1.2-0.6-2.5-1.6-3.4    c-1.9,0.9-2,3.8-4.3,4.2c-3.1,2.9-4.4,6.7-5.6,10.6c-2.9,9.6,2.9,16,8.3,22.5c1,1.2,1.2,1,2.6,0.4c-4.1-6.6-1.9-13.5-0.6-20.3    c0.6-3-0.2-6,0.3-9.2c1.7,0.8,1,2.3,1.3,3.4c2.2,8.8,5.3,17.3,11.6,24.1c0.5,0.5,1,0.7,1.7,0.8c1.9,0.1,3.8-0.5,1.9-2.5    c-5-5.3-7.3-11.9-8.9-18c1.9,2.9,2.7,3.2,6.1,2.3c0.3-0.2,0.5-0.4,0.7-0.7c0.3-2.3-2.8-3.1-2.2-5.7c0.3-1.4,0.6-2.7,1.4-3.8    c2.1-3.1,2-4.2-0.8-6.7C63.5,325,62.1,324.6,61.5,323.4z"/>
        <path class="st86" d="M52.1,362.2c-3.8-1.1-5.1-4.7-7.1-7.5c-1.1-1.5-1.7-3.4-2.8-5c-2.3-3.5-0.4-7.1-0.3-10.6    c-0.5-3.6,1.2-6.9,1.7-10.4c-2.3-1.1-3.7,0.4-4.9,1.9c-1.6,1.9-3.4,2.5-5.7,1.8c-1.9,0.1-3.8-0.6-5.7,0.2l0,0.1    c-0.8,1.1-1.8,0.8-2.9,0.4c-3-0.8-6.1-1.1-9.2-0.7c-1.2,0.1-2.7,0.3-2.6,1.8c0.1,1.4,1.6,1.2,2.6,1.2c1.6,0,3.2,0.4,4.6,1.1    c0.3,0.1,0.6,0.2,0.9,0.3c1.1,0.2,2.3,0,3.4,0.3c0.2,1.1-1.2,1.1-1.3,1.9c-0.1,1.6-1.2,2.6-2.2,3.6c-0.7,0.8-2,1.4-1.1,2.8    c0.8,0.2,1.5-0.2,2.2-0.6c1.1-0.8,2.1-1.9,2.9-3c2.8-3.7,6.4-4.9,10.8-3.6c1.6,0.1,2.1,1.1,2.1,2.6c-0.1,2.9,0,5.8,0.6,8.7    c1,3,2.5,5.9,3.1,9c1.2,1.2,2.5,2.4,3.4,4c1.6,1.2,3.1,2.5,4.6,3.9c0.8,0.7,1.5,1.4,2.2,2.1c0.8,0.9,1.5,1.8,2.2,2.7    c2,2.5,2.1,2.5,4.4,0c-0.6-3.2-2-6.1-4-8.6C53.5,362.6,52.8,362.4,52.1,362.2z"/>
        <path class="st87" d="M54.1,362.8c0.3,3.3,2.9,5.7,3.5,8.9c0.6,1,2,0.3,2.7,1.2c2-0.7,4-1.6,6.1-2.1c1.7-0.4,1.8-0.9,0.9-2.4    c-3.9-6.8-9.9-12.1-12.7-19.5c-0.2-0.5-0.4-1.4-1.2-1.3c-0.9,0.2-1,1.1-1.1,1.8C51.9,354,52,358.5,54.1,362.8z"/>
        <path class="st88" d="M65.6,342.2c-3.4,1.4-5-0.9-6.7-3.4c-0.7,4.7,3.7,14.2,9.7,21.1c-0.8,0.4-1.5,0.8-2.2,1.1    c-0.2,1.9,1,3.2,2,4.6c0.6,0.9,1.9,1.3,1.6,2.7c0.9,0,1.8,0.3,2.6,0.8c0.1-1.3,0.8-2,2.1-2c2.8,0,2.4-1.3,1.8-3.3    c-0.8-2.4-2.5-4.5-2.4-7.2c-1.6-1.9-3.2-3.7-4.8-5.6c-2.9-0.3-4.1-3-6.1-4.4c-0.7-0.5,0-1.1,0.4-1.6    C64.2,344.2,65.8,343.8,65.6,342.2z"/>
        <path class="st89" d="M60.4,372.9c-0.3-1.7-1.7-1-2.7-1.2c-1.4,1-2.5,1.1-3.5-0.8c-0.5-1-1.2-2.2-2.5-2.8c-1-0.1-1.5,0.5-1.6,1.2    c-1.1,4.3-2.7,8.6-3.1,13c-0.3,3.2,1.3,4.3,4.2,3.3c2.6-1.5,2.8-4.3,3.5-6.8c0.3-1.1,0.2-2.3,1.3-3.1    C57.9,375.6,58.4,373.1,60.4,372.9z"/>
        <path class="st90" d="M45,362.6c-0.5-1.8-1.2-3.5-3.4-3.8c-1.3,1.2-1.4,2.9-1.8,4.4c-2.9,10.5-7.1,20.6-11.4,30.6    c-1.2,2.8-3.2,5.3-3.3,8.6c-0.8,2.2,0.3,3.6,1.7,5c2.7,2.7,4.8,6,8.5,7.5c1.4-0.5,1.8-1.8,2.3-2.9c3.1-6.6,3.9-13.7,4.1-20.8    c0.2-7.1,0.3-14.2,1.8-21.2c0.3-1.5,0.7-2.9,1.3-4.3C45.5,364.6,45.9,363.6,45,362.6z"/>
        <path class="st91" d="M25.2,402.4c6.6-13.3,12.3-27,16.1-41.4c0.2-0.7,0.3-1.5,0.4-2.2c0.4-3.4-1.7-6-3-8.9    c-2,0.5-2.4,2.5-3.6,3.7c-0.8,1.3-1.6,2.5-2.3,3.8c0.3,2.4-0.3,4.7-1.2,6.9c-1.4,3.4-3,6.7-4.6,10c-0.6,1.3-1.4,2.4-2.9,2.9    c-1.8,7.6-4,15.2-1.5,23.1C22.9,401.2,22.9,403.3,25.2,402.4z"/>
        <path class="st92" d="M24.1,377c1.2,1.2,1.9,0.4,2.5-0.6c2.8-5.1,5.3-10.2,7-15.8c0.4-1.2,0.2-2.3-0.6-3.3c-2.8,0.5-5.6,1.2-7,3.9    c-1.1,0-1.1-0.8-1.4-1.3c-0.7-1.6-1.6-1.2-2.5-0.3c-0.7,0.7-1.1,1.6-1.7,2.4c-0.6,0.8-1.1,1.8-2.2,1.7c-1.3-0.1-0.8-1.3-0.9-2.1    c-0.1-0.3-0.1-0.9-0.3-0.9c-2.6,0.3-4.6-3.2-7.5-1.3c-0.6,1.4,0.5,2.2,1.2,3.1c3.4,4.7,3,7.3-0.8,11.6c-2,2.3-4.8,3.9-5.9,6.9    c0.8,1.1,2,0.9,2.9,0.4c5.1-2.4,10.8-3.9,14.2-9c0.8-1.2,2-2,3.3-2.6c1.1-0.8,0.8-2.7,2.6-3.2C26.1,370.2,25.1,373.6,24.1,377z"/>
        <path class="st93" d="M51.2,385.7c-2.2,0.3-3.8-0.4-3.3-2.9c0.9-5,1.8-10,3.9-14.7c-0.5-0.9-1.1-1.5-2-1.9c-1.2,0-1.2,1-1.5,1.8    c-4.5,14.2-6.6,28.8-7.8,43.5c-0.2,1.9-0.9,4.1,1,5.7c1.7,0.6,3.4,1.5,5.2,0.4C45.1,406.6,48.4,396.2,51.2,385.7z"/>
        <path class="st94" d="M41.4,417.3c-0.6-5.8,0.7-11.5,1.1-17.2c0.8-11.6,4-22.7,7.1-33.8c-1.4-1.5-2.4-3.3-4.7-3.7    c-0.6,3.1-2.1,6-2.7,9.2c-1,5.7-1.3,11.5-1.3,17.3c-0.1,9-1.2,17.8-5.5,25.9C37.2,416.3,39.4,416.6,41.4,417.3z"/>
        <path class="st95" d="M77.6,380c-1.3-0.9-2.9-1.4-3.4-3.2c-1.3,1.3-0.7,3.1-0.1,4.1c0.8,1.2,2.3-0.2,3.5-0.3    C77.6,380.4,77.6,380.2,77.6,380z"/>
        <path class="st96" d="M65.6,342.2c-4.6,4-4.6,4,0.2,7.9c0.9,0.8,1.8,2.3,3.5,1c-2.2-1.7-4.4-3.4-2.5-6.7c0.5-0.9-0.2-1.6-0.6-2.3    C65.9,342.1,65.8,342.1,65.6,342.2z"/>
        <path class="st97" d="M40.5,317.9c-0.3-1.3-0.5-2.6-0.8-4c-1.4-0.6-2.7-2.4-3.8,0.7c-0.7,2-3,1.6-4.8,0.9    c-2.5-0.9-4.6-2.9-7.6-2.1c-1.7,3.8,0.1,8.8,3.9,10.9c1.2,0.7,2.5,1.1,3.9,1.5c1.3,0.6,2.6,0.9,4.1,0.7c1.8-0.2,3.3-1.2,3.2-3    C38.5,321.4,39.7,319.8,40.5,317.9z"/>
        <path class="st98" d="M31.8,325.5c-6.7-2.6-8.1-4.5-8.2-12.1c-2.4-0.8-4.9-1.6-7.3-2.4c-0.1,1.3,0.1,2.6,0.6,3.8    c0.7,0.6,1.4,1.3,2.1,1.9c1.9,3.4,4.7,6.1,7.5,8.8c0.1,0.5,0.1,1.3,0.4,1.4c0.5,0.2,0.3-0.5,0.5-0.8c1.2-1.4,2.5,0.6,3.8-0.1    C31.6,326,31.7,325.9,31.8,325.5z"/>
        <path class="st99" d="M31.8,325.5c-0.2,0.2-0.4,0.3-0.6,0.5c0.1,3-2.2,4.5-3.8,6.6c1.9,0.8,3.8,0.6,5.8,0.5    c1.9-1.3,3.7-2.8,5.6-4.2c2.3-1.7,2.3-4.4,1.9-7c-0.1-1.3-0.2-2.6-0.2-4c-1.2,1.5-3.5,2.3-2.5,5.1c0.5,1.5-0.8,2.6-2.4,2.7    C34.3,325.9,33.1,325.6,31.8,325.5z"/>
        <path class="st100" d="M40.7,321.9c-0.9,0.8-0.4,1.8-0.5,2.7c-0.3,1.8-0.9,3.7-2.7,4.4c-2.2,0.7-3.3,2.2-4.2,4.1    c2.3,1.1,4.2,0.9,5.7-1.5c1-1.6,2.5-3,4.7-2.6c1,0.5,1.8,0.6,2.5-0.5C44.8,325.9,43.4,323.4,40.7,321.9z"/>
        <path class="st101" d="M46.1,328.4c-0.8,0.2-1.7,0.3-2.5,0.5c-2.2,3.1-3.1,6.5-1.7,10.2c0.7-3.9,3.4-6.9,4.8-10.4    C46.6,328.6,46.4,328.5,46.1,328.4z"/>
        <path class="st102" d="M-38.9,374.5c-0.2,0.9-2.2,1.4-0.8,2.5c0.9,0.6,2.3,1.1,3.4-0.3c1.1-1.3,2.5-2.4,4.4-2.5    c1.4-0.1,2.8-0.1,3.6,1.5c0.9,1.8-0.2,2.8-1.5,3.7c0.1,0.4,0.4,0.6,0.8,0.6c1.5-1.6,2.9-3.1,4.4-4.7c0.3-1.8-1.2-2.6-2.3-3.6    C-31.6,369.6-35.4,371.7-38.9,374.5z"/>
        <path class="st103" d="M20.5,336.1c-2-2.2-4.8-1.4-7.3-2.1c3.7-0.7,7.3-1.9,11.1-0.3c1.4,0.6,2.9,1.8,3.1-1.1    c-2.3-0.2-4.6-0.4-6.9-0.6c-4.8-0.7-9.5-0.8-13.1,3.3c-1.8,1.2-1.9,5.7-5.8,3c-1.1,0.1-0.9,0.7-0.5,1.3c0.7,1.2,1.1,2.4,0.9,3.7    c1.5,0.8,2.4-0.4,3.5-1.1c0.9-0.9,1.8-1.9,2.6-2.8c2.2-2.5,4.8-3.8,8.3-3.2C17.7,336.6,19.2,337.3,20.5,336.1z"/>
        <path class="st104" d="M7.4,335.4c4-2.7,8.5-3.1,13.1-3.3c-0.4-1.1-1.2-2.1-2.3-1.6c-2.5,1.2-5.3,0.1-8.1,1.8    c0.4-2.2,2.1-2.4,3.2-3.3C8.7,328.5,8.3,329,7.4,335.4z"/>
        <path class="st105" d="M26.5,325.6c-1.9-3.5-4.6-6.2-7.5-8.8c-1.2,1.9-0.2,3.5,1,4.8C21.8,323.5,23.5,325.5,26.5,325.6z"/>
        <path class="st106" d="M1.1,339.8c0-0.5,0-1,0.5-1.3c1.3-2.1,2.6-4.1,3.8-6.2c0.4-0.7,1-1.7,0.2-2.3c-0.8-0.7-1.5,0.3-2.2,0.7    c-1.2,2-2.3,4.1-3.5,6.1C-0.9,338.2-0.7,339.3,1.1,339.8z"/>
        <path class="st107" d="M19.6,345.5c0.1-1.8,2-2.1,2.8-3.4c0.6-0.9,1.7-1.5,0.8-2.7c-1.4-0.4-2.5,0.5-3.5,1.3    c-1.7,1.5-3.8,2.4-5.7,3.6c-2.6,4.2-6.6,5.1-11.2,5c-2,0-2.6-1.7-4.1-2.3c-0.6,0.3-1.2,0.5-1.8,0.8c0.6,2.1-1.9,2-2.4,3.4    c1.4,2.1,3.5,1.8,5.6,1.5c0.6-0.1,1.4-0.5,1.8,0.1c0.5,0.8-0.3,1.4-0.8,1.9c-2.6,2.4-5.6,4.4-8.5,6.4c-1.1,0.7-2.1,1.5-2.8,2.6    c-0.5,0.9-0.7,1.9-0.1,2.8c0.6,1,1.6,1,2.6,0.8c1.3-0.2,2.5-0.8,3.5-1.6c2.3-1.9,4.8-3.4,7-5.2c1.1-0.8,2.4-1.4,3.4-2.3    c4.1-3.2,7.9-6.8,11.9-10.1C18.9,347.4,19.9,346.8,19.6,345.5z"/>
        <path class="st108" d="M14.4,344.4c3.6-0.4,5.7-3.7,8.8-5.1c0.7-1.1,3.1-0.7,2.7-2.1c-0.5-1.6-2.5-1.1-3.9-1c-0.3,0-0.6,0-0.9,0.1    c-4.9,3.1-10.6,3.7-15.8,5.6c-1,0.6-1.8,1.6-3.1,1.7c-0.3,0.2-0.6,0.4-0.8,0.6c-0.6,1.8,0.8,2.1,1.9,2.1    C7,345.9,10.8,346,14.4,344.4z"/>
        <path class="st109" d="M14.4,344.4c-3.1,0-6.1,0.4-9.2,0.8c-1.3,0.2-3.3,1.4-4-1.1c-0.7-0.5-1.5-0.9-3-1.8c1.4,2,3.3,3.4,0.5,4.6    c0.5,2.9,2.4,3.2,5,3.1C8.4,349.9,12.5,349.3,14.4,344.4z"/>
        <path class="st110" d="M-8.9,334.4c-0.2,0-0.4,0-0.6,0c-2.1,2.2-3.3,4.7-2.8,7.8c0.6,0,1.2,0,1.8-0.1c1-2.4,1.1-5.2,3.6-6.9    C-7.7,334.8-8.3,334.6-8.9,334.4z"/>
        <path class="st111" d="M2.7,359.7c-3.1,2.1-6.2,4.3-9.3,6.4c-1,0.7-2.5,1.5-3.4,0c-0.8-1.4,0.3-2.4,1.3-3.2    c3.3-2.4,6.6-4.8,9.9-7.2c0.6-0.4,1.2-0.9,1.6-1.6c0.4-0.7,1.2-1.5,0.7-2.4c-0.5-1-1.6-0.5-2.3-0.3c-2.3,0.6-4.4,0.8-6.6-0.3    c-4.1,6-8.2,12-12.3,18c1.1,2.5,3.6,2.3,5.8,3.2c-1.7,1.6-1.8,3.6-1.7,5.6c-0.7,3.7,1.7,7.2,5.6,8.2c0.5-0.2,1,0.5,1.4-0.1    c1-1.8,1-3.9,1.7-5.9c0.6-1.7,1.2-2.6,3.2-1.6c2.4,1.2,4.1,0,5.2-2.2c0.3-0.7,0.6-1.4,0.9-2.1c0.5-1,2.2-1.6,1.2-3    c-0.8-1.1-2.2-0.7-3.3-0.8c-0.8,0-1.7,0.2-2.8-0.1c1.8-1.8,3.5-3.5,5-5.4C6.5,362.7,5.9,360.9,2.7,359.7z"/>
        <path class="st112" d="M-29,379.9c-0.3-0.2-0.5-0.4-0.8-0.6c-7.2,0.6-13.2,3.2-17.4,9.4c-1.1,1.6-1.3,2.6,1.1,3    c1.6,0.3,3.1,0.8,4.6,1.3c1.1-1.2,2.1-2.3,3.2-3.5c-0.1-1.6-1.6-1.3-2.3-1.7c2.3-2.4,5.8-2.6,8.4-4.4    C-31.1,382.2-30.1,381-29,379.9z"/>
        <path class="st113" d="M-39.5,393.5c0.7,1,1.8,1,2.8,1.4c1.4,0.6,2.8,2.4,4.2-0.5c1.2-2.6-0.3-3.1-1.9-4c-0.3-0.1-0.5-0.4-0.7-0.6    C-36.9,390.6-37.9,392.4-39.5,393.5z"/>
        <path class="st114" d="M-32.1,383.3c-3.5,0.7-7.1,1.1-9.4,4.6c1.2,0.5,2.2,1,3.3,1.5C-36.2,387.4-34.2,385.3-32.1,383.3z"/>
        <path class="st7" d="M2.7,359.7c3.3,3,3.3,3.1,0.3,6.2c-1.7,1.8-3.6,3.6-5.6,5.6c2.9,0.6,5.5-0.9,8.6,0.1    c-1.8,1.3-2.6,2.7-3.1,4.5c-0.8,2.5-2.6,3.2-4.7,1.6c-2-1.6-2.8-0.4-3.4,1.2c-0.9,2.3-1.5,4.7-1.3,7.2c2,0.1,4.5-2.4,5.9,1.1    c0.6-2.8,3.2-4.2,4.8-6.2c2.8-2.7,5.5-5.3,8.3-8.1c2.4-2.4,2-7.1-0.7-10.7c-0.7-0.9-1.8-1.6-1.9-2.9c-0.4-2.3-1.9-2.4-3.7-1.8    C4.9,358.3,3.8,359,2.7,359.7z"/>
        <path class="st115" d="M-8,386.2c-3-1.9-5.1-4.6-5.6-8.2c-0.8-0.6-1.3-0.2-1.9,0.4c-2.5,2.6-4.7,5.3-6.1,8.6c-0.4,1-1,2.4,0.9,2.2    c4.1-0.4,8.3-0.7,12.3-2.1C-8.2,387-8.2,386.5-8,386.2z"/>
        <path class="st116" d="M-22.3,401.8c-0.8-3.2-1.6-6.5-2.5-9.9c-2.9,3-2.9,6.5-2.9,10C-25.8,402.6-24.1,402.5-22.3,401.8z"/>
        <path class="st117" d="M-22.3,401.8c-1.8-0.2-3.6-0.3-5.3,0.1c-2,0.1-2.8,1.9-4.2,3c0.1,1.6,1,1,1.7,0.5c2.5-1.8,4.9-1.7,7.3,0    c1.8,1.3,1.1-0.5,1.4-1.1C-21.7,403.4-22,402.6-22.3,401.8z"/>
        <path class="st30" d="M44.9,454.8c-2.2,0.2-2.9,1.4-3.4,3.2C43.2,457.6,43.9,456.4,44.9,454.8z"/>
        <path class="st118" d="M6,357.6c1.5,0.2,2.9,0.3,3.7,1.8c0.9,0.2,1.7,1,2.8,0.3c0.4-0.2,1.2-0.7,1.1,0.2c-0.1,4.9,2.1,0.6,3.1,1.1    c-0.1,0.3-0.3,0.7-0.4,1.2c-0.2,0.9-0.5,2.1,0.6,2.6c1.1,0.6,2.2,0.1,2.9-0.8c1.2-1.6,2.4-3.3,3.6-5c0.9,0.6,0.4,1.4,0.5,2    c0.2,0.8,0.3,1.5,1.3,1.6c0.9,0.1,1.5-0.3,1.8-1.1c0.4-1.3,0.1-3,2.6-2c1.3,0.5,1.5-2.5,3.3-2.3c1.9-0.3,1.8-2.2,2.5-3.4    c-1.5-2.6-4.3-3.4-6.5-5c-2.2-1.6-4.5-2.9-6.7-4.5c-0.3-0.1-0.6-0.1-0.9,0c-0.6,0.3-1.2,0.7-1.8,1C15.1,349.5,10.6,353.5,6,357.6z    "/>
        <path class="st119" d="M5.2,341.8c5.7-0.6,11.4-1.2,15.8-5.6c-0.2,0-0.4,0-0.6-0.1c-0.4,0-0.9,0-1.3-0.1    C12.9,334.2,8.5,336.6,5.2,341.8z"/>
        <path class="st120" d="M22.1,344.7c5.1-1.2,10.2-2.4,13.5-7c-4.8-1.6-8.6-0.1-11.6,3.9c-0.8,1-1.7,1.9-2.6,2.9    C21.7,344.5,21.9,344.6,22.1,344.7z"/>
        <path class="st121" d="M34.1,329.1c-0.1-0.9-0.7-1.2-1.4-1c-1.1,0.4-1.5,1.5-1.8,2.5c-0.2,0.6,0.6,0.7,1.2,0.7    C33.5,331.1,33.8,330,34.1,329.1z"/>
	</g>
</g>
</svg>
