<svg xmlns="http://www.w3.org/2000/svg" version="1.1" id="Ebene_1" x="0px" y="0px" viewBox="0 0 283.5 283.5" enable-background="new 0 0 283.5 283.5" xml:space="preserve">
<g>
	<path fill="#F3EAE5" d="M53.6,100.3c2.4-6.9,4.6-13.9,7.6-20.7c5.1-11.6,12.6-21.9,16.9-33.9c2.6-7.2,8.3-13.3,12.8-19.8   c1.3-1.9,3.2-1.3,4.3,0.3c1.1,1.5,1.6,3.4,2.4,5.1c-2.4,2.5-6.2,3.9-6.7,7.8c3-3.6,8.8-4.7,10.3-10.2c5.9-8.2,14.4-12.1,23.8-14.5   c1.9-0.5,3.8-0.1,5.3,1.5c-2.1,5.7-7.2,9.5-10.2,14.6c-2.1,3.6-4.6,6.9-7,10.2c-3,4.6-3.9,10.1-6.9,14.8c-1.5,2.3-2.6,4.6-5.9,4   c-4.3-5.7,0.4-9.9,2.7-14.3c1.3-2.4,3.6-4.3,4.3-5.6c-10.6,10.5-14.1,26.7-23,39.7c-1.4,4.6-4.8,7.8-8.2,10.9   c-1.9,1.7-3.3,3.5-2.5,6.2c0,2.6-1.3,4.9-2.4,7.1c-1.6,2.7-2.8,5.6-5.4,7.6c-1.5,0.4-2.9-0.3-3.1-1.6   C62,104.1,57.5,102.6,53.6,100.3z"/>
    <path fill="#E3DDD9" d="M44.5,186.1c0.2-0.8,0.2-1.8,0.6-2.4c0.6-0.8,0.8-1.4,0.4-2.3c-0.7,0.4-1.5,0.8-2.2,1.1c-2-2-2-2,1.2-6.6   c2.4-5.1,3.4-10.7,6.1-15.7c1.4-3.9,3.2-7.6,7-9.8c3.4-1.7,4.9-4.6,5-8.4c0.1-1.2,0.3-2.4,0.6-3.5c0.6-1.7,1.1-3.4,2.9-4.3   c4.4-7.8,13.4-11.1,18.1-18.6c4.9,1,5.4,5.9,7.9,9c0.8,1.4,1.4,2.9,1.2,4.6c-4.4,7.9-8.9,15.7-16.8,20.8   c-6.8,1.3-10.9,5.6-13.9,11.8c-5.3,11-11.6,21.6-15.1,33.5c-0.7,2.2-1.6,4.3-4.6,2.9C39.9,193.8,44.4,190.3,44.5,186.1z"/>
    <path fill="#DED7CD" d="M32.6,166.2c5.3-6.4,8.7-13.9,11.7-21.5c1.7-4.3,6.3-7.3,5.4-12.6c4.1-0.7,1.7,4.1,4.2,4.7   c1.1-0.3,2.1-0.3,3,0.6c0.5,6.5-4,11.3-5.5,17.1c-1.8,4.4-3.7,8.8-7.7,11.8c-0.4,0.3-2,0.1-0.8,1.4c3.4,3.7,0.4,6.7-1.2,9.9   c-2.2,2.1-3,5-4.1,7.7c-2,2.6-3.2,8.2-6.8,6.1c-3.3-1.9,0.2-6.1,2-8.9c0.3-0.5,0.6-1.1,0.2-1.9c-0.1,1.6-0.7,2.6-2.4,1.7   C26.7,175.9,27.2,172,32.6,166.2z"/>
    <path fill="#D9C6BD" d="M53.7,138.4c-0.3,1.1-0.8,2.3-2,2.4c-1.4,0.1-0.8-1.1-0.8-1.9c0.1-2.3,1.1-4.9-1.3-6.7   c-2.3-2.2-2.9-4.9-2.2-8c2.5-2.8,3.7-6.3,6.3-9c1.4-1.5,2.2-4.2,5-3.2c2.9,1,2.3,3.5,1.8,5.9c1.7-2.4,2.9-5,5.2-6.8   c0.3-3.2,3.1-5.1,4-7.9c3.9,1.6,2.1,4.9,2.3,7.6c-0.5,1.7-1.8,3.1-2.1,5c-5.6,6.8-7.7,16.1-15.9,20.9   C53.5,136.8,53.6,137.7,53.7,138.4z"/>
    <path fill="#EFECE5" d="M44.5,186.1c1.9,4.3-2.2,7.9-1.2,12.1c1.6,5.1-2.7,8.1-4.1,12.1c-4.7,8.8-10,17.2-15.7,25.3   c-2.1,2.2-4.1,4.6-6.6,0.5c0-0.3,0-0.6,0-1c3.9-7.4,9.2-14,13.5-21.2C35.6,205,38.3,194.7,44.5,186.1z"/>
    <path fill="#E0DCD4" d="M65.7,110.9c0.1,5.3-4.2,7.6-6.9,11.4c-0.5-0.8-0.8-1.2-0.8-1.5c-0.1-2.6,3.6-6.1,0.5-7.5   c-2.8-1.3-2.5,4.2-4.5,5c-3.1,1.2-3.1,5.3-6.5,5.9c2.1-7.9,4.1-15.9,6.2-23.8c5.2,0.5,10.4,1,10.2,8.3   C63.7,109.8,64.7,110.4,65.7,110.9z"/>
    <path fill="#86706F" d="M112,39.5c6.1-7.9,9.9-17.6,18.3-23.7c0.9-0.5,1.8-1,2.6-1.5c1.2-0.7,1.7,0.1,2.1,1c0,5.6-5.8,7.8-7.1,12.7   c-2.5,4.6-7.1,7.6-9.4,12.3c-2,1.8-2.7,5.1-6.1,5.3C108,43.9,112,41.5,112,39.5z"/>
    <path fill="#E18671" d="M159.7,12.8c2.1,0.5,4.3,0.9,6.4,1.4c0.9-0.7,1.7-0.7,2.5,0.1c1.3,2.4,3.3,3.9,5.4,5.4   c-0.1,3.3,4.1,4.1,4.4,7.2c-6,2.8-14.5,0.5-16.7-4.5c0.4-1.3,2-1.6,2.6-2.9c-1.9-1.8-4.8-2-6.4-4C155.8,12.9,156.4,11.9,159.7,12.8   z"/>
    <path fill="#C3B5AB" d="M101.3,28.8c3.1,2.2,0,3.4-0.9,4.5c-3.6,4.2-8.6,6.6-14.1,10.5c2.6-4.9,4.7-8.7,6.7-12.5   c2.3-4.4,2.5,0.8,3.8,0.8c0.2,0,0.4-0.1,0.6-0.2c0.2-0.1,0.2-0.4,0.3-0.6C98.8,30.5,100.1,29.7,101.3,28.8z"/>
    <path fill="#AF9A85" d="M31.4,182.4c0.7-1.1,1.3-2.2,2.4-4c1.3,5-2.5,8.4-2.9,13.1c2.8-2,2.8-5.6,5.7-6.6c1.1-0.2,1.7,0.1,1.3,1.4   c0.3,5.3-4,8.4-9.3,6.7C26.5,188.7,26.8,185,31.4,182.4z"/>
    <path fill="#F5F0EC" d="M31.4,182.4c-1.8,3.3-3.6,6.6-2.7,10.5c-1.2-0.5-2.7-1.3-2.5-2.6c1.4-7.3,0.3-14.9,2.8-22   c0.5-1.5,2-2.1,3.6-2.2C29,171.4,27.5,176.7,31.4,182.4z"/>
    <path fill="#8E7258" d="M38,186.3c-0.4-0.5-0.9-0.9-1.3-1.4c-0.3-3.6,0.5-6.5,4.5-7.5c1.8-0.9,0.5-4.4,3-4.3c1.8,0.1,2.4,2.1,1.9,4   c0.3,2.4-4.4,2.4-2.7,5.4C42.3,185,39.8,185.1,38,186.3z"/>
    <path fill="#C4482D" d="M178,26.3c-1.7-1.9-5.4-2.7-3.9-6.5c0.4-0.2,0.7-0.2,1.1-0.2c0.2,2.1,1.7,3.1,3.2,4.1   c3.8,1,6.1,3.9,8.4,6.7c0.7,1.1,1.2,2.2,1.1,3.5c-0.3,0.9-1,1.5-1.9,1.9c-0.6,0.1-1.2,0-1.8-0.3C181.5,33,178.9,30.2,178,26.3z"/>
    <path fill="#BFB4AF" d="M94.9,218.3c-7.3,7.3-14.7,14.4-21.2,22.5c-1.7-0.3-2.9,0.6-4.1,1.5c-3,2.2-5.2,1.2-6.7-2   c5.8-9.6,14-17.1,22.3-24.3c2.9-2.5,5.3-6,9.5-6.7c0.6,0,1.2,0.2,1.7,0.6c0.4,5.6-4.8,6.3-7.5,8.9c2-0.4,3.4-3.6,6.3-2.1   C95.4,217.3,95.3,217.8,94.9,218.3z"/>
    <path fill="#9F8E85" d="M94.9,216.8c-3.1,1.3-6.4,2.5-8.1,5.9c0.5-6.2,7-7.8,9.3-12.6c1-4,4.7-5.4,7.3-7.9   c6.9-2.9,12.1-7.4,14.3-14.8c1.3-1.6,2.3-4.7,4.7-3.4c2.7,1.4,1,4.7,1.1,7.2c-0.2,0.9-0.5,1.8-1,2.6c-3.5,3.3-6.6,7-10.5,9.9   c-1.8,4-5.9,5.4-9.1,7.8C99.7,212.5,98.7,216.7,94.9,216.8z"/>
    <path fill="#DAD2D3" d="M94.9,216.8c2.9-1.5,4.2-5.3,8.1-5.4c-2.3,2.7-4,6.2-8.1,6.9C94.9,217.8,94.9,217.3,94.9,216.8z"/>
    <path fill="#C6442A" d="M72.4,96.3c-1-2.4-0.6-4.3,1.3-6.3c3.3-3.3,6.3-7,9.5-10.5c2.5-6.5,9.2-9.2,13.2-14.4   c1.2-1.1,2.4-2.1,4-2.4c2.2,0.2,3.6,1.4,4.2,3.5c-5.1,7.8-10.1,15.7-12.4,25c-0.9,1.6-1.4,3.6-3.5,4.2c-2.2-1.6-2.6-0.4-2.8,1.7   c-0.2,1.5-0.7,3.3-2.5,3.3c-1.6,0-2.3-1.7-2.6-3.2c-0.1-4.1,1.7-7.6,2.7-10.5c-1.6,2.8-2.2,6.9-3.6,10.7c-0.8,2-0.8,4.4-3.5,5   C72.3,102.1,73.3,98.6,72.4,96.3z"/>
    <path fill="#C8BABA" d="M104.1,66.1c-1.2-0.9-2.5-1.8-3.7-2.7c-1.3-0.8-1.3-2-0.9-3.3c0.2-0.2,0.4-0.5,0.7-0.7   c4.6-1.9,5.2-6.4,7.1-10.1c1.7-3.2,1.8-7.2,4.8-9.7c1.1,1.5-2.5,4.2,1.2,5.1c1.3,1.2,1.5,2.9,1.9,4.5c-0.3,3.6-6.2,3.6-5.2,8   c-0.3,1.7-2,2-3,2.9c1.8-0.8,3.8-1.5,5.9-1.7c2.2,0,4.3,1.7,6.6,0.9c0.9-0.2,1.8-0.3,2.7-0.4c5.5-0.4,11.1,0.1,16.6-1   c2.2-0.3,4.3-0.4,6.2,1c0.5,0.6,0.6,1.3,0.4,2.1c-3.3,4.8-8.9,1.7-13,3.7c-3.8,0.6-7.2,2.4-10.9,3c-3.1,0-6.1,0.6-9.1,1.3   c-1.7,0.1-3.5,0.2-5.2-0.2C105.7,68.3,104.7,67.5,104.1,66.1z"/>
    <path fill="#DDD0C7" d="M97.6,66.1c-4.8,4.5-9.5,9-14.3,13.5c-0.1-0.9-0.5-2-0.1-2.6c9.5-13.6,13.5-30.6,26.5-42   c0.2-0.2,0.8-0.1,1.5-0.1c-3.4,8.4-11.5,14.6-10.9,24.5l0-0.1C98.8,61.3,98.2,63.7,97.6,66.1z"/>
    <path fill="#E1DDD4" d="M88.4,49.3c-6,10.4-8.5,21.8-11.8,33c-0.4,1.3-1.9,2.4-2.8,3.5c-0.8,1-1.4,2.5-3,1.3   c-1.1-0.8-0.5-1.9-0.3-3c1.3-6.2,0.9-13.6,4.3-18.3C78.9,60.2,82.4,53.7,88.4,49.3z"/>
    <path fill="#D1C3B7" d="M72.4,96.3c1.8,1.4,1.5,4.4,3.8,5.5c1.5,0.9,2.8,2,3.3,3.7c0.1,0.6,0,1.2-0.2,1.7c-0.7,1.1-1.7,1.6-2.9,1.8   c-2-0.1-3.1,2.8-5.4,1.6c-0.6-2.5,0.3-5.3-1.2-7.7C70.6,100.8,71.5,98.6,72.4,96.3z"/>
    <path fill="#D2C6C1" d="M37.8,210.1c1.8-3.9,3.6-7.9,5.4-11.8c1.4-0.2,2.2-1,2.6-2.5c3.4-14.7,11.6-27.2,18.4-40.3   c2.1-4.1,6.5-6.9,11.9-6.4c0.2,0.2,0.4,0.5,0.6,0.7c-0.3,6.4-3.8,11.9-6.7,16.9c-5.8,10.1-8.8,21.5-15.5,31.1   c-2.2,5.5-5.4,10.5-8.3,15.5c-1.2,2.1-2.3,5.3-5.9,2.6C38.8,214.3,41.3,210.9,37.8,210.1z"/>
    <path fill="#C64128" d="M90.8,125.4c-2.2-3.1-4.4-6.1-6.5-9.2c-1.9-0.6-2.4-2.1-2.3-3.9c0.7-2.7,1.3-5.5,1.8-8.3   c0.3-1.8,0.3-4.2,3.3-3.9c1.6,1.5,0.3,3.2,0.6,5.6c-0.4-5.8,3.1-9.6,4.4-14.2c2.1-3.6,2.2-9.3,8.8-7.9c1.7,2.7,1.2,5.7,1.1,8.6   c-1.4,9.6-3.6,19.2-5.6,28.7C95.6,123.7,93.9,125.5,90.8,125.4z"/>
    <path fill="#F8F3F1" d="M82.9,112.2c0.5,1.3,0.9,2.7,1.4,4c-1.7,3.5-4.3,6.4-5.2,10.3c-0.4,1.9-0.7,1.5-3,1.1   c-5.2-1.1-6.5,4.1-7.8,8.3c-0.1,0.2-0.3,0.3-0.5,0.4c-0.2-0.3-0.5-0.7-0.7-1c-0.1-0.2-0.1-0.4-0.2-0.6c-3.2-3.9-1.2-7.7,0.4-11.5   c1.2-3,3.3-5.6,4.7-8.5c1.5-2,1.2-5.5,4.6-6.2c0.7-0.5,1.4-1,2.1-1.4C81.3,107.8,82.8,109.4,82.9,112.2z"/>
    <path fill="#9E8A7A" d="M73.8,115c-2.8,6.4-8,11.9-6.8,19.6c-0.8,1.4-1.6,2.8-2.4,4.2c-2.9,0.5-5.8,0.9-8.1-1.6   c-0.9,0.3-1.9,0.7-2.8,1c-1.6-1.1-1.7-3.4-0.6-3.9c6.8-3,8.7-9.5,11.9-15.2c0.9-1.6,3.5-2,3.6-4.4c1.4-1.4,2.6-3.6,5.1-2.6   C74.5,112.7,74.4,114.1,73.8,115z"/>
    <path fill="#8A6E56" d="M56.5,137.3c2.7,0.4,5.9-1.2,8.1,1.6c-0.2,1.3-0.4,2.6-0.5,3.9c-0.9,3.3-2.9,6-4.9,8.7   c-4.7,1.4-5,6.1-7.1,9.4c-4.2-1-3-3.9-2.4-6.6C52,148.7,54.2,143,56.5,137.3z"/>
    <path fill="#CFC3BC" d="M76.1,149.1c6.4-5.9,11.8-12.7,16.3-20.1c1.9-0.3,3.4,0.3,4.4,2c-0.2,6.1-1.3,11.8-8.4,13.6   c-2.3,0.6-2.4,3-3.9,4.2c-2.5,1.7-5.1,3-8,0.7L76.1,149.1z"/>
    <path fill="#A18873" d="M49.7,154.4c0.1,2.5,0.6,4.8,2.4,6.6c-2,5.4-4.1,10.8-6.1,16.2c-1.9-6.3-3.2,1.7-4.9,0.2   c-1.5-3,5.5-6.7-0.9-9.3c0.5-0.7,0.8-1.5,1.5-2C45.5,162.9,47.9,158.9,49.7,154.4z"/>
    <path fill="#AA3E2A" d="M96.1,130.4c-1.2-0.5-2.4-0.9-3.6-1.4c-0.5-1.2-1.1-2.4-1.6-3.6c1.2-1.6,3.6-2.1,4.3-4.3   c0.6-0.2,1.2-0.1,1.7,0.2c1,0.8,1.4,1.9,1.4,3.2C97.9,126.7,98,128.9,96.1,130.4z"/>
    <path fill="#010202" d="M59.2,151.6c0.3-3.6,3.2-5.8,4.9-8.7C64.5,146.9,62.8,149.7,59.2,151.6z"/>
    <path fill="#B5A294" d="M73.8,115c-1.7-4.9-3.5,1.3-5.3-0.1c-0.3-2.1,0.9-3.3,2.5-4.2c2.5,0.7,1.5-7,5.6-2.3   C75.7,110.6,74.7,112.8,73.8,115z"/>
    <path fill="#DDD5D0" d="M37.8,210.1c6.1-0.8,2.6,3.4,2.9,5.6c1,1.4,0.9,3.1,0,4.3c-3.9,5.4-4.2,11.8-5.5,17.9c-3,1.4-6,2.7-9,4.1   c-3.8-0.8-4.4-3.5-4.1-6.7C27.3,226.8,32.6,218.5,37.8,210.1z"/>
    <path fill="#D36447" d="M117.5,39.5c1.5-5.1,6.1-7.8,9.2-11.6c1.5-1.8,1.8-5.9,5.8-3.2c-0.1,3,2.6,6.1-1,9.2   c-4.4,3.7-8.3,7.9-14.6,8.1C116.5,41,116.5,40.1,117.5,39.5z"/>
    <path fill="#E18671" d="M131.9,24.9c-2.8-1-3.2,2.5-5.2,2.9c0.5-5.5,5.7-8,8.2-12.3c5.8-0.6,10.8-4.5,16.8-3.8   c0.5,2.1-1.2,2.7-2.5,3.6C142.2,16.3,138,22.3,131.9,24.9z"/>
    <path fill="#D98775" d="M117.5,39.5c-0.1,0.9-0.1,1.9-0.2,2.8c1,0.7,1.8,1.5,1.9,2.8c0,1.3-0.6,2.3-1.5,3.1c-1,0.7-2,1.4-3.3,0.6   c-3.8-0.4-1.6-2.6-1.3-4.2C115.5,43.6,114.2,39.6,117.5,39.5z"/>
    <path fill="#E9A491" d="M149,14.3c0.9-0.8,1.7-1.7,2.6-2.5c2.7,0.1,5.6-0.9,8.1,1.1c-3.4,1.2-0.7,1.7,0.3,2.4   c2.8,1.9,7.3,1.6,8.5,5.9c-2,2.1-4.5-0.6-6.3,1.2c-0.3,0-0.6,0.1-0.9,0.1c-2.8,0.1-5.6-0.6-8.5-0.4c-3.5,0.2-3.4,2-2.8,4.5   c-3.6,1.7-5.5-0.1-6-3.3c-0.7-4.1,0.8-7.2,5.4-8c0.8-0.2,0,0.5,0.5-0.1C150.5,14.4,149,15,149,14.3z"/>
    <path fill="#DB714F" d="M178,26.3c2.5,2.8,5.7,5.2,6.8,9.2c-5.1-0.5-10-3.8-15.2-0.4c-5.7-1.3-10.3-4.1-13.4-9.2   c0.2-4.2,3.2-3.7,6-3.6c0,0,0,0,0,0C167,25.8,172.1,27.6,178,26.3z"/>
    <path fill="#B1291D" d="M186.1,35.5c0.4-0.4,0.8-0.9,1.3-1.3c1.1-0.5,1.9,0.1,2.6,0.8c0.7,0.7,1.3,1.6,1.7,2.5   c2.5,4.7,3.2,9.8,2.9,15.1c-0.3,4.1-2.3,7.7-2.9,11.7c-0.4,1.9-1.1,3.7-1.6,5.6c-1.2,3.1-1.2,6.4-1.3,9.6c-0.2,4.7-1.5,9-5.5,11.9   c-4.4-1.6-1.6-5.6-2.7-8.3c-0.3-2.2-0.8-4.3-1.4-6.4c-0.5-3.8-2.5-6.9-4.5-10c-1.3-2.1-3.5-4.1-2.4-7c2.9-1.2,5.9-3,8.7,0.1   c0.3,0.2,0.5,0.6,0.7,1c0.4-0.2,0.4-0.5,0.2-1c-0.3-1-0.3-2-0.1-3.1c3-5.6-1.8-9.7-3-14.5c3.4-5.5,5.3-5.4,8.7,0.2   c0.2-2.2-1.5-3.8-1.6-5.9C186.1,36.1,186.1,35.8,186.1,35.5z"/>
    <path fill="#CE5135" d="M179.6,42.1c3.2,4.4,7.4,8.6,3.7,14.7c-5.7-4.6-12.7-7.8-16.2-14.8c0.2-1.5,1.2-2.1,2.6-2.3   c1-0.2,2,0.3,3.1,0.1c-0.7-1.9-3.2-2.9-2.8-5.4c5.4-6.4,10.1-2.1,14.8,1c0.4,0,0.9,0,1.3,0l0,0c1.2,3.4-0.6,3.4-3.1,2.9   C179.9,37.7,178.5,38.8,179.6,42.1z"/>
    <path fill="#E7E2DE" d="M38,247c0-2.6,1.5-5.2-0.2-7.8c-1.5-3-2.6-6.1-0.1-9.1c1.7-0.9,2.6,0.3,2.9,1.5c1.1,5.5,3.8,4,7.3,2.3   c4.1-1.9,7.5-4.4,10-8.2c4.9-7.4,12.2-11.6,19.9-15.5c1.7-0.1,3.1,0.5,4.2,1.9c0.6,1,0.5,2,0.6,3.3c2.2-4.5,6.6-7.2,9.4-11.1   c2.4-1.8,5.3-2.4,6.6,0.5c1.2,2.7-2,3.7-3.8,5.2c-11.7,9-21.6,19.8-31.6,30.6c0,0,0,0,0,0c-1.3,3.5-4.3,5.4-7.2,7.3   c-2.4,1.6-3.8,0.1-4.2-2.2c-0.6-3.6-0.8-3.7-5.8-1.3c-1.1,1.4-2.5,2.2-4.2,2.7C40.5,248.3,39.2,248.3,38,247z"/>
    <path fill="#D5CAC4" d="M94.8,210c0.5-1.9,3.7-2.7,2.8-4.7c-1.1-2.3-3.5-0.5-5.4-0.5c-0.1-0.3-0.2-0.6-0.3-0.9   c2.2-5.2,6.3-7,11.7-6.3c1.7,1.8,0.1,3.9,0.4,5.8c-2.6,2.2-5.2,4.5-7.8,6.7C95.7,210.1,95.2,210,94.8,210z"/>
    <path fill="#BFB4AF" d="M63.1,245.8c-4.7,0.9-7.3,5.5-12,6.5c-1.9-0.6-2.9-2-3.9-3.6c-1.5-1.2-0.3-1.8,0.5-2.5   c0.6-0.6,1.9-1.1,1.2-1.8c-0.4-0.5-1.9,0-3,0.1c1.7-5.5,8.1-0.4,10.6-4.6c-1.3,2.2-2.7,4.4-4,6.7c0.4,0.3,0.8,0.6,1.2,0.9   c3.1-2.3,6.3-4.6,9.4-6.9C63.2,242.4,63.1,244.1,63.1,245.8z"/>
    <path fill="#BAA9A4" d="M103.9,203.4c-2.7-1.8-0.8-3.5,0.2-5.1c2.7-5.6,8.5-7.6,13-11.1c0.7,0,1.2,0.2,1.7,0.6   C117.5,196.5,111.5,200.7,103.9,203.4z"/>
    <path fill="#CBBEB9" d="M118.8,187.8c-0.5,0-1-0.1-1.4-0.1c-1.1-2.8,0.8-4.6,2.2-6.5c2.2-3,4.7-5.7,5.9-9.3c0.4-1.2,1.4-2.3,3-1.1   c1.6,2.2,1.2,4.7,1.3,7.2c0,1.1,0,2.1-0.1,3.2c-1,3.3-0.5,7.4-4.5,9.2c-0.9,0.4-1.8,0.8-2.6,1.2c-1.6-2.2,0-4.5,0.2-7.4   C121,185.8,119.9,186.8,118.8,187.8z"/>
    <path fill="#AB9B92" d="M39.4,230c-2.7,2.7-1.2,6.1-1.6,9.2c-0.9-0.4-1.7-0.9-2.6-1.3c-3.3-5.6,0.3-10.5,2-15.4   c0.8-2.3,3.2-4.1,3.5-6.8c3.3,0.9,3.2-2.2,4.2-3.8c3-5,5.9-10,8.8-15.1c1.7,1.6,1.3,4,2.1,5.9c-0.9,6.6-5,11.6-8.7,16.6   C44.5,222.8,44.4,228.2,39.4,230z"/>
    <path fill="#E6A29C" d="M100,83c-3.1,2.5-5.1,5.8-6.7,9.4c-0.5,1.1-1.3,1.9-2.3,1.2c-0.9-0.6-0.8-1.8-0.2-2.8   c2.5-9.3,5.6-18.2,13.4-24.7c1,0.4,1.9,0.7,2.9,1.1c0.9,1.1,1.4,2.4,1.4,3.8c-0.1,1-0.3,2-0.9,2.9C103.6,75.8,103.5,80.8,100,83z"/>
    <path fill="#B42C1E" d="M82.9,112.2c-1-2-3.9-2.6-4.1-5.2c0.1-0.4,0.1-0.9,0.2-1.3c-1.6-3.6-0.1-6.1,2.9-8c0.8-0.3,1.5,3.4,2.4,0.1   c0.7-2.4,0.3-5.1,1.8-7.4c2.6,1,0.9,3.4,2.2,4.6c1.6,2.4,0.5,4-1.6,5.3C83.9,103.8,86.9,109.1,82.9,112.2z"/>
    <path fill="#D87759" d="M81.8,97.7c-1,2.7-1.9,5.3-2.9,8c-1.5-0.9-2.6-2-2.7-3.9c3-6.6,3.7-14.3,9.1-21   C85.8,87.4,82.9,92.4,81.8,97.7z"/>
    <path fill="#E39585" d="M86.6,100.3c0.5-1.8,1.1-3.5,1.6-5.3c0.8-1.4,1.6-2.8,2.5-4.2c0.2,1.7,0.7,2.7,2.6,1.6   c-1.8,4.6-3.7,9.2-5.7,14C85.9,104.2,86.9,102.2,86.6,100.3z"/>
    <path fill="#F3EAE5" d="M97.6,66.1c-2.3-3.5,0.4-5,2.6-6.8c0.1,1.4,0.1,2.7,0.2,4.1C99.4,64.2,98.5,65.2,97.6,66.1z"/>
    <path fill="#AE9A92" d="M138.6,59.5c-5.7,1.9-11.5,0.4-17.3,1.2c-0.8-2.2,1-2.6,2.3-3.4c3.6,0.2,5.8-2.5,8.5-4.3   c4.8-2.6,10.3-1.3,15.3-3c0.4-0.5,0.8-0.8,1.3-1c3.2-0.6,5.9,0.9,8.8,1.9c0.6,0.3,1.1,0.6,1.7,1c1.7,1.8,4.4,3.2,3,6.4   c-3.3,1.6-6.8,0.4-10.2,0.7C147.5,58.7,143,56.6,138.6,59.5z"/>
    <path fill="#9F8B85" d="M131.9,54.2c-1.7,3.2-3.7,5.8-7.9,3.8c-2.7-0.9-3.5,1.9-5.3,2.8c-2.2,2.1-3.3-0.4-4.8-1.2   c-0.7-0.2-1-0.6-0.9-1.3c0.3-0.6,0.7-1,1.2-1.4c6-4.5,11.7-9.4,18.4-13c1.6-0.6,3.3-0.6,4.9,0.1c1.8,1.3,3.9,1.5,5.9,2   c2.1,0.5,4.8,0.9,4.5,4.2l0,0C142.8,52.8,136.5,50.2,131.9,54.2z"/>
    <path fill="#AF9C98" d="M131.8,63.1c3.7-3.1,8.9,0.8,12.6-2.4c3.8,0,8-0.5,8.4,5.1c-0.1,0.6-0.3,1.2-0.7,1.7   c-5.6,1.3-4.2,7-6.5,10.4c-0.5,0.4-1,0.6-1.7,0.7c-2.3-0.2-5.3,0.5-4.6-3.6c0.2-1.2,1.5-2.6-0.1-3.5c-1.6-0.9-2.9,0.2-4.2,1.2   c-1.4,1.1-2.4,2.6-3.8,3.6c-1.8,1.2-3.3,1.2-4.1-1.2c-0.1-2.3,1.4-4.1,2.2-6.1c1.7-2.7,4.1-4.2,7.1-4.4   C134.9,64.5,133,65.1,131.8,63.1z"/>
    <path fill="#EFEAE8" d="M151.7,66c-0.1-2.5-0.7-4.4-3.9-3.3c-2,0.7-2.7-0.6-3.4-2c0.3-0.4,0.5-0.8,0.8-1.2c1.8-2.2,4.2-1.6,6.5-1.6   c3.5-1.9,6.9-0.2,10.4,0.2c3.8-0.1,5.9,1.7,6.1,5.6c-0.7,1.9-2.3,2.4-4.1,2.6c-3.6-0.5-6.8,1.8-10.4,1.7   C152.7,67.7,152.2,66.9,151.7,66z"/>
    <path fill="#2A262B" d="M131.8,63.1c3.7,0.3,7.6-0.7,12.1,0.7c-4.4,3.4-10.8,0.6-13.5,5.9c-2.7,2.1-5.5,2.8-8.5,0.6   c-1.1-1.3-2-2.6-0.7-4.2C124.6,64.5,128.1,63.5,131.8,63.1z"/>
    <path fill="#6D5A55" d="M106.9,71.1c0-1.3,0-2.7,0.1-4c1.7-0.3,3.4-0.7,5,0.1c0.5,0.5,0.9,1.1,1.2,1.7c1.4,3.9-0.5,7.5-1.1,11.2   c-0.6,1.6-1.1,3.2-1.9,4.7c-5,3.9-5.4,3.7-8-3.8C105.3,78.4,110.4,76.8,106.9,71.1z"/>
    <path fill="#D26C51" d="M115.4,58c-0.5,0.1-0.9,0.2-1.4,0.3c-1.7,0-3.3-0.4-4.7-1.5c-0.3-1.1-3.7-1.4-0.8-3.4c2.1-1.4,4-3,6-4.6   c0.9-0.5,1.8-1,2.7-1.4c0.7-0.7,1.6-0.8,2.5-0.4C121.4,51.9,118.1,54.8,115.4,58z"/>
    <path fill="#836E6D" d="M151.7,57.9c-2.2,0.5-4.3,1.1-6.5,1.6c-2.2,0-4.4,0-6.6,0c-0.5-0.3-0.9-0.6-1.4-1   C142,57.2,146.8,54.9,151.7,57.9z"/>
    <path fill="#0B0A0F" d="M112.1,68.5c-0.1-0.4-0.2-0.9-0.1-1.3c3-0.9,6.1-1.6,9.3-1.1c0.4,1.2,0.9,2.4,1.3,3.5   c-0.9,1.4-2.3,1.8-3.8,2C116,71.7,113.4,71.4,112.1,68.5z"/>
    <path fill="#B84933" d="M109.3,56.8c2.1-1.3,3.9-1.4,4.7,1.5c-0.1,0.4-0.1,0.9-0.1,1.3c-2.9,0.7-5.7,1.4-9.1,2.3   C105.4,58.9,107.7,58.2,109.3,56.8z"/>
    <path fill="#74605A" d="M118.6,60.8c1.5-2.9,3.8-5,7.7-7.3c-1.2,2.3-1.8,3.4-2.4,4.5c-0.9,0.9-1.8,1.8-2.6,2.7   C120.4,60.7,119.5,60.7,118.6,60.8z"/>
    <path fill="#998476" d="M55,202.2c-4.2-0.9-0.4-3.7-1.3-5.4c7.6-15.8,15.2-31.6,22.7-47.3c2.6-0.5,5.1-1.1,7.7-1.6   c1-1.1,1.9-2.5,3.8-1.7c2.2,2.7-3,3.6-1.5,6.2c-0.5,1.6-1.4,2.6-3.2,2.4c-0.5-0.4-1-0.6-1.5-0.8c-0.1,0-0.1,0.2-0.1,0.2   c0.4,0,0.8,0,1.2,0.2c0.7,0.5,1.6,0.8,2.1,1.6c0.2,0.6,0.3,1.2,0.3,1.9c-0.7,2.4-2.2,3.9-4.7,4.3c-1.4,0.2-3.7-1-4.1,0.9   c-1.1,4.8-5.1,8.9-3.4,14.3C68.7,186.9,63,195.4,55,202.2z"/>
    <path fill="#19151B" d="M109.3,84.4c0.2-1.4-0.2-3,1.3-4c3.5,0.2,2.8,3,3.4,5.1c0.2,1.1,0,2.3,0,3.4c0,4.8,0.1,9.7-0.1,14.5   c-0.6,6.8-2.8,12.6-10.1,14.8c-3.2-0.4-5.7,0.9-7.7,3.3c-0.3-0.1-0.7-0.2-1-0.3c1.1-8,1.4-16.1,4.3-23.8c0.6-1.6,0.7-3.4,1-5.1   c2.6-3.6,2.8-0.1,4.3,2C105.4,90.3,107.2,87.3,109.3,84.4z"/>
    <path fill="#473633" d="M109.3,84.4c-0.9,3.3-1.8,6.7-2.7,10c-0.5,1.8-1.4,3.8-3.1,3.6c-2.7-0.3-1.4-2.4-1-4.1   c0.5-1.8-0.3-2.4-2-1.7c-0.2-3.1-0.3-6.2-0.5-9.3c1.6-3.6,0.9-8.9,6.8-9.4c1.2,3.8-2.2,4.8-4,6.8c0.8,0.9,2.2,1.8,2.3,2.8   C105.5,87.9,107.5,85.6,109.3,84.4z"/>
    <path fill="#AF9E95" d="M88.3,146.7c-1.4,0.4-2.8,0.8-4.1,1.2c0.1-2,0.1-4.6,2.4-4.8c8.3-0.6,7.3-7.7,9.5-12.7   c0.3-2.3-0.5-4.7,0.7-6.8c4.4-0.9,6.9,1.7,9,5c0,2.9-2.3,4.6-3.6,6.8c-1.2,2-4.3,3.6-2.8,6.1c1.5,2.5,4.3,0.8,6.6,0.2   c3.7-1.1,5.5,0,4.8,4.1c-1.6,1.5-4.1,1.7-5.7,3.1c-3.3,2.8-6.8,2.8-10.2,0.4C92.9,147.6,90.4,147.7,88.3,146.7z"/>
    <path fill="#110F11" d="M105.6,129.3c-2.9-1.9-5.9-3.8-8.8-5.7c-0.2-0.7-0.5-1.4-0.7-2.1c0.3-4.7,1.7-7.5,6.8-4   c4.4,0.3,5.1,5.3,8.6,6.7c2.7,1.8,5.5,1.2,8.4,0.8c2.8,0.1,5.2-1.5,7.9-2.1c1-0.1,2,0,2.9,0.4c3.2,2.2,5.7,4.8,5.5,9   c-0.7,1.3-1.8,2.1-3.2,2.5c-2,0.6-4.1,0.3-6.2,0.7c-4.8,1.2-9.6,1.4-14.3-0.7C109.9,133.4,106.4,132.9,105.6,129.3z"/>
    <path fill="#F0B5B4" d="M149,14.3c1.4,0.4,3-0.5,4.8,1.4c-4.8,0.3-8.9,1.3-8.6,7c0.2,3.4,2.6,3.6,5.1,3.6c0.1,0.3,0.1,0.6,0.2,0.9   c-0.7,1.2-3,2.2-0.4,3.9c0.9,0.6,0.7,1.9-0.3,2.7c-6.2,2.8-13.3,2.6-19.5,5.7c-4.1,1.4-6.7,6.1-11.8,5.4c-1.3-0.4-1.2-1.4-1.3-2.4   c4.9-4.7,12.5-6.2,15.7-14.1c-1.9,1.1-3.2,1.9-5.6,3.3c1.9-2.8,3.2-4.7,4.5-6.6C136,18.8,141.4,14.8,149,14.3z"/>
    <path fill="#C74229" d="M118.6,44.8c3.5-2.3,7-4.6,10.4-7c1.2-0.4,1.7,0.3,2,1.3c-0.2,2-1.4,3.5-2.5,5.1c-2.3,2.4-4.8,4.5-8.5,3.2   c-0.9,0-1.9-0.1-2.8-0.1C117.7,46.5,118.1,45.6,118.6,44.8z"/>
    <path fill="#E3886D" d="M162.2,22.3c-1.7,1.4-5.1,0.6-5.3,4.1c-2.3,4-4.4,1.6-6.6-0.2l0,0c-3.1-2.2-4.2-4.2,0.6-5.5   C154.9,19.5,158.8,19.4,162.2,22.3z"/>
    <path fill="#E8A18F" d="M150.4,26.2c2.2-0.8,4.3,2.1,6.6,0.2c4.3,2.7,8.7,5.4,13,8.1c2,2.2,5,3.5,5.9,6.9c-2,1.4-3.8,0.3-5.7-0.6   c-5.6-1.1-10.9-3.2-16.3-4.7c-1.6-0.4-3.6-0.6-3.5-3.1c-0.7-2.8-3.6-2.3-5.7-3.6C146.8,28.2,148.6,27.2,150.4,26.2z"/>
    <path fill="#DD7B61" d="M150.4,32.9c6.6,2.7,14.2,2.8,19.8,7.8c-1,0.1-2,0.1-2.6,1.1c-0.3,1.1-3.8,0.8-1.3,3c2,1.7,4,3.4,5.1,5.8   c1.1,2.8,2.9,5.4,1.4,8.6c1.5,6.3,7.8,10.3,8.1,17.1c-2,1-2.9-0.6-4-1.8c-1.1-3.4-4.9-4.9-5.8-8.3c-2-7.1-7.8-10.3-13.6-13.6l0,0   c-1-0.4-1.3-1.1-1.3-2.1c0.2-2,2.9-0.3,3.2-2.2c-2.8-3.8-7.7-4.6-10.8-7.7c-3.1-4.1-6.2,0.6-9.3,0.1c-2.9-0.8-6.4,1.6-8.9-1.5   c-0.5-0.5-0.9-1-1.4-1.5C135.9,35.1,142.9,33.1,150.4,32.9z"/>
    <path fill="#C2432A" d="M182.3,83.1c2.1,2.4-2,5.6,0.9,7.9c0.5,0.4,0.7,0.9,0.8,1.5c-0.3,2.1-1.4,3.8-2.3,5.6   c-1.9,1.9-1.2,4.4-1.7,6.6c-0.7,1.5-1.6,2.7-3.5,2.7c-1.5-0.4-1.9-1.6-1.7-3c-0.2,0.9,0.3-1,0-0.4c-1.3,2,0.9,7.8-5.1,4.4   c-0.5-0.9-0.7-1.8-0.5-2.8c0.8-3.5,2.9-6.6,3-10.3c0.1-4.4,0-8.9,2.1-12.9C177.3,79.4,179.8,81.7,182.3,83.1z"/>
    <path fill="#ECDFDF" d="M170.3,50.7c-1.8-1.6-3.6-3.1-5.3-4.8c-1.4-1.4-4.9-2.1-3.3-4.6c1.3-2.1,3.9,0,6,0.6   c4.1,6.1,12.9,7.3,15.7,14.9c0.4,3,0.7,6,1.1,9.1c-3.4-0.5-2.2-4-4-5.3C177.7,56.7,172.6,55.1,170.3,50.7z"/>
    <path fill="#251716" d="M182.3,83.1c-2.7,2.3-4.3-2.2-6.7-1.2c-2.6,1.3-3.8-0.5-5.1-2.1c-1.2-1.9-1.8-3.9-0.9-6.1   c0.5-1,1.3-1.7,2.3-2.2c2.9-1.1,4.9,0.2,6.6,2.4c0.9,0.8,1.7,1.7,2.6,2.5C181.4,78.7,181.8,80.9,182.3,83.1z"/>
    <path fill="#CC4A2D" d="M179.6,42.1c-1.6-1.2-3.2-2.9-2.1-4.8c1.1-2,3.4-1.5,5.1-0.5c1.9,1.2,3.1,1.4,3.5-1.3   c2.9,2.8,3,6.6,4.2,10.1C185.5,46.9,186.4,33.7,179.6,42.1z"/>
    <path fill="#CB5C3F" d="M170.3,50.7c4.1,2.6,9,4.3,10.1,9.9c-2.3-1.5-5-1.2-7.6-1.3C172,56.5,171.2,53.6,170.3,50.7z"/>
    <path fill="#F0EDE5" d="M77.4,211.3c8-9.1,15.3-18.7,21.2-29.3c5.5-2.2,6.9-7.3,8.8-12.2c1.5-3.8,1.3-8.9,6.5-10.5   c2.1,1,2.3,2.9,2.4,4.9c0,2-0.7,3.9-1.3,5.7c-0.8,2.4,0.8,1.8,2.1,1.5c1.5-0.3,2.9-0.7,4.4-1c3.8-0.1,5.8,1.3,3.3,5   c-2.7,3.9-5.7,7.7-9.2,11c-3,2.8-3.7,2.5-5.9-2.3c-7.4,6.8-13.9,14-19.2,22.3c-2.7,2.3-4,6.7-8.8,6.2   C80.2,212.3,78.8,211.8,77.4,211.3z"/>
    <path fill="#D5C7C0" d="M81.6,212.8c2.6-2.2,5.3-4.4,7.9-6.6c0.8-0.7,1.1-2.2,2.7-1.3l0,0c-2.8,6.3-7.1,11.1-13.8,14.8   C78.3,216,82.2,215.5,81.6,212.8z"/>
    <path fill="#E1D9D7" d="M92.2,204.8c-0.9,0.4-1.8,0.9-2.7,1.3c6-10,12.7-19.4,22.9-25.7c2.1,2.7-1.7,3.9-0.9,6.8   c5.6-3.3,9.6-7.9,12.7-13c1.6-2.6-1.5-2.2-3-2.4c-3.9-2.6-0.4-5,0.7-6.6c2.2-3.2,5.4-5.2,9.6-3.3c2.3,4.5-0.8,6.5-3.9,8.4   c-1.2,7.1-7.2,11.4-10.4,17.3c-3.3,4.9-8.7,7.1-13.2,10.6C99.4,199,95,200.4,92.2,204.8z"/>
    <path fill="#C8BAA7" d="M148.8,161.3c-1.3,1.1-0.9,2.6-1.2,4c-0.8,0-1.6,0-2.4,0c-6.3,2.6-13.5,4.2-15.2,12.4   c-0.2,0.8-1.2,1.2-2.1,0.6c0-2.6-0.1-5.3-0.1-7.9c0-3.4,4.2-4.4,4.1-7.8c0.3-0.5,0.8-1,1.3-1.3c2-1.2,4.2-0.7,6.3-1   c2.3-0.4,3.9-1.9,4.4-4.2c0.4-1.9-0.3-3.1-2-4.3c-4.7-3.5-4.3-4.8,1.6-7.3c0.6-0.1,1.2-0.1,1.8,0c5.4-0.4,8.4-4.6,12-7.8   c2.3-2,4.1-4.4,6-6.8c2.4-2.3,3.9-5.2,5.6-8c1.3-2.1,2.6-4.9,6-2.6c0.7,6.1,0.5,12-5.6,15.7c-3.3,2.6-4.5,6.1-4.3,10.2   c-0.3,0.5-0.8,0.8-1.4,0.9c-2.7-0.4-4.1,1.2-5.3,3.3C155.1,153.2,153.4,158.4,148.8,161.3z"/>
    <path fill="#9D846F" d="M127.9,178.2c0.8-10,9.7-11.4,16.3-15.1c2.3-1.3,1,1.2,1.1,2.1c-0.9,1.3-1.8,2.5-2.7,3.8   c-2.1,1-4.7,1.2-5.4,4c-1.8,0.7-2.5,2.2-2.9,3.9c-1.1,0.1-2,0.5-2.5,1.6c-1.3,0.9-2.6,1.8-3.8,2.7   C127.9,180.2,127.9,179.2,127.9,178.2z"/>
    <path fill="#7D6870" d="M102.7,80.5c-0.5-3.4,3.4-4.2,4-6.8c0.1-0.8,0.1-1.6,0.2-2.5c2-0.8,3.8-0.9,2.8,2c-0.9,2.7,1.3,7-3.7,7.6   C104.9,80.8,103.8,80.6,102.7,80.5z"/>
    <path fill="#5E473A" d="M157.6,52.7c8.4,1.3,13.4,5.8,15.3,13.8c-2.7,0.3-4-1.4-5.2-3.4c-1.9-1.7-3.7-3.4-5.6-5   C161.5,55.6,158.9,54.7,157.6,52.7z"/>
    <path fill="#8A5C37" d="M156.9,49.9c0.3,0.9,0.5,1.9,0.8,2.8c-3.3-0.7-6.3-2.7-9.9-2.7c-1.6-2.1-3.9-2.4-6.3-2.6   c-1.9-0.1-4,0-4.5-2.6C143.1,41.7,151.4,43.9,156.9,49.9z"/>
    <path fill="#806869" d="M131.9,54.2c4.1-5.9,10.4-3.5,15.9-4.1c0.4,1,3.2,2.8-0.4,2.6C142.1,52.3,137,53.7,131.9,54.2z"/>
    <path fill="#E6988C" d="M156.9,49.9c-6.5-2.4-12.6-5.9-19.9-5.1c-1.6,0.1-3.3,0.1-4.9,0.2c-0.2-0.2-0.4-0.5-0.7-0.7   c0.6-5.3,5.3-3.4,8.1-4.7c3.1-0.4,6.3-6.7,9.4,0.1c-0.4,3.7,3.1,2,4.5,3.2c2.4,2.1,6,2.8,7.4,6c0.6,0.6,1.7,1.2,1.6,1.7   c-0.2,1.2-1.3,0.5-2,0.3C159.3,50.7,158.1,50.3,156.9,49.9z"/>
    <path fill="#E18B7A" d="M120,47.5c2.7-1.1,5.5-2,7.6-4.2c1.6-0.2,3,0.1,4.1,1.2c0,0,0.3,0.5,0.3,0.5c-5.6,4.3-11.1,8.6-16.6,13   C117.3,54.7,116.7,50.2,120,47.5z"/>
    <path fill="#8E7E7E" d="M127.9,75.2c3.3,2.5,3.1-1.7,4.5-2.6c2.4-1.7,4.1-4.9,7.7-3.2c3.3,1.7,2.6,3.5,0.5,6.4   c-1.4,2,3.2-0.1,3.2,2.2c1.3,4.2-0.2,6.9-4.4,8.2c-1.6,0.5-3.3,0.9-4.7,1.9c-1.2,7.5-3,14.8-6.8,21.4c-2.1,1.7,0.2,6.2-4,6.7   c-4.6-4.2-3.8-9.9-4.6-15.2c0-5.5-1.5-11.2,1.6-16.4c3.8,1.7,3.8,1.8,3.1,8.3c1.4-3.7,2.1-8.2,1-13   C124.7,78.1,124.4,75.3,127.9,75.2z"/>
    <path fill="#8E7A78" d="M127.9,75.2c-1.6,1.3-1.8,3.4-1.2,4.8c3,6.7-0.5,11.9-3.8,18.6c-0.3-5.6-0.5-10.2-0.7-14.7   c-1.5-1.5-1.6-3.4-1.9-5.6c-0.8,4.3-1.1,8.5-3.3,12.1c-3.8,5.1-3.9,0.5-4.8-1.9c0.1-0.8,0.1-1.6,0.2-2.4c0.9-2.7,0.2-5.5,0.5-8.3   c0.4-3.9,1.6-7.1,6.2-7.7c1.2-0.1,2.4-0.3,3.7-0.4c2.6,2,5.3-0.8,7.9,0.1C130.9,72.2,128.8,73.4,127.9,75.2z"/>
    <path fill="#32292D" d="M133.1,87.1c1.1-0.7,2.2-1.9,3.3-1.9c4.9,0,6.5-3.1,7.4-7.1c0.4-0.1,0.8-0.3,1.3-0.4   c1.1-1.5,2.5-2.6,4.5-2.1c3.3,1.3,3.9,4,3.9,7c0,1-0.2,2-0.5,3c-1.5,6.6-6.5,8-12.2,8.3C137.5,92.4,133.7,91.5,133.1,87.1z"/>
    <path fill="#786668" d="M151.9,83.3c-0.4-2.5,0.3-5.5-2.9-6.9c-2.7-4.1-0.9-6.9,2.7-9.1c0.1-0.4,0.1-0.8,0-1.2   c0.5,0.3,1,0.6,1.4,0.9c5,4.8,12.5,7.1,14.7,14.7c-7.5,0.7-6.8,7.1-8.2,12c-2.1,0.7-2.7-0.9-3.6-2.1c-0.7-1.4-1.1-2.9-1.6-4.3   c-0.6-1.1,0.1-2.7-1.4-3.4C152.6,83.7,152.2,83.6,151.9,83.3z"/>
    <path fill="#988684" d="M151.7,67.3c-1.5,2.9-3.1,5.7-2.7,9.1c-1.3,0.4-2.6,0.9-3.9,1.3C146.5,73.7,142.8,66.4,151.7,67.3z"/>
    <path fill="#90807D" d="M167.4,82c-3.8-3.2-5.5-8.6-11.3-9.7c-2.4-0.4-2.1-3.5-3-5.3c3.5-0.4,6.5-3.6,10.4-2.1   c0.5,0.4,0.6,0.8,0.5,1.3c1,3.4,6.1,3.6,6,7.7c-0.3,2,0.7,3.6,1.6,5.2c1.9,4.6,1,7.8-4.4,8.8C162.9,85.8,164.3,83.9,167.4,82z"/>
    <path fill="#A6989C" d="M163.6,66c0-0.4,0-0.8-0.1-1.2c1.4-0.4,3.3,0.2,4.2-1.7c2.6-0.2,3.5,2.1,5.2,3.4c0.9,3.2,5.4,3.7,5.5,7.4   c-2.1-1.3-4.4-1.5-6.8-1.4C168.6,70.7,165.5,69.1,163.6,66z"/>
    <path fill="#433435" d="M118.9,70.1c-6,3.7-3.6,11-6.6,16c-0.5-1.9,0.3-4.2-1.6-5.7c0.5-3.9,1-7.9,1.5-11.8   C114.1,70,116.6,69.9,118.9,70.1z"/>
    <path fill="#78634E" d="M88.3,146.7c0.8-0.3,2-1.2,2.4-0.9c6.8,5.6,13.4,1.2,20-0.4c1.2,0.1,2.1,0.8,2.7,1.8c1.2,2.5,2.1,5-0.6,7.1   c-5.2,0.4-10.5,0.5-15.7-0.2c-2-0.4-4.1,0.4-6.1-0.6c-1.1-1.8,0.6-2,1.5-2.8c-2.5-0.5-4.2,3.1-6.9,1.3   C83.6,148.7,88.1,148.8,88.3,146.7z"/>
    <path fill="#826A55" d="M80.5,161.4c-3.7,4.8-4.4,11.1-8.3,15.7c-2.9-0.2-2.2-2.4-1.7-3.9c1.3-4.1,2.7-8.2,4.4-12.1   C76.7,157,78.6,161.3,80.5,161.4z"/>
    <path fill="#726050" d="M85.6,151.9c3-0.7,5.6-5.8,9.4-0.4c-1.6,0.3-3.1,0.5-4.7,0.8c-1.7,1.7-3.4,3.5-6,3.7   c-0.5-0.5-1-0.9-1.5-1.4l0,0C84.2,154.1,85.1,153.1,85.6,151.9z"/>
    <path fill="#BBAA9E" d="M82.9,154.6c-1.9,0.3-3,4-5.5,1.3c-0.8-0.9-0.2-2.3,0.7-2.9C80.2,151.6,82.2,151.3,82.9,154.6L82.9,154.6z"/>
    <path fill="#E2DBD6" d="M84.4,156c2-1.2,4-2.5,6-3.7c1.9,0.4,3.8,0.8,5.6,1.3c0,0.2,0,0.5,0.1,0.7c-4.3-0.3-8,1.4-11.8,3   C84.4,156.8,84.4,156.4,84.4,156z"/>
    <path fill="#C6BBB6" d="M112.1,88.5c1.4-0.1,1.3,4.7,3.9,1.2c2.3,1.9,1.5,4.7,2.1,7.1c0.5,1.8-0.3,4.6,3,4.7c1.2,5,0.5,10.5,4,14.8   c3.3,0.6,5.1,2.9,6.7,5.5c0.7,1.1,0.9,2.5-1.2,2.6c-0.9-0.1-1.7-0.2-2.6-0.3c-4.5-4.9-5.7,0.5-7.9,2.6c-3.3,0.3-6.7,1.8-9.5-1.2   c3.8-6.6,6.7-13.2,3.6-21c-0.6-1.4-1.2,0-1.8-0.3C111.7,99,111,93.8,112.1,88.5z"/>
    <path fill="#EDE8E4" d="M112.2,104.3c0.5-0.9,1.1-1.8,1.6-2.6c6.4,7.2,2.8,14.7,0.5,22.1c-0.6,1.9-2.4,1.5-3.9,1.7   c-4.1-1.3-4.9-5.6-7.6-8.1C108.5,114.8,111.7,110.5,112.2,104.3z"/>
    <path fill="#D3C7C1" d="M111.9,146.8c-0.4-0.5-0.8-1-1.3-1.4c-0.7-2.1-1.3-4.6-4.2-2c-2.1,1.9-4.6,0.9-6.8,0.8   c-3.8-0.1-4.5-3.2-2.6-5.2c2.9-3.1,4.7-7.4,8.5-9.6c2.2,1.3,4.4,2.7,6.6,4C113.7,137.8,117.7,142.4,111.9,146.8z"/>
    <path fill="#E3DCDB" d="M111.9,146.8c3.7-4.4-1.6-9,0.3-13.5c4.8,1.5,9.6,1.3,14.4,0.3c6.5,1,8.8,3.9,9.8,10.5   c0.6,4.4-2.6,8.9,1.1,13.5c1.4,1.7-2.6,3.4-4.3,4.9c-0.4,0-0.8,0-1.2,0.1c-6.4-0.2-9.9,2.9-10.6,9.3c-1.1,1.4-2.6,1.2-4.1,1.2   c-1.7-7.1,4.4-12.1,4.5-17.9c-2.4,2.7-1.1,8.9-7,10.1c-0.2-1.8,0.6-3.9-1.4-5.3c-2.1-2.2-1.7-4.5-0.1-6.7   C113.9,150.7,112.4,148.8,111.9,146.8z"/>
    <path fill="#594C4D" d="M130.5,124.5c2.4-1,0.8-1.9-0.2-2.5c-2.2-1.4-4.2-3-5.3-5.6c0.9-2.3-2.1-5.4,1.5-7.1   c1.1,0.3,1.8,1.1,2.8,1.5c2.7,0.2,4.8-0.8,5.3-3.5c0.3-1.8-1.7-1.5-2.8-2c-1.9-1-2.6-2.5-1.1-4.1c2.3-2.3,1.7-5.1,1.8-7.8   c2.4-0.4,2.7-0.5,3.2,0.9c2.1,5.6,3.4,2.4,4.8-0.4c0.4-0.5,1-0.8,1.6-0.9c4.9-0.4,4.7,3.5,5.5,6.5c0.1,0.6,0.1,1.3,0,1.9   c-1.3,4.9-4.4,8.9-6.4,13.5c-1.7,3.9-2.2,7.4,0.6,11c0.6,0.7,1,1.5,1.3,2.4c0.2,1,0,1.8-0.6,2.6c-2.3,0.6-4.5,1.9-6.9,0.7   C134,129.3,132.2,126.9,130.5,124.5z"/>
    <path fill="#CBBEB9" d="M133.2,162.5c1.2-1.5,2.4-3.1,4.1-5.3c-4.8,0.6-5.1-1.1-3.8-4.9c3.1-8.8,0.4-15.6-6.9-18.7   c2.2-0.5,4.4-0.5,6.6,0.1c1.5,0.7,2.7,1.9,4,2.9c2.9,2.3,6.3,4.3,6.7,8.5c-1.1,1.4-4.3,0.5-3.9,3.4c0.3,2.4,2.4,1.1,3.6,1.4   c3.8,1.1,2.9,4.6,2.5,6.8c-0.6,3.7-4.1,6-7.4,5.5C136.6,161.8,135,162.8,133.2,162.5z"/>
    <path fill="#B8A89D" d="M135.7,137.4c-1.6-0.7-2.5-1.9-2.6-3.7c0.9-0.6,1.7-1.3,2.6-1.9c2.1-1.9,4.3-2,6.8-0.7   c0.4,0.4,0.6,0.9,0.8,1.4c0.4,1,0.9,2,1.6,2.8c0.9,1.1,2,2,3.1,3c2.9,2.9,2.4,5.4-1,7.5C142.4,144.1,141.2,137.8,135.7,137.4z"/>
    <path fill="#97816F" d="M120,126.8c0.2-3.1,2.1-6.2,0.1-9.6c3.8,1.3,5.5,4.5,7.8,7C125.5,125.8,123.2,127.6,120,126.8z"/>
    <path fill="#F2D9D9" d="M131.7,44.5c-1.5,0-3.1,0.4-4.1-1.2c1-1.3,1.9-2.7,2.9-4c3,1.3,6.1-2.6,9.1,0.3   C137.8,42.7,133,40.7,131.7,44.5z"/>
    <path fill="#C24B32" d="M160.8,49c-4.8-3.6-10-6.3-16-7.1c0.5-2.7,2.6-1.9,4.1-2.1c3.5,2,7.2,3.8,10.6,5.9   C160.4,46.2,162.7,47,160.8,49z"/>
    <path fill="#B22E20" d="M176.9,107.3c0.4,4.3-2,7.8-3,11.7c-3.7,0.8-3.2,4.8-5.2,7c-1.5,1.8-2.2,4.3-4.7,5.2c-3.1,0-2-2-1.5-3.4   c1.6-4.3,2.1-8.8,2.5-13.3c1-2.6,1.3-5.8,5-6.3c5.7,1,2.6-4.6,4.8-6.3C176.3,103.3,174.7,106,176.9,107.3z"/>
    <path fill="#453838" d="M166.4,86.8c4.8-0.4,5-4,5.2-7.6c1.4,0.9,2,2.8,3.9,2.8c-0.5,4.8-0.9,9.5-1.4,14.3   c-0.7,0.8-1.5,0.9-2.5,0.5C171,92.9,167,90.7,166.4,86.8z"/>
    <path fill="#4E4243" d="M170.1,108c-1.2,2.2-2.5,4.5-3.7,6.7c-1.8,0.6,1,5-3.1,3.8c-1.7-2-1.6-4.4-1.5-6.8c0.9-3.3,1.7-6.6,2.6-9.9   c1.1-1.1,2.2-0.5,3.3,0.1c1.2,0.9,2.1,2,2.6,3.5C170.2,106.3,170.2,107.2,170.1,108z"/>
    <path fill="#79625A" d="M170.3,105.4c-1.8,0.1-2.6-0.9-2.8-2.5c-2.1-4.3,0.5-5.7,4.1-6.4c0.8-0.1,1.7-0.1,2.5-0.2   C173.5,99.6,172.6,102.8,170.3,105.4z"/>
    <path fill="#312A2E" d="M163.6,66c3.5,1.2,6.5,2.9,8,6.5c-0.5,0.5-1,0.9-1.5,1.4c-3.2-2.3-6.5-4.7-10.2-7.4   C161.5,66.3,162.5,66.1,163.6,66z"/>
    <path fill="#C0B0A3" d="M113.2,153.1c0,2.2,0.1,4.5,0.1,6.7c-2.5,4.2-3.8,8.8-5,13.5c-1.1,4.3-4.2,7-7.2,9.9   c-1.7,1.6-2.1,0.3-2.4-1.1l0,0.2c4.5-7.5,4.9-16.6,9.5-24.1c1.2-1.9-0.4-2.7-1.5-3.7c-3.6,1.8-7.1,2-10.5-0.3   c-0.1-0.2-0.1-0.5-0.1-0.7C101.7,153.4,107.5,153.2,113.2,153.1z"/>
    <path fill="#EEE9E6" d="M106.6,154.6c3.6-1,4.1,2.2,3.1,3.7c-4.8,7.6-4.7,17.3-11.1,24.1C101.3,173.1,103.9,163.8,106.6,154.6z"/>
    <path fill="#D0C3BF" d="M114.7,165.1c4.3-4.2,3.9-11.1,9.4-16.1c0.1,9.5-4.7,16.3-6.8,23.9c-1.7,0.9-3.5,1.7-6.3,3.1   C112.4,171.7,113.5,168.4,114.7,165.1z"/>
    <path fill="#683922" d="M163.7,118.8c0.9-1.4,1.8-2.7,2.7-4.1c1,5.7-2.2,10.8-2.3,16.3c-1,3-3.4,4.7-5.7,6.5   c-0.9-0.1-1.8,0-2.7-0.3c-0.9-0.3-1.7-0.8-2.2-1.7c-0.5-0.9-0.7-1.8-0.7-2.8c0.1-1.7,0.6-3.2,2-4.2c5.1-0.9,7-4.7,8.2-9.2   C163.2,119.2,163.4,119,163.7,118.8z"/>
    <path fill="#9C8981" d="M156.8,136.4c0.5,0.4,1,0.8,1.5,1.2c-3.8,3.6-6.6,9.1-13.3,7.8c0.5-0.7,1-0.8,1.6-0.1   c1.9-2.2,3.2-4.4-0.3-6.3C149.3,136,153.5,137.8,156.8,136.4z"/>
    <path fill="#877260" d="M146.6,145.3c-0.5,0-1.1,0.1-1.6,0.1c-0.4-0.1-0.8-0.2-1.2-0.3c-2.7-2.6-5.4-5.1-8.1-7.7   c3-2.7,3.9,0.3,5.3,1.9C142.9,141.3,144.8,143.3,146.6,145.3z"/>
    <path fill="#E9E2E1" d="M121,101.6c-2.1,3.1-3.2,1.5-4.3-0.9c-1.5-3.6-0.7-7.3-0.8-10.9c2.5-4.7,1.1-10.8,5.7-15.8   c0.2,3.9,0.4,6.9,0.6,9.9C120.3,89.6,122,95.7,121,101.6z"/>
    <path fill="#6E5C5E" d="M128,112.2c-1.2-0.6-1.3-1.8-1.5-2.9c1.5-6.6,7.5-12.3,4.6-20c-0.2-0.4,1.3-1.5,2-2.2   c2.7,1.8,5.4,3.6,8,5.4c0,0.3,0,0.6,0.1,0.9l-0.1,0.5c-3.3,3.3-5.1-2.2-7.9-1.5c-0.4,3.4,0.9,6.9-1.8,10.1c-1,1.1,0.8,1.6,1.8,1.9   C132.7,107.8,132,111.1,128,112.2z"/>
    <path fill="#705D5C" d="M137.9,74.9c-0.9,2.4,0,5.7-3.6,6.6c-0.4,0.1-1.4-0.6-1.4-1C133,77.3,135.4,76.1,137.9,74.9z"/>
    <path fill="#8C7A76" d="M141.2,93.3c0-0.3-0.1-0.6-0.1-0.9c4.6-0.6,9-1.4,10.4-6.8c3.6,7.1,1.9,12.4-5,14.8   C144.5,98.4,146.2,93.3,141.2,93.3z"/>
    <path fill="#D3C9C7" d="M146.6,100.5c5.7-3.6,5.2-9.3,5-14.8c0.1-0.8,0.2-1.6,0.3-2.4c0.3-0.1,0.7-0.2,1-0.3   c3.2,5.9,2.2,11.8,0.3,17.8c-1.7,3.7-3.8,4.1-6.5,0.9C146.6,101.3,146.6,100.9,146.6,100.5z"/>
    <path fill="#D7CDC6" d="M146.7,101.6c1.8-0.2,4.5,2.9,5-1.5c2.5-1.6,2.6-4.1,2.7-6.7c0-2.2-0.9-4.8,1.5-6.5c1.5,1,1.3,2.5,1.2,4   c0.6,3,2.2,5.3,4.5,7.2c4.6,3.9,0.2,8.9,1.7,13.2c0.1,2.5,0.2,5.1,0.3,7.6l-0.3-0.2c-2,1-3.4-0.6-5-1.2c-5-2.6-8.9-0.8-12.2,3.2   c-1.9,1.9-2.5,4.8-5.1,6.1c-3-2.4-5-5.3-2.9-9.1C141,112.3,142.5,106.3,146.7,101.6z"/>
    <path fill="#241D23" d="M171.6,96.5c-1.5,2.1-4.8,2.9-4.1,6.4c-0.8-0.4-1.7-0.9-2.5-1.3c-2.4-1.8-3.4-4.7-5.2-7   c-0.1-0.3-0.1-0.6-0.2-0.9c-0.1-1.5,0-3-0.2-4.5c-1-7.4,0.1-8.4,8-7.2c-0.7,1.5-2.9,2.7-1,4.8C169.3,89.3,173.8,91.1,171.6,96.5z"/>
    <path fill="#F7F4F4" d="M155.9,86.9c-0.1,3.2-0.2,6.4-0.2,9.7c0,2.8-1.3,3.9-4,3.6c1.6-5.6,1.4-11.4,1.2-17.1   c0.1-1.3-0.1-3.1,1.3-3.4c1.9-0.3,1.5,1.5,1.6,2.7C155.8,83.8,155.8,85.3,155.9,86.9z"/>
    <path fill="#D3C9C7" d="M160.9,99c-4.2-1.3-3.9-4.8-3.8-8.2c0.8,1,1.7,1.9,2.5,2.9l0,0C160.4,95.4,162.8,96.7,160.9,99z"/>
    <path fill="#2B2328" d="M133.2,92.4c0.1-1.2,0.5-2.3,1.8-1.1c1.8,1.6,3.7,2.7,6.2,2.5c2.3,3.6,0.1,5.4-2.8,6.2   c-3.5,1-3.9-1.5-3.8-4.2C134.5,94.6,134.3,93.3,133.2,92.4z"/>
    <path fill="#806A71" d="M128,112.2c1.9-2.5,2.2-6.1,5.2-7.8c1.2,0.1,3.1-1.4,3.4-0.1c0.5,1.9,0.5,5.2-0.5,5.9   C133.9,111.6,131.5,115,128,112.2z"/>
    <path fill="#AD9990" d="M142.4,131.7c0,0,0.1-0.6,0.1-0.6c-0.1-0.9-0.1-1.8-0.2-2.8c0.2-0.2,0.4-0.5,0.6-0.7   c2.5,0.4,3.5-2.4,5.8-2.6c0.8,0.3,1.6,0.7,2,1.6c1.4,2.8-1.2,3.8-2.3,5.4c2.8-0.4,4,0.5,2.9,3.4C147,137.3,144.5,134.8,142.4,131.7   z"/>
    <path fill="#B8A89D" d="M141,126.7c0.7-2.6,1.5-5.1,4.1-6.5c1.3-0.3,1.6,0.4,1.8,1.4c-0.4,2.7-2,4.6-4.2,6   c-0.2,0.2-0.3,0.5-0.4,0.7C141.9,127.8,141.5,127.2,141,126.7z"/>
    <path fill="#1B1C22" d="M156.8,136.4c-2.9,3.2-6.7,3-10.5,2.6c-1-1-1.9-2-2.9-3c3.7-1.3,7.4-0.7,11.1-0.2   C155.3,136,156,136.2,156.8,136.4z"/>
    <path fill="#736C78" d="M154.5,135.8c-3.7,0.1-7.4,0.2-11.1,0.2c-1.5-1.2-2.3-2.5-1.1-4.3c3.1,1.5,5.8,4.2,9.8,2.9   c0.4-1.1,0.9-2,2.2-1C154.4,134.3,154.4,135,154.5,135.8z"/>
    <path fill="#786668" d="M160.9,99c-0.4-1.8-0.8-3.5-1.2-5.3c4.2,1,4.5,4.6,5.4,7.9c0.7,3.4-0.3,6.6-1.7,9.6c-2.6-2.2-1.6-5.8-1-7.5   C163.4,101,161.4,100.5,160.9,99z"/>
    <path fill="#282124" d="M154.3,133.5c-0.7,0.3-1.5,0.7-2.2,1c-1.5-1.1-3.1-2.1-4.8-3.3c2.4-1.7,4.1-3.6,0.7-5.9   c-1.1-0.6-1.4-1.6-1.3-2.8c0.3-2,1.2-3.4,3.3-3.9c3.3-0.7,6.4,0.5,9.4,1.5c5.5,5.5-1,6.6-3.4,9.3   C154.3,130.3,154.3,131.9,154.3,133.5z"/>
    <path fill="#928789" d="M156.1,129.4c0.5-3,6.4-3.8,3.4-8.2c-1.9-1.8-5-0.7-6.8-2.8c1.4-3.8,4.7-1.3,6.9-2.2   c1.2,0.8,2.5,1.7,3.7,2.5C164.2,124.4,163.1,128.9,156.1,129.4z"/>
    <path fill="#6F6069" d="M159.7,116.2c-1.6,2.8-4.9,0.4-6.8,2.4c-0.1,1.4-1.7,0.6-2.3,1.5c-2,0.1-3.1,1.1-3.2,3.1   c-0.9,0-1.4-0.4-1.4-1.4c-0.3-0.5-0.6-1-0.9-1.5C148.5,114,153,112.8,159.7,116.2z"/>
    <path fill="#CECAC8" d="M146,121.7c0.5,0.5,0.9,0.9,1.4,1.4c0.2,0.7,0.4,1.4,0.6,2.2c-1.2,2.2-2.2,4.6-5.3,2.3   C142.8,125.1,144.9,123.6,146,121.7z"/>
    <path fill="#C1B8C1" d="M150.6,120c0.8-0.5,1.5-1,2.3-1.5c2.1,1,5.7-1.5,6.6,2.6C156.5,120.8,153.6,120.4,150.6,120z"/>
</g>
    <radialGradient id="SVGID_1_" cx="123.6715" cy="258.2033" r="82.4468" gradientTransform="matrix(1.6419 0 0 0.2197 -61.8077 191.9437)" gradientUnits="userSpaceOnUse">
	<stop offset="0" style="stop-color:#000000;stop-opacity:0.7"/>
        <stop offset="1" style="stop-color:#000000;stop-opacity:0"/>
</radialGradient>
    <ellipse fill="url(#SVGID_1_)" cx="141.2" cy="248.7" rx="189.9" ry="32.7"/>
    <radialGradient id="SVGID_2_" cx="360.6025" cy="262.7392" r="82.4468" gradientTransform="matrix(0.485 0 0 0.1219 -128.6702 214.1396)" gradientUnits="userSpaceOnUse">
	<stop offset="0" style="stop-color:#000000;stop-opacity:0.7"/>
        <stop offset="1" style="stop-color:#000000;stop-opacity:0"/>
</radialGradient>
    <ellipse fill="url(#SVGID_2_)" cx="46.2" cy="246.2" rx="56.1" ry="18.2"/>
</svg>
