<svg xmlns="http://www.w3.org/2000/svg">
    <defs>
        <symbol id="clock" viewBox="0 0 50 50">
            <path class="content" d="M34.724 17.865l-8.44 4.683a2.756 2.756 0 0 0-2.57 0l-8.439-4.683a1.653 1.653 0 0 0-1.603 2.89l8.61 4.778a2.77 2.77 0 0 0 5.435 0l8.61-4.778a1.653 1.653 0 0 0-1.602-2.89zM25 0C11.215 0 0 11.215 0 25s11.215 25 25 25 25-11.215 25-25S38.785 0 25 0zm10.513 41.696l-1.077-1.853a.7.7 0 0 0-.952-.252.695.695 0 0 0-.252.952L34.31 42.4a19.592 19.592 0 0 1-7.994 2.293v-2.617a1.316 1.316 0 0 0-2.632 0v2.617a19.59 19.59 0 0 1-7.888-2.237l1.067-1.862a.692.692 0 0 0 .068-.528.691.691 0 0 0-.67-.515.7.7 0 0 0-.606.35l-1.066 1.86a19.898 19.898 0 0 1-5.98-5.777l2.261-1.306a1.316 1.316 0 0 0-1.315-2.279L7.29 33.706a19.597 19.597 0 0 1-2.011-7.949l2.149-.006c.186 0 .36-.074.491-.206a.698.698 0 0 0-.494-1.187l-2.15.006a19.603 19.603 0 0 1 2.015-8.069l2.265 1.308a1.315 1.315 0 0 0 1.316-2.279l-2.262-1.306a19.892 19.892 0 0 1 5.878-5.714l1.077 1.854a.688.688 0 0 0 .255.253.703.703 0 0 0 .697-.001.691.691 0 0 0 .323-.425.691.691 0 0 0-.071-.527l-1.079-1.856a19.593 19.593 0 0 1 7.995-2.293v2.617a1.316 1.316 0 0 0 2.632 0V5.309a19.59 19.59 0 0 1 7.887 2.236l-1.067 1.862a.697.697 0 0 0 1.208.693l1.067-1.86a19.892 19.892 0 0 1 5.98 5.778l-2.262 1.305a1.316 1.316 0 0 0 1.316 2.28l2.265-1.308a19.593 19.593 0 0 1 2.01 7.949l-2.148.006a.691.691 0 0 0-.491.206.7.7 0 0 0 .494 1.187h.002l2.149-.007a19.603 19.603 0 0 1-2.016 8.07l-2.265-1.308a1.315 1.315 0 1 0-1.315 2.279l2.261 1.306a19.903 19.903 0 0 1-5.878 5.713z" fill="currentColor"/>
        </symbol>
        <symbol id="icon-1" fill="currentColor" viewBox="0 0 504 504">
		    <path d="M252,0C113.052,0,0,113.048,0,252s113.052,252,252,252c138.952,0,252-113.048,252-252S390.952,0,252,0z M263.812,71.804    L346.38,44.1c28.336,12.908,53.596,31.392,74.324,54.112l-0.156,87.852l-73.26,17.74l-83.476-60.652V71.804z M157.068,44.348    l83.12,27.504v71.3l-83.476,60.652L83.96,186.072l-0.164-82.904c0-1.528-0.46-2.944-1.22-4.152    C103.3,76.076,128.632,57.4,157.068,44.348z M53.02,363.908c-14.788-26.188-24.576-55.544-28.004-86.804L76.712,208.6    l72.812,17.748l31.832,97.964l-45.584,66.868L53.02,363.908z M295.864,476.24c-14.204,2.776-28.852,4.212-43.86,4.212    c-16.62,0.004-32.82-1.888-48.436-5.28l-48.772-69.736l45.704-66.812h102.924l41.416,66.668L295.864,476.24z M363.972,391.108    l-41.34-66.764l31.844-98l73.32-17.752l51.32,67.488c-3.264,31.016-12.772,60.184-27.224,86.256L363.972,391.108z"/>
        </symbol>
        <symbol id="icon-2" viewBox="0 0 512 512">
            <path fill="currentColor" d="M464.235,251.211c-0.789-34.448-9.959-66.796-25.517-95.176l0.139-0.074l-2.404-4.15l-2.402-4.143 l-0.136,0.081c-17.333-28.435-41.227-52.332-69.666-69.666l0.085-0.136l-4.143-2.394l-4.153-2.408l-0.071,0.136   c-28.378-15.558-60.738-24.728-95.18-25.517v-0.156h-4.789h-4.793v0.156c-34.442,0.79-66.798,9.959-95.166,25.517l-0.078-0.136   l-4.15,2.408c-0.014,0.007-0.024,0.02-0.037,0.027l-4.102,2.367l0.078,0.136c-28.428,17.334-52.332,41.231-69.662,69.666   l-0.136-0.081l-2.401,4.143l-2.398,4.15l0.132,0.074c-15.568,28.374-24.738,60.728-25.517,95.176h-0.16V256v4.789h0.16   c0.779,34.448,9.948,66.802,25.513,95.169l-0.132,0.074l2.398,4.157l2.401,4.142l0.137-0.088   c17.333,28.442,41.234,52.339,69.663,69.673l-0.079,0.136l4.102,2.368c0.013,0.007,0.024,0.02,0.038,0.027l4.15,2.408l0.082-0.136   c28.367,15.551,60.724,24.721,95.166,25.516v0.157h4.793h4.789v-0.157c34.442-0.796,66.796-9.966,95.17-25.516l0.072,0.136   l4.156-2.408l4.143-2.395l-0.079-0.136c28.432-17.334,52.333-41.231,69.666-69.673l0.136,0.088l2.402-4.142l2.404-4.157   l-0.139-0.074c15.558-28.367,24.728-60.721,25.517-95.169h0.156V256v-4.789H464.235z M378.95,179.476l-35.836,20.687   c-8.062-12.558-18.735-23.224-31.289-31.279l20.694-35.83C351.321,144.776,367.215,160.681,378.95,179.476z M400.759,260.789   c-0.752,22.904-6.816,44.415-17.007,63.448l-35.836-20.701c6.708-12.898,10.803-27.374,11.517-42.748H400.759z M260.787,101.504   V57.348c32.725,0.782,63.411,9.476,90.384,24.231l-22.085,38.238l-0.072,0.136c-20.432-11-43.598-17.538-68.227-18.293V101.504z    M251.206,111.246v41.32c-15.37,0.707-29.843,4.809-42.748,11.517l-20.681-35.837C206.791,118.062,228.301,111.994,251.206,111.246   z M152.54,86.382l22.153,38.367c-20.258,12.578-37.36,29.674-49.938,49.945l-0.139-0.089h-0.004L86.38,152.538   C102.87,125.572,125.571,102.872,152.54,86.382z M164.081,208.456c-6.708,12.904-10.803,27.381-11.517,42.755H111.24   c0.752-22.912,6.82-44.415,17.007-63.448l33.088,19.109L164.081,208.456z M119.819,329.088l-38.245,22.081   c-14.751-26.973-23.445-57.659-24.224-90.38h44.153h0.16c0.755,24.625,7.296,47.795,18.286,68.224l-0.132,0.075H119.819z    M133.047,332.517l35.833-20.688c8.068,12.558,18.738,23.224,31.289,31.286l-20.688,35.837   C160.676,367.224,144.782,351.319,133.047,332.517z M251.206,410.496v44.149c-32.718-0.782-63.407-9.476-90.377-24.224   l22.153-38.368c20.425,10.994,43.592,17.524,68.224,18.286V410.496z M255.998,350.02c-17.129-0.007-33.116-4.653-46.962-12.66   c-14.266-8.259-26.139-20.13-34.394-34.394c-8.014-13.85-12.656-29.836-12.66-46.966c0.004-17.129,4.646-33.115,12.66-46.973   c8.256-14.265,20.129-26.129,34.394-34.387c13.847-8.014,29.833-12.653,46.962-12.66c17.129,0,33.122,4.653,46.962,12.66   l0.041,0.027c14.248,8.245,26.112,20.108,34.36,34.36c8.006,13.858,12.653,29.844,12.66,46.973   c-0.007,17.129-4.653,33.115-12.66,46.966c-8.262,14.265-20.133,26.136-34.394,34.394   C289.114,345.367,273.128,350.013,255.998,350.02z M260.787,400.747v-41.32c15.378-0.7,29.85-4.802,42.752-11.51l20.683,35.836   C305.199,393.938,283.699,400.006,260.787,400.747z M359.456,425.618l-22.078-38.231h0.007l-0.078-0.136   c20.262-12.585,37.36-29.674,49.934-49.945l0.137,0.088v-0.007l1.323,0.762l36.922,21.312   C409.13,386.42,386.42,409.135,359.456,425.618z M410.497,251.211h-0.157c-0.758-24.632-7.306-47.795-18.295-68.23l38.374-22.15   c14.751,26.972,23.452,57.652,24.234,90.38H410.497z"/>
            <path fill="currentColor" d="M255.998,0.002C114.611,0.009,0.007,114.62,0,256c0.007,141.387,114.611,255.991,255.998,255.998 C397.378,511.991,511.993,397.387,512,256C511.993,114.62,397.378,0.009,255.998,0.002z M424.306,424.312   c-43.102,43.095-102.553,69.714-168.308,69.721c-65.761-0.007-125.21-26.626-168.315-69.721   C44.595,381.21,17.966,321.754,17.962,256c0.004-65.755,26.633-125.203,69.721-168.312   c43.105-43.095,102.554-69.721,168.315-69.721c65.755,0,125.206,26.626,168.308,69.721   c43.098,43.108,69.721,102.556,69.728,168.312C494.027,321.754,467.405,381.21,424.306,424.312z"/>
            <path fill="currentColor" d="M321.124,256c0-9.17-7.428-16.592-16.598-16.592c-6.078,0-11.374,3.285-14.262,8.156h-25.826v-25.823 c4.868-2.891,8.16-8.184,8.16-14.272c0-9.17-7.432-16.591-16.598-16.591c-9.17,0-16.595,7.421-16.595,16.591   c0,6.088,3.292,11.381,8.156,14.272v25.823h-25.823c-2.888-4.871-8.18-8.156-14.265-8.156c-9.17,0-16.598,7.422-16.598,16.592   c0,9.17,7.428,16.592,16.598,16.592c6.084,0,11.377-3.286,14.265-8.156h25.823v25.823c-4.864,2.891-8.156,8.184-8.156,14.265   c0,9.17,7.425,16.598,16.595,16.598c9.166,0,16.598-7.428,16.598-16.598c0-6.081-3.292-11.374-8.16-14.265v-25.823h25.826   c2.888,4.87,8.184,8.156,14.262,8.156C313.695,272.592,321.124,265.17,321.124,256z"/>
            <path fill="currentColor" d="M224.927,148.715c6.198,0,11.225-5.027,11.225-11.231c0-6.197-5.027-11.224-11.225-11.224 c-6.204,0-11.228,5.028-11.228,11.224C213.699,143.688,218.723,148.715,224.927,148.715z"/>
        </symbol>
        <symbol id="icon-3" viewBox="0 0 122.88 112.75" style="enable-background:new 0 0 122.88 112.75">
            <path class="st0" d="M56.66,105.35c-5.94,4.6-13.4,7.34-21.5,7.34C15.74,112.69,0,96.95,0,77.53c0-13.47,7.58-25.17,18.7-31.07 c1.96,6.96,5.68,13.19,10.65,18.16c4.64,4.64,10.38,8.2,16.79,10.24c-0.06,0.9-0.09,1.81-0.09,2.73 C46.06,88.25,50.07,97.98,56.66,105.35L56.66,105.35z"/>
            <path class="st1" d="M122.88,77.59c0,19.42-15.74,35.16-35.16,35.16S52.56,97,52.56,77.59c0-0.41,0.01-0.82,0.02-1.23 c2.03,0.3,4.11,0.46,6.23,0.46c11.5,0,21.92-4.66,29.46-12.2c5.45-5.45,9.4-12.41,11.17-20.19 C113.1,49.26,122.88,62.28,122.88,77.59L122.88,77.59z"/>
            <path class="st2" d="M93.97,35.16c0,19.42-15.74,35.16-35.16,35.16S23.65,54.58,23.65,35.16S39.39,0,58.81,0 S93.97,15.74,93.97,35.16L93.97,35.16z"/>
        </symbol>
        <symbol id="icon-4" viewBox="0 0 64 64" aria-hidden="true" role="img" class="iconify iconify--emojione-monotone" preserveAspectRatio="xMidYMid meet">
            <path d="M32 2C15.432 2 2 15.432 2 32s13.432 30 30 30s30-13.432 30-30S48.568 2 32 2m13.102 32.953c-5.594 4.627-14.084 3.592-18.965-2.309c-4.881-5.902-4.303-14.436 1.291-19.063c5.594-4.625 14.084-3.592 18.965 2.311s4.302 14.436-1.291 19.061" fill="currentColor"/>
            <path d="M40.209 20.738c.742-1.457.732-3.074-.236-4.631c-1.68-2.701-5.055-3.225-8.17-1.285c-3.143 1.953-4.164 5.209-2.484 7.912c.967 1.555 2.414 2.279 4.072 2.244c-1.109 1.818-1.152 3.803-.021 5.621c1.785 2.869 5.314 3.494 8.994 1.207c3.68-2.289 4.68-5.73 2.895-8.602c-1.132-1.815-2.929-2.655-5.05-2.466m-8.162.532c-.893-1.436-.463-3.195 1.152-4.199c1.594-.99 3.398-.588 4.275.822c.879 1.412.457 3.234-1.135 4.225c-1.614 1.005-3.398.587-4.292-.848m8.814 8.121c-1.771 1.102-3.75.674-4.717-.883c-.938-1.506-.402-3.398 1.369-4.5c1.773-1.102 3.719-.721 4.641.762c.953 1.531.479 3.517-1.293 4.621" fill="currentColor"/>
        </symbol>
        <symbol id="info" viewBox="0 0 24 24" fill="none">
            <path d="M12 7.01001V7.00002M12 17L12 10M21 12C21 16.9706 16.9706 21 12 21C7.02944 21 3 16.9706 3 12C3 7.02944 7.02944 3 12 3C16.9706 3 21 7.02944 21 12Z" stroke="currentColor" stroke-width="1.5" stroke-linecap="round" stroke-linejoin="round"/>
        </symbol>
        <symbol id="calculate" viewBox="0 0 32 32">
            <path d="M8.536 10.136h14.928v-4.265h-14.928v4.265zM9.602 6.937h12.795v2.132h-12.795v-2.133z" />
            <path d="M23.464 3.205h-14.928c-1.178 0-2.133 0.955-2.133 2.133v21.325c0 1.178 0.955 2.133 2.133 2.133h14.928c1.178 0 2.133-0.955 2.133-2.133v-21.325c0-1.178-0.955-2.132-2.133-2.132zM24.53 26.663c0 0.588-0.478 1.066-1.066 1.066h-14.928c-0.588 0-1.066-0.478-1.066-1.066v-21.325c0-0.587 0.479-1.066 1.066-1.066h14.928c0.588 0 1.066 0.479 1.066 1.066v21.325z" />
            <path d="M9.602 14.934v-3.199h-1.066v4.265h4.265v-1.066h-1.066z" />
            <path d="M9.602 20.265v-3.199h-1.066v4.265h4.265v-1.066h-1.066z" />
            <path d="M9.602 25.596v-3.199h-1.066v4.265h4.265v-1.066h-1.066z" />
            <path d="M14.934 14.934v-3.199h-1.066v4.265h4.265v-1.066h-1.066z" />
            <path d="M20.265 14.934v-3.199h-1.066v4.265h4.265v-1.066h-1.066z" />
            <path d="M14.934 20.265v-3.199h-1.066v4.265h4.265v-1.066h-1.066z" />
            <path d="M14.934 25.596v-3.199h-1.066v4.265h4.265v-1.066h-1.066z" />
            <path d="M20.265 25.596v-8.53h-1.066v9.596h4.265v-1.066h-1.066z" />
        </symbol>
        <symbol id="save" viewBox="0 0 64 64" stroke-width="3" stroke="currentColor" fill="none">
            <path d="M51,53.48H10.52V13A2.48,2.48,0,0,1,13,10.52H46.07l7.41,6.4V51A2.48,2.48,0,0,1,51,53.48Z" stroke-linecap="round"/>
            <rect x="21.5" y="10.52" width="21.01" height="15.5" stroke-linecap="round"/>
            <rect x="17.86" y="36.46" width="28.28" height="17.02" stroke-linecap="round"/>
        </symbol>
        <symbol id="diagram" viewBox="0 0 24 24" fill="none">
            <path d="M2 2V19C2 20.66 3.34 22 5 22H22" stroke="currentColor" stroke-width="1.5" stroke-miterlimit="10" stroke-linecap="round" stroke-linejoin="round"/>
            <path d="M5 17L9.59 11.64C10.35 10.76 11.7 10.7 12.52 11.53L13.47 12.48C14.29 13.3 15.64 13.25 16.4 12.37L21 7" stroke="currentColor" stroke-width="1.5" stroke-miterlimit="10" stroke-linecap="round" stroke-linejoin="round"/>
        </symbol>
        <symbol id="settings" viewBox="0 0 1024 1024">
            <path d="M953.34 438.431H820.715c-13.219 0-24.771-8.566-28.833-21.056a287.154 287.154 0 00-15.044-37.243c-5.623-11.608-3.402-25.507 5.785-34.725l93.467-93.457c3.603-3.606 3.603-9.45.007-13.049l-91.012-91.002c-3.593-3.596-9.428-3.596-13.028.006l-93.137 93.137c-9.235 9.235-23.241 11.437-34.893 5.702a286.77 286.77 0 00-37.487-15.314c-12.449-4.069-20.97-15.623-20.97-28.808V70.661a9.221 9.221 0 00-9.22-9.22H447.652a9.221 9.221 0 00-9.22 9.22v134.936c0 12.884-8.139 24.247-20.169 28.539-12.09 4.337-23.758 9.406-34.928 15.18-11.721 6.057-26.027 3.952-35.417-5.438l-95.973-95.973a9.21 9.21 0 00-13.035.001L147.906 238.9a9.218 9.218 0 000 13.044l99.221 99.221c9.067 9.037 11.39 22.701 6.062 34.233a287.871 287.871 0 00-12.483 31.962c-4.053 12.493-15.632 21.071-28.861 21.071H70.662a9.221 9.221 0 00-9.22 9.22v128.688a9.221 9.221 0 009.22 9.22h144.803c12.851 0 24.184 8.096 28.533 20.086a285.852 285.852 0 0012.302 28.863c5.703 11.647 3.502 25.653-5.737 34.892L147.9 772.063c-3.597 3.594-3.597 9.424.005 13.027l91.012 91.002c3.594 3.597 9.424 3.597 13.028-.006l103.008-103.008c9.215-9.185 23.175-11.413 34.781-5.745a287.088 287.088 0 0028.572 12.04c12.01 4.345 20.127 15.679 20.127 28.55V953.34a9.221 9.221 0 009.22 9.22h128.698a9.221 9.221 0 009.22-9.22V810.907c0-13.197 8.531-24.752 20.982-28.832a290.388 290.388 0 0031.081-12.211c11.534-5.328 25.182-3.01 34.226 6.034l100.205 100.195c3.593 3.596 9.428 3.596 13.028-.007l90.998-90.988c3.602-3.605 3.602-9.444.006-13.04l-96.949-96.949c-9.367-9.398-11.469-23.689-5.42-35.393 5.628-10.907 10.588-22.283 14.869-34.1 4.355-11.977 15.674-20.056 28.509-20.056h136.235a9.221 9.221 0 009.22-9.22V447.652a9.221 9.221 0 00-9.22-9.22zm0-40.96c27.713 0 50.18 22.467 50.18 50.18v128.688c0 27.713-22.467 50.18-50.18 50.18H824.502a329.929 329.929 0 01-10.926 25.092l91.482 91.482c19.589 19.589 19.589 51.354-.001 70.961l-90.998 90.988c-19.592 19.609-51.381 19.609-70.966.007l-95.004-94.994a331.648 331.648 0 01-21.562 8.483V953.34c0 27.713-22.467 50.18-50.18 50.18H447.649c-27.713 0-50.18-22.467-50.18-50.18V815.322a327.445 327.445 0 01-18.881-7.956l-97.683 97.683c-19.601 19.601-51.375 19.601-70.959.001l-91.006-90.996c-19.601-19.601-19.601-51.375 0-70.96l97.335-97.335a326.356 326.356 0 01-8.191-19.24H70.659c-27.713 0-50.18-22.467-50.18-50.18V447.651c0-27.713 22.467-50.18 50.18-50.18h133.523a328.832 328.832 0 018.805-22.517l-94.047-94.047c-19.6-19.6-19.6-51.37.001-70.971l90.998-90.988c19.591-19.608 51.365-19.608 70.966-.006l90.524 90.524a328.546 328.546 0 0126.041-11.3V70.661c0-27.713 22.467-50.18 50.18-50.18h128.698c27.713 0 50.18 22.467 50.18 50.18v124.312a327.958 327.958 0 0128.775 11.758l87.784-87.784c19.592-19.609 51.381-19.609 70.965-.007l91.012 91.002c19.582 19.599 19.582 51.359-.007 70.965l-88.152 88.143a327.948 327.948 0 0111.487 28.421h124.947zM655.36 506.88c0 82.007-66.473 148.48-148.48 148.48S358.4 588.887 358.4 506.88c0-82.007 66.473-148.48 148.48-148.48s148.48 66.473 148.48 148.48zm-40.96 0c0-59.386-48.134-107.52-107.52-107.52s-107.52 48.134-107.52 107.52c0 59.386 48.134 107.52 107.52 107.52S614.4 566.266 614.4 506.88z"/>
        </symbol>
        <symbol id="tv" viewBox="-3.68 0 58.71 58.71">
            <path d="M620.423,361.846H603.407l17.25-17.252a1.271,1.271,0,1,0-1.8-1.8l-19.046,19.049h-2.036l-9.671-9.673a1.281,1.281,0,0,0-1.8,0h0a1.273,1.273,0,0,0,0,1.8l7.872,7.874h-17.66a3.719,3.719,0,0,0-3.715,3.719v25.687a3.72,3.72,0,0,0,3.715,3.718h43.9a3.729,3.729,0,0,0,3.72-3.718V365.565A3.728,3.728,0,0,0,620.423,361.846Zm1.172,29.406a1.19,1.19,0,0,1-1.172,1.174h-43.9a1.187,1.187,0,0,1-1.172-1.174V365.565a1.191,1.191,0,0,1,1.172-1.178h43.9a1.194,1.194,0,0,1,1.172,1.178Zm-33.93,9.885h22.562v-2.543H587.665Z" transform="translate(-572.803 -342.427)"/>
        </symbol>
        <symbol id="turn-off" viewBox="0 0 24 24">
            <path d="M12 21C10.2211 20.9984 8.48259 20.4697 7.004 19.4807C5.52542 18.4916 4.37308 17.0866 3.69255 15.443C3.01201 13.7995 2.8338 11.9911 3.18041 10.2463C3.52702 8.50153 4.38292 6.89859 5.63999 5.63995C5.70894 5.56919 5.79135 5.51296 5.88238 5.47456C5.97341 5.43616 6.0712 5.41638 6.16999 5.41638C6.26879 5.41638 6.36658 5.43616 6.4576 5.47456C6.54863 5.51296 6.63105 5.56919 6.69999 5.63995C6.84044 5.78058 6.91933 5.9712 6.91933 6.16995C6.91933 6.3687 6.84044 6.55933 6.69999 6.69995C5.96312 7.38657 5.3721 8.21458 4.96218 9.13457C4.55226 10.0546 4.33184 11.0477 4.31408 12.0547C4.29631 13.0618 4.48155 14.062 4.85877 14.9959C5.23598 15.9298 5.79742 16.7781 6.50961 17.4903C7.2218 18.2025 8.07013 18.764 9.00402 19.1412C9.9379 19.5184 10.9382 19.7036 11.9452 19.6859C12.9522 19.6681 13.9454 19.4477 14.8654 19.0378C15.7854 18.6278 16.6134 18.0368 17.3 17.3C17.9978 16.605 18.5515 15.779 18.9294 14.8695C19.3072 13.96 19.5017 12.9848 19.5017 12C19.5017 11.0151 19.3072 10.0399 18.9294 9.13039C18.5515 8.22088 17.9978 7.39493 17.3 6.69995C17.1595 6.55933 17.0807 6.3687 17.0807 6.16995C17.0807 5.9712 17.1595 5.78058 17.3 5.63995C17.3689 5.56919 17.4514 5.51296 17.5424 5.47456C17.6334 5.43616 17.7312 5.41638 17.83 5.41638C17.9288 5.41638 18.0266 5.43616 18.1176 5.47456C18.2086 5.51296 18.291 5.56919 18.36 5.63995C19.6171 6.89859 20.473 8.50153 20.8196 10.2463C21.1662 11.9911 20.988 13.7995 20.3074 15.443C19.6269 17.0866 18.4746 18.4916 16.996 19.4807C15.5174 20.4697 13.7789 20.9984 12 21Z"/>
            <path d="M12 12.75C11.8019 12.7474 11.6126 12.6676 11.4725 12.5275C11.3324 12.3874 11.2526 12.1981 11.25 12V4C11.25 3.80109 11.329 3.61032 11.4697 3.46967C11.6103 3.32902 11.8011 3.25 12 3.25C12.1989 3.25 12.3897 3.32902 12.5303 3.46967C12.671 3.61032 12.75 3.80109 12.75 4V12C12.7474 12.1981 12.6676 12.3874 12.5275 12.5275C12.3874 12.6676 12.1981 12.7474 12 12.75Z"/>
        </symbol>
        <symbol id="user" viewBox="0 0 50 50">
            <path class="content" d="M15 20.383c0-5.538 4.477-10.027 10-10.027s10 4.49 10 10.027c0 5.538-4.477 10.027-10 10.027s-10-4.489-10-10.027zM0 27.068A25.013 25.013 0 0 0 4.917 42c1.912-3.683 4.576-6.8 7.754-9.062 2.143-1.526 5.708-.729 8.12.2a11.69 11.69 0 0 0 4.209.781 11.69 11.69 0 0 0 4.209-.781c2.412-.928 5.977-1.726 8.12-.2 3.178 2.263 5.843 5.379 7.754 9.062A25.013 25.013 0 0 0 50 27.068C50 13.223 38.807 2 25 2S0 13.223 0 27.068z" fill="currentColor"/>
        </symbol>
        <symbol id="arrow-right" viewBox="0 0 1024 1024">
            <path d="M340.864 149.312a30.592 30.592 0 0 0 0 42.752L652.736 512 340.864 831.872a30.592 30.592 0 0 0 0 42.752 29.12 29.12 0 0 0 41.728 0L714.24 534.336a32 32 0 0 0 0-44.672L382.592 149.376a29.12 29.12 0 0 0-41.728 0z"/>
        </symbol>
        <symbol id="close" viewBox="0 0 1024 1024">
            <path d="M764.288 214.592 512 466.88 259.712 214.592a31.936 31.936 0 0 0-45.12 45.12L466.752 512 214.528 764.224a31.936 31.936 0 1 0 45.12 45.184L512 557.184l252.288 252.288a31.936 31.936 0 0 0 45.12-45.12L557.12 512.064l252.288-252.352a31.936 31.936 0 1 0-45.12-45.184z"/>
        </symbol>
        <symbol id="file-check" viewBox="0 0 32 32">
            <path d="M26.731 9.902c-0.005-0.035-0.011-0.066-0.019-0.095l0.001 0.005c-0.031-0.134-0.094-0.249-0.182-0.342l0 0-8-8c-0.092-0.087-0.207-0.15-0.335-0.181l-0.005-0.001c-0.027-0.008-0.059-0.014-0.092-0.019l-0.003-0c-0.026-0.007-0.059-0.014-0.092-0.019l-0.004-0h-12c-0.414 0-0.75 0.336-0.75 0.75v0 28c0 0.414 0.336 0.75 0.75 0.75h20c0.414-0 0.75-0.336 0.75-0.75v0-20c-0.005-0.038-0.012-0.071-0.020-0.103l0.001 0.005zM24.189 9.25h-5.439v-5.439zM6.75 29.25v-26.5h10.5v7.25c0 0.414 0.336 0.75 0.75 0.75h7.25v18.5zM20.311 15.494l-6.768 7.396-1.878-1.864c-0.135-0.133-0.321-0.216-0.527-0.216-0.415 0-0.751 0.336-0.751 0.751 0 0.208 0.084 0.396 0.221 0.531v0l2.432 2.414 0.016 0.007 0.006 0.013c0.13 0.122 0.306 0.197 0.499 0.197 0.199 0 0.38-0.080 0.512-0.21l-0 0 0.027-0.011 0.005-0.011 0.017-0.012 7.294-7.973c0.123-0.133 0.198-0.311 0.198-0.507 0-0.414-0.335-0.749-0.749-0.749-0.219 0-0.417 0.094-0.554 0.244l-0.001 0.001z"/>
        </symbol>
        <symbol id="money" viewBox="0 0 50 50">
            <path class="content" d="M36.437 22.085c-6.468 0-11.865-2.355-13.145-5.491-.19.462-.292 1.94-.292 2.43 0 3.824 6.016 6.925 13.437 6.925 7.42 0 13.437-3.101 13.437-6.925 0-.49-.104-1.968-.291-2.43-1.284 3.136-6.681 5.491-13.146 5.491zm0 6c-6.468 0-11.865-2.355-13.145-5.491-.19.462-.292 1.94-.292 2.43 0 3.824 6.016 6.925 13.437 6.925 7.42 0 13.437-3.101 13.437-6.925 0-.49-.104-1.968-.291-2.43-1.284 3.136-6.681 5.491-13.146 5.491zm0 6c-6.468 0-11.865-2.355-13.145-5.491-.19.462-.292 1.94-.292 2.43 0 3.824 6.016 6.925 13.437 6.925 7.42 0 13.437-3.101 13.437-6.925 0-.49-.104-1.968-.291-2.43-1.284 3.136-6.681 5.491-13.146 5.491zm0 6c-6.468 0-11.865-2.355-13.145-5.491-.19.462-.292 1.94-.292 2.43 0 3.824 6.016 6.925 13.437 6.925 7.42 0 13.437-3.101 13.437-6.925 0-.49-.104-1.968-.291-2.43-1.284 3.136-6.681 5.491-13.146 5.491zm0 6c-6.468 0-11.865-2.355-13.145-5.491-.19.462-.292 1.94-.292 2.43 0 3.824 6.016 6.925 13.437 6.925 7.42 0 13.437-3.101 13.437-6.925 0-.49-.104-1.968-.291-2.43-1.284 3.136-6.681 5.491-13.146 5.491zm0-30c-6.468 0-11.865-2.355-13.145-5.491-.19.462-.292 1.94-.292 2.43 0 3.824 6.016 6.925 13.437 6.925 7.42 0 13.437-3.101 13.437-6.925 0-.49-.104-1.968-.291-2.43-1.284 3.136-6.681 5.491-13.146 5.491zM23 6.923C23 3.099 29.016 0 36.437 0c7.421 0 13.437 3.1 13.437 6.923s-6.016 6.923-13.437 6.923c-7.421 0-13.437-3.1-13.437-6.923zm-9.563 22.162c-6.468 0-11.865-2.355-13.145-5.491-.19.462-.292 1.94-.292 2.43 0 3.824 6.016 6.925 13.437 6.925 2.804 0 5.409-.441 7.563-1.199v-3.865c-2.154.758-4.758 1.2-7.563 1.2zm0 6c-6.468 0-11.865-2.355-13.145-5.491-.19.462-.292 1.94-.292 2.43 0 3.824 6.016 6.925 13.437 6.925 2.804 0 5.409-.441 7.563-1.199v-3.865c-2.154.758-4.758 1.2-7.563 1.2zm0 6c-6.468 0-11.865-2.355-13.145-5.491-.19.462-.292 1.94-.292 2.43 0 3.824 6.016 6.925 13.437 6.925 2.804 0 5.409-.441 7.563-1.199v-3.865c-2.154.758-4.758 1.2-7.563 1.2zm0-18c-6.468 0-11.865-2.355-13.145-5.491-.19.462-.292 1.94-.292 2.43 0 3.824 6.016 6.925 13.437 6.925 2.804 0 5.409-.441 7.563-1.199v-3.865c-2.154.758-4.758 1.2-7.563 1.2zM0 13.923c0 3.824 6.016 6.923 13.437 6.923 2.805 0 5.409-.444 7.563-1.201V8.2C18.846 7.443 16.242 7 13.437 7 6.016 7 0 10.1 0 13.923z" fill="currentColor"/>
        </symbol>
        <symbol id="dollar" viewBox="-233 235 492 492">
            <path class="content" d="M137.5 489c-14.7-11.3-36.7-20.7-66-28l-23-5v-97c.7.7 1.3 1 2 1s1 .3 1 1c19.3 9.3 29.7 25.3 31 48h77c-1.3-40-16.3-70.7-45-92-18.7-14-40.7-23.3-66-28v-54h-71v52c-33.3 4-59.7 14.7-79 32-25.3 22.7-38 51.3-38 86 0 37.3 13 65 39 83 14 10 40 19.3 78 28v104c-14-4-24.7-10.3-32-19-8-9.3-13-22-15-38h-76c0 39.3 14.3 70.3 43 93 20.7 16 47.3 26.3 80 31v40h71v-39c34.7-4.7 62.3-15.7 83-33 26.7-23.3 40-52.7 40-88 0-34-11.3-60-34-78zm-160-50c-11.3-3.3-19.3-6.3-24-9-12.7-6.7-19-17-19-31 0-15.3 6.3-27 19-35 6.7-4 14.7-7.3 24-10v85zm83 179c-3.3 1.3-7.3 2.3-12 3v-89c12.7 4 22.3 8 29 12 11.3 7.3 17 17.3 17 30 0 21.3-11.3 36-34 44z" fill="currentColor"/>
        </symbol>
        <symbol id="cancelled" viewBox="-262 263.8 434.2 434.2">
            <path class="content" d="M130.6 281.3V494c0 9.6-7.9 17.5-17.5 17.5s-17.5-7.9-17.5-17.5V298.8h-291.4V663h134c9.6 0 17.5 7.9 17.5 17.5S-52.2 698-61.8 698h-151.5c-9.6 0-17.5-7.9-17.5-17.5V281.3c0-9.6 7.9-17.5 17.5-17.5h326.4c9.7 0 17.5 7.9 17.5 17.5zm-256.4 119.5H31.6c9.6 0 17.5-7.9 17.5-17.5s-7.9-17.5-17.5-17.5h-157.3c-9.6 0-17.5 7.9-17.5 17.5s7.8 17.5 17.4 17.5zM49 479.5c0-9.6-7.9-17.5-17.5-17.5h-157.3c-9.6 0-17.5 7.9-17.5 17.5s7.9 17.5 17.5 17.5H31.6c9.6-.1 17.4-7.9 17.4-17.5zm-174.8 75.7c-9.6 0-17.5 7.9-17.5 17.5s7.9 17.5 17.5 17.5h46.6c9.6 0 17.5-7.9 17.5-17.5s-7.9-17.5-17.5-17.5h-46.6zm261.4.9c-6.7-6.7-17.8-6.7-24.8 0l-41.4 41.4-41.7-41.7c-6.7-6.7-17.8-6.7-24.8 0-6.7 6.7-6.7 17.8 0 24.8l41.7 41.7L3 663.9c-6.7 6.7-6.7 17.8 0 24.8 3.5 3.5 7.9 5.2 12.2 5.2s9-1.7 12.2-5.2L69.1 647l41.7 41.7c3.5 3.5 7.9 5.2 12.2 5.2s9-1.7 12.2-5.2c6.7-6.7 6.7-17.8 0-24.8l-41.1-41.7 41.7-41.7c6.8-6.6 6.8-17.7-.2-24.4z" fill="currentColor"/>
        </symbol>
        <symbol id="search" viewBox="0 0 434 434">
            <path class="content" d="M107 231c0-52.468 42.532-95 95-95s95 42.532 95 95-42.532 95-95 95-95-42.532-95-95zm167.095 102.13l96.524 94.601c8.591 8.592 22.52 8.592 31.112 0 8.592-8.591 8.592-22.52 0-31.112l-96.716-94.789C318.883 281.697 327 257.296 327 231c0-69.036-55.964-125-125-125S77 161.964 77 231s55.964 125 125 125c26.85 0 51.724-8.464 72.095-22.87zm107.62-315.638C381.716 7.896 373.91 0 364.2 0H37.515C27.907 0 20 7.896 20 17.492v399.016C20 426.104 27.907 434 37.515 434h151.633c9.608 0 17.515-7.896 17.515-17.492 0-9.595-7.907-17.492-17.515-17.492H55.03V34.984h291.654v195.11c0 9.596 7.907 17.492 17.515 17.492 9.609 0 17.516-7.896 17.516-17.492V17.492z" fill="currentColor"/>
        </symbol>
        <symbol id="trash" viewBox="-92 93.7 774.3 774.3">
            <path class="content" d="M548.3 184.9H445v-67.2c0-13.5-10.9-24-24.4-24-1.3 0-2.2.4-2.6.9-.4-.4-1.3-.9-1.8-.9H169.7c-13.5 0-24 10.5-24 24v67.2H41.9c-29.7 0-52.8 23.1-52.8 52.8v86.4h45.8v491.6c0 29.7 22.7 52.3 52.3 52.3H503c29.7 0 52.8-22.7 52.8-52.3V324.1h45.4v-86.4c-.1-29.7-23.2-52.8-52.9-52.8zm-354.6-43.2h202.8v43.2H193.7v-43.2zm313.6 674c0 3.1-1.3 4.4-4.4 4.4H87.3c-3.1 0-4.4-1.3-4.4-4.4V324.1h424.4v491.6zm45.4-539.6H37.6v-38.4c0-3.1 1.3-4.8 4.4-4.8h506.4c3.1 0 4.4 1.7 4.4 4.8l-.1 38.4z" fill="currentColor"/>
            <path class="content" fill="currentColor" d="M383 380.3h48.4v396.9H383zM271.4 380.3h48.4v396.9h-48.4zM159.7 380.3h48.4v396.9h-48.4z"/>
        </symbol>
        <symbol id="repeat-print" viewBox="0 0 512 512">
            <path class="content" d="M350.7 87.1H161.3v132.6h189.4V87.1zm-19 113.6H180.3V106h151.5l-.1 94.7zM369.6 219.7v18.9H142.4v-18.9c-20.9 0-37.9 17-37.9 37.9v113.6c0 10.5 8.5 18.9 18.9 18.9h265.1c10.5 0 18.9-8.5 18.9-18.9V257.5c.1-20.9-16.9-37.8-37.8-37.8zm-18.9 132.5c0 10.5-8.5 18.9-18.9 18.9H180.3c-10.5 0-18.9-8.5-18.9-18.9v-18.9h189.4l-.1 18.9zm28.4-56.8h-18.9c-5.2 0-9.5-4.3-9.5-9.5s4.3-9.5 9.5-9.5h18.9c5.2 0 9.5 4.3 9.5 9.5s-4.3 9.5-9.5 9.5z" fill="currentColor"/>
            <path class="content" fill="currentColor" d="M199.2 125h113.6v18.9H199.2zM199.2 162.8h113.6v18.9H199.2z"/>
            <path class="content" d="M414.9 423.2c-4.6-.4-9.1.9-12.7 3.9-25.8 21.2-55.4 35.9-88.1 43.8-118.5 28.8-238.4-44.2-267.2-162.7C33 250.9 42.3 191.5 73 141s79.3-86 136.6-99.9c77.1-18.7 158.8 5.5 213.2 63.2l6.6 6.9-25.2 24.2 102.3 29.7-25.3-103.5-26.6 25.5-6.6-7C420.4 51 385.8 28.4 348 14.9 320.1 5 291.2 0 262.1 0c-20.3 0-40.6 2.4-60.6 7.3C135 23.4 78.9 64.5 43.3 122.9 7.7 181.2-2.9 250 13.2 316.4S70.4 439 128.8 474.6s127.1 46.3 193.5 30.1c37.8-9.2 72.1-26.3 101.9-50.8 3.6-2.9 5.8-7.1 6.3-11.7s-.9-9.1-3.9-12.7c-2.9-3.6-7.1-5.8-11.7-6.3z" fill="currentColor"/>
        </symbol>
        <svg id="print" viewBox="-223 225 512 512">
            <path class="content" d="M193 225h-320v224h320V225zm-32 192H-95V257h256v160zM225 449v32h-384v-32c-35.3 0-64 28.7-64 64v192c0 17.7 14.3 32 32 32h448c17.7 0 32-14.3 32-32V513c0-35.3-28.7-64-64-64zm-32 224c0 17.7-14.3 32-32 32H-95c-17.7 0-32-14.3-32-32v-32h320v32zm48-96h-32c-8.8 0-16-7.2-16-16s7.2-16 16-16h32c8.8 0 16 7.2 16 16s-7.2 16-16 16z" fill="currentColor"/>
            <path class="content" fill="currentColor" d="M-63 289h192v32H-63zM-63 353h192v32H-63z"/>
        </svg>
    </defs>
</svg>
