<svg xmlns="http://www.w3.org/2000/svg">
    <defs>
        <symbol id="sport-1" viewBox="0 0 32 32">
            <path d="M16 1.6A14.4 14.4 0 1 0 30.4 16c0-8-6.5-14.4-14.4-14.4zm12.3 17.7l-.5-.1a1 1 0 0 0-1.2.4l-3.5 5.2a.9.9 0 0 0 0 1.1l.3.5c-1.8 1.4-4.1 2.2-6.5 2.4v-1.2a1 1 0 0 0-.8-1L10 24.8h-.4a1 1 0 0 0-.7.3l-.8 1a12.9 12.9 0 0 1-4-5.5l.8-.4a1 1 0 0 0 .7-1V13a1 1 0 0 0-.8-1l-.8-.3a13 13 0 0 1 4.2-5.8l.7.8c.1.2.4.4.7.4h.4l6-2a1 1 0 0 0 .8-1v-.8c2.4.2 4.7 1 6.5 2.3l-.5.8a1 1 0 0 0-.2.6c0 .2 0 .4.2.6l3.7 5.1c.1.3.4.5.7.5l.5-.1.7-.2a12.1 12.1 0 0 1 0 6.6zM21 15.5l.1.3-.1.4-3.3 4.5c-.1.2-.3.2-.4.2H17l-5.3-1.7a.5.5 0 0 1-.3-.4v-5.6c0-.3.1-.5.3-.5l5.3-1.7a.5.5 0 0 1 .6.1l1.2 1.6z" />
        </symbol>
        <symbol id="sport-2" viewBox="0 0 32 32">
            <path d="M16 1.8a14 14 0 1 0 14 14 14 14 0 0 0-14-14zm4.2 11a43.3 43.3 0 0 1 7.7.4h-.2a11.3 11.3 0 0 1-.1 5.7 9 9 0 0 0-7.1-5.2l-.3-1zM27 11a45.6 45.6 0 0 0-7.4-.3c0-.4-.2-.9-.4-1.3a6.3 6.3 0 0 0 4.4-2.8A12 12 0 0 1 27 11zM16.4 7.6c-1.3 0-2.6-.2-3.9-.6h.1L9 6.3H9c1.6-1.2 3.5-2 5.7-2.3l1.7 3.4.1.3zm.5-3.7c1.9.1 3.6.7 5 1.5-.7 1.2-2 2-3.3 2A41 41 0 0 0 16.8 4zM6.9 8c1.9 0 3.7.4 5.3 1l-.1-.1c1.4.4 3 .6 4.5.6h.6l.4 1.3c-5.1.2-9.9 2.1-13.7 5H4c0-3 1-5.8 2.9-7.9zM4.3 18.3s4-4.6 13.9-5.5l.3 1.2c-3 .9-6.4 4.7-10 11.2a12 12 0 0 1-4.2-6.8zm5.9 8c3.1-5.8 6.2-9.5 8.6-10.4a24 24 0 0 1-.9 12v-.2l-1.9.1c-2.1 0-4.2-.5-5.9-1.5zm10 .7a26.5 26.5 0 0 0 .6-11.5v.2c3 .3 4.9 3.6 5.8 5.6a12.1 12.1 0 0 1-6.3 5.7z" />
        </symbol>
        <symbol id="sport-3" viewBox="0 0 32 32">
            <path d="M16 2a14 14 0 1 0 14 14A14 14 0 0 0 16 2zm.5 26c0-.2-.2-.4-.3-.5a1.4 1.4 0 0 0-2.3.3 12 12 0 0 1-9.7-9.7l.3-.3a1.4 1.4 0 0 0-.5-2.3A12 12 0 0 1 15.3 4l.4.6a1.4 1.4 0 0 0 2.3-.4c5 .9 9 4.8 9.8 9.7l-.4.4a1.4 1.4 0 0 0 0 2l.6.3A12 12 0 0 1 16.5 28zM15.2 8.5a1.4 1.4 0 0 1 1-2.4 1.4 1.4 0 0 1 1 2.4 1.4 1.4 0 0 1-2 0zm-1.9 3.9a1.4 1.4 0 0 1 1-2.4 1.4 1.4 0 0 1 1 2.4 1.4 1.4 0 0 1-2 0zm-4.9 3a1.4 1.4 0 0 1-1 2.4 1.4 1.4 0 0 1-1-2.4 1.4 1.4 0 0 1 2 0zm3.9-1.8a1.4 1.4 0 0 1-1 2.4 1.4 1.4 0 0 1-1-2.4 1.4 1.4 0 0 1 2 0zm13.2 1.1a1.4 1.4 0 0 1-1 2.5 1.4 1.4 0 0 1-1-2.5 1.4 1.4 0 0 1 2 0zm-3.9 2a1.4 1.4 0 0 1-1 2.4 1.4 1.4 0 0 1-1-2.5 1.4 1.4 0 0 1 2 0zm-5 6.9c.2.3.4.6.4 1a1.4 1.4 0 1 1-2.4-1 1.4 1.4 0 0 1 2 0zm1.8-3.9a1.4 1.4 0 0 1-1 2.4 1.4 1.4 0 0 1-1-2.4 1.4 1.4 0 0 1 2 0z" />
        </symbol>
        <symbol id="sport-4" viewBox="0 0 32 32">
            <path d="M29.4 7.3l-5-5C21.7.4 15.2 5 10.1 10a43 43 0 0 0-6.5 8l-.1.3c-1.7 3-2 5-1 6.1l4.8 4.8a2.3 2.3 0 0 0 1.8.6c1.6-.1 3.1-.7 4.4-1.6 3-1.9 5.8-4 8.2-6.5C25.8 17.5 30 12 30 9V9c0-.6-.2-1.2-.6-1.6zm-24.1 12c1.9-3 4-5.6 6.3-7.9 6.2-6.2 11-8 11.6-7.5.5.6-1.4 5.4-7.6 11.6s-11 8-11.5 7.5c-.1-.1-.3-1.2 1.2-3.7zm15.1 1a41.2 41.2 0 0 1-7.7 6.1l-.1.1C10 28 9 28 8.8 27.8l-3-3c3.2-1 7.6-4.3 11.2-8s7-8 8-11.1l3 3a.5.5 0 0 1 0 .3c0 1.8-2.7 6.3-7.6 11.2z" />
        </symbol>
        <symbol id="sport-5" viewBox="0 0 32 32">
            <path d="M29.7 13A14 14 0 1 0 16 29.8 14 14 0 0 0 29.7 13v.1zm-4.2 10C24 21.2 23 18.7 23 15.9h-2c0 3.4 1.2 6.4 3.2 8.8a11.9 11.9 0 0 1-16.3 0c2-2.4 3-5.4 3-8.8 0-3.3-1-6.4-3-8.8A11.9 11.9 0 0 1 24 7c-2 2.4-3 5.5-3 8.8h2c0-2.7.9-5.2 2.5-7.2a11.8 11.8 0 0 1 0 14.5zM4 15.9c0-2.7 1-5.2 2.5-7.3a11.8 11.8 0 0 1 0 14.5C4.9 21.2 4 18.7 4 15.9z" />
        </symbol>
        <symbol id="sport-6" viewBox="0 0 32 32">
            <path d="M25.9 6.1A14 14 0 0 0 2 16a14 14 0 0 0 23.9 9.9 14 14 0 0 0 0-19.8zm1.7 12.6v-5.4a11.8 11.8 0 0 1 0 5.5zm-.4-6.8L22 11l-2.2-3.7L21 5c3 1.3 5.3 3.7 6.3 6.8zm-5.7 7.2L19.7 16l1.8-3.1 4.1.8v4.6zM18 23.8h-4l-2-3.4 2-3.4h4l1.3 2.2.7 1.2zm-7.5-4.7l-4.1-.8v-4.6l4.1-.8 1 1.9.8 1.2-.7 1.2zm3.5-11h4l2 3.5-.7 1.2L18 15h-4l-2-3.4zm5-3.7l-1 1.8h-4l-1-1.8a11.7 11.7 0 0 1 6 0zM7.5 7.5c1-1 2.2-1.8 3.5-2.4h.1l1.2 2-2.2 3.8-5.4 1a12 12 0 0 1 2.8-4.4zm-3.1 5.8v5.4a11.8 11.8 0 0 1 0-5.5zm.4 6.8l5.3 1 2.2 3.7-1.2 2.1c-3-1.3-5.3-3.7-6.3-6.8zm8.2 7.5l1-1.8h4l1 1.8a11.7 11.7 0 0 1-6 0zm11.5-3.1c-1 1-2.2 1.8-3.5 2.4l-1.3-2L22 21l5.3-1a12 12 0 0 1-2.7 4.4z" />
        </symbol>
        <symbol id="sport-7" viewBox="0 0 32 32">
            <path d="M25.9 6.1A14 14 0 0 0 2 16a14 14 0 0 0 23.9 9.9 14 14 0 0 0 0-19.8zm2 10a1 1 0 0 0-.2.2.5.5 0 1 1 0-.7l.3.2v.3zm-11.8-12l.2.2a.5.5 0 1 1-.7.7l-.1-.3.1-.4.2-.3H16.1zm-12 11.8l.2-.3.4-.1a.5.5 0 0 1 0 1l-.4-.1L4 16V16zm11.5 12l-.1-.1a.7.7 0 0 1 .5-1.2.7.7 0 0 1 .5 1.2l-.1.1h-.8zm8.9-3.4a11.9 11.9 0 0 1-5.8 3.2v-.4a2.7 2.7 0 0 0-5.4 0v.4c-4.5-1-8-4.7-9-9.2h.4a2.5 2.5 0 1 0 0-5h-.5a12 12 0 0 1 9.3-9.2v.4a2.5 2.5 0 1 0 5 0v-.5a12 12 0 0 1 9.2 9.3h-.4c-.7 0-1.3.3-1.8.7-.4.5-.7 1.1-.7 1.8 0 1.4 1.1 2.5 2.5 2.5h.4a12 12 0 0 1-3.2 6zM21.7 7.8c-.7 0-1.4.3-1.8.8a2.5 2.5 0 0 0 0 3.5c.4.5 1 .7 1.8.7a2.5 2.5 0 1 0 0-5zm.3 2.9l-.3.1a.5.5 0 0 1-.4-.8l.4-.2a.5.5 0 0 1 .3.9zM8.6 19.9a2.5 2.5 0 0 0 1.7 4.3 2.5 2.5 0 0 0 1.8-4.3 2.5 2.5 0 0 0-3.5 0zm2.1 2.1h-.3a.5.5 0 0 1-.4-.7.5.5 0 0 1 .7 0 .5.5 0 0 1 0 .7zm7.8-8.5a3.5 3.5 0 0 0-6 2.5 3.5 3.5 0 0 0 6 2.5 3.5 3.5 0 0 0 0-5zM17 17.1a1.5 1.5 0 0 1-2.6-1.1 1.5 1.5 0 0 1 2.6-1c.2.2.4.6.4 1s-.2.8-.4 1zm-6.8-4.3a2.5 2.5 0 1 0-1.7-4.2 2.5 2.5 0 0 0 0 3.5c.4.5 1 .7 1.7.7zM10 10a.5.5 0 1 1 0 .7.5.5 0 0 1 0-.7zm9.9 9.9a2.5 2.5 0 0 0 1.8 4.3 2.5 2.5 0 0 0 1.7-4.3 2.5 2.5 0 0 0-3.5 0zM22 22a.5.5 0 1 1-.7-.7.5.5 0 1 1 .7.7z" />
        </symbol>
        <symbol id="sport-9" viewBox="0 0 32 32">
            <path d="M25.9 6.1A14 14 0 0 0 2 16a14 14 0 0 0 23.9 9.9 14 14 0 0 0 0-19.8zm-1.4 18.4a12 12 0 0 1-17 0 11.8 11.8 0 0 1-3-5.3V19a1.5 1.5 0 0 0-.3-2.8H4a10.5 10.5 0 0 1 .2-2.4l.4.2.4.1a1.5 1.5 0 0 0 .4-3h-.3a12 12 0 0 1 21.9 0 1.5 1.5 0 0 0-.4 0 1.5 1.5 0 1 0 .8 3l.4-.3a11.9 11.9 0 0 1 .2 2.5h-.2a1.5 1.5 0 0 0-.3 2.7c-.5 2.1-1.6 4-3 5.4zM8.9 22a1.5 1.5 0 0 1-2.9-.4 1.5 1.5 0 0 1 2-1.5 1.5 1.5 0 0 1 1 2zm-1.5-5.6a1.5 1.5 0 0 1 2.9.4 1.5 1.5 0 0 1-2 1.4 1.5 1.5 0 0 1-1-1.9zm5.3 8.3c-.2.7-.8 1.1-1.4 1.1a1.5 1.5 0 1 1 .4-3 1.5 1.5 0 0 1 1 2zm.4-3.7c-.6-.2-1-.7-1-1.4a1.5 1.5 0 1 1 2.9.4 1.5 1.5 0 0 1-1.9 1zm4.4 4.2v.4l-.1.2-.2.3-.2.2-.2.1-.2.2h-.2-.1-.6-.1-.2l-.2-.2-.2-.1-.2-.2-.2-.3v-.1-.2-.3-.3-.1-.1l.2-.3.1-.2.3-.2.2-.1.2-.1h1l.2.2.2.2.2.2.2.2V25.4zm8.4-4l.1.4a1.5 1.5 0 1 1-2-1.5h.5c.7 0 1.3.4 1.4 1zm-2.5-3H23a1.5 1.5 0 1 1 1.4-2l.1.5c0 .7-.4 1.3-1 1.4zM22.2 24v.4a1.5 1.5 0 1 1-1.9-1.4l.4-.1c.7 0 1.3.4 1.5 1zM18.8 21h-.4a1.5 1.5 0 1 1 1.4-1.9v.5c0 .7-.4 1.2-1 1.4z" />
        </symbol>
        <symbol id="sport-12" viewBox="0 0 32 32">
            <path d="M28.9 5c-.3-1-1-1.7-2-2-6-1.7-13.1.5-18.2 5.7S1.4 20.9 3 26.8c.2 1 1 1.8 1.9 2 1.3.5 2.8.7 4.3.7 5.5-.2 10.5-2.5 14-6.2C28.5 18.1 30.7 11 29 5zM10 10c3.2-3.2 7.6-5.3 12.5-5.5l1.7.1c-5 1.3-9.1 3.9-12.3 7.4a25.3 25.3 0 0 0-7.4 12V23c0-5 2-9.6 5.5-12.8zm15.4-3.5c-.1 3.2-2.8 8-6.9 12.1s-8.9 6.8-12.1 7c.1-3.4 2.8-8.1 6.9-12.2s8.8-6.8 12.1-7zM22 21.9a17.6 17.6 0 0 1-14.2 5.5c5-1.3 9-3.9 12.3-7.4 3.5-3.2 6-7.4 7.4-12.1v-.2V9c0 5-2 9.6-5.5 12.8z" />
        </symbol>
        <symbol id="sport-13" viewBox="0 0 32 32">
            <path d="M29.3 4.6a3 3 0 0 0-2-2C21 1 13.6 3.1 8.3 8.4S.8 21.2 2.6 27.3a3 3 0 0 0 2 2v.1c1.3.4 2.8.7 4.4.7h.1a21 21 0 0 0 14.5-6.4c5.4-5.5 7.6-13 5.7-19zM9.8 10a19 19 0 0 1 13-5.9h.1c1.2 0 2.3.2 3.3.5l-6.5 6.4-2.1-2.1-1.4 1.4 2 2.1-2.2 2.3-2.1-2.1-1.4 1.4 2.1 2.1-2.3 2.3-2-2.1-1.5 1.4 2.1 2-6.5 6.6A17.8 17.8 0 0 1 9.8 9.9zm12.4 12.3a17.7 17.7 0 0 1-16.5 5.4l6.6-6.5 2.2 2.1 1.4-1.4-2.2-2.1 2.3-2.3 2.1 2.1 1.5-1.4-2.2-2.1 2.3-2.3 2.1 2.2 1.4-1.4-2.1-2.2 6.5-6.5a17.7 17.7 0 0 1-5.4 16.4z" />
        </symbol>
        <symbol id="sport-14" viewBox="0 0 32 32">
            <path d="M17.7 14.6a.5.5 0 0 1-.6.2l-2.5-1.5.5 2.1a.5.5 0 0 1-.3.6.5.5 0 0 1-.1 0 .5.5 0 0 1-.5-.3l-.8-3.1-2.9-1.7v3.3l2.3 2.3a.5.5 0 0 1-.4.8.5.5 0 0 1-.3-.1l-1.6-1.6v2.9a.5.5 0 0 1-1 0v-2.9l-1.6 1.6a.5.5 0 0 1-.7-.7l2.3-2.3V11l-2.9 1.7-.8 3a.5.5 0 0 1-.5.5.5.5 0 0 1-.4-.7l.5-2-2.5 1.4a.5.5 0 0 1-.5-.9L5 12.4 2.8 12a.5.5 0 1 1 .2-1l3.1.8 3-1.7-3-1.7L3 9a.5.5 0 0 1-.1 0 .5.5 0 0 1-.1-1l2-.5L2.5 6a.5.5 0 0 1 .5-.9l2.5 1.5-.5-2.1a.5.5 0 0 1 1-.3l.7 3.1 2.9 1.7V5.8L7.2 3.5a.5.5 0 0 1 .7-.7l1.6 1.6V1.5a.5.5 0 0 1 1 0v2.9l1.6-1.6a.5.5 0 1 1 .7.7l-2.3 2.3V9l2.9-1.7.8-3a.5.5 0 0 1 1 .2l-.6 2 2.5-1.4a.5.5 0 0 1 .5.9L15 7.6l2.1.5a.5.5 0 0 1 0 1 .5.5 0 0 1-.2 0l-3.1-.8-3 1.7 3 1.7L17 11a.5.5 0 1 1 .2 1l-2 .5 2.4 1.5a.5.5 0 0 1 .1.7z" />
        </symbol>
        <symbol id="sport-15" viewBox="0 0 32 32">
            <path d="M25.9 6.1A14 14 0 0 0 2 16a14 14 0 0 0 23.9 9.9 14 14 0 0 0 0-19.8zm-1.4 18.4a12 12 0 0 1-16.2.6l.6-.6A1 1 0 1 0 7.5 23l-.6.6A12 12 0 0 1 23.7 7l-.6.6a1 1 0 0 0 .7 1.7c.3 0 .5-.1.7-.3l.6-.6a12 12 0 0 1-.6 16.2zM22 19.6a1 1 0 0 1 0 1.4l-1.4 1.5a1 1 0 0 1-1.4 0 1 1 0 0 1 0-1.5q.8-.6 1.4-1.3a1 1 0 0 1 1.4 0zm-6.1 5v.5c0 .4-.2.7-.5.9-.5.3-1.2.5-1.9.7h-.1l-.3.1a1 1 0 0 1-.3-2l1.8-.6.4-.1c.4 0 .7.2.9.6zm10.7-10.4l-1 2a1 1 0 0 1-1.8-.5l.1-.5.8-1.6v-.1a1 1 0 1 1 1.9.7zM7.8 17.4c-.2.5-.5 1-.6 1.7a1 1 0 0 1-2-.5l.8-2a1 1 0 0 1 2 .4l-.2.5zm4.5-6L11 12.7a1 1 0 0 1-1.4.1 1 1 0 0 1 0-1.4L11 9.9a1 1 0 1 1 1.3 1.5zm6.2-4.2l-1.8 1 .1-.1a1 1 0 0 1-1-1.8l1.8-.9h.5a1 1 0 0 1 .4 1.8zm1.7 6l-1.4 1.4a1 1 0 0 1-1.7-.7c0-.3.1-.6.3-.7l1.4-1.4a1 1 0 1 1 1.4 1.4zm-7.7 7.3a1 1 0 0 1-.7-1.7l1.4-1.4a1 1 0 1 1 1.4 1.4l-1.4 1.4a1 1 0 0 1-.7.3z" />
        </symbol>
        <symbol id="sport-16" viewBox="0 0 32 32">
            <path d="M29.3 4.6c-.3-1-1-1.7-2-2h-.1C21.1 1 13.7 3.1 8.4 8.4S.8 21.1 2.6 27.3c.2 1 1 1.8 2 2 1.3.5 2.8.7 4.4.7a21 21 0 0 0 14.6-6.4c5.3-5.4 7.6-12.8 5.7-19zM23 4c1.4 0 2.6.2 3.8.6.4.1.6.3.7.6a13.7 13.7 0 0 1 .3 6.6v-.1l-7.3-7.4C21 4 22 4 22.9 4zM5 27.5c-.3-.1-.5-.3-.6-.8a14 14 0 0 1-.3-6.5v.1l7.5 7.5a13.7 13.7 0 0 1-6.7-.3h.1zm17-5.3c-2.2 2.3-5 4-8 5H14l-9.3-9.1C7 11.7 11.7 6.9 18 4.8h.2l9.1 9.2c-1 3.2-2.8 6-5 8.2zm1.1-7.7l-1.4 1.4-2.1-2.2-2.3 2.3 2.1 2.1-1.4 1.4-2.1-2-2.3 2.2 2.2 2.1-1.5 1.4-5.6-5.6 1.4-1.5 2.1 2.2 2.3-2.3-2.1-2.1 1.4-1.4 2.1 2.1 2.3-2.3-2.2-2 1.4-1.5z" />
        </symbol>
        <symbol id="sport-17" viewBox="0 0 32 32">
            <path d="M6.5 16a6.5 6.5 0 1 0 6.5 6.5c0-3.6-3-6.5-6.5-6.5zm0 11a4.5 4.5 0 1 1 4.5-4.5C11 25 9 27 6.5 27zm19-11a6.5 6.5 0 1 0 6.5 6.5c0-3.6-3-6.5-6.5-6.5zm0 11a4.5 4.5 0 1 1 4.5-4.5c0 2.5-2 4.5-4.5 4.5zm-4-19a3 3 0 1 0-3-3 3 3 0 0 0 3 3zm0-4a1 1 0 1 1-1 1c0-.6.5-1 1-1zm-5 10v-2.6l-3 3.1 3.2 3.2c.2.2.3.4.3.7V25a1 1 0 0 1-2 0v-6.2l-3.6-3.6a1 1 0 0 1 0-1.4l5.5-5.5a1 1 0 0 1 1-.2c.4.1.7.5.7.9v4H23a1 1 0 0 1 0 2h-5.4a1 1 0 0 1-1-1z" />
        </symbol>
        <symbol id="sport-19" viewBox="0 0 32 32">
            <path d="M16 2a14 14 0 1 0 14 14A14 14 0 0 0 16 2zm0 26a12 12 0 1 1 12-12 12 12 0 0 1-12 12zm-.2-20c0 .6-.3 1-.8 1a7 7 0 0 0-5.5 4.5 1 1 0 1 1-1.9-.7 9 9 0 0 1 7-5.7h.2c.5 0 1 .4 1 .8z" />
        </symbol>
        <symbol id="sport-20" viewBox="0 0 32 32">
            <path d="M29.3 17.6c.3-.6.5-1.3.6-2v-.1-1.3c0-3.4-1.3-6.3-3.6-8.4a11.5 11.5 0 0 0-9.8-3.6h.1c-5 .9-9 4.8-10 9.7v.1a13.3 13.3 0 0 0-.1 1.7c0 1.3.3 2.5.7 3.6v-.1l.1.7c.3.8.4 1.2-1 2.5l-4.9 4.2a1 1 0 0 0-.3.9c.5 2.8 2.7 5 5.5 5.5h.1c.4 0 .6-.1.8-.4l4.2-4.8c1.3-1.4 1.7-1.3 2.4-1l.8.1a12.5 12.5 0 0 0 5.2.6c1-.1 2-.4 3-1a5 5 0 0 0 7-4.6v.1a5 5 0 0 0-.8-2.5zm-14.6 5.2c-1.3-.4-2.6-.5-4.5 1.6A231 231 0 0 0 6.4 29c-.8-.3-1.5-.7-2-1.2a5 5 0 0 1-1.2-2c1-.8 3-2.5 4.4-3.9 2.2-1.9 2-3.1 1.7-4.4l-.2-.8 6.3 6.4zm5.2.7h-1L8.4 13.4a12.6 12.6 0 0 1 0-1.2c1-4 4.2-7.2 8.3-8H18c2.8 0 5.3 1.2 7 3a9.5 9.5 0 0 1 3 8.1l-.2.6a5 5 0 0 0-6.5 7.4c-.4.2-.8.3-1.3.3zM25 23a3 3 0 1 1 3-3 3 3 0 0 1-3 3z" />
        </symbol>
        <symbol id="sport-21" viewBox="0 0 32 32">
            <path d="M16 2a14 14 0 1 0 14 14A14 14 0 0 0 16 2zm0 2c2.3 0 4.5.7 6.3 1.8A16.4 16.4 0 0 0 4 17 12 12 0 0 1 16 4zm0 24c-2.9 0-5.5-1-7.6-2.7l.2-.4a21 21 0 0 1 0-1.4c0-.5-.3-1-.8-1h-.1a1 1 0 0 0-1 .9v.1a12 12 0 0 1-1.3-1.9v-.1c.1-7.7 6.4-14 14-14 2.4 0 4.5.6 6.4 1.6l.4.6a1 1 0 0 0-1.2 1c0 .5.4.9.8 1l.8.1H27.2A12 12 0 0 1 16 28zm-6-9.3l-.5 1.2a1 1 0 0 1-1.3.6 1 1 0 0 1-.6-1.2l.6-1.4a1 1 0 0 1 1.8.8zm7.7-7.9v.3c0 .5-.2.8-.6 1l-1.3.5a1 1 0 0 1-.9-1.8h.1l1.3-.6h.4c.5 0 .8.2 1 .6zm5.3-.5c0 .6-.5 1-1 1h-1.3a1 1 0 0 1-.1-2h1.3c.6 0 1 .4 1 1zm-10.1 3a1 1 0 0 1 0 1.3l-1 1a1 1 0 1 1-1.5-1.3l1-1.1a1 1 0 0 1 1.5 0z" />
        </symbol>
        <symbol id="sport-22" viewBox="0 0 32 32">
            <path d="M23.6 7L23 5l4-4 1 3 3 1-4 4-2-.6-6.1 6.1L16 16l1.5-2.9zm3.3 4a12 12 0 1 1-6-6l1.5-1.4a14 14 0 1 0 6 6zM17 9l1.7-1.6A9 9 0 1 0 25 16c0-1-.2-1.8-.4-2.6l-1.7 1.7.1.9a7 7 0 1 1-7-7l1 .1zm-.9 5v-2a4 4 0 1 0 4 4h-2a2 2 0 1 1-2-2z" />
        </symbol>
        <symbol id="sport-23" viewBox="0 0 32 32">
            <path d="M30 16a14 14 0 0 0-7-12.2h-.1A13.8 13.8 0 0 0 16 2 14 14 0 0 0 2 16v.4A14 14 0 0 0 23.3 28h-.1.1A14 14 0 0 0 30 16zm-4.8 7.7A12.5 12.5 0 0 0 21.8 11a9 9 0 0 1 5.1 0c.7 1.4 1 3.2 1 5 0 3-1 5.7-2.8 7.8zM17.6 28a9.5 9.5 0 0 0-.5-12.1A8.3 8.3 0 0 1 20 12c1.6 1.3 6.3 6 2 14.4-1.2.7-2.7 1.3-4.2 1.5h-.1zM4.9 11.4c.8 2 2.3 3.6 4 4.7H9c1.4.7 3 1.1 4.7 1.1l2-.1c1 1.2 1.6 2.6 1.8 4.2-1.9.8-8.4 2.5-13.5-5.3 0-1.7.3-3.2 1-4.6zm20.6-2.7l-1.2-.1a9.5 9.5 0 0 0-9 6.5 8.2 8.2 0 0 1-4.8-.5c.4-2 2.2-8.4 11.4-9 1.4.8 2.6 1.8 3.6 3zM16 4c.7 0 1.4 0 2.1.2a12.6 12.6 0 0 0-9.3 9.2 9.2 9.2 0 0 1-2.6-4.2A12 12 0 0 1 16 4zM4.7 20c2.3 2.4 5.5 4 9 4h.1c1.3 0 2.5-.2 3.7-.5A9.2 9.2 0 0 1 15 28a12 12 0 0 1-10.3-8z" />
        </symbol>
        <symbol id="sport-24" viewBox="0 0 32 32">
            <path d="M30 16A14 14 0 0 0 8 4.6 14 14 0 0 0 4.5 24 14 14 0 0 0 24 27.6 14 14 0 0 0 30 16zm-4.8-7.7H25c-.8 0-1.5-.7-1.5-1.5v-.1l1.6 1.5zm-17-1.5V7c0 .8-.6 1.5-1.4 1.5h-.1l1.5-1.6zm-1.4 17H7v-.1c.8 0 1.5.7 1.5 1.5v.1l-1.6-1.5zm3.4 2.7c.2-.4.3-.8.3-1.3A3.5 3.5 0 0 0 5.6 22a11.8 11.8 0 0 1 0-11.8h-.1c.4.2.8.3 1.3.3A3.5 3.5 0 0 0 10 5.6a11.8 11.8 0 0 1 11.8 0v-.1c-.2.4-.3.8-.3 1.3a3.5 3.5 0 0 0 4.9 3.2 11.8 11.8 0 0 1 0 11.8h.1c-.4-.2-.8-.3-1.3-.3a3.5 3.5 0 0 0-3.2 4.9 11.8 11.8 0 0 1-11.8 0v.1zm13.5-1.3V25c0-.8.7-1.5 1.5-1.5h.1l-1.5 1.6zM16 13.5a3.5 3.5 0 1 0-3.5-3.5c0 2 1.6 3.5 3.5 3.5zm0-5a1.5 1.5 0 1 1-1.5 1.5c0-.8.7-1.5 1.5-1.5zm0 10a3.5 3.5 0 1 0 3.5 3.5c0-2-1.6-3.5-3.5-3.5zm0 5a1.5 1.5 0 1 1 1.5-1.5c0 .8-.7 1.5-1.5 1.5zm-6-11a3.5 3.5 0 1 0 3.5 3.5c0-2-1.6-3.5-3.5-3.5zm0 5a1.5 1.5 0 1 1 1.5-1.5c0 .8-.7 1.5-1.5 1.5zM25.5 16a3.5 3.5 0 1 0-3.5 3.5c2 0 3.5-1.6 3.5-3.5zm-5 0a1.5 1.5 0 1 1 1.5 1.5c-.8 0-1.5-.7-1.5-1.5z" />
        </symbol>
        <symbol id="sport-26" viewBox="0 0 32 32">
            <path d="M1.8 25.6A7.7 7.7 0 0 1 7 23.2a13.5 13.5 0 0 1 6.3.6h-.1c2 .7 3.6 1.5 5.3 2.4h-.2l1.1.5a12 12 0 0 0 5.4 1.2h.1c2.4 0 4.6-.6 6.6-1.7a1 1 0 1 0-1.1-1.7 11 11 0 0 1-4.5 1.3 13.9 13.9 0 0 0-3-22h-.2A13.8 13.8 0 0 0 16 2 14 14 0 0 0 2 16v.4c0 2.1.6 4 1.5 5.8a7.8 7.8 0 0 0-3.3 2.2 1 1 0 0 0 1.6 1.3zm17.5-1.3l.2-2.1c0-2.5-1-4.7-2.4-6.5A8.3 8.3 0 0 1 20 12c1.5 1.2 6 5.8 2.5 13.6l-2-.7zM26.9 11a11.9 11.9 0 0 1-1.7 12.8A12.5 12.5 0 0 0 21.8 11a9 9 0 0 1 5.1 0zm-1.4-2.2l-1.2-.1a9.5 9.5 0 0 0-9 6.5 8.2 8.2 0 0 1-4.8-.5c.4-2 2.2-8.4 11.4-9 1.4.8 2.6 1.8 3.6 3zM16 4c.7 0 1.4 0 2.1.2a12.6 12.6 0 0 0-9.3 9.2 9.2 9.2 0 0 1-2.6-4.2A12 12 0 0 1 16 4zM5 11.4c.7 2 2.2 3.6 4 4.7 1.4.7 3 1.1 4.7 1.1l2-.1c1 1.2 1.6 2.6 1.8 4.2-1 .5-2 .7-3.3.7H14c-1.2-.5-2.7-.8-4.2-.8C7.3 20 5.4 18.2 4 16c0-1.7.3-3.2 1-4.6zM4.6 20c.5.5 1 1 1.5 1.3l-.8.2-.7-1.4V20zm27.2 8.9l.1.5c0 .3-.2.6-.5.8-1.9 1-4.1 1.7-6.5 1.7H25h-.2a12 12 0 0 1-5.3-1.2h.1l-1.2-.6c-1.4-.8-3-1.6-4.8-2.2l-.2-.1a13.7 13.7 0 0 0-6.3-.6c-2 .1-3.9 1-5.2 2.4a1 1 0 1 1-1.6-1.2c1.7-1.8 4-3 6.6-3.2a15.6 15.6 0 0 1 7.2.7h-.1c2 .8 3.9 1.6 5.6 2.5l1 .5a11.4 11.4 0 0 0 10-.4l.5-.1c.4 0 .7.2.9.5z" />
        </symbol>
        <symbol id="sport-28" viewBox="0 0 32 32">
            <path d="M26 14.5V12c0-1.3-1.2-2.4-2.5-2.4h-1.1V7.2a4.4 4.4 0 0 0-4.8-4H8.9a.8.8 0 1 0 0 1.6h8.9c1.7 0 3.1 1.1 3.1 2.4v2.4H8.5C7.2 9.6 6 10.6 6 12v2.5c-3.5.6-6 3.5-6.1 7.1v1.5c0 4 3.2 7.2 7.2 7.2h17.6c4 0 7.2-3.2 7.2-7.2v-1.5c0-3.6-2.6-6.5-6-7zM8.4 11.2h15c.5 0 .8.4.8.8v2.4H7.7V12c0-.4.3-.8.8-.8zM7.2 16h17.6c2.5 0 4.6 1.7 5.3 4H2c.7-2.3 2.8-4 5.3-4zm23.2 7.1v.1H1.6v-1.6h28.8zm-5.6 5.6H7.2a5.6 5.6 0 0 1-5.3-3.9H30c-.7 2.3-2.8 4-5.3 4z" />
        </symbol>
        <symbol id="sport-29" viewBox="0 0 32 32">
            <path d="M25.9 25.9a14.1 14.1 0 0 0-10-24.2 14.2 14.2 0 1 0 4.8 27.5h-.1a14 14 0 0 0 5.3-3.3zm-5.7 1.3l-3.3-.7v-3.7l5-3.8 3.7 1.3-.8 3.8-.3.4a11.9 11.9 0 0 1-4.2 2.7h-.1zM9.6 17.1l-3.8 1.2L4 14.8c.2-2.1 1-4 2.1-5.7L9 8l2.3 3.2zm3.6-5.2h5.6l1.7 5.7L16 21l-4.5-3.4zM22.8 8l3.5 1.9c1 1.6 1.6 3.5 1.6 5.6l-1.6 2.9-3.8-1.3-1.9-6zM19 4.4l2.2 2.4L19 10h-6l-2.2-3L14 4.1a11.8 11.8 0 0 1 5 .2zM6.7 23.5l-.3-3.3L10 19l4.9 3.8v3.6l-4 .5a12 12 0 0 1-3.5-2.4l-.7-1z" />
        </symbol>
        <symbol id="sport-30" viewBox="0 0 100 100">
            <path d="M83.953 26.936c-8.407 0-15.307 6.546-15.98 14.84-.25-.012-.492-.037-.743-.037-.252 0-.495.024-.742.035-.672-8.294-7.574-14.84-15.98-14.84-8.407 0-15.31 6.547-15.982 14.84-.248-.012-.492-.038-.742-.038-.593 0-1.176.037-1.753.1-.64-8.324-7.557-14.902-15.983-14.902C7.2 26.935 0 34.188 0 43.1c0 8.91 7.2 16.16 16.047 16.16.594 0 1.176-.033 1.753-.097.642 8.322 7.558 14.902 15.984 14.902 8.405 0 15.308-6.547 15.98-14.838.248.01.49.036.743.036.25 0 .494-.03.743-.036.67 8.295 7.573 14.838 15.98 14.838 8.406 0 15.308-6.547 15.98-14.838.248.01.49.036.743.036C92.8 59.263 100 52.01 100 43.1c0-8.91-7.2-16.164-16.047-16.164zM2.703 43.1c0-7.412 5.986-13.44 13.344-13.44 7.117 0 12.933 5.642 13.308 12.718-6.24 1.81-10.93 7.328-11.544 14.03-.578.082-1.164.135-1.764.135C8.688 56.54 2.703 50.51 2.703 43.1zm26.494 2.196c-.79 4.816-4.123 8.763-8.565 10.41.792-4.815 4.123-8.765 8.565-10.41zm4.587 26.047c-7.116 0-12.933-5.643-13.308-12.72 6.24-1.81 10.93-7.33 11.544-14.03.58-.08 1.165-.135 1.765-.135.25 0 .497.026.746.034.61 7.102 5.785 12.898 12.55 14.384-.502 6.96-6.266 12.467-13.296 12.467zm3.52-26.394c5.077 1.403 8.946 5.75 9.682 11.1-5.077-1.404-8.945-5.75-9.682-11.1zM49.76 56.502c-.607-7.1-5.783-12.896-12.548-14.386.503-6.953 6.265-12.458 13.296-12.458 7.03 0 12.793 5.506 13.297 12.457-6.764 1.492-11.94 7.287-12.548 14.386-.25.013-.493.036-.746.036-.252 0-.5-.025-.75-.037zm13.95-11.554c-.736 5.354-4.605 9.697-9.683 11.1.737-5.35 4.607-9.697 9.684-11.1zm3.52 26.393c-7.03 0-12.794-5.506-13.296-12.46C60.7 57.394 65.874 51.6 66.482 44.5c.25-.013.494-.034.746-.034.253 0 .498.026.748.034.606 7.102 5.782 12.898 12.547 14.384-.5 6.953-6.264 12.46-13.293 12.46zm3.52-26.394c5.076 1.403 8.945 5.75 9.68 11.1-5.073-1.404-8.944-5.75-9.68-11.1zm13.203 11.59c-.252 0-.498-.025-.746-.035-.608-7.1-5.783-12.895-12.55-14.385.504-6.953 6.266-12.46 13.297-12.46 7.357 0 13.345 6.03 13.345 13.442 0 7.408-5.99 13.44-13.347 13.44z" />
        </symbol>
        <symbol id="sport-31" viewBox="0 0 32 32">
            <path d="M30 18.8l-.8-7.8.4-.4-8-8-.4.5-7.7-.8L6.3 17l-2.5 2.4A6.2 6.2 0 0 0 8.2 30c1.8 0 3.3-.7 4.5-1.8l1.7-1.8zm-2.2-1.2L14 24.4l-1.3-1.3 14.6-10.7zM24.2 8l2.4 2.4-15.3 11.3-.7-.7L21.8 5.7zm-9.5-3.5l5.2.5L9 19.5l-1.3-1.3zm-3.4 22.3a4.3 4.3 0 0 1-6 0 4.2 4.2 0 0 1 0-6l1-1.2 6 6z" />
        </symbol>
        <symbol id="sport-34" viewBox="0 0 32 32">
            <path d="M31.4 26.2c-1.3-.8-2.8-1.3-4.5-1.5A14 14 0 0 0 6 6L6 6l-.1.2a14 14 0 0 0-2.3 15.8V22a1 1 0 1 0 1.7-.9 11.8 11.8 0 0 1 0-10.5v.4c0 5.3 3.2 9.8 7.8 11.8h.1a1 1 0 0 0 1.2-.2c1.5-1.6 2.5-3.8 2.7-6.1a8.2 8.2 0 0 1 4.6-.8v1c0 3.4-1.6 6.4-4 8.2l-.2.3a18.8 18.8 0 0 0-16.7 0h.1a1 1 0 1 0 1 1.7c5-2.8 14.1-2.1 17.8 2.5a1 1 0 1 0 1.6-1.2L20 27a14.7 14.7 0 0 1 10.3.9l.5.1a1 1 0 0 0 .5-1.8zM24.5 7.3L25.8 9a12.4 12.4 0 0 0-13.2 0v-.3c0-1.7.5-3.2 1.3-4.6l2.1-.2a12 12 0 0 1 8.5 3.5zm-17 0c1.1-1 2.4-2 3.8-2.5h.1a9.3 9.3 0 0 0-.4 6.1v.2c.8 2.1 2.2 4 4 5.2a8.5 8.5 0 0 1-1.7 4.4c-1.9-.9-7.6-4.3-5.7-13.4zm8.6 7.4a8.3 8.3 0 0 1-3-3.6c1.7-1.3 7.5-4.6 14.5 1.5a11.2 11.2 0 0 1 .3 4.8A9.5 9.5 0 0 0 16 14.7zm7.5 1.7c1.6.8 2.8 2 3.7 3.5a12 12 0 0 1-2.8 4.4l-.1.2a25.4 25.4 0 0 0-3.9.3h.2a12 12 0 0 0 3-8.4z" />
        </symbol>
        <symbol id="sport-37" viewBox="0 0 20 20">
            <path d="M18.4 16.9l-3.5-3.5a.5.5 0 0 0-.7 0 22.9 22.9 0 0 1-2.1-6v-.1a9.5 9.5 0 0 0-2.6-4.5C8 1.5 6.9 1 5.7 1a4.8 4.8 0 0 0-3 1.6 4.8 4.8 0 0 0-1.7 3c0 1.3.5 2.5 1.8 3.9A9.5 9.5 0 0 0 7.3 12a22.7 22.7 0 0 1 6.2 2.1.5.5 0 0 0 0 .7l3.4 3.4a.5.5 0 0 0 .7 0l.8-.8a.5.5 0 0 0 0-.6zM6 7.7L7.7 6l1.2 1.3-1.5 1.5zm.6 2l-.8.7a9 9 0 0 1-1.6-1l1-1zM5.3 7L4 5.7l1.6-1.5L7 5.4zm5.7.5a5 5 0 0 1 0 .7l-.8-.8.6-.6a6.5 6.5 0 0 1 .2.7zm-1.5-.8L8.4 5.4l1-1a9 9 0 0 1 1 1.4zm0 1.4l1.5 1.4a2.3 2.3 0 0 1-.6 1 2.3 2.3 0 0 1-1 .6L8 9.7zm1.6 3.1a3.2 3.2 0 0 0 .6-.9 21.3 21.3 0 0 0 1 2.4 22.2 22.2 0 0 0-2.5-.9 3.2 3.2 0 0 0 1-.6zM8.8 3.6L7.7 4.7 6.4 3.5l1-1a6.8 6.8 0 0 1 1.4 1zM5.8 2h.1a2.5 2.5 0 0 1 .5 0l-.7.7-.6-.6a2.5 2.5 0 0 1 .6-.1zM3.3 3.4a6.8 6.8 0 0 1 .8-.7l.8.8L3.4 5l-.8-.8a6.8 6.8 0 0 1 .8-.8zM2 5.7a2.4 2.4 0 0 1 .1-.6l.6.6-.6.7a2.4 2.4 0 0 1 0-.7zm.5 1.7l1-1 1.2 1.3-1.1 1a6.7 6.7 0 0 1-1.1-1.3zm4.3 3.5l.6-.5.8.8a5 5 0 0 1-.7-.1 6.8 6.8 0 0 1-.7-.2zm7-5.5A1.6 1.6 0 1 1 15.4 7a1.6 1.6 0 0 1-1.6-1.6z" />
        </symbol>
        <symbol id="sport-40" viewBox="0 0 100 100">
            <path d="M48 30.996c0-.55.443-.996 1.01-.996h1.98c.558 0 1.01.445 1.01.996v9.008c0 .55-.443.996-1.01.996h-1.98c-.558 0-1.01-.445-1.01-.996v-9.008zm17.458 7.77c.476-.275 1.084-.114 1.367.376l.99 1.716c.28.483.12 1.096-.357 1.372l-7.802 4.504c-.476.275-1.083.114-1.366-.376l-.99-1.716c-.28-.483-.12-1.096.356-1.372l7.802-4.504zm2 19.004c.476.275.64.882.358 1.372l-.99 1.716c-.28.483-.89.652-1.368.376l-7.802-4.504c-.476-.275-.64-.882-.357-1.372l.99-1.716c.278-.483.89-.652 1.366-.376l7.802 4.504zM52 69.004c0 .55-.443.996-1.01.996h-1.98c-.558 0-1.01-.445-1.01-.996v-9.008c0-.55.443-.996 1.01-.996h1.98c.558 0 1.01.445 1.01.996v9.008zm-17.458-7.77c-.476.275-1.084.114-1.367-.376l-.99-1.716c-.28-.483-.12-1.096.357-1.372l7.802-4.504c.476-.275 1.083-.114 1.366.376l.99 1.716c.28.483.12 1.096-.356 1.372l-7.802 4.504zm-2-19.004c-.476-.275-.64-.882-.358-1.372l.99-1.716c.28-.483.89-.652 1.368-.376l7.802 4.504c.476.275.64.882.357 1.372l-.99 1.716c-.278.483-.89.652-1.366.376l-7.802-4.504z" opacity=".2" />
            <path d="M100 50c0-27.614-22.386-50-50-50S0 22.386 0 50s22.386 50 50 50 50-22.386 50-50zm-78 0c0-15.464 12.536-28 28-28 .123 0 .246 0 .37.002C65.662 22.2 78 34.66 78 50c0 15.464-12.536 28-28 28S22 65.464 22 50z" />
            <path d="M50.5 73C62.926 73 73 62.926 73 50.5S62.926 28 50.5 28 28 38.074 28 50.5 38.074 73 50.5 73zm0 2C36.97 75 26 64.03 26 50.5S36.97 26 50.5 26 75 36.97 75 50.5 64.03 75 50.5 75z" opacity=".2" />
            <path d="M50 52c1.105 0 2-.895 2-2s-.895-2-2-2-2 .895-2 2 .895 2 2 2zm0 6c-4.418 0-8-3.582-8-8s3.582-8 8-8 8 3.582 8 8-3.582 8-8 8z" />
        </symbol>
        <symbol id="sport-60" viewBox="0 0 20 20">
            <path d="M20 17.6a.5.5 0 0 1-.5.3.5.5 0 0 1-.3-.1c-1.7-1.1-5.3-1.1-7-.5a8.8 8.8 0 0 1 1 .9.5.5 0 0 1-.1.7.5.5 0 0 1-.3.1.5.5 0 0 1-.4-.2A9.7 9.7 0 0 0 .7 16.5a.5.5 0 1 1-.4-.9 11 11 0 0 1 11.1 1 7.6 7.6 0 0 1 2.9-.7.5.5 0 0 1 0-.4l2.3-3.3a.6.6 0 0 1 .5-.3.6.6 0 0 1 .3 0l.3.2a7.7 7.7 0 0 0 0-4.1l-.4.1a.8.8 0 0 1-.3 0 .6.6 0 0 1-.5-.2l-2.3-3.2a.6.6 0 0 1 0-.8l.3-.5a8 8 0 0 0-4-1.4v.5a.6.6 0 0 1-.5.6L6.2 4.3a.8.8 0 0 1-.2 0 .6.6 0 0 1-.5-.2l-.3-.5a8 8 0 0 0-2.7 3.7l.5.1a.7.7 0 0 1 .5.6v4a.6.6 0 0 1-.4.6l-.6.2.2.6a.5.5 0 0 1-.9.4A9 9 0 0 1 1 10a9 9 0 1 1 15.7 6 7.5 7.5 0 0 1 3 1 .5.5 0 0 1 .2.6zM7.3 12l3.3 1a.3.3 0 0 0 .1 0 .3.3 0 0 0 .2 0l2.1-2.9a.5.5 0 0 0 0-.2.5.5 0 0 0 0-.2L11.8 8 11 7a.3.3 0 0 0-.2-.2.3.3 0 0 0-.1 0L7.4 8a.3.3 0 0 0-.2.3v3.5a.3.3 0 0 0 .2.3z" />
        </symbol>
        <symbol id="sport-61" viewBox="0 0 32 32">
            <path d="M16 2a14 14 0 1 0 14 14A14 14 0 0 0 16 2zm8.9 22h-.6c-.8 0-1.5.6-1.5 1.3l.1.5a11.8 11.8 0 0 1-13.8 0v-.5c0-.7-.6-1.4-1.3-1.4-.3 0-.5 0-.7.2a11.9 11.9 0 0 1 0-16.2l.7.2c.7 0 1.4-.7 1.4-1.4L9 6.2a11.8 11.8 0 0 1 13.9 0l-.2.4a1.4 1.4 0 0 0 2 1.3 11.9 11.9 0 0 1 0 16.2zM8.8 9.8a1.4 1.4 0 1 1 1.4 1.5c-.8 0-1.4-.7-1.4-1.5zm2.8 2.7a1.4 1.4 0 1 1-1.5 1.4c0-.8.7-1.4 1.5-1.4zm0 9.9a1.4 1.4 0 1 1-1.4-1.4c.8 0 1.4.6 1.4 1.4zm1.5-4a1.4 1.4 0 1 1-1.4-1.5c.8 0 1.4.7 1.4 1.4zm10.2-8.6a1.4 1.4 0 1 1-1.5-1.4c.8 0 1.5.7 1.5 1.4zM19 13.8a1.4 1.4 0 1 1 1.5 1.4c-.8 0-1.5-.6-1.5-1.4zm4.2 8.5a1.4 1.4 0 1 1-1.4-1.4c.8 0 1.4.6 1.4 1.4zm-2.9-2.6a1.4 1.4 0 1 1 1.5-1.5c0 .8-.7 1.5-1.5 1.5z" />
        </symbol>
        <symbol id="sport-101" viewBox="0 0 100 100">
            <path fill-rule="nonzero" d="M100 50c0 27.614-22.386 50-50 50S0 77.614 0 50 22.386 0 50 0s50 22.386 50 50zm-87 0c0 20.435 16.565 37 37 37s37-16.565 37-37c0-20.272-16.303-36.736-36.513-36.997C50.325 13 50.163 13 50 13c-20.435 0-37 16.565-37 37zm25.686 11.314c-6.248-6.25-6.248-16.38 0-22.628 6.25-6.248 16.38-6.248 22.628 0 6.248 6.25 6.248 16.38 0 22.628-6.25 6.248-16.38 6.248-22.628 0z" />
            <path d="M67.03 56.993c-1.12.05-2.03-.815-2.03-1.937V44.944c0-1.12.903-1.99 2.03-1.937l17.94.826c1.12.05 2.03 1.006 2.03 2.126v8.08c0 1.123-.903 2.075-2.03 2.127l-17.94.826zM43.006 66.99c-.05-1.1.794-1.99 1.908-1.99h10.172c1.104 0 1.96.89 1.91 1.99l-.83 18.02c-.05 1.1-.985 1.99-2.098 1.99h-8.136c-1.108 0-2.047-.89-2.097-1.99l-.83-18.02zM32.97 43.008c1.12-.05 2.03.815 2.03 1.937v10.112c0 1.12-.903 1.99-2.03 1.937l-17.94-.826C13.91 56.117 13 55.16 13 54.04v-8.08c0-1.123.903-2.075 2.03-2.127l17.94-.826z" opacity=".4" />
        </symbol>
        <symbol id="sport-129" viewBox="0 0 100 100">
            <path d="M58.98 27.587l2.898.776-15.53 57.956-2.897-.778" />
            <path d="M58.98 27.587l40.57 10.87-.777 2.898-40.57-10.87m-6.21 23.182l37.67 10.094-.776 2.9-37.67-10.094" />
            <path d="M61.1 31.26l5.797 1.554-1.553 5.796-5.795-1.553m13.143-2.69l5.795 1.553-1.553 5.796-5.795-1.553m13.144-2.69l5.795 1.553-1.555 5.795-5.795-1.55m-17.386-4.66l5.796 1.553-1.553 5.795-5.796-1.553" />
            <path d="M76.935 41.716l5.796 1.552-1.55 5.796-5.797-1.553m13.143-2.69l5.796 1.554-1.553 5.796-5.798-1.553" />
            <path d="M66.897 32.814l5.796 1.553-1.553 5.796-5.796-1.553m13.144-2.69l5.796 1.553-1.553 5.795-5.794-1.552m13.144-2.69l5.795 1.553-1.553 5.793-5.796-1.553M59.55 37.057l5.794 1.553-1.553 5.795-5.793-1.553m13.143-2.69l5.795 1.554-1.553 5.795-5.795-1.55m13.143-2.692l5.796 1.553-1.553 5.798-5.795-1.553" opacity=".3" />
            <path d="M57.996 42.852l5.795 1.553-1.55 5.795-5.795-1.552m13.142-2.69l5.795 1.553-1.553 5.798-5.797-1.553m13.145-2.69l5.795 1.552-1.553 5.795-5.795-1.552" />
            <path d="M63.79 44.405l5.797 1.553-1.553 5.796-5.796-1.553m13.144-2.69l5.796 1.554-1.553 5.796-5.796-1.553m13.143-2.69l5.796 1.553-1.555 5.795-5.796-1.553" opacity=".3" />
            <path d="M62.238 50.2l5.796 1.554-1.553 5.795-5.794-1.555m13.144-2.688l5.795 1.553-1.553 5.795-5.796-1.553m13.144-2.69l5.796 1.553-1.553 5.796-5.795-1.55" />
            <path d="M56.443 48.648l5.795 1.553-1.553 5.797-5.795-1.553m13.144-2.69l5.795 1.553-1.555 5.795-5.795-1.553m13.145-2.69l5.795 1.552-1.552 5.796-5.796-1.553" opacity=".3" />
            <path d="M96.65 37.68l2.9.777-7.766 28.978-2.897-.776M41.02 27.586l-2.898.776 15.53 57.956 2.897-.778" />
            <path d="M41.02 27.587L.45 38.457l.777 2.898 40.57-10.87m6.21 23.182L10.338 63.76l.776 2.9 37.67-10.095" />
            <path d="M38.9 31.26l-5.797 1.554 1.553 5.796 5.795-1.553m-13.143-2.69l-5.795 1.553 1.553 5.796 5.795-1.553m-13.144-2.69L9.92 39.026l1.554 5.795 5.795-1.55m17.386-4.66l-5.796 1.553 1.553 5.795 5.796-1.553m-13.145-2.69L17.27 43.27l1.55 5.796 5.797-1.553" />
            <path d="M11.474 44.82l-5.796 1.554L7.23 52.17l5.797-1.553" />
            <path d="M33.103 32.814l-5.796 1.553 1.553 5.796 5.796-1.553m-13.144-2.69l-5.796 1.553 1.553 5.795 5.794-1.552M9.92 39.026L4.126 40.58l1.553 5.794 5.795-1.553m28.975-7.763l-5.794 1.553 1.553 5.795 5.793-1.553m-13.143-2.69l-5.795 1.554 1.553 5.795 5.795-1.55M17.27 43.268l-5.796 1.553 1.553 5.798 5.795-1.553" opacity=".3" />
            <path d="M42.004 42.852l-5.795 1.553 1.55 5.795 5.795-1.552m-13.142-2.69l-5.795 1.553 1.553 5.798 5.797-1.553m-13.145-2.69l-5.795 1.552 1.553 5.795 5.795-1.552" />
            <path d="M36.21 44.405l-5.797 1.553 1.553 5.796 5.796-1.553m-13.144-2.69l-5.796 1.554 1.553 5.796 5.796-1.553m-13.143-2.69L7.23 52.17l1.554 5.795 5.796-1.553" opacity=".3" />
            <path d="M37.762 50.2l-5.796 1.554 1.553 5.795 5.794-1.555M26.17 53.307l-5.795 1.553 1.553 5.795 5.796-1.553m-13.144-2.69l-5.796 1.553 1.553 5.796 5.795-1.55"/>
            <path d="M43.557 48.648L37.762 50.2l1.553 5.796 5.795-1.553m-13.144-2.69l-5.795 1.554 1.555 5.795 5.795-1.553m-13.145-2.69l-5.795 1.552 1.552 5.796 5.796-1.553" opacity=".3" />
            <path d="M3.35 37.68l-2.9.777 7.766 28.978 2.897-.776" />
        </symbol>
        <symbol id="sport-131" viewBox="0 0 100 100">
            <path d="M 70.004,94.68 C 61.006,91.756 53.868,85.66 49.299,77.894 l 12.1,2.133 c 3.114,2.964 6.89,5.276 11.194,6.675 9.537,3.1 19.58,1.042 27.404,-4.672 l 0,9.576 C 90.97,96.59 80.25,98.01 70.002,94.68 Z M 95.606,15.885 c -20.444,-6.642 -42.748,5.612 -49.818,27.37 -2.666,8.206 -2.784,16.59 -0.8,24.21 1.474,-8.058 6.442,-8.387 6.442,-8.387 l 0.23,0.04 c -0.337,-4.38 0.165,-8.938 1.624,-13.428 5.638,-17.352 23.426,-27.125 39.73,-21.827 2.52,0.818 4.857,1.95 6.986,3.34 l 0,-9.573 c -1.41,-0.667 -2.875,-1.25 -4.394,-1.745 z" />
            <path d="m 100,27.203 c -2.13,-1.39 -4.466,-2.522 -6.986,-3.34 -16.304,-5.298 -34.092,4.475 -39.73,21.827 -1.46,4.49 -1.96,9.045 -1.623,13.425 l 5.485,0.944 c -0.515,-4.105 -0.15,-8.44 1.24,-12.715 C 63.13,32.74 77.945,24.602 91.358,28.96 c 3.28,1.066 6.19,2.786 8.643,4.99 l 0,-6.75 z m 0,54.827 C 92.177,87.744 82.133,89.8 72.596,86.702 68.296,85.306 64.53,83 61.416,80.044 l 25.46,4.498 c 0,0 4.492,-0.02 6.808,-4.852 2.285,-1.23 4.416,-2.803 6.316,-4.68 l 0,7.02 z" style="opacity: 0.2;" />
            <path d="m 52.834,61.666 31.862,5.556 c 0,0 -3.054,2.578 -3.515,7.454 -0.46,4.877 1.705,7.48 1.705,7.48 l -32.64,-5.798 c 0,0 -4.197,-1.595 -3.057,-8.06 1.14,-6.465 5.648,-6.632 5.648,-6.632 z" />
            <path d="m 92.713,72.777 c -0.262,-2.696 -1.556,-4.772 -3.428,-5.102 -2.535,-0.447 -5.17,2.48 -5.886,6.536 -0.72,4.06 0.76,7.71 3.293,8.16 1.87,0.33 3.797,-1.18 4.965,-3.623 l 8.326,1.47 0.013,-6.17 -7.288,-1.268 z" />
            <path d="m 80.633,61.97 c 3.407,1.106 7.17,-0.962 8.376,-4.672 1.202,-3.71 -0.627,-7.594 -4.034,-8.7 -3.408,-1.11 -7.17,0.96 -8.376,4.67 -1.205,3.71 0.624,7.593 4.03,8.7 z" style="opacity: 0.7;" />
            <path d="m 2.127,34.03 c 0.808,-0.755 2.078,-0.706 2.832,0.104 l 5.442,5.838 c 0.756,0.81 0.72,2.074 -0.093,2.833 C 9.5,43.558 8.23,43.509 7.475,42.7 L 2.031,36.862 C 1.274,36.05 1.311,34.787 2.124,34.029 Z M 17.13,50.117 c 0.81,-0.753 2.08,-0.704 2.833,0.105 l 5.445,5.84 c 0.756,0.81 0.72,2.073 -0.093,2.832 -0.808,0.753 -2.078,0.704 -2.833,-0.105 l -5.444,-5.84 c -0.757,-0.81 -0.72,-2.075 0.093,-2.834 z m -4.773,-5.12 c 0.808,-0.752 2.068,-0.714 2.827,0.1 0.753,0.808 0.714,2.068 -0.1,2.826 -0.807,0.754 -2.067,0.715 -2.826,-0.098 -0.753,-0.808 -0.715,-2.068 0.1,-2.827 z m 19.778,21.21 c 0.808,-0.753 2.078,-0.704 2.832,0.105 l 5.445,5.84 c 0.756,0.81 0.72,2.073 -0.093,2.832 -0.81,0.753 -2.08,0.704 -2.836,-0.105 l -5.444,-5.84 c -0.756,-0.81 -0.72,-2.075 0.094,-2.834 z m -4.774,-5.12 c 0.81,-0.753 2.07,-0.714 2.83,0.1 0.753,0.807 0.714,2.068 -0.1,2.826 -0.81,0.754 -2.07,0.715 -2.827,-0.1 -0.753,-0.806 -0.715,-2.067 0.1,-2.825 z M 47.14,82.3 c 0.807,-0.753 2.077,-0.704 2.83,0.105 l 5.446,5.838 c 0.756,0.813 0.72,2.076 -0.093,2.834 -0.808,0.754 -2.078,0.705 -2.833,-0.105 l -5.444,-5.84 c -0.757,-0.81 -0.72,-2.073 0.093,-2.832 z m -4.775,-5.12 c 0.808,-0.753 2.068,-0.714 2.826,0.1 0.757,0.807 0.718,2.067 -0.095,2.826 -0.808,0.753 -2.068,0.715 -2.827,-0.1 -0.753,-0.807 -0.715,-2.067 0.1,-2.825 z M 1.78,43.923 c 0.81,-0.753 2.08,-0.704 2.834,0.105 l 5.444,5.838 c 0.757,0.812 0.72,2.075 -0.093,2.833 -0.807,0.752 -2.077,0.703 -2.832,-0.107 L 1.688,46.754 C 0.932,45.944 0.968,44.68 1.781,43.921 Z m 10.23,10.97 c 0.81,-0.753 2.07,-0.714 2.828,0.1 0.753,0.807 0.715,2.067 -0.1,2.826 -0.807,0.75 -2.067,0.713 -2.825,-0.1 -0.754,-0.81 -0.715,-2.07 0.098,-2.828 z m 4.775,5.12 c 0.808,-0.753 2.078,-0.704 2.833,0.105 l 5.444,5.838 c 0.757,0.812 0.72,2.075 -0.093,2.833 -0.81,0.75 -2.08,0.703 -2.835,-0.107 l -5.445,-5.838 c -0.755,-0.81 -0.72,-2.074 0.094,-2.833 z m 10.23,10.97 c 0.808,-0.753 2.068,-0.715 2.827,0.1 0.753,0.807 0.715,2.067 -0.1,2.826 -0.807,0.75 -2.067,0.712 -2.825,-0.1 -0.754,-0.81 -0.715,-2.07 0.098,-2.828 z m 4.774,5.12 c 0.805,-0.754 2.075,-0.705 2.83,0.105 l 5.444,5.838 c 0.757,0.81 0.72,2.074 -0.093,2.833 -0.807,0.75 -2.077,0.702 -2.83,-0.107 l -5.445,-5.838 c -0.756,-0.812 -0.72,-2.075 0.093,-2.833 z m 10.23,10.97 c 0.805,-0.753 2.065,-0.715 2.824,0.1 0.753,0.807 0.715,2.067 -0.1,2.825 -0.807,0.754 -2.067,0.715 -2.825,-0.098 -0.754,-0.81 -0.715,-2.07 0.1,-2.828 z M 0.75,53.083 c 0.808,-0.752 2.078,-0.703 2.832,0.106 l 5.445,5.836 c 0.756,0.81 0.72,2.074 -0.093,2.833 -0.808,0.753 -2.078,0.704 -2.833,-0.105 L 0.66,55.915 c -0.756,-0.81 -0.72,-2.072 0.094,-2.83 z m 15.004,16.09 c 0.808,-0.752 2.078,-0.703 2.832,0.106 l 5.444,5.835 c 0.756,0.812 0.72,2.075 -0.093,2.833 -0.808,0.753 -2.078,0.704 -2.833,-0.106 l -5.445,-5.838 c -0.757,-0.81 -0.72,-2.074 0.093,-2.833 z m -4.774,-5.12 c 0.808,-0.752 2.068,-0.713 2.827,0.1 0.753,0.808 0.714,2.068 -0.1,2.827 -0.807,0.753 -2.067,0.715 -2.826,-0.1 -0.753,-0.807 -0.715,-2.067 0.1,-2.825 z m 15.004,16.09 c 0.808,-0.752 2.078,-0.703 2.832,0.106 l 5.444,5.836 c 0.756,0.81 0.72,2.074 -0.093,2.833 -0.808,0.753 -2.078,0.704 -2.833,-0.105 l -5.445,-5.84 c -0.757,-0.81 -0.72,-2.073 0.093,-2.832 z M 9.27,72.483 c 0.808,-0.75 2.078,-0.702 2.833,0.107 l 5.444,5.84 c 0.757,0.81 0.72,2.073 -0.093,2.832 -0.807,0.753 -2.077,0.704 -2.832,-0.105 L 9.177,75.317 C 8.423,74.507 8.457,73.244 9.272,72.485 Z M 19.5,83.456 c 0.808,-0.754 2.068,-0.715 2.827,0.098 0.753,0.808 0.715,2.068 -0.1,2.827 -0.806,0.756 -2.067,0.718 -2.825,-0.096 -0.754,-0.807 -0.715,-2.068 0.098,-2.826 z M 1.772,64.44 C 2.58,63.687 3.84,63.725 4.598,64.538 l 2.73,2.928 c 0.753,0.807 0.714,2.067 -0.1,2.825 -0.807,0.757 -2.067,0.72 -2.825,-0.094 L 1.673,67.269 C 0.92,66.462 0.959,65.202 1.773,64.443 Z m -1.027,9.163 c 0.808,-0.754 2.068,-0.715 2.827,0.098 0.754,0.81 0.715,2.07 -0.1,2.83 -0.806,0.753 -2.066,0.715 -2.825,-0.1 -0.753,-0.807 -0.715,-2.067 0.1,-2.825 z m 4.774,5.12 c 0.806,-0.754 2.065,-0.717 2.83,0.102 l 2.037,2.185 c 0.755,0.81 0.718,2.073 -0.095,2.832 -0.808,0.753 -2.067,0.715 -2.83,-0.104 l -2.04,-2.185 c -0.754,-0.81 -0.718,-2.072 0.096,-2.83 z" />
        </symbol>
        <symbol id="sport-188" viewBox="0 0 100 100">
            <path d="M100 90.53V100H0v-9.21c1.574-3.678 3.457-7.557 5.586-10.994C12.2 69.118 20.66 58.72 20.66 58.72s9.2-3.307 29.34-3.307 29.752 3.306 29.752 3.306 6.915 8.387 14.66 21.072C96.65 83.457 98.5 87.14 100 90.53zm0 7.327c-1.79-4.195-4.293-9.442-7.474-14.642-7.06-11.54-11.308-14.63-11.308-14.63s-12.184-2.254-31.01-2.254S19.1 68.588 19.1 68.588s-5.186 4.916-11.214 14.63C4.748 88.277 1.956 94.385 0 99.08v.92h100v-2.143z" />
            <path d="M19.1 68.586s12.283-2.256 31.11-2.256 31.01 2.256 31.01 2.256 1.393 1.02 2.035 1.713c.643.692 2.993 3.72 2.993 3.72s-13.273-1.368-36.05-1.368c-22.78 0-35.85 1.335-35.85 1.335s1.695-2.263 2.515-3.194c.82-.93 2.24-2.208 2.24-2.208z" opacity=".2" />
            <path d="M49.934 100l-13.33-28.586c-.24-.514-.833-.726-1.333-.493-.502.237-.713.834-.48 1.34L47.73 100h2.207z" opacity=".3" />
            <path d="M38 45.86v16.13c0 .558-.444 1.01-1 1.01-.552 0-1-.443-1-1.01V45.86H10.025v-8H36v-4H10.025v-4H36v-.85c0-.558.444-1.01 1-1.01.552 0 1 .443 1 1.01v.85h24v-.85c0-.558.444-1.01 1-1.01.552 0 1 .443 1 1.01v.85h26.025v4H64v4h26.025v8H64v16.13c0 .558-.444 1.01-1 1.01-.552 0-1-.443-1-1.01V45.86H38zm24-12H38v4h24v-4zm-51.975-6.963v22.206c0 .5-.398.897-.888.897H6.913c-.49 0-.888-.402-.888-.897V26.897c0-.5.397-.897.888-.897h2.224c.49 0 .888.402.888.897zm84 0v22.206c0 .5-.398.897-.888.897h-2.224c-.49 0-.888-.402-.888-.897V26.897c0-.5.397-.897.888-.897h2.224c.49 0 .888.402.888.897z" />
        </symbol>
        <symbol id="sport-190" viewBox="0 0 100 100">
            <path fill-rule="nonzero" d="M100 50c0 27.614-22.386 50-50 50S0 77.614 0 50 22.386 0 50 0s50 22.386 50 50zM9 50c0 22.644 18.356 41 41 41s41-18.356 41-41C91 27.536 72.935 9.292 50.54 9.003L50 9C27.356 9 9 27.356 9 50z" />
            <path d="M9 50C9 27.356 27.356 9 50 9c.18 0 .36 0 .54.003C72.935 9.293 91 27.536 91 50c0 22.644-18.356 41-41 41S9 72.644 9 50zm4 0c0 20.435 16.565 37 37 37s37-16.565 37-37c0-20.272-16.303-36.736-36.513-36.997C50.325 13 50.163 13 50 13c-20.435 0-37 16.565-37 37z" opacity=".2"/>
            <path d="M28.18 32h18.36l-9.18 17.57H19M37.355 49.57h13.597l-6.798 12.497H30.557M43.95 62.067H55.1l-5.573 10.738H38.377M56.443 38.833H67.59L62.016 49.57H50.87M71.098 32h7.213l-3.605 6.833h-7.213" opacity=".5" />
        </symbol>
        <symbol id="sport-191" viewBox="0 0 100 100">
            <path d="M 39.324,20.388 C 38.931,20.002 38.29,19.376 37.889,18.986 l -2.4,-2.325 c -1.033,-1 -1.677,-1.6 -1.677,-1.6 -0.403,-0.38 -0.38,-0.98 0.042,-1.33 l 0.697,-0.583 c 0.426,-0.355 0.415,-0.902 -0.038,-1.233 L 29.852,8.51 c -0.446,-0.325 -1.167,-0.314 -1.6,0.024 0,0 -4.078,3.02 -10.108,9.072 C 12.114,23.658 9.078,27.7 9.078,27.7 8.738,28.136 8.722,28.845 9.05,29.3 l 3.38,4.696 c 0.325,0.45 0.867,0.463 1.21,0.033 l 0.595,-0.746 c 0.344,-0.43 0.925,-0.446 1.295,-0.038 0,0 0.626,0.704 1.638,1.766 l 2.372,2.49 c 0.385,0.403 1.018,1.055 1.397,1.437 l 5.256,5.31 c 0.387,0.39 1.014,1.04 1.387,1.436 L 45.2,64.383 c 0.378,0.403 0.906,1.112 1.186,1.596 l 6.11,10.6 c 0.276,0.48 0.898,0.66 1.382,0.41 l 1.958,-1.01 c 0.487,-0.25 1.122,-0.08 1.424,0.39 l 2.934,4.58 c 0.3,0.468 0.776,1.235 1.084,1.684 0,0 0.89,1.887 4.923,4.628 4.036,2.74 6.16,2.714 6.16,2.714 0.55,0.075 1.44,0.06 1.97,-0.096 0,0 0.563,-0.155 1.73,-0.804 2.09,-1.164 4.593,-3.13 7.483,-6.02 2.89,-2.89 4.856,-5.392 6.02,-7.482 0.646,-1.158 0.97,-2.034 1.078,-2.655 0,0 -0.98,-4.425 -2.823,-7.136 -1.844,-2.712 -4.77,-4.92 -4.77,-4.92 -0.42,-0.34 -1.14,-0.847 -1.62,-1.143 l -4.645,-2.87 c -0.473,-0.292 -0.665,-0.942 -0.438,-1.432 l 0.727,-1.563 c 0.23,-0.5 0.036,-1.122 -0.45,-1.4 L 65.985,46.38 c -0.48,-0.275 -1.194,-0.818 -1.58,-1.2 L 46.215,27.172 c -0.393,-0.388 -1.025,-1.01 -1.42,-1.403 l -5.47,-5.383 z m 39.155,71.2 c -2.73,1.112 -4.59,1.203 -4.59,1.203 -1.08,0.198 -2.86,0.24 -3.968,0.15 l -0.25,-0.02 c -1.1,-0.085 -1.24,0.305 -0.3,0.873 0,0 1.133,1.527 6.16,0.706 1.805,-0.296 3.892,-1.026 6.232,-2.465 l -3.286,-0.447 z m 13.467,-13.61 0.498,3.66 c 5.915,-8.613 1.83,-12.753 1.83,-12.753 -0.514,-0.977 -0.928,-0.81 -0.804,0.286 l -0.073,-0.654 c 0.123,1.097 0.1,2.865 -0.054,3.95 0,0 -0.12,2.33 -1.396,5.514 z M 53.305,24.46 82.435,53.03 c 1.092,-0.327 2.322,-0.06 3.182,0.8 l 8.822,8.82 c 0.945,0.948 1.17,2.345 0.68,3.513 0.76,1.076 1.414,2.166 1.792,3.126 0,0 6.453,5.29 -7.7,19.44 -14.152,14.154 -19.46,7.696 -19.46,7.696 -0.893,-0.45 -1.946,-1.1 -3.003,-1.833 -1.19,0.55 -2.64,0.34 -3.617,-0.636 l -8.822,-8.822 c -0.86,-0.86 -1.123,-2.09 -0.8,-3.182 l -28.543,-29.1 c -1.117,0.37 -2.394,0.115 -3.28,-0.77 l -8.82,-8.822 c -0.94,-0.94 -1.17,-2.32 -0.694,-3.483 -1.544,-1.62 -3.283,-3.486 -4.47,-4.803 L 4.11,30.98 C 2.42,29.102 2.202,25.864 3.68,23.8 l 6.327,-7.78 c 1.746,-1.844 4.637,-4.777 6.508,-6.51 L 24.3,3.183 c 2.08,-1.446 5.31,-1.287 7.235,0.39 l 3.992,3.564 c 1.297,1.227 3.15,3.005 4.766,4.57 1.144,-0.43 2.48,-0.187 3.396,0.73 l 8.82,8.822 c 0.864,0.863 1.127,2.1 0.794,3.2 z M 88.45,88.02 c 1.197,-1.2 1.834,-2.506 1.42,-2.92 -0.412,-0.412 -1.72,0.225 -2.92,1.424 -1.197,1.2 -1.834,2.506 -1.42,2.92 0.412,0.412 1.72,-0.226 2.92,-1.425 z" />
            <path d="M 17.5,32.092 C 17.12,31.694 17.09,31.02 17.44,30.584 l 5.668,-6.373 c 0.384,-0.387 1.014,-1.02 1.403,-1.4 l 6.73,-6.013 c 0.428,-0.345 1.087,-0.315 1.48,0.075 l 10.785,10.654 c 0.39,0.386 0.365,0.978 -0.064,1.33 l -6.782,6.106 c -0.39,0.384 -1.018,1.01 -1.41,1.41 l -5.965,6.64 c -0.346,0.425 -0.93,0.45 -1.314,0.05 L 17.5,32.09 Z" style="opacity: 0.3;" />
            <path d="m 10.738,29.32 c -0.33,-0.448 -0.305,-1.154 0.05,-1.568 l 7.542,-8.416 c 0.387,-0.394 1.02,-1.03 1.41,-1.41 l 8.304,-7.433 c 0.42,-0.356 1.126,-0.374 1.57,-0.048 l 2.69,1.98 c 0.448,0.33 0.475,0.88 0.038,1.243 l -9.03,7.938 c -0.396,0.385 -1.03,1.017 -1.413,1.412 l -7.94,9.03 c -0.356,0.428 -0.916,0.407 -1.24,-0.037 l -1.983,-2.69 z" style="opacity: 0.8;" />
            <path d="m 48.856,65.233 c -0.26,-0.486 -0.068,-1.06 0.422,-1.307 l 7.506,-5.728 c 0.39,-0.384 1.022,-1.012 1.403,-1.403 l 5.853,-7.642 c 0.246,-0.497 0.828,-0.682 1.306,-0.41 l 8.38,4.773 c 0.475,0.27 0.653,0.884 0.39,1.363 L 66.63,65.224 c -0.385,0.396 -1.016,1.032 -1.416,1.416 l -10.4,7.54 c -0.487,0.266 -1.092,0.09 -1.355,-0.4 l -4.605,-8.55 z" />
        </symbol>
    </defs>
</svg>
