<svg xmlns="http://www.w3.org/2000/svg">
    <defs>
        <symbol id="arrow-right" viewBox="0 0 1024 1024">
            <path d="M340.864 149.312a30.592 30.592 0 0 0 0 42.752L652.736 512 340.864 831.872a30.592 30.592 0 0 0 0 42.752 29.12 29.12 0 0 0 41.728 0L714.24 534.336a32 32 0 0 0 0-44.672L382.592 149.376a29.12 29.12 0 0 0-41.728 0z"/>
        </symbol>
        <symbol id="close" viewBox="0 0 1024 1024">
            <path d="M764.288 214.592 512 466.88 259.712 214.592a31.936 31.936 0 0 0-45.12 45.12L466.752 512 214.528 764.224a31.936 31.936 0 1 0 45.12 45.184L512 557.184l252.288 252.288a31.936 31.936 0 0 0 45.12-45.12L557.12 512.064l252.288-252.352a31.936 31.936 0 1 0-45.12-45.184z"/>
        </symbol>
        <symbol id="check" viewBox="0 0 1024 1024">
            <path d="M512 1017.6C233.6 1017.6 7.2 790.4 7.2 512S233.6 6.4 512 6.4s505.6 226.4 505.6 505.6-226.4 505.6-505.6 505.6zM512 54.4C260 54.4 55.2 260 55.2 512s204.8 457.6 457.6 457.6 457.6-204.8 457.6-457.6S764.8 54.4 512 54.4z m-31.2 652s-0.8 0 0 0h-5.6v-0.8H472l-1.6-0.8c-0.8 0-0.8 0-1.6-0.8h-1.6l-0.8-0.8-2.4-0.8-1.6-1.6-202.4-170.4c-4.8-4-8-9.6-8.8-16-0.8-6.4 1.6-12.8 5.6-17.6 4.8-5.6 11.2-8.8 18.4-8.8 5.6 0 11.2 2.4 15.2 5.6l185.6 156.8 296.8-296.8c4.8-4.8 10.4-7.2 16.8-7.2s12.8 2.4 16.8 7.2c4.8 4.8 7.2 10.4 7.2 16.8s-2.4 12.8-7.2 16.8l-312 312-2.4 1.6-0.8 0.8c-0.8 0.8-1.6 0.8-2.4 1.6 0 0.8 0 0.8-0.8 0.8l-0.8 0.8c-0.8 0-2.4 0.8-2.4 0.8-0.8 0-0.8 0-1.6 0.8H480.8z" />
        </symbol>
        <symbol id="file-times" viewBox="0 0 32 32">
            <path d="M26.731 9.902c-0.005-0.035-0.011-0.066-0.019-0.095l0.001 0.005c-0.031-0.134-0.094-0.249-0.182-0.342l0 0-8-8c-0.092-0.087-0.207-0.15-0.335-0.181l-0.005-0.001c-0.027-0.008-0.059-0.014-0.092-0.019l-0.003-0c-0.026-0.007-0.059-0.014-0.092-0.019l-0.004-0h-12c-0.414 0-0.75 0.336-0.75 0.75v0 28c0 0.414 0.336 0.75 0.75 0.75h20c0.414-0 0.75-0.336 0.75-0.75v0-20c-0.005-0.038-0.012-0.071-0.020-0.103l0.001 0.005zM24.189 9.25h-5.439v-5.439zM6.75 29.25v-26.5h10.5v7.25c0 0.414 0.336 0.75 0.75 0.75h7.25v18.5zM20.066 15.935c-0.136-0.136-0.324-0.22-0.531-0.22s-0.395 0.084-0.531 0.22v0l-3.004 3.004-3.005-3.004c-0.136-0.141-0.327-0.228-0.538-0.228-0.414 0-0.75 0.336-0.75 0.75 0 0.211 0.087 0.402 0.228 0.538l3.004 3.005-3.004 3.004c-0.136 0.136-0.22 0.324-0.22 0.531 0 0.415 0.336 0.751 0.751 0.751 0.207 0 0.395-0.084 0.53-0.219v0l3.005-3.005 3.004 3.005c0.136 0.136 0.324 0.22 0.531 0.22 0.415 0 0.751-0.336 0.751-0.751 0-0.207-0.084-0.395-0.22-0.531l-3.005-3.004 3.005-3.005c0.135-0.136 0.218-0.323 0.218-0.53s-0.083-0.394-0.218-0.53l0 0z"/>
        </symbol>
        <symbol id="dollar" viewBox="0 0 24 24">
           <path d="M12,21.953c-.895,0-1.545-.743-2.118-1.4a3.671,3.671,0,0,0-1.033-.946,3.8,3.8,0,0,0-1.466-.077,3.012,3.012,0,0,1-2.421-.494,3.014,3.014,0,0,1-.494-2.421,3.82,3.82,0,0,0-.077-1.466,3.671,3.671,0,0,0-.946-1.033c-.655-.573-1.4-1.222-1.4-2.118s.743-1.545,1.4-2.118a3.66,3.66,0,0,0,.946-1.034,3.815,3.815,0,0,0,.077-1.465,3.012,3.012,0,0,1,.494-2.421,3.015,3.015,0,0,1,2.422-.5A3.794,3.794,0,0,0,8.849,4.39a3.666,3.666,0,0,0,1.033-.945c.573-.655,1.223-1.4,2.118-1.4s1.545.742,2.118,1.4a3.66,3.66,0,0,0,1.034.946,3.807,3.807,0,0,0,1.464.077,3.018,3.018,0,0,1,2.422.5,3.012,3.012,0,0,1,.5,2.422,3.81,3.81,0,0,0,.077,1.464,3.66,3.66,0,0,0,.946,1.034c.655.573,1.4,1.223,1.4,2.118s-.743,1.545-1.4,2.118a3.666,3.666,0,0,0-.945,1.033,3.815,3.815,0,0,0-.077,1.465,3.012,3.012,0,0,1-.5,2.422,3.018,3.018,0,0,1-2.421.494,3.818,3.818,0,0,0-1.465.077,3.673,3.673,0,0,0-1.034.946C13.545,21.21,12.9,21.953,12,21.953ZM8.093,18.5a2.952,2.952,0,0,1,1.138.183,4.233,4.233,0,0,1,1.4,1.21c.454.52.924,1.057,1.365,1.057s.911-.537,1.366-1.057a4.225,4.225,0,0,1,1.4-1.21,4.365,4.365,0,0,1,1.908-.152c.672.041,1.366.085,1.653-.2s.245-.982.2-1.653a4.387,4.387,0,0,1,.152-1.909,4.241,4.241,0,0,1,1.209-1.4c.52-.454,1.057-.924,1.057-1.365s-.537-.911-1.057-1.365a4.234,4.234,0,0,1-1.209-1.4,4.381,4.381,0,0,1-.152-1.908c.041-.671.084-1.365-.2-1.653s-.982-.246-1.653-.2a4.384,4.384,0,0,1-1.908-.152,4.234,4.234,0,0,1-1.4-1.209c-.454-.52-.924-1.057-1.365-1.057s-.911.537-1.365,1.057a4.241,4.241,0,0,1-1.4,1.209,4.417,4.417,0,0,1-1.909.152c-.67-.041-1.364-.084-1.653.2s-.244.981-.2,1.652A4.37,4.37,0,0,1,5.314,9.23a4.226,4.226,0,0,1-1.21,1.4c-.52.454-1.057.925-1.057,1.365s.537.911,1.057,1.366a4.238,4.238,0,0,1,1.21,1.4,4.378,4.378,0,0,1,.152,1.91c-.041.672-.084,1.366.2,1.653s.98.245,1.653.2C7.578,18.519,7.838,18.5,8.093,18.5Z"/>
           <path d="M14.5,13.5a2.006,2.006,0,0,1-2,2v1.01A.5.5,0,0,1,12,17a.492.492,0,0,1-.5-.49V15.5h-1.25a.5.5,0,0,1-.5-.5.5.5,0,0,1,.5-.5H12.5a1,1,0,1,0,0-2h-1a2,2,0,0,1,0-4V7.453A.473.473,0,0,1,12,7a.48.48,0,0,1,.5.45V8.5h1.25a.5.5,0,0,1,.5.5.508.508,0,0,1-.5.5H11.5a1,1,0,0,0,0,2h1A2,2,0,0,1,14.5,13.5Z"/>
        </symbol>
        <symbol id="print" viewBox="0 0 32 32">
            <path d="M30 14.25h-3.25v-8.25c0-0 0-0.001 0-0.001 0-0.206-0.084-0.393-0.219-0.529v0l-4-4c-0.136-0.136-0.324-0.22-0.531-0.22-0 0-0 0-0 0h-17c-0.414 0-0.75 0.336-0.75 0.75v0 12.25h-2.25c-0.414 0-0.75 0.336-0.75 0.75v0 9c0 0.414 0.336 0.75 0.75 0.75s0.75-0.336 0.75-0.75v0-8.25h26.5v8.25c0 0.414 0.336 0.75 0.75 0.75s0.75-0.336 0.75-0.75v0-9c-0-0.414-0.336-0.75-0.75-0.75v0zM5.75 2.75h15.939l3.561 3.561v7.939h-19.5zM26 21.25h-20c-0.414 0-0.75 0.336-0.75 0.75v0 8c0 0.414 0.336 0.75 0.75 0.75h20c0.414-0 0.75-0.336 0.75-0.75v0-8c-0-0.414-0.336-0.75-0.75-0.75v0zM25.25 29.25h-18.5v-6.5h18.5zM26.279 19.199c0.178-0.099 0.322-0.242 0.417-0.415l0.003-0.005c0.027-0.067 0.043-0.145 0.043-0.227 0-0.018-0.001-0.037-0.002-0.054l0 0.002c-0.004-0.21-0.087-0.399-0.221-0.54l0 0c-0.142-0.122-0.327-0.196-0.53-0.196s-0.389 0.074-0.531 0.196l0.001-0.001c-0.122 0.145-0.197 0.334-0.199 0.54v0c-0.001 0.011-0.001 0.024-0.001 0.037 0 0.189 0.077 0.359 0.2 0.483v0c0.132 0.136 0.317 0.221 0.521 0.221 0.007 0 0.014-0 0.021-0l-0.001 0c0.016 0.001 0.034 0.002 0.052 0.002 0.082 0 0.16-0.016 0.231-0.045l-0.004 0.001z"/>
        </symbol>
    </defs>
</svg>
