<svg xmlns="http://www.w3.org/2000/svg">
    <defs>
        <symbol id="clock" viewBox="0 0 1024 1024">
            <path fill="currentColor" d="M512 896a384 384 0 1 0 0-768 384 384 0 0 0 0 768zm0 64a448 448 0 1 1 0-896 448 448 0 0 1 0 896z"/>
            <path fill="currentColor" d="M480 256a32 32 0 0 1 32 32v256a32 32 0 0 1-64 0V288a32 32 0 0 1 32-32z"/>
            <path fill="currentColor" d="M480 512h256q32 0 32 32t-32 32H480q-32 0-32-32t32-32z" />
        </symbol>
        <symbol id="icon-1" fill="currentColor" viewBox="0 0 504 504">
		    <path d="M252,0C113.052,0,0,113.048,0,252s113.052,252,252,252c138.952,0,252-113.048,252-252S390.952,0,252,0z M263.812,71.804    L346.38,44.1c28.336,12.908,53.596,31.392,74.324,54.112l-0.156,87.852l-73.26,17.74l-83.476-60.652V71.804z M157.068,44.348    l83.12,27.504v71.3l-83.476,60.652L83.96,186.072l-0.164-82.904c0-1.528-0.46-2.944-1.22-4.152    C103.3,76.076,128.632,57.4,157.068,44.348z M53.02,363.908c-14.788-26.188-24.576-55.544-28.004-86.804L76.712,208.6    l72.812,17.748l31.832,97.964l-45.584,66.868L53.02,363.908z M295.864,476.24c-14.204,2.776-28.852,4.212-43.86,4.212    c-16.62,0.004-32.82-1.888-48.436-5.28l-48.772-69.736l45.704-66.812h102.924l41.416,66.668L295.864,476.24z M363.972,391.108    l-41.34-66.764l31.844-98l73.32-17.752l51.32,67.488c-3.264,31.016-12.772,60.184-27.224,86.256L363.972,391.108z"/>
        </symbol>
        <symbol id="info" viewBox="0 0 24 24" fill="none">
            <path d="M12 7.01001V7.00002M12 17L12 10M21 12C21 16.9706 16.9706 21 12 21C7.02944 21 3 16.9706 3 12C3 7.02944 7.02944 3 12 3C16.9706 3 21 7.02944 21 12Z" stroke="currentColor" stroke-width="1.5" stroke-linecap="round" stroke-linejoin="round"/>
        </symbol>
        <symbol id="calculate" viewBox="0 0 32 32">
            <path d="M8.536 10.136h14.928v-4.265h-14.928v4.265zM9.602 6.937h12.795v2.132h-12.795v-2.133z" />
            <path d="M23.464 3.205h-14.928c-1.178 0-2.133 0.955-2.133 2.133v21.325c0 1.178 0.955 2.133 2.133 2.133h14.928c1.178 0 2.133-0.955 2.133-2.133v-21.325c0-1.178-0.955-2.132-2.133-2.132zM24.53 26.663c0 0.588-0.478 1.066-1.066 1.066h-14.928c-0.588 0-1.066-0.478-1.066-1.066v-21.325c0-0.587 0.479-1.066 1.066-1.066h14.928c0.588 0 1.066 0.479 1.066 1.066v21.325z" />
            <path d="M9.602 14.934v-3.199h-1.066v4.265h4.265v-1.066h-1.066z" />
            <path d="M9.602 20.265v-3.199h-1.066v4.265h4.265v-1.066h-1.066z" />
            <path d="M9.602 25.596v-3.199h-1.066v4.265h4.265v-1.066h-1.066z" />
            <path d="M14.934 14.934v-3.199h-1.066v4.265h4.265v-1.066h-1.066z" />
            <path d="M20.265 14.934v-3.199h-1.066v4.265h4.265v-1.066h-1.066z" />
            <path d="M14.934 20.265v-3.199h-1.066v4.265h4.265v-1.066h-1.066z" />
            <path d="M14.934 25.596v-3.199h-1.066v4.265h4.265v-1.066h-1.066z" />
            <path d="M20.265 25.596v-8.53h-1.066v9.596h4.265v-1.066h-1.066z" />
        </symbol>
        <symbol id="save" viewBox="0 0 64 64" stroke-width="3" stroke="currentColor" fill="none">
            <path d="M51,53.48H10.52V13A2.48,2.48,0,0,1,13,10.52H46.07l7.41,6.4V51A2.48,2.48,0,0,1,51,53.48Z" stroke-linecap="round"/>
            <rect x="21.5" y="10.52" width="21.01" height="15.5" stroke-linecap="round"/>
            <rect x="17.86" y="36.46" width="28.28" height="17.02" stroke-linecap="round"/>
        </symbol>
        <symbol id="diagram" viewBox="0 0 24 24" fill="none">
            <path d="M2 2V19C2 20.66 3.34 22 5 22H22" stroke="currentColor" stroke-width="1.5" stroke-miterlimit="10" stroke-linecap="round" stroke-linejoin="round"/>
            <path d="M5 17L9.59 11.64C10.35 10.76 11.7 10.7 12.52 11.53L13.47 12.48C14.29 13.3 15.64 13.25 16.4 12.37L21 7" stroke="currentColor" stroke-width="1.5" stroke-miterlimit="10" stroke-linecap="round" stroke-linejoin="round"/>
        </symbol>
        <symbol id="settings" viewBox="0 0 1024 1024">
            <path d="M953.34 438.431H820.715c-13.219 0-24.771-8.566-28.833-21.056a287.154 287.154 0 00-15.044-37.243c-5.623-11.608-3.402-25.507 5.785-34.725l93.467-93.457c3.603-3.606 3.603-9.45.007-13.049l-91.012-91.002c-3.593-3.596-9.428-3.596-13.028.006l-93.137 93.137c-9.235 9.235-23.241 11.437-34.893 5.702a286.77 286.77 0 00-37.487-15.314c-12.449-4.069-20.97-15.623-20.97-28.808V70.661a9.221 9.221 0 00-9.22-9.22H447.652a9.221 9.221 0 00-9.22 9.22v134.936c0 12.884-8.139 24.247-20.169 28.539-12.09 4.337-23.758 9.406-34.928 15.18-11.721 6.057-26.027 3.952-35.417-5.438l-95.973-95.973a9.21 9.21 0 00-13.035.001L147.906 238.9a9.218 9.218 0 000 13.044l99.221 99.221c9.067 9.037 11.39 22.701 6.062 34.233a287.871 287.871 0 00-12.483 31.962c-4.053 12.493-15.632 21.071-28.861 21.071H70.662a9.221 9.221 0 00-9.22 9.22v128.688a9.221 9.221 0 009.22 9.22h144.803c12.851 0 24.184 8.096 28.533 20.086a285.852 285.852 0 0012.302 28.863c5.703 11.647 3.502 25.653-5.737 34.892L147.9 772.063c-3.597 3.594-3.597 9.424.005 13.027l91.012 91.002c3.594 3.597 9.424 3.597 13.028-.006l103.008-103.008c9.215-9.185 23.175-11.413 34.781-5.745a287.088 287.088 0 0028.572 12.04c12.01 4.345 20.127 15.679 20.127 28.55V953.34a9.221 9.221 0 009.22 9.22h128.698a9.221 9.221 0 009.22-9.22V810.907c0-13.197 8.531-24.752 20.982-28.832a290.388 290.388 0 0031.081-12.211c11.534-5.328 25.182-3.01 34.226 6.034l100.205 100.195c3.593 3.596 9.428 3.596 13.028-.007l90.998-90.988c3.602-3.605 3.602-9.444.006-13.04l-96.949-96.949c-9.367-9.398-11.469-23.689-5.42-35.393 5.628-10.907 10.588-22.283 14.869-34.1 4.355-11.977 15.674-20.056 28.509-20.056h136.235a9.221 9.221 0 009.22-9.22V447.652a9.221 9.221 0 00-9.22-9.22zm0-40.96c27.713 0 50.18 22.467 50.18 50.18v128.688c0 27.713-22.467 50.18-50.18 50.18H824.502a329.929 329.929 0 01-10.926 25.092l91.482 91.482c19.589 19.589 19.589 51.354-.001 70.961l-90.998 90.988c-19.592 19.609-51.381 19.609-70.966.007l-95.004-94.994a331.648 331.648 0 01-21.562 8.483V953.34c0 27.713-22.467 50.18-50.18 50.18H447.649c-27.713 0-50.18-22.467-50.18-50.18V815.322a327.445 327.445 0 01-18.881-7.956l-97.683 97.683c-19.601 19.601-51.375 19.601-70.959.001l-91.006-90.996c-19.601-19.601-19.601-51.375 0-70.96l97.335-97.335a326.356 326.356 0 01-8.191-19.24H70.659c-27.713 0-50.18-22.467-50.18-50.18V447.651c0-27.713 22.467-50.18 50.18-50.18h133.523a328.832 328.832 0 018.805-22.517l-94.047-94.047c-19.6-19.6-19.6-51.37.001-70.971l90.998-90.988c19.591-19.608 51.365-19.608 70.966-.006l90.524 90.524a328.546 328.546 0 0126.041-11.3V70.661c0-27.713 22.467-50.18 50.18-50.18h128.698c27.713 0 50.18 22.467 50.18 50.18v124.312a327.958 327.958 0 0128.775 11.758l87.784-87.784c19.592-19.609 51.381-19.609 70.965-.007l91.012 91.002c19.582 19.599 19.582 51.359-.007 70.965l-88.152 88.143a327.948 327.948 0 0111.487 28.421h124.947zM655.36 506.88c0 82.007-66.473 148.48-148.48 148.48S358.4 588.887 358.4 506.88c0-82.007 66.473-148.48 148.48-148.48s148.48 66.473 148.48 148.48zm-40.96 0c0-59.386-48.134-107.52-107.52-107.52s-107.52 48.134-107.52 107.52c0 59.386 48.134 107.52 107.52 107.52S614.4 566.266 614.4 506.88z"/>
        </symbol>
        <symbol id="tv" viewBox="-3.68 0 58.71 58.71">
            <path d="M620.423,361.846H603.407l17.25-17.252a1.271,1.271,0,1,0-1.8-1.8l-19.046,19.049h-2.036l-9.671-9.673a1.281,1.281,0,0,0-1.8,0h0a1.273,1.273,0,0,0,0,1.8l7.872,7.874h-17.66a3.719,3.719,0,0,0-3.715,3.719v25.687a3.72,3.72,0,0,0,3.715,3.718h43.9a3.729,3.729,0,0,0,3.72-3.718V365.565A3.728,3.728,0,0,0,620.423,361.846Zm1.172,29.406a1.19,1.19,0,0,1-1.172,1.174h-43.9a1.187,1.187,0,0,1-1.172-1.174V365.565a1.191,1.191,0,0,1,1.172-1.178h43.9a1.194,1.194,0,0,1,1.172,1.178Zm-33.93,9.885h22.562v-2.543H587.665Z" transform="translate(-572.803 -342.427)"/>
        </symbol>
        <symbol id="turn-off" viewBox="0 0 24 24">
            <path d="M12 21C10.2211 20.9984 8.48259 20.4697 7.004 19.4807C5.52542 18.4916 4.37308 17.0866 3.69255 15.443C3.01201 13.7995 2.8338 11.9911 3.18041 10.2463C3.52702 8.50153 4.38292 6.89859 5.63999 5.63995C5.70894 5.56919 5.79135 5.51296 5.88238 5.47456C5.97341 5.43616 6.0712 5.41638 6.16999 5.41638C6.26879 5.41638 6.36658 5.43616 6.4576 5.47456C6.54863 5.51296 6.63105 5.56919 6.69999 5.63995C6.84044 5.78058 6.91933 5.9712 6.91933 6.16995C6.91933 6.3687 6.84044 6.55933 6.69999 6.69995C5.96312 7.38657 5.3721 8.21458 4.96218 9.13457C4.55226 10.0546 4.33184 11.0477 4.31408 12.0547C4.29631 13.0618 4.48155 14.062 4.85877 14.9959C5.23598 15.9298 5.79742 16.7781 6.50961 17.4903C7.2218 18.2025 8.07013 18.764 9.00402 19.1412C9.9379 19.5184 10.9382 19.7036 11.9452 19.6859C12.9522 19.6681 13.9454 19.4477 14.8654 19.0378C15.7854 18.6278 16.6134 18.0368 17.3 17.3C17.9978 16.605 18.5515 15.779 18.9294 14.8695C19.3072 13.96 19.5017 12.9848 19.5017 12C19.5017 11.0151 19.3072 10.0399 18.9294 9.13039C18.5515 8.22088 17.9978 7.39493 17.3 6.69995C17.1595 6.55933 17.0807 6.3687 17.0807 6.16995C17.0807 5.9712 17.1595 5.78058 17.3 5.63995C17.3689 5.56919 17.4514 5.51296 17.5424 5.47456C17.6334 5.43616 17.7312 5.41638 17.83 5.41638C17.9288 5.41638 18.0266 5.43616 18.1176 5.47456C18.2086 5.51296 18.291 5.56919 18.36 5.63995C19.6171 6.89859 20.473 8.50153 20.8196 10.2463C21.1662 11.9911 20.988 13.7995 20.3074 15.443C19.6269 17.0866 18.4746 18.4916 16.996 19.4807C15.5174 20.4697 13.7789 20.9984 12 21Z"/>
            <path d="M12 12.75C11.8019 12.7474 11.6126 12.6676 11.4725 12.5275C11.3324 12.3874 11.2526 12.1981 11.25 12V4C11.25 3.80109 11.329 3.61032 11.4697 3.46967C11.6103 3.32902 11.8011 3.25 12 3.25C12.1989 3.25 12.3897 3.32902 12.5303 3.46967C12.671 3.61032 12.75 3.80109 12.75 4V12C12.7474 12.1981 12.6676 12.3874 12.5275 12.5275C12.3874 12.6676 12.1981 12.7474 12 12.75Z"/>
        </symbol>
        <symbol id="user" viewBox="0 0 24 24" fill="none">
            <circle cx="12" cy="8" r="3.5" stroke="currentColor" stroke-linecap="round"/>
            <path d="M4.84913 16.9479C5.48883 14.6034 7.91473 13.5 10.345 13.5H13.655C16.0853 13.5 18.5112 14.6034 19.1509 16.9479C19.282 17.4287 19.3868 17.9489 19.4462 18.5015C19.5052 19.0507 19.0523 19.5 18.5 19.5H5.5C4.94772 19.5 4.49482 19.0507 4.55382 18.5015C4.6132 17.9489 4.71796 17.4287 4.84913 16.9479Z" stroke="currentColor" stroke-linecap="round"/>
        </symbol>
        <symbol id="arrow-right" viewBox="0 0 1024 1024">
            <path d="M340.864 149.312a30.592 30.592 0 0 0 0 42.752L652.736 512 340.864 831.872a30.592 30.592 0 0 0 0 42.752 29.12 29.12 0 0 0 41.728 0L714.24 534.336a32 32 0 0 0 0-44.672L382.592 149.376a29.12 29.12 0 0 0-41.728 0z"/>
        </symbol>
        <symbol id="close" viewBox="0 0 1024 1024">
            <path d="M764.288 214.592 512 466.88 259.712 214.592a31.936 31.936 0 0 0-45.12 45.12L466.752 512 214.528 764.224a31.936 31.936 0 1 0 45.12 45.184L512 557.184l252.288 252.288a31.936 31.936 0 0 0 45.12-45.12L557.12 512.064l252.288-252.352a31.936 31.936 0 1 0-45.12-45.184z"/>
        </symbol>
        <symbol id="check" viewBox="0 0 1024 1024">
            <path d="M512 1017.6C233.6 1017.6 7.2 790.4 7.2 512S233.6 6.4 512 6.4s505.6 226.4 505.6 505.6-226.4 505.6-505.6 505.6zM512 54.4C260 54.4 55.2 260 55.2 512s204.8 457.6 457.6 457.6 457.6-204.8 457.6-457.6S764.8 54.4 512 54.4z m-31.2 652s-0.8 0 0 0h-5.6v-0.8H472l-1.6-0.8c-0.8 0-0.8 0-1.6-0.8h-1.6l-0.8-0.8-2.4-0.8-1.6-1.6-202.4-170.4c-4.8-4-8-9.6-8.8-16-0.8-6.4 1.6-12.8 5.6-17.6 4.8-5.6 11.2-8.8 18.4-8.8 5.6 0 11.2 2.4 15.2 5.6l185.6 156.8 296.8-296.8c4.8-4.8 10.4-7.2 16.8-7.2s12.8 2.4 16.8 7.2c4.8 4.8 7.2 10.4 7.2 16.8s-2.4 12.8-7.2 16.8l-312 312-2.4 1.6-0.8 0.8c-0.8 0.8-1.6 0.8-2.4 1.6 0 0.8 0 0.8-0.8 0.8l-0.8 0.8c-0.8 0-2.4 0.8-2.4 0.8-0.8 0-0.8 0-1.6 0.8H480.8z" />
        </symbol>
        <symbol id="file-check" viewBox="0 0 32 32">
            <path d="M26.731 9.902c-0.005-0.035-0.011-0.066-0.019-0.095l0.001 0.005c-0.031-0.134-0.094-0.249-0.182-0.342l0 0-8-8c-0.092-0.087-0.207-0.15-0.335-0.181l-0.005-0.001c-0.027-0.008-0.059-0.014-0.092-0.019l-0.003-0c-0.026-0.007-0.059-0.014-0.092-0.019l-0.004-0h-12c-0.414 0-0.75 0.336-0.75 0.75v0 28c0 0.414 0.336 0.75 0.75 0.75h20c0.414-0 0.75-0.336 0.75-0.75v0-20c-0.005-0.038-0.012-0.071-0.020-0.103l0.001 0.005zM24.189 9.25h-5.439v-5.439zM6.75 29.25v-26.5h10.5v7.25c0 0.414 0.336 0.75 0.75 0.75h7.25v18.5zM20.311 15.494l-6.768 7.396-1.878-1.864c-0.135-0.133-0.321-0.216-0.527-0.216-0.415 0-0.751 0.336-0.751 0.751 0 0.208 0.084 0.396 0.221 0.531v0l2.432 2.414 0.016 0.007 0.006 0.013c0.13 0.122 0.306 0.197 0.499 0.197 0.199 0 0.38-0.080 0.512-0.21l-0 0 0.027-0.011 0.005-0.011 0.017-0.012 7.294-7.973c0.123-0.133 0.198-0.311 0.198-0.507 0-0.414-0.335-0.749-0.749-0.749-0.219 0-0.417 0.094-0.554 0.244l-0.001 0.001z"/>
        </symbol>
        <symbol id="file-times" viewBox="0 0 32 32">
            <path d="M26.731 9.902c-0.005-0.035-0.011-0.066-0.019-0.095l0.001 0.005c-0.031-0.134-0.094-0.249-0.182-0.342l0 0-8-8c-0.092-0.087-0.207-0.15-0.335-0.181l-0.005-0.001c-0.027-0.008-0.059-0.014-0.092-0.019l-0.003-0c-0.026-0.007-0.059-0.014-0.092-0.019l-0.004-0h-12c-0.414 0-0.75 0.336-0.75 0.75v0 28c0 0.414 0.336 0.75 0.75 0.75h20c0.414-0 0.75-0.336 0.75-0.75v0-20c-0.005-0.038-0.012-0.071-0.020-0.103l0.001 0.005zM24.189 9.25h-5.439v-5.439zM6.75 29.25v-26.5h10.5v7.25c0 0.414 0.336 0.75 0.75 0.75h7.25v18.5zM20.066 15.935c-0.136-0.136-0.324-0.22-0.531-0.22s-0.395 0.084-0.531 0.22v0l-3.004 3.004-3.005-3.004c-0.136-0.141-0.327-0.228-0.538-0.228-0.414 0-0.75 0.336-0.75 0.75 0 0.211 0.087 0.402 0.228 0.538l3.004 3.005-3.004 3.004c-0.136 0.136-0.22 0.324-0.22 0.531 0 0.415 0.336 0.751 0.751 0.751 0.207 0 0.395-0.084 0.53-0.219v0l3.005-3.005 3.004 3.005c0.136 0.136 0.324 0.22 0.531 0.22 0.415 0 0.751-0.336 0.751-0.751 0-0.207-0.084-0.395-0.22-0.531l-3.005-3.004 3.005-3.005c0.135-0.136 0.218-0.323 0.218-0.53s-0.083-0.394-0.218-0.53l0 0z"/>
        </symbol>
        <symbol id="dollar" viewBox="0 0 24 24">
           <path d="M12,21.953c-.895,0-1.545-.743-2.118-1.4a3.671,3.671,0,0,0-1.033-.946,3.8,3.8,0,0,0-1.466-.077,3.012,3.012,0,0,1-2.421-.494,3.014,3.014,0,0,1-.494-2.421,3.82,3.82,0,0,0-.077-1.466,3.671,3.671,0,0,0-.946-1.033c-.655-.573-1.4-1.222-1.4-2.118s.743-1.545,1.4-2.118a3.66,3.66,0,0,0,.946-1.034,3.815,3.815,0,0,0,.077-1.465,3.012,3.012,0,0,1,.494-2.421,3.015,3.015,0,0,1,2.422-.5A3.794,3.794,0,0,0,8.849,4.39a3.666,3.666,0,0,0,1.033-.945c.573-.655,1.223-1.4,2.118-1.4s1.545.742,2.118,1.4a3.66,3.66,0,0,0,1.034.946,3.807,3.807,0,0,0,1.464.077,3.018,3.018,0,0,1,2.422.5,3.012,3.012,0,0,1,.5,2.422,3.81,3.81,0,0,0,.077,1.464,3.66,3.66,0,0,0,.946,1.034c.655.573,1.4,1.223,1.4,2.118s-.743,1.545-1.4,2.118a3.666,3.666,0,0,0-.945,1.033,3.815,3.815,0,0,0-.077,1.465,3.012,3.012,0,0,1-.5,2.422,3.018,3.018,0,0,1-2.421.494,3.818,3.818,0,0,0-1.465.077,3.673,3.673,0,0,0-1.034.946C13.545,21.21,12.9,21.953,12,21.953ZM8.093,18.5a2.952,2.952,0,0,1,1.138.183,4.233,4.233,0,0,1,1.4,1.21c.454.52.924,1.057,1.365,1.057s.911-.537,1.366-1.057a4.225,4.225,0,0,1,1.4-1.21,4.365,4.365,0,0,1,1.908-.152c.672.041,1.366.085,1.653-.2s.245-.982.2-1.653a4.387,4.387,0,0,1,.152-1.909,4.241,4.241,0,0,1,1.209-1.4c.52-.454,1.057-.924,1.057-1.365s-.537-.911-1.057-1.365a4.234,4.234,0,0,1-1.209-1.4,4.381,4.381,0,0,1-.152-1.908c.041-.671.084-1.365-.2-1.653s-.982-.246-1.653-.2a4.384,4.384,0,0,1-1.908-.152,4.234,4.234,0,0,1-1.4-1.209c-.454-.52-.924-1.057-1.365-1.057s-.911.537-1.365,1.057a4.241,4.241,0,0,1-1.4,1.209,4.417,4.417,0,0,1-1.909.152c-.67-.041-1.364-.084-1.653.2s-.244.981-.2,1.652A4.37,4.37,0,0,1,5.314,9.23a4.226,4.226,0,0,1-1.21,1.4c-.52.454-1.057.925-1.057,1.365s.537.911,1.057,1.366a4.238,4.238,0,0,1,1.21,1.4,4.378,4.378,0,0,1,.152,1.91c-.041.672-.084,1.366.2,1.653s.98.245,1.653.2C7.578,18.519,7.838,18.5,8.093,18.5Z"/>
           <path d="M14.5,13.5a2.006,2.006,0,0,1-2,2v1.01A.5.5,0,0,1,12,17a.492.492,0,0,1-.5-.49V15.5h-1.25a.5.5,0,0,1-.5-.5.5.5,0,0,1,.5-.5H12.5a1,1,0,1,0,0-2h-1a2,2,0,0,1,0-4V7.453A.473.473,0,0,1,12,7a.48.48,0,0,1,.5.45V8.5h1.25a.5.5,0,0,1,.5.5.508.508,0,0,1-.5.5H11.5a1,1,0,0,0,0,2h1A2,2,0,0,1,14.5,13.5Z"/>
        </symbol>
        <symbol id="print" viewBox="0 0 32 32">
            <path d="M30 14.25h-3.25v-8.25c0-0 0-0.001 0-0.001 0-0.206-0.084-0.393-0.219-0.529v0l-4-4c-0.136-0.136-0.324-0.22-0.531-0.22-0 0-0 0-0 0h-17c-0.414 0-0.75 0.336-0.75 0.75v0 12.25h-2.25c-0.414 0-0.75 0.336-0.75 0.75v0 9c0 0.414 0.336 0.75 0.75 0.75s0.75-0.336 0.75-0.75v0-8.25h26.5v8.25c0 0.414 0.336 0.75 0.75 0.75s0.75-0.336 0.75-0.75v0-9c-0-0.414-0.336-0.75-0.75-0.75v0zM5.75 2.75h15.939l3.561 3.561v7.939h-19.5zM26 21.25h-20c-0.414 0-0.75 0.336-0.75 0.75v0 8c0 0.414 0.336 0.75 0.75 0.75h20c0.414-0 0.75-0.336 0.75-0.75v0-8c-0-0.414-0.336-0.75-0.75-0.75v0zM25.25 29.25h-18.5v-6.5h18.5zM26.279 19.199c0.178-0.099 0.322-0.242 0.417-0.415l0.003-0.005c0.027-0.067 0.043-0.145 0.043-0.227 0-0.018-0.001-0.037-0.002-0.054l0 0.002c-0.004-0.21-0.087-0.399-0.221-0.54l0 0c-0.142-0.122-0.327-0.196-0.53-0.196s-0.389 0.074-0.531 0.196l0.001-0.001c-0.122 0.145-0.197 0.334-0.199 0.54v0c-0.001 0.011-0.001 0.024-0.001 0.037 0 0.189 0.077 0.359 0.2 0.483v0c0.132 0.136 0.317 0.221 0.521 0.221 0.007 0 0.014-0 0.021-0l-0.001 0c0.016 0.001 0.034 0.002 0.052 0.002 0.082 0 0.16-0.016 0.231-0.045l-0.004 0.001z"/>
        </symbol>
    </defs>
</svg>
